<svg width="126" height="16" viewBox="0 0 126 16" fill="none" xmlns="http://www.w3.org/2000/svg">
<path d="M25.9999 8C25.9999 12.3897 22.5199 16 18.1999 16C13.9199 16 10.3999 12.3897 10.3999 8C10.3999 3.61026 13.8799 0 18.1599 0C22.5199 0 25.9999 3.61026 25.9999 8Z" fill="#F9B50B"/>
<path d="M15.56 8.04103C15.56 7.46667 15.48 6.89231 15.4 6.35897H10.6C10.64 6.07179 10.72 5.82564 10.8 5.49744H15.08C15 5.21026 14.88 4.92308 14.76 4.6359H11.12C11.24 4.34872 11.4 4.10256 11.56 3.77436H14.32C14.16 3.48718 13.96 3.2 13.72 2.91282H12.2C12.44 2.62564 12.68 2.37949 13 2.09231C11.64 0.779487 9.8 0 7.76 0C3.52 0.123077 0 3.61026 0 8C0 12.3897 3.48 16 7.8 16C9.84 16 11.64 15.1795 13.04 13.9077C13.32 13.6615 13.56 13.3744 13.84 13.0462H12.24C12.04 12.8 11.84 12.5128 11.68 12.2256H14.4C14.56 11.9795 14.72 11.6923 14.84 11.3641H11.2C11.08 11.1179 10.96 10.8308 10.88 10.5026H15.16C15.4 9.7641 15.56 8.94359 15.56 8.04103Z" fill="#C8191C"/>
<path d="M10.5599 10.0512L10.6799 9.31274C10.6399 9.31274 10.5599 9.35377 10.4799 9.35377C10.1999 9.35377 10.1599 9.18967 10.1999 9.10762L10.4399 7.63069H10.8799L10.9999 6.81018H10.5999L10.6799 6.31787H9.83986C9.83986 6.31787 9.35986 9.10761 9.35986 9.43582C9.35986 9.92813 9.63986 10.1743 10.0399 10.1743C10.2799 10.1743 10.4799 10.0922 10.5599 10.0512Z" fill="white"/>
<path d="M10.8398 8.69733C10.8398 9.88707 11.6398 10.1743 12.2798 10.1743C12.8798 10.1743 13.1598 10.0512 13.1598 10.0512L13.3198 9.23066C13.3198 9.23066 12.8798 9.43579 12.4398 9.43579C11.5198 9.43579 11.6798 8.73835 11.6798 8.73835H13.3598C13.3598 8.73835 13.4798 8.20502 13.4798 7.95887C13.4798 7.42553 13.1998 6.7281 12.2798 6.7281C11.4798 6.68707 10.8398 7.63066 10.8398 8.69733ZM12.2798 7.46656C12.7198 7.46656 12.6398 7.99989 12.6398 8.04092H11.7198C11.7598 7.99989 11.8398 7.46656 12.2798 7.46656Z" fill="white"/>
<path d="M17.5202 10.0513L17.6802 9.10772C17.6802 9.10772 17.2802 9.31284 16.9602 9.31284C16.4002 9.31284 16.1202 8.86156 16.1202 8.32823C16.1202 7.30259 16.6002 6.76925 17.2002 6.76925C17.6002 6.76925 17.9602 7.01541 17.9602 7.01541L18.0802 6.11284C18.0802 6.11284 17.6002 5.90771 17.1202 5.90771C16.1602 5.90771 15.2402 6.76925 15.2402 8.36925C15.2402 9.43592 15.7202 10.1334 16.7202 10.1334C17.0802 10.1744 17.5202 10.0513 17.5202 10.0513Z" fill="white"/>
<path d="M6.03998 6.68726C5.47998 6.68726 5.03998 6.85136 5.03998 6.85136L4.91998 7.58982C4.91998 7.58982 5.27998 7.42572 5.83998 7.42572C6.11998 7.42572 6.35998 7.46674 6.35998 7.7129C6.35998 7.877 6.31998 7.91803 6.31998 7.91803H5.95998C5.23998 7.91803 4.47998 8.2052 4.47998 9.18982C4.47998 9.96931 4.95998 10.1334 5.27998 10.1334C5.83998 10.1334 6.11998 9.76418 6.15998 9.76418L6.11998 10.0924H6.79998L7.11998 7.75392C7.11998 6.72828 6.31998 6.68726 6.03998 6.68726ZM6.19998 8.57444C6.19998 8.69751 6.11998 9.39495 5.63998 9.39495C5.39998 9.39495 5.31998 9.18982 5.31998 9.06674C5.31998 8.86162 5.43998 8.57444 6.07998 8.57444C6.15998 8.57444 6.19998 8.57444 6.19998 8.57444Z" fill="white"/>
<path d="M7.91992 10.1334C8.11992 10.1334 9.15992 10.1744 9.15992 9.02573C9.15992 7.95906 8.15992 8.16419 8.15992 7.75393C8.15992 7.5488 8.31992 7.46675 8.59992 7.46675C8.71992 7.46675 9.15992 7.50778 9.15992 7.50778L9.27992 6.72829C9.27992 6.72829 8.99992 6.64624 8.47992 6.64624C7.87992 6.64624 7.23992 6.89239 7.23992 7.75393C7.23992 8.73855 8.27992 8.6565 8.27992 9.02573C8.27992 9.27188 7.99992 9.31291 7.79992 9.31291C7.43992 9.31291 7.03992 9.18983 7.03992 9.18983L6.91992 9.96932C6.99992 10.0514 7.23992 10.1334 7.91992 10.1334Z" fill="white"/>
<path d="M24.4 6.03076L24.24 7.17948C24.24 7.17948 23.92 6.76922 23.44 6.76922C22.68 6.76922 22.04 7.71281 22.04 8.82051C22.04 9.51794 22.36 10.2154 23.08 10.2154C23.56 10.2154 23.88 9.88717 23.88 9.88717L23.84 10.1744H24.68L25.28 6.11281L24.4 6.03076ZM24 8.24615C24 8.69743 23.8 9.31281 23.32 9.31281C23.04 9.31281 22.88 9.06666 22.88 8.61538C22.88 7.91794 23.16 7.50768 23.56 7.50768C23.84 7.54871 24 7.75384 24 8.24615Z" fill="white"/>
<path d="M1.52021 10.0923L2.00021 7.0564L2.08021 10.0923H2.64022L3.72022 7.0564L3.28021 10.0923H4.16021L4.84022 6.03076H3.48021L2.64022 8.53333L2.60021 6.03076H1.40021L0.720215 10.0923H1.52021Z" fill="white"/>
<path d="M14.3199 10.0924C14.5599 8.69749 14.5999 7.54877 15.1999 7.7539C15.2799 7.22057 15.3999 6.97442 15.4799 6.76929H15.3199C14.9599 6.76929 14.6399 7.2616 14.6399 7.2616L14.7199 6.81031H13.9199L13.3999 10.0924H14.3199V10.0924Z" fill="white"/>
<path d="M19.4399 6.68726C18.8799 6.68726 18.4399 6.85136 18.4399 6.85136L18.3199 7.58982C18.3199 7.58982 18.6799 7.42572 19.2399 7.42572C19.5199 7.42572 19.7599 7.46674 19.7599 7.7129C19.7599 7.877 19.7199 7.91803 19.7199 7.91803H19.3599C18.6399 7.91803 17.8799 8.2052 17.8799 9.18982C17.8799 9.96931 18.3599 10.1334 18.6799 10.1334C19.2399 10.1334 19.5199 9.76418 19.5599 9.76418L19.5199 10.0924H20.2799L20.5999 7.75392C20.5999 6.72828 19.7199 6.68726 19.4399 6.68726ZM19.6399 8.57444C19.6399 8.69751 19.5599 9.39495 19.0799 9.39495C18.8399 9.39495 18.7599 9.18982 18.7599 9.06674C18.7599 8.86162 18.8799 8.57444 19.5199 8.57444C19.5999 8.57444 19.5999 8.57444 19.6399 8.57444Z" fill="white"/>
<path d="M21.2398 10.0924C21.4798 8.69749 21.5198 7.54877 22.1198 7.7539C22.1998 7.22057 22.3198 6.97442 22.3998 6.76929H22.2398C21.8798 6.76929 21.5598 7.2616 21.5598 7.2616L21.6398 6.81031H20.8398L20.3198 10.0924H21.2398V10.0924Z" fill="white"/>
<path d="M72.3774 2.17139H69.9256C69.1844 2.17139 68.6142 2.39996 68.2721 3.14282L63.5967 13.8285H66.9037C66.9037 13.8285 67.4739 12.4 67.5879 12.0571C67.93 12.0571 71.18 12.0571 71.6362 12.0571C71.7502 12.4571 72.0353 13.7714 72.0353 13.7714H75.0002L72.3774 2.17139ZM68.5002 9.6571C68.7853 8.97139 69.7546 6.39996 69.7546 6.39996C69.7546 6.4571 70.0397 5.71424 70.1537 5.31424L70.3818 6.34282C70.3818 6.34282 71.009 9.14282 71.123 9.71424H68.5002V9.6571Z" fill="#3362AB"/>
<path d="M63.8246 10C63.8246 12.4 61.6579 14 58.2939 14C56.8684 14 55.5 13.7143 54.7588 13.3714L55.2149 10.7429L55.6141 10.9143C56.6404 11.3714 57.3246 11.5429 58.579 11.5429C59.4912 11.5429 60.4605 11.2 60.4605 10.4C60.4605 9.88571 60.0614 9.54286 58.807 8.97143C57.6097 8.4 56.0132 7.48571 56.0132 5.82857C56.0132 3.54286 58.2369 2 61.3728 2C62.5702 2 63.5965 2.22857 64.2237 2.51429L63.7676 5.02857L63.5395 4.8C62.9693 4.57143 62.2281 4.34286 61.1448 4.34286C59.9474 4.4 59.3772 4.91429 59.3772 5.37143C59.3772 5.88571 60.0614 6.28571 61.1448 6.8C62.9693 7.65714 63.8246 8.62857 63.8246 10Z" fill="#3362AB"/>
<path d="M36 2.2857L36.057 2.05713H40.9605C41.6447 2.05713 42.1579 2.2857 42.3289 3.02856L43.4123 8.17141C42.3289 5.42856 39.8202 3.19999 36 2.2857Z" fill="#F9B50B"/>
<path d="M50.3112 2.1714L45.3507 13.7714H41.9866L39.1357 4.05711C41.1884 5.3714 42.8989 7.42854 43.5261 8.85711L43.8682 10.0571L46.9471 2.11426H50.3112V2.1714Z" fill="#3362AB"/>
<path d="M51.6226 2.11426H54.7585L52.7629 13.7714H49.627L51.6226 2.11426Z" fill="#3362AB"/>
<path d="M121.785 2H113.892C114.351 4.63226 116.88 7.10968 119.639 7.10968H125.923C126 6.87742 126 6.49032 126 6.25806C126 3.93548 124.084 2 121.785 2Z" fill="url(#paint0_linear_2208_25184)"/>
<path d="M114.582 7.57422V14H118.413V10.5936H121.785C123.625 10.5936 125.234 9.27744 125.77 7.57422H114.582Z" fill="#4FAD50"/>
<path d="M101.093 2V13.9226H104.465C104.465 13.9226 105.308 13.9226 105.768 13.071C108.067 8.50323 108.757 7.10968 108.757 7.10968H109.217V13.9226H113.048V2H109.676C109.676 2 108.833 2.07742 108.374 2.85162C106.458 6.8 105.385 8.81291 105.385 8.81291H104.925V2H101.093Z" fill="#4FAD50"/>
<path d="M85 14V2.07739H88.8318C88.8318 2.07739 89.9047 2.07739 90.5178 3.78062C92.0505 8.27094 92.2038 8.8903 92.2038 8.8903C92.2038 8.8903 92.5103 7.80642 93.8897 3.78062C94.5028 2.07739 95.5757 2.07739 95.5757 2.07739H99.4075V14H95.5757V7.57417H95.1159L92.9701 14H91.2841L89.1383 7.57417H88.6785V14H85Z" fill="#4FAD50"/>
<defs>
<linearGradient id="paint0_linear_2208_25184" x1="113.878" y1="4.59146" x2="125.973" y2="4.59146" gradientUnits="userSpaceOnUse">
<stop stop-color="#27B1E6"/>
<stop offset="1" stop-color="#148ACA"/>
</linearGradient>
</defs>
</svg>
