<svg width="62" height="12" viewBox="0 0 62 12" fill="none" xmlns="http://www.w3.org/2000/svg">
<path d="M60.0699 3.55225V5.60153H57.3295V3.55225H55.981V8.96872H57.3295V6.78186H60.0699V8.96872H61.4257V3.55225H60.0699Z" fill="#00B956"/>
<path d="M36.4663 3.4292C36.899 3.42923 37.3531 3.66827 37.5767 4.16064L39.7837 8.96924H38.3481L37.8657 7.82471H35.0669L34.5845 8.96924H33.1489L35.356 4.16064C35.5795 3.66827 36.0336 3.4292 36.4663 3.4292ZM36.4663 4.69678C36.4303 4.69678 36.3868 4.71802 36.3579 4.77588L35.5288 6.73877H37.4038L36.5747 4.77588C36.5531 4.71083 36.5023 4.6968 36.4663 4.69678Z" fill="#00B956"/>
<path d="M21.5027 2.57471C20.868 2.57471 20.4642 2.91505 20.1685 3.59573L18.4089 7.66532L16.6493 3.59573C16.3536 2.91505 15.9498 2.57471 15.3152 2.57471C14.7238 2.57471 14.1108 3.00194 14.1108 3.92158V8.96875H15.4594V4.06641L17.2334 8.10704C17.4714 8.67186 17.8536 9.02668 18.4089 9.02668V9.02668V9.02668C18.9642 9.02668 19.3464 8.67186 19.5844 8.10704L21.3584 4.06641V8.96875H22.707V3.92883C22.707 3.00194 22.094 2.57471 21.5027 2.57471" fill="#00B956"/>
<path d="M25.0723 7.81012C25.0074 7.81012 24.957 7.75943 24.957 7.69426V6.74565H28.3247V5.63773H24.957V4.81223C24.957 4.74706 25.0074 4.69637 25.0723 4.69637H28.4041V3.55225H24.4089C23.9401 3.55225 23.6084 3.94327 23.6084 4.35603V8.15046C23.6084 8.56321 23.9473 8.95424 24.4089 8.95424H28.4041V7.81012H25.0723Z" fill="#00B956"/>
<path d="M30.6972 8.9688V4.81955C30.6972 4.75438 30.7477 4.70369 30.8126 4.70369H34.1443V3.55957H30.1491C29.6804 3.55957 29.3486 3.9506 29.3486 4.36335V8.9688H30.6972Z" fill="#00B956"/>
<path d="M52.231 3.47266C54.2715 3.47274 55.0863 4.35607 55.0864 6.25293C55.0864 8.12116 54.2571 9.01951 52.2163 9.01953H51.769C49.7282 9.01951 48.8989 8.12116 48.8989 6.25293C48.899 4.35607 49.7067 3.47274 51.7544 3.47266H52.231ZM51.7759 4.60254C50.5935 4.60268 50.2114 5.14556 50.2114 6.24609V6.25293C50.2114 7.38966 50.6512 7.89733 51.7759 7.89746H52.2095C53.3269 7.89732 53.7739 7.38966 53.7739 6.25293V6.24609C53.7739 5.14556 53.3558 4.60268 52.2095 4.60254H51.7759Z" fill="#00B956"/>
<path d="M45.1353 2.70508C47.1252 2.70523 47.9258 3.71885 47.9331 5.48535C47.9331 5.76036 47.9115 6.01409 47.8755 6.25293C47.6664 7.5056 46.9306 8.27335 45.063 8.27344H44.479V8.96875H43.1304V8.27344H42.5386C40.6708 8.27342 39.9352 7.50565 39.7261 6.25293C39.6829 6.01408 39.6685 5.76038 39.6685 5.48535C39.6686 3.71871 40.462 2.70508 42.4595 2.70508H45.1353ZM42.2935 3.8418C41.5147 3.8418 40.9811 4.33426 40.981 5.48535C40.981 5.78206 40.9809 6.043 41.0601 6.25293C41.262 6.78875 41.5867 7.12985 42.5024 7.12988H43.1226V3.8418H42.2935ZM44.4712 3.8418V7.12988H45.0913C46 7.12988 46.3318 6.78878 46.5337 6.25293C46.6129 6.04298 46.6128 5.78211 46.6128 5.48535C46.6127 4.32702 46.0791 3.8418 45.3003 3.8418H44.4712Z" fill="#00B956"/>
<path d="M6.64697 0.612305C9.31508 0.93818 11.3847 3.22622 11.3921 5.99219C11.3921 8.98993 8.96926 11.4236 5.98389 11.4238C5.81802 11.4238 5.65171 11.4158 5.48584 11.4014V6.70898C5.48607 6.6802 5.50764 6.65141 5.54346 6.65137H6.20654C6.44448 6.65137 6.64689 6.45609 6.64697 6.20996V0.612305ZM6.53174 7.60059C6.15674 7.60059 5.854 7.9047 5.854 8.28125C5.85424 8.6576 6.15688 8.96191 6.53174 8.96191C6.90649 8.96179 7.20924 8.65752 7.20947 8.28125C7.20947 7.90478 6.90663 7.60071 6.53174 7.60059ZM8.11768 7.60059C7.74285 7.60079 7.43994 7.90483 7.43994 8.28125C7.44017 8.65747 7.74299 8.96171 8.11768 8.96191C8.49253 8.96191 8.79615 8.6576 8.79639 8.28125C8.79639 7.9047 8.49268 7.60059 8.11768 7.60059ZM9.70459 7.60059C9.32959 7.60059 9.02686 7.9047 9.02686 8.28125C9.02709 8.6576 9.32973 8.96191 9.70459 8.96191C10.0794 8.96191 10.3821 8.65759 10.3823 8.28125C10.3823 7.90471 10.0796 7.60059 9.70459 7.60059Z" fill="#00B956"/>
<path d="M5.99023 0.568848V5.94189C5.99022 5.97809 5.96146 5.99951 5.93262 5.99951H5.25488C5.02418 6.00675 4.83641 6.20244 4.8291 6.43408V11.3081C2.3917 10.7794 0.567383 8.6063 0.567383 5.99951C0.56754 3.00191 2.99031 0.569091 5.97559 0.568848H5.99023ZM4.9375 3.68213C4.56269 3.68217 4.26002 3.98649 4.25977 4.36279C4.25977 4.73931 4.56253 5.04439 4.9375 5.04443C5.3125 5.04443 5.61523 4.73934 5.61523 4.36279C5.61498 3.98647 5.31234 3.68213 4.9375 3.68213Z" fill="#00B956"/>
</svg>
