<svg width="340" height="171" viewBox="0 0 340 171" fill="none" xmlns="http://www.w3.org/2000/svg">
<path d="M56.1147 120.688V98.4601H4.14307V82.9486L52.1169 8.74902H80.5814V79.5904H91.6154V98.4601H80.5814V120.688H56.1147ZM28.4498 79.5904H56.1147V36.254L28.4498 79.5904Z" fill="url(#paint0_linear_2001_139695)"/>
<path d="M209.814 97.8534L200.014 107.683L213.076 120.784L222.876 110.954L209.814 97.8534Z" fill="#B2B2CC"/>
<path d="M220.162 106.773C220.367 106.568 220.61 106.405 220.877 106.294C221.145 106.183 221.432 106.125 221.721 106.125C222.011 106.125 222.298 106.183 222.565 106.294C222.833 106.405 223.076 106.568 223.28 106.773L264.954 148.572C266.839 150.488 267.892 153.074 267.884 155.766C267.875 158.459 266.805 161.038 264.907 162.942C263.009 164.845 260.437 165.919 257.753 165.928C255.069 165.937 252.491 164.881 250.58 162.99L208.906 121.19C208.701 120.985 208.538 120.741 208.428 120.473C208.317 120.204 208.26 119.917 208.26 119.626C208.26 119.336 208.317 119.048 208.428 118.78C208.538 118.511 208.701 118.268 208.906 118.062L220.162 106.773Z" fill="#242456"/>
<path opacity="0.43" d="M166.455 121.652C198.094 121.652 223.743 95.9263 223.743 64.192C223.743 32.4577 198.094 6.73193 166.455 6.73193C134.816 6.73193 109.167 32.4577 109.167 64.192C109.167 95.9263 134.816 121.652 166.455 121.652Z" fill="#A4D9F7"/>
<path opacity="0.42" d="M164.645 19.3836C164.604 18.8565 164.452 18.3442 164.198 17.8807C163.945 17.4172 163.595 17.0132 163.174 16.6955C162.753 16.3778 162.269 16.1537 161.754 16.0382C161.24 15.9227 160.707 15.9184 160.191 16.0255C141.997 19.843 126.162 33.9395 120.548 51.7658C120.128 53.0995 119.785 54.6412 120.53 55.8229C121.587 57.5014 124.259 57.3062 125.745 55.9901C127.231 54.6739 127.859 52.6752 128.558 50.8178C134.111 36.0691 146.133 25.2385 161.375 23.3788C162.329 23.2655 163.203 22.7864 163.813 22.0417C164.423 21.2971 164.722 20.3446 164.648 19.3836H164.645Z" fill="white"/>
<path opacity="0.42" d="M125.465 67.8738C125.465 70.8217 124.486 73.2109 122.37 73.2109C120.254 73.2109 118.537 70.8217 118.537 67.8738C118.537 64.926 120.254 62.5356 122.37 62.5356C124.486 62.5356 125.465 64.926 125.465 67.8738Z" fill="white"/>
<path opacity="0.07" d="M223.743 64.1986C223.743 95.9332 198.093 121.659 166.454 121.659C140.607 121.659 118.758 104.49 111.624 80.9028C119.906 100.527 139.283 114.297 161.868 114.297C191.986 114.297 216.407 89.806 216.407 59.5944C216.407 36.9395 202.677 17.5025 183.108 9.19775C206.622 16.3512 223.743 38.2685 223.743 64.1986Z" fill="black"/>
<path d="M166.454 124.898C151.497 124.879 137.08 119.289 125.999 109.211C114.919 99.1337 107.965 85.2877 106.487 70.3588C105.009 55.4299 109.111 40.4825 117.999 28.416C126.887 16.3495 139.926 8.02416 154.588 5.05483C169.249 2.08551 184.488 4.68392 197.347 12.346C210.207 20.0081 219.77 32.1877 224.183 46.5222C228.596 60.8567 227.544 76.3242 221.23 89.9244C214.916 103.525 203.791 114.288 190.013 120.127C182.56 123.291 174.547 124.913 166.454 124.898ZM166.454 9.97652C153.099 9.99493 140.227 14.9878 130.334 23.9867C120.442 32.9857 114.234 45.3491 112.916 58.6788C111.597 72.0086 115.262 85.3544 123.198 96.1276C131.135 106.901 142.778 114.333 155.869 116.984C168.96 119.634 182.566 117.313 194.047 110.471C205.529 103.629 214.067 92.7532 218.007 79.954C221.946 67.1549 221.006 53.3443 215.368 41.2013C209.73 29.0583 199.796 19.4485 187.494 14.2359C180.838 11.4108 173.682 9.96211 166.454 9.97652Z" fill="#D9D9E8"/>
<path d="M166.456 119.515C152.82 119.503 139.676 114.41 129.572 105.227C119.468 96.043 113.125 83.4225 111.773 69.8135C110.422 56.2045 114.158 42.577 122.257 31.5747C130.357 20.5725 142.242 12.9797 155.607 10.2692C168.971 7.55882 182.864 9.92401 194.588 16.906C206.313 23.888 215.034 34.989 219.06 48.0557C223.086 61.1223 222.13 75.223 216.377 87.6225C210.624 100.022 200.484 109.836 187.925 115.161C181.134 118.047 173.831 119.528 166.456 119.515ZM166.456 11.3315C153.434 11.3485 140.883 16.216 131.237 24.9896C121.591 33.7632 115.538 45.8176 114.251 58.8144C112.965 71.8111 116.537 84.8239 124.275 95.3284C132.013 105.833 143.365 113.08 156.13 115.665C168.894 118.249 182.16 115.987 193.355 109.316C204.549 102.645 212.875 92.0411 216.716 79.5616C220.558 67.0822 219.641 53.6165 214.144 41.7767C208.647 29.9369 198.961 20.5669 186.966 15.4844C180.477 12.7307 173.501 11.3182 166.456 11.3315Z" fill="#B2B2CC"/>
<path d="M299.001 120.688V98.4601H247.029V82.9486L295.003 8.74902H323.468V79.5904H334.502V98.4601H323.468V120.688H299.001ZM271.336 79.5904H299.001V36.254L271.336 79.5904Z" fill="url(#paint1_linear_2001_139695)"/>
<defs>
<linearGradient id="paint0_linear_2001_139695" x1="4.14307" y1="8.74902" x2="91.9637" y2="9.30105" gradientUnits="userSpaceOnUse">
<stop stop-color="#0F1B33"/>
<stop offset="1" stop-color="#3D5D9C"/>
</linearGradient>
<linearGradient id="paint1_linear_2001_139695" x1="247.029" y1="8.74902" x2="334.85" y2="9.30105" gradientUnits="userSpaceOnUse">
<stop stop-color="#0F1B33"/>
<stop offset="1" stop-color="#3D5D9C"/>
</linearGradient>
</defs>
</svg>
