<svg width="64" height="64" viewBox="0 0 64 64" fill="none" xmlns="http://www.w3.org/2000/svg">
<rect width="64" height="64" rx="32" fill="white" fill-opacity="0.06"/>
<path opacity="0.7" d="M45.2923 22.7155L45.1188 22.9585C45.2229 22.2643 45.0841 21.2923 44.9106 20.7369C44.6676 21.6395 44.2164 22.4378 43.5917 23.2015L43.557 22.7502C42.8282 23.8957 41.9258 24.8329 40.9194 25.2842C40.9194 25.1106 40.8847 24.9024 40.8153 24.7635C39.4964 26.4991 36.3035 26.0826 36.6506 29.5884C37.3794 29.4843 37.7264 30.2132 37.1017 30.9075C36.8241 30.9075 36.5465 30.8033 36.3035 30.6645L36.4423 30.4562L35.887 30.1785C36.0259 30.1438 36.1647 30.0744 36.3035 30.005C35.4706 29.5884 35.7482 28.7901 34.7765 28.3735C34.6029 28.2 34.4641 27.957 34.36 27.714C34.3253 27.5404 34.2906 27.3322 34.2559 27.1239C34.2559 26.7074 34.2559 26.4644 34.36 26.2908L34.4294 26.395C34.6723 25.8396 34.9847 25.423 35.4012 25.1801C36.5465 25.2148 37.2059 25.1454 37.4141 24.4511C37.3447 24.4858 37.31 24.4858 37.2753 24.4858C37.2406 24.4164 37.2059 24.3817 37.1712 24.347C37.4488 24.2428 37.8653 24.4164 37.9694 24.4164C37.9347 24.0693 37.7958 23.9652 37.7264 23.8263L38.1082 23.5486C39.08 23.861 39.9129 23.1321 40.5029 23.4445L40.7111 22.7155C39.8435 22.299 39.3229 22.8544 38.5941 22.8544C38.8023 22.4031 38.837 21.9866 38.6635 21.57L37.9 21.3271C36.9629 21.6048 36.9976 22.4726 37.3447 23.0626C37.1365 23.2709 36.9282 23.3751 36.7894 23.4445L36.5465 23.4792C36.5465 23.4792 36.5117 23.1668 36.0953 23.0626V22.8544C36.6159 22.4378 36.6506 22.0213 36.5465 21.7783C36.4423 21.5353 36.1647 21.3965 35.9218 21.4659L35.5747 21.57L35.54 21.5006C35.5747 21.4659 35.5747 21.4312 35.5747 21.3965C35.5747 21.3271 35.54 21.2577 35.5053 21.2229H35.54L35.5053 21.0841L35.6441 21.1188V20.6328L35.5053 20.6675L35.54 20.5287H35.0541L35.0888 20.6675L34.95 20.6328V21.1188L35.0888 21.0841L34.95 21.2577H35.0194C34.9847 21.2923 34.95 21.3618 34.95 21.4312C34.95 21.4659 34.95 21.5353 34.9847 21.57L34.95 21.6395L34.6029 21.5353C34.36 21.4659 34.0823 21.57 33.9782 21.8477C33.8741 22.0907 33.9088 22.4726 34.4294 22.9238V23.2015H34.0476C33.6312 22.9585 33.2841 22.542 33.18 22.0213C33.4576 21.9866 33.6659 21.8825 33.8394 21.7089V20.98C34.95 20.1469 35.2624 19.0361 34.2906 18.5501C33.7353 18.2724 33.0412 18.5154 32.6941 18.7931C32.6247 18.689 32.5206 18.5848 32.4165 18.5501C32.4165 18.446 32.3818 18.3419 32.2777 18.2377H32.3471L32.2777 17.9947L32.5206 18.0642V17.3005L32.2777 17.3699L32.3471 17.127H31.5835L31.6529 17.3699L31.41 17.3005V18.0642L31.6529 17.9947L31.5835 18.2377H31.6529C31.5835 18.3071 31.5141 18.4113 31.5141 18.5501V18.5848C31.4447 18.6196 31.3406 18.7237 31.2712 18.7931C30.9241 18.5154 30.23 18.2724 29.7094 18.5501C28.7376 19.0361 29.05 20.1469 30.1606 20.98V21.7089C30.3341 21.8825 30.5771 21.9866 30.82 22.0213C30.7159 22.5072 30.3688 22.9238 29.9524 23.2015H29.5706V22.8891C30.0912 22.4726 30.1259 22.056 30.0218 21.813C29.9177 21.57 29.64 21.4312 29.3971 21.5006L29.05 21.6048L29.0153 21.5353C29.05 21.5006 29.05 21.4659 29.05 21.4312C29.05 21.3618 29.0153 21.2923 28.9806 21.2577H29.0153L28.9806 21.1188L29.1194 21.1535V20.6675L28.9806 20.7023L29.0153 20.5634H28.5294L28.5641 20.7023L28.4253 20.6675V21.1535L28.5641 21.1188V21.2577H28.6336C28.5988 21.2923 28.5641 21.3618 28.5641 21.4312C28.5641 21.4659 28.5641 21.5353 28.5988 21.57L28.5641 21.6395L28.2171 21.5353C27.9741 21.4659 27.6965 21.57 27.5924 21.8477C27.4883 22.0907 27.5229 22.4726 28.0435 22.9238V23.1321C27.6271 23.2362 27.5924 23.5833 27.5924 23.5833H27.4189C27.28 23.5139 26.9677 23.3056 26.7594 23.0974C27.1065 22.4726 27.1065 21.7089 26.2042 21.4312L25.4059 21.6048C25.2324 22.0213 25.2671 22.4031 25.4753 22.8544C24.7465 22.8544 24.2259 22.299 23.3583 22.7155L23.5665 23.4445C24.1565 23.1321 24.9895 23.861 25.9612 23.5486L26.343 23.8263C26.2042 23.9998 26.0653 24.1734 26.0306 24.4858C26.2736 24.347 26.5165 24.3123 26.8983 24.3817C26.7594 24.3817 26.7247 24.4511 26.7247 24.4858C26.7594 24.5205 26.7942 24.5205 26.7942 24.5205C26.7594 24.5205 26.6553 24.4858 26.5512 24.4858C26.7594 25.1454 27.4535 25.2148 28.5988 25.1801C29.0153 25.3883 29.293 25.8049 29.5706 26.395L29.64 26.2908C29.7094 26.4991 29.7441 26.7074 29.7441 27.1239C29.7441 27.3669 29.7094 27.5404 29.64 27.714C29.5012 27.957 29.3624 28.2 29.2235 28.3735C28.2518 28.7901 28.5294 29.5884 27.6965 29.9703C27.8353 30.0744 27.9394 30.1438 28.113 30.1438L27.5577 30.4215L27.6965 30.6298C27.4535 30.7686 27.2106 30.8728 26.8983 30.8728C26.2388 30.1785 26.5859 29.4843 27.3494 29.5537C27.6965 26.0478 24.5036 26.4991 23.1847 24.7288C23.1501 24.8677 23.1153 25.0759 23.0806 25.2495C22.0742 24.7982 21.1718 23.861 20.443 22.7155L20.4083 23.1668C19.8183 22.4031 19.3671 21.57 19.0895 20.7023C18.9159 21.2577 18.7771 22.2296 18.8812 22.9238L18.7077 22.6808C18.3606 23.9998 18.3954 24.8677 19.1242 26.0131C19.2283 26.7421 19.5406 27.471 19.8877 28.0264C19.6795 27.9917 19.5406 27.957 19.3324 27.957C19.7142 28.6859 20.1653 29.3802 20.5818 29.8314L19.9918 30.005C20.5124 30.8033 21.1024 31.324 21.7965 31.7753C21.4842 31.8447 21.3453 31.9488 21.1024 32.1224C21.5536 32.6084 21.9354 32.8513 22.56 33.0249C22.0742 33.1984 21.8659 33.4067 21.7271 33.7885C22.3518 33.9968 23.0459 34.1356 23.74 34.101C23.3236 34.3439 22.9418 34.6216 22.7336 35.0034L22.5947 34.934C22.5253 34.8993 22.4906 34.8993 22.4212 34.8993C22.2824 34.8993 22.1089 35.0034 22.0742 35.1423C22.0742 35.177 22.0394 35.2117 22.0394 35.2117V35.2811C22.0048 35.3159 21.9354 35.3506 21.9006 35.3853L21.7271 35.3159C21.6577 35.2811 21.5883 35.2811 21.5189 35.2811C21.3453 35.2811 21.1718 35.3853 21.1024 35.5588C20.9983 35.8018 21.1024 36.0448 21.3106 36.1836L21.4494 36.2531H21.4842V36.4266L21.4494 36.496C21.4494 36.5308 21.4148 36.5308 21.4148 36.5655C21.38 36.6696 21.38 36.7737 21.4148 36.8779C21.4494 36.982 21.5189 37.0514 21.623 37.1208L21.9006 37.2597L21.8312 37.225L21.97 37.2944L22.4559 37.5374L22.4906 37.5721C22.1436 37.9886 21.7271 38.2316 21.2412 38.2316H20.9983L20.8942 38.1622H20.8595C20.6512 38.1275 20.443 38.0581 20.2348 37.9539L19.9918 37.8151L20.0612 38.0928C20.2001 38.7523 20.7901 39.4118 21.6924 40.0019C22.56 40.5226 23.4971 40.835 24.2953 40.835C24.7118 40.835 25.0589 40.7309 25.3018 40.5573L25.5447 40.3837L25.2671 40.3143C25.0589 40.2449 24.8506 40.1408 24.7118 40.0366L24.573 40.0019L24.4689 39.8978C23.983 39.4465 23.983 38.787 24.1218 38.3011H24.1565L24.6424 38.544L24.7812 38.6134L24.8159 38.544L25.8224 39.03C25.7877 40.592 25.3018 41.564 24.3994 42.5706H24.3648C24.2259 42.6053 24.1218 42.7441 24.0871 42.883L23.983 42.9871H23.9483C23.8788 42.883 23.7747 42.8136 23.6359 42.8136C23.6012 42.8136 23.5665 42.8136 23.5318 42.8483L23.3583 42.9177C23.2541 42.9524 23.1847 43.0218 23.1501 43.0912C23.1153 43.1607 23.1153 43.2301 23.1153 43.3343C23.0806 43.3343 23.0112 43.3689 22.9765 43.3689C22.9071 43.2301 22.7683 43.126 22.6295 43.126C22.5947 43.126 22.56 43.126 22.4906 43.1607L22.3865 43.1954C22.1783 43.2648 22.0742 43.4384 22.1436 43.6466C21.6924 43.7855 21.2412 43.9591 20.8247 44.0632C20.8942 45.1392 21.2412 46.0418 21.9354 46.8749C23.0112 46.3541 24.0524 45.8335 25.0589 45.3475C25.0935 45.3823 25.163 45.4169 25.2324 45.4169C25.2671 45.4169 25.3018 45.4169 25.3365 45.3822L25.4753 45.3475C25.6489 45.2781 25.8571 45.1046 25.9612 44.931C27.4189 44.2368 28.7724 43.612 29.9524 43.0912C29.9871 43.5078 30.0218 43.8897 30.1606 44.1673C30.4382 44.0632 30.6812 43.9938 30.9241 43.7855C30.9241 43.9243 30.9936 44.0632 31.0282 44.2367L30.5077 44.7921L30.8547 45.1392L31.3753 44.6533C31.4447 45.0351 31.8612 45.5905 32.1041 45.7294C32.2777 45.5905 32.7288 45.0004 32.8329 44.6533L33.3535 45.1392L33.7006 44.7921L33.18 44.2367C33.2494 44.0979 33.2841 43.9591 33.2841 43.7855C33.527 43.9591 33.77 44.0632 34.0476 44.1673C34.1517 43.8897 34.2212 43.5425 34.2559 43.0912L34.3947 43.1607L34.4641 43.0912L36.9629 44.3062L37.1712 44.4103L37.2406 44.5144L37.2753 44.5492H37.31L37.657 44.7227L37.7612 44.7574C37.8653 44.931 38.1429 45.3823 38.6288 45.3475C38.7329 45.3475 38.8023 45.3128 38.8717 45.2781L39.2188 45.4517L39.3576 45.5211L39.3923 45.4517L40.6764 46.0418L40.6417 46.1112L40.7806 46.1806L41.2665 46.4236L41.4053 46.493L41.44 46.4236L41.8217 46.5972C41.787 46.5972 41.7176 46.5972 41.8217 46.5972C41.9606 46.5972 42.1341 46.493 42.1688 46.3541C42.1688 46.3195 42.2035 46.2847 42.2035 46.2847V46.2153C42.2382 46.1806 42.3076 46.1806 42.3423 46.1112H42.377L42.5852 46.2153C42.6547 46.25 42.7241 46.25 42.7935 46.25C42.967 46.25 43.1405 46.1459 43.21 45.9723C43.3141 45.7294 43.21 45.4864 43.0017 45.3475L42.8282 45.2434V45.0698L42.8629 45.0351C42.8976 45.0004 42.8976 45.0004 42.8976 44.9657C42.9323 44.8615 42.9323 44.7574 42.8976 44.6533C42.8629 44.5492 42.7588 44.5492 42.6894 44.5144L42.2729 44.3062L42.3076 44.2367L42.1688 44.1673L41.6829 43.9243L41.5441 43.8549L41.5788 43.7855C41.6482 43.612 41.5094 43.4037 41.4053 43.3689L41.2317 43.2995C41.0582 43.2301 40.85 43.2995 40.7806 43.4731L40.7459 43.5425L40.607 43.4731L40.6417 43.3689C40.7111 43.1954 40.6417 42.9871 40.4335 42.883L40.26 42.8136C40.1558 42.7789 40.017 42.8136 39.9476 42.8483C38.9065 41.7375 38.3512 40.8003 38.2818 39.5854C39.9129 38.9606 41.7523 38.3011 43.6959 37.6762C43.4876 36.6696 43.1058 35.7324 42.5852 34.8646L42.0994 35.1423L41.6829 34.3439C41.4747 34.4828 41.2665 34.5869 41.0235 34.7258C40.8153 34.5175 40.5376 34.3092 40.26 34.1704C40.9541 34.2051 41.6829 34.0662 42.2729 33.858C42.0994 33.5108 41.8911 33.2679 41.44 33.0943C42.0647 32.9207 42.4812 32.6778 42.8976 32.1918C42.6547 32.0182 42.5158 31.9141 42.2035 31.8447C42.8976 31.3935 43.4529 30.8728 44.0082 30.0744L43.4182 29.9008C43.8347 29.4496 44.2858 28.7553 44.6676 28.0264C44.4594 28.0264 44.3205 28.0264 44.1123 28.0958C44.4941 27.5752 44.7717 26.8115 44.8758 26.0826C45.6047 24.8677 45.6393 24.0346 45.2923 22.7155ZM35.1929 37.9192C35.1582 37.9539 35.0888 37.9539 35.0541 37.9886L35.0888 37.7457L35.1929 37.9192ZM31.7571 22.1601H32.2429C32.4512 22.9585 32.937 23.5139 33.6312 23.9652C33.6312 23.9652 33.18 24.6247 32.3818 24.9024C32.4512 25.0065 32.4859 25.0065 32.59 25.0759C32.3123 25.3189 32 25.909 32 25.909C32 25.909 31.6877 25.3189 31.41 25.0759C31.4794 25.0065 31.5488 25.0065 31.6182 24.9024C30.82 24.6247 30.3688 23.9652 30.3688 23.9652C31.063 23.5139 31.5835 22.9585 31.7571 22.1601ZM28.9459 37.9539L28.8071 37.9192L28.9112 37.7457L28.9459 37.9539ZM23.6359 35.3853C23.9136 35.3506 24.1912 35.3159 24.4342 35.2464C24.2953 35.3506 24.1565 35.5241 24.0871 35.663L23.6012 35.4547L23.6359 35.3853ZM26.3082 42.1194C26.7942 41.564 27.2453 40.9739 27.5229 39.8631L28.8071 40.4532L29.0153 40.5573L29.0847 40.6614L29.1194 40.6962H29.1541L29.3277 40.8003L28.113 41.3904C27.5229 41.5986 26.8636 41.8763 26.3082 42.1194ZM37.7264 42.154L36.2341 41.4598L36.0259 41.3557L35.9565 41.2515L35.9218 41.2168H35.887L35.1582 40.8697C35.5747 40.6962 36.0606 40.5226 36.5465 40.3143C36.8241 41.0086 37.2059 41.6334 37.7264 42.154ZM39.7394 35.42C39.67 35.3506 39.6006 35.2811 39.5311 35.2117C39.6353 35.2464 39.7741 35.2811 39.9129 35.3159C39.8435 35.3506 39.8088 35.3853 39.7394 35.42Z" fill="#231F20"/>
<path d="M27.6273 23.6874C27.3149 23.6526 26.9678 23.6526 26.7596 23.7221C26.482 23.7915 26.2737 23.9303 26.1696 24.2774C27.0372 24.0345 27.1067 24.5204 27.9049 24.694C27.662 24.7981 27.0372 24.7981 26.6902 24.5898C26.9332 24.9717 27.2455 25.0758 28.3908 25.0411C28.009 24.7287 28.2173 24.0345 27.6273 23.6874Z" fill="#FCD015"/>
<path d="M26.8637 24.4857C27.072 24.5204 27.0372 24.6592 27.3843 24.6592C27.3149 24.5898 27.0026 24.3468 26.8637 24.4857ZM36.3037 23.6874C36.616 23.6526 36.9631 23.6526 37.1713 23.7221C37.449 23.7915 37.6572 23.9303 37.7613 24.2774C36.8937 24.0345 36.8243 24.5204 36.026 24.694C36.269 24.7981 36.8937 24.7981 37.2407 24.5898C36.9978 24.9717 36.6854 25.0758 35.5402 25.0411C35.9219 24.7287 35.7484 24.0345 36.3037 23.6874Z" fill="#FCD015"/>
<path d="M37.1019 24.486C36.8937 24.5207 36.9284 24.6595 36.5814 24.6595C36.6508 24.5901 36.9631 24.3471 37.1019 24.486Z" fill="#FCD015"/>
<path d="M31.9656 39.8286L32.9374 41.8072L32.1044 42.1543L31.1674 40.141L31.9656 39.8286ZM31.0632 44.3757L30.6468 44.7922L30.7856 44.9311L31.1674 44.5493C31.1674 44.4798 31.098 44.4104 31.0632 44.3757ZM32.972 44.3757C32.9373 44.4451 32.9026 44.4798 32.8332 44.5145L33.2149 44.8964L33.3538 44.7575L32.972 44.3757Z" fill="#221F1F"/>
<path d="M28.0784 22.8893V23.0975C28.599 23.0629 29.0155 23.1323 29.5014 23.167V22.8893C29.0502 22.8198 28.5643 22.8198 28.0784 22.8893ZM28.148 21.7437L28.0091 21.6396C27.905 21.6396 27.8009 21.709 27.7315 21.8131C27.4192 22.195 27.8356 22.6115 28.0439 22.7851H28.1133C28.2174 22.7851 28.3562 22.7504 28.4603 22.7504C28.4603 22.3339 28.3909 21.952 28.148 21.7437ZM29.5708 21.6396L29.432 21.7437C29.189 21.952 29.1543 22.3339 29.1196 22.7504C29.2237 22.7504 29.3626 22.7851 29.4666 22.7851H29.5361C29.7443 22.6115 30.1608 22.195 29.8484 21.8131C29.779 21.6743 29.6749 21.6396 29.5708 21.6396ZM28.8073 21.5702C28.884 21.5702 28.9461 21.508 28.9461 21.4313C28.9461 21.3547 28.884 21.2925 28.8073 21.2925C28.7306 21.2925 28.6685 21.3547 28.6685 21.4313C28.6685 21.508 28.7306 21.5702 28.8073 21.5702Z" fill="#FFC112"/>
<path d="M28.5645 22.7155H29.0504C29.0504 22.2642 29.1198 21.8477 29.3974 21.6394L29.0504 21.7436L28.981 21.6394C28.9463 21.6741 28.8769 21.6741 28.8421 21.6741C28.7727 21.6741 28.738 21.6394 28.7033 21.6394L28.6339 21.7436L28.2869 21.6394C28.4951 21.8824 28.5645 22.299 28.5645 22.7155ZM28.6686 21.1534H28.9115L28.8768 21.0146L29.0503 21.0492V20.8063L28.8768 20.841L28.9115 20.7021H28.6686L28.738 20.841L28.5644 20.8063V21.0492L28.738 21.0146L28.6686 21.1534ZM35.6443 22.8543H35.6096C35.3319 22.8195 35.0543 22.8195 34.7419 22.8543H34.7072C34.6378 22.8543 34.5684 22.8543 34.499 22.889V23.1667C34.9501 23.1667 35.3666 23.0626 35.8872 23.0972V22.889C35.7831 22.8543 35.7137 22.8543 35.6443 22.8543ZM36.2344 21.7784C36.165 21.6743 36.0609 21.6396 35.9568 21.6048L35.818 21.7437C35.575 21.952 35.5403 22.3338 35.5056 22.7503C35.6097 22.7503 35.7485 22.785 35.8526 22.785H35.922C36.1303 22.6115 36.5468 22.195 36.2344 21.7784ZM34.5338 21.7436L34.3949 21.6394C34.2908 21.6394 34.1867 21.6741 34.0826 21.813C33.7702 22.1948 34.1867 22.6113 34.3949 22.7849H34.4643C34.5685 22.7849 34.7073 22.7502 34.8114 22.7502C34.8114 22.3337 34.7767 21.9518 34.5338 21.7436ZM35.1584 21.57C35.2351 21.57 35.2972 21.5078 35.2972 21.4312C35.2972 21.3545 35.2351 21.2923 35.1584 21.2923C35.0817 21.2923 35.0196 21.3545 35.0196 21.4312C35.0196 21.5078 35.0817 21.57 35.1584 21.57Z" fill="#FFC112"/>
<path d="M34.9504 21.7781L34.6034 21.6739C34.881 21.8822 34.9504 22.2987 34.9504 22.75H35.4363C35.4363 22.2987 35.5057 21.8822 35.7834 21.6739L35.4363 21.7781L35.3669 21.6739C35.3322 21.7086 35.2628 21.7086 35.2281 21.7086C35.1586 21.7086 35.124 21.6739 35.0892 21.6739L34.9504 21.7781ZM35.0544 21.1533H35.2973L35.2279 21.0145L35.4014 21.0492V20.8062L35.2279 20.8409L35.2973 20.7021H35.0544L35.089 20.8409L34.9155 20.8062V21.0492L35.089 21.0145L35.0544 21.1533ZM29.9872 19.3831V19.5914L30.1608 19.6608V19.4872L29.9872 19.3831ZM31.9657 20.5285C31.0287 20.5285 30.2652 20.7715 30.2652 21.0492V21.5004C30.5428 21.2227 31.2716 21.1186 31.9657 21.1186C32.6598 21.1186 33.354 21.2575 33.6663 21.5004V21.0492C33.6663 20.7715 32.9028 20.5285 31.9657 20.5285ZM32.8333 19.5913C32.9721 19.0012 33.458 18.6888 33.9438 18.5847C33.4232 18.4806 32.8333 18.7235 32.625 19.0707C32.5209 19.2442 32.4515 19.4525 32.3821 19.6261C32.5209 19.5566 32.6944 19.5566 32.8333 19.5913ZM31.0978 19.5915C31.2714 19.5567 31.4102 19.5567 31.549 19.6262C31.4796 19.4179 31.4102 19.2096 31.3061 19.0361C31.0978 18.7237 30.5078 18.446 29.9872 18.5501C30.4731 18.689 30.959 19.0014 31.0978 19.5915Z" fill="#FFC112"/>
<path d="M30.3343 21.6398C30.4384 21.744 30.6119 21.8481 30.8549 21.9175C30.8896 21.744 30.8896 21.5704 30.9243 21.3621C30.6467 21.4315 30.4384 21.5357 30.3343 21.6398ZM32.0698 21.2231H31.8616C31.8616 21.5008 31.8268 21.7785 31.7574 22.0215H32.1739C32.1392 21.7785 32.1045 21.5355 32.0698 21.2231ZM33.0416 21.3621C33.0416 21.5704 33.0763 21.744 33.111 21.9175C33.354 21.8481 33.5275 21.744 33.6316 21.6398C33.5275 21.5357 33.3193 21.4315 33.0416 21.3621ZM31.9657 18.8629C32.1382 18.8629 32.2781 18.723 32.2781 18.5505C32.2781 18.3779 32.1382 18.2381 31.9657 18.2381C31.7932 18.2381 31.6534 18.3779 31.6534 18.5505C31.6534 18.723 31.7932 18.8629 31.9657 18.8629ZM31.7572 18.0991H32.139L32.0349 17.7867L32.3472 17.8909V17.5091L32.0349 17.6132L32.139 17.3008H31.7572L31.8961 17.6132L31.549 17.5091V17.8909L31.8961 17.7867L31.7572 18.0991ZM33.8049 19.6612L33.9784 19.5918V19.3835L33.8396 19.4876L33.8049 19.6612Z" fill="#FFC112"/>
<path d="M34.534 18.9667C34.4646 18.8278 34.3605 18.7584 34.2216 18.689C33.7011 18.7237 33.1111 19.0014 32.9722 19.6956V19.765L32.9028 19.7303C32.6946 19.6609 32.521 19.6956 32.3475 19.7997C32.3128 19.9386 32.2781 20.0427 32.2781 20.1121C32.2434 20.251 32.1046 20.3204 32.0005 20.3204C31.8964 20.3204 31.7575 20.2163 31.7228 20.1121C31.7228 20.0774 31.6881 19.9733 31.6534 19.8345C31.5146 19.7303 31.3063 19.7303 31.0981 19.765L31.0287 19.7997V19.7303C30.8899 19.0361 30.3346 18.7584 29.7793 18.7237C29.6752 18.7931 29.5711 18.8972 29.4669 19.0014C28.9811 19.7303 29.9181 20.5981 30.2652 20.8758C30.5081 20.5634 31.2717 20.4246 32.0005 20.4246C32.764 20.4246 33.5275 20.5981 33.7357 20.8758C34.0481 20.5634 34.9852 19.6956 34.534 18.9667ZM29.9181 19.6956L29.8487 19.6609V19.1749L30.057 19.2791L30.2305 19.3485L30.2999 19.3832V19.8692L30.0916 19.765L29.9181 19.6956ZM30.2305 20.5287C30.161 20.5287 30.1264 20.494 30.1264 20.4246C30.1264 20.3551 30.161 20.3204 30.2305 20.3204C30.2999 20.3204 30.3346 20.3551 30.3346 20.4246C30.3346 20.4592 30.2999 20.5287 30.2305 20.5287ZM30.7511 20.3204C30.6816 20.3204 30.647 20.2857 30.647 20.2163C30.647 20.1469 30.6816 20.1121 30.7511 20.1121C30.8205 20.1121 30.8552 20.1469 30.8552 20.2163C30.8552 20.251 30.7858 20.3204 30.7511 20.3204ZM31.2717 20.1815C31.2022 20.1815 31.1675 20.1469 31.1675 20.0774C31.1675 20.008 31.2022 19.9733 31.2717 19.9733C31.3411 19.9733 31.3757 20.008 31.3757 20.0774C31.3757 20.1469 31.3411 20.1815 31.2717 20.1815ZM32.6946 20.1815C32.6252 20.1815 32.5905 20.1469 32.5905 20.0774C32.5905 20.008 32.6252 19.9733 32.6946 19.9733C32.764 19.9733 32.7987 20.008 32.7987 20.0774C32.7987 20.1469 32.7293 20.1815 32.6946 20.1815ZM33.2152 20.3204C33.1458 20.3204 33.1111 20.2857 33.1111 20.2163C33.1111 20.1469 33.1458 20.1121 33.2152 20.1121C33.2846 20.1121 33.3193 20.1469 33.3193 20.2163C33.3193 20.251 33.2846 20.3204 33.2152 20.3204ZM33.7357 20.5287C33.6663 20.5287 33.6317 20.494 33.6317 20.4246C33.6317 20.3551 33.6663 20.3204 33.7357 20.3204C33.8052 20.3204 33.8399 20.3551 33.8399 20.4246C33.8399 20.4592 33.8052 20.5287 33.7357 20.5287ZM33.6663 19.8692V19.3832L33.7357 19.3485L33.9093 19.2791L34.1175 19.1749V19.6609L34.0481 19.6956L33.8746 19.765L33.6663 19.8692Z" fill="#FFC112"/>
<path d="M31.9655 20.1815C32.0614 20.1815 32.1391 20.1038 32.1391 20.0079C32.1391 19.9121 32.0614 19.8344 31.9655 19.8344C31.8697 19.8344 31.792 19.9121 31.792 20.0079C31.792 20.1038 31.8697 20.1815 31.9655 20.1815ZM31.7572 19.765C31.8266 19.6956 31.896 19.6956 31.9655 19.6956C32.0349 19.6956 32.139 19.7303 32.1737 19.765C32.2084 19.5568 32.3125 19.2444 32.4861 18.9667C32.4861 18.9667 32.4861 18.9319 32.5208 18.9319C32.5208 18.8278 32.4514 18.7584 32.3472 18.689C32.2778 18.8278 32.139 18.9667 31.9308 18.9667C31.7572 18.9667 31.5837 18.8625 31.5143 18.689C31.4449 18.7237 31.3755 18.7931 31.3755 18.8972C31.3755 18.9319 31.4102 18.9319 31.4102 18.9667C31.6184 19.2791 31.7225 19.5568 31.7572 19.765Z" fill="#FFC112"/>
<path d="M41.5791 34.5869C38.1432 36.4266 35.1238 38.1275 32.035 39.6548L32.1044 39.7589V39.7936C35.2279 38.4399 38.525 36.9473 41.9261 35.2464C41.8567 35.0381 41.7179 34.7604 41.5791 34.5869ZM31.0632 40.2102L31.0286 40.1408C30.3344 40.4879 29.6056 40.8003 28.9115 41.1127C29.6056 40.835 30.3344 40.5573 31.0632 40.2102ZM42.4122 35.1771C39.1498 36.8085 35.6792 38.4052 32.174 39.9326L32.9722 41.5987C36.4427 40.1408 39.9828 38.7523 43.3839 37.6069C43.2451 36.7391 42.898 35.9407 42.4122 35.1771ZM24.955 42.7787L25.1286 43.2994C25.1633 43.4035 25.0592 43.5077 25.0592 43.6465C25.0939 44.1325 24.7815 44.4796 24.7815 44.4796L24.608 44.6184L24.5386 44.4102L24.0874 43.0911C24.0874 43.1258 24.0527 43.1258 24.018 43.1258L24.2956 43.9242C24.3998 44.2713 24.2262 44.7573 24.1915 44.7573L24.1221 44.8961L23.9833 44.8614C23.9833 44.8614 23.6362 44.6184 23.4627 44.1672C23.428 44.0977 23.3586 44.0977 23.3239 44.0283L23.1503 43.473C23.1156 43.473 23.0809 43.5077 23.0115 43.5077L23.428 44.7573L23.4974 44.9656H23.2891C23.2545 44.9656 22.8727 44.9656 22.5604 44.5143C22.5256 44.4449 22.3521 44.4796 22.3174 44.3754L22.1439 43.8201C21.7274 43.9589 21.3457 44.0977 20.9292 44.2366C21.068 45.1738 21.3803 46.0069 21.9356 46.6664C22.9074 46.1805 23.9139 45.6945 24.955 45.2085C24.955 45.1738 24.9897 45.1044 25.0245 45.035L25.4409 44.3407C25.4409 44.3407 25.3715 44.1325 25.4062 43.8895C25.7186 43.9589 25.9615 44.0977 26.0656 44.306C26.1003 44.4102 26.1003 44.5837 26.0309 44.7226C27.9397 43.8201 29.9179 42.9523 31.8962 42.1192L31.1326 40.3489C29.085 41.2167 27.0027 42.0498 24.955 42.7787Z" fill="#E0E0E0"/>
<path d="M24.5385 40.1409C24.1915 40.1062 23.8791 40.0715 23.5668 40.0021L23.6014 39.8632C23.8444 39.9327 24.0873 39.9674 24.365 40.0021C23.8791 39.5509 23.8097 38.8913 23.9832 38.2318L22.6297 37.5723C22.2132 38.1624 21.6579 38.4054 20.9985 38.3012C21.5885 38.926 22.2479 39.412 23.0462 39.6897L23.0115 39.8285C22.1438 39.5161 21.415 38.9955 20.7903 38.2665C20.5821 38.2318 20.3738 38.1277 20.1656 38.0235C20.5127 39.655 23.9485 41.2864 25.1632 40.4186C24.9203 40.3492 24.7121 40.2451 24.5385 40.1409Z" fill="#E2E2E2"/>
<path d="M21.7965 35.4892L21.623 35.4198C21.4495 35.3504 21.276 35.4198 21.2066 35.5587C21.1371 35.7322 21.2066 35.9058 21.3454 35.9752L21.4842 36.0446C21.5536 35.9058 21.6577 35.8363 21.7965 35.8363C21.7618 35.7322 21.7618 35.5934 21.7965 35.4892ZM42.9323 45.5556L42.7588 45.4515C42.6894 45.5556 42.5852 45.6598 42.4464 45.6598C42.5158 45.7639 42.5158 45.9027 42.4464 46.0069L42.6546 46.111C42.8282 46.1804 43.0017 46.111 43.0711 45.9722C43.1405 45.8333 43.0711 45.625 42.9323 45.5556Z" fill="#A5A5A5"/>
<path d="M41.5954 44.0698L40.6552 46.0441L41.1565 46.2829L42.0967 44.3086L41.5954 44.0698ZM25.1291 36.198L24.1889 38.1723L24.6903 38.4111L25.6305 36.4368L25.1291 36.198ZM22.9498 35.1875L22.0097 37.1618L22.511 37.4006L23.4512 35.4263L22.9498 35.1875ZM26.8983 37.0516L29.1542 40.5575L29.5012 40.731C29.6054 40.6963 29.6748 40.6616 29.7789 40.5922L27.766 37.4681L26.8983 37.0516ZM30.959 38.9953L31.4795 39.7937C31.6183 39.7243 31.7919 39.6549 31.9307 39.5854L31.8266 39.4118L30.959 38.9953ZM33.0413 41.7027L33.1107 41.8415L32.9719 41.911L32.8678 41.9457L33.1801 42.4664L34.013 42.8829L33.2148 41.6333C33.1801 41.668 33.1107 41.7027 33.0413 41.7027ZM34.9847 40.9044L37.2405 44.4104L37.5876 44.5839C37.4835 44.3062 37.5876 44.0979 37.6223 44.0632L35.8523 41.321L34.9847 40.9044ZM39.7394 43.1609L39.6005 43.1261L38.9758 44.5493L38.9064 44.4799L38.6288 45.07L39.1147 45.313L39.3923 44.7229C39.3576 44.584 39.2535 44.2369 39.3923 43.9592L39.7394 43.1609Z" fill="#939393"/>
<path d="M24.9551 38.1619L24.8163 38.4049L28.8421 40.3141L28.5298 39.8628L24.9551 38.1619ZM27.8704 38.8215L25.2328 37.5372L24.9898 38.0231L28.391 39.6546L27.8704 38.8215ZM27.1761 37.7454L25.5102 36.947L25.302 37.433L27.7314 38.5784L27.1761 37.7454ZM26.7946 37.1207L26.7599 37.086L25.684 36.5653L25.5799 36.8083L27.0375 37.5025L26.7946 37.1207ZM21.5191 36.4958L21.4845 36.5305C21.4151 36.6694 21.4845 36.8082 21.6233 36.8777L21.9009 37.0165L22.005 36.7735L21.658 36.6C21.6233 36.5653 21.5886 36.5305 21.5191 36.4958ZM22.7913 37.1288L22.6719 37.3795L24.0819 38.0512L24.2012 37.8005L22.7913 37.1288ZM21.6234 36.114C21.554 36.2528 21.6234 36.3917 21.7622 36.4611L22.1093 36.6347L22.3175 36.1487L21.9704 35.9751C21.8316 35.9404 21.6581 35.9751 21.6234 36.114ZM23.0717 36.5387L22.8478 37.0087L24.2578 37.6804L24.4816 37.2103L23.0717 36.5387ZM21.9356 35.5238C21.8662 35.6627 21.9356 35.8015 22.0744 35.8709L22.3867 36.0098L22.5949 35.5238L22.2826 35.4197C22.1438 35.3503 22.005 35.385 21.9356 35.5238ZM23.3547 35.903L23.1308 36.3731L24.5408 37.0448L24.7646 36.5747L23.3547 35.903ZM22.1786 35.2463C22.248 35.2463 22.2827 35.2463 22.3521 35.2809L22.6645 35.4198L22.7686 35.1768L22.4909 35.038C22.3521 34.9686 22.2133 35.038 22.1439 35.1768C22.1786 35.2115 22.1786 35.2115 22.1786 35.2463ZM23.5305 35.5322L23.4111 35.7829L24.8211 36.4546L24.9404 36.2039L23.5305 35.5322ZM33.9093 42.4317L34.1522 42.8136L34.1869 42.8482L36.9287 44.1673L36.651 43.716L33.9093 42.4317ZM39.4033 45.0349L39.2839 45.2856L40.5685 45.8975L40.6879 45.6469L39.4033 45.0349ZM31.0978 39.4463L30.8202 39.0645L30.7855 38.9951L28.0784 37.7107L28.3561 38.162L31.0978 39.4463ZM42.5857 44.6183L42.1692 44.41L42.0651 44.653L42.551 44.896C42.6204 44.9307 42.6551 44.9654 42.6898 45.0001L42.7245 44.9654C42.7939 44.8265 42.7245 44.6877 42.5857 44.6183ZM41.8915 46.2152L41.4404 46.0069L41.3015 46.2499L41.6833 46.4235C41.8221 46.4929 41.9609 46.4235 42.0303 46.2846C42.0303 46.2499 42.0303 46.2499 42.0651 46.2152C41.9956 46.2499 41.9262 46.2499 41.8915 46.2152ZM42.169 45.625L41.7178 45.4168L41.5096 45.9027L41.9608 46.111C42.0996 46.1804 42.2384 46.111 42.3078 45.9722C42.3425 45.8333 42.3078 45.6945 42.169 45.625ZM42.4813 45.035L41.9954 44.792L41.7872 45.278L42.2731 45.521C42.4119 45.5904 42.5507 45.521 42.6201 45.3821C42.6896 45.2433 42.6201 45.1044 42.4813 45.035ZM29.7445 40.2794L30.0916 40.4529C30.2998 40.3488 30.5081 40.2794 30.7163 40.1752L29.224 39.4463L29.7445 40.2794ZM28.495 38.3704L29.0155 39.2034L30.855 40.0712C31.0285 40.0018 31.1673 39.9324 31.3408 39.8283L31.2367 39.6547L28.495 38.3704ZM32.5902 42.0845L32.8678 42.2234L32.729 42.0151L32.5902 42.0845ZM34.8809 40.9737C34.7768 41.0085 34.6727 41.0432 34.5339 41.0779L35.1239 41.3556L34.8809 40.9737ZM35.2626 41.5984L34.3602 41.1819C34.152 41.286 33.9438 41.3554 33.7008 41.4596L35.7831 42.4662L35.2626 41.5984ZM35.9567 42.6745L33.5273 41.529C33.4579 41.5637 33.4232 41.5637 33.3538 41.5984L33.7355 42.2232L36.4426 43.5075L35.9567 42.6745ZM38.6639 43.0565L38.8027 42.8135L36.1651 41.5639L36.4428 42.0152L38.6639 43.0565ZM38.6292 43.2299L36.6162 42.2232L37.1368 43.0563L38.6292 43.7506C38.6292 43.6464 38.6639 43.5423 38.6639 43.4729C38.6292 43.3687 38.5598 43.334 38.6292 43.2299ZM37.2755 43.2995L37.6919 43.959C37.9349 43.7507 38.2819 43.7855 38.2819 43.7855L38.1778 44.1326L38.2819 44.3408L38.7331 44.5491L38.8372 44.3756C38.7678 44.2714 38.6984 44.1326 38.6637 43.9243L37.2755 43.2995ZM38.5596 44.8961L38.6637 44.6878L38.3861 44.549L38.5596 44.8961ZM40.642 43.6811L40.5032 43.6117L40.3644 43.8894L40.5379 43.9588L40.642 43.6811ZM40.4685 44.0631L40.3297 43.9937L40.2603 44.1326C40.2256 44.202 40.1562 44.1326 40.0173 44.4103L40.2256 44.5144L40.4685 44.0631ZM41.0237 44.896L41.232 44.4795C41.1973 44.5142 41.0931 44.4795 41.0584 44.5489C40.989 44.6531 40.8502 44.7919 40.8155 44.7919L41.0237 44.896ZM40.2948 44.9655H40.0866L40.156 44.7573L40.1907 44.6878L39.9825 44.549C39.809 44.7573 39.5313 44.9308 39.5313 44.9308L40.7808 45.5209L40.989 45.035L40.6766 44.8961C40.4684 44.9308 40.3296 44.9655 40.2948 44.9655Z" fill="#DBDBDB"/>
<path d="M32.0349 42.7095C31.4796 42.7095 31.0284 43.1607 31.0284 43.7161C31.0284 44.2715 31.4796 44.7227 32.0349 44.7227C32.5902 44.7227 33.0413 44.2715 33.0413 43.7161C33.0413 43.1607 32.5902 42.7095 32.0349 42.7095ZM32.2778 43.3343C32.3472 43.3343 32.3472 43.2649 32.3125 43.2301C32.3472 43.1607 32.3819 43.2301 32.3819 43.2649C32.3819 43.2649 32.4513 43.2649 32.4513 43.2995C32.4513 43.3343 32.4167 43.3343 32.4167 43.4037C32.4167 43.4037 32.3472 43.369 32.3819 43.4037C32.3819 43.4037 32.3472 43.4037 32.3472 43.369C32.3472 43.3343 32.3819 43.3343 32.3819 43.2995C32.3819 43.2649 32.3125 43.2649 32.3125 43.2649C32.3472 43.2995 32.3472 43.369 32.2778 43.3343ZM32.1737 43.6814H31.9308C32.0002 43.612 31.9308 43.4384 31.792 43.4384C31.7572 43.4384 31.7572 43.4731 31.7572 43.4731V43.4384C31.7572 43.369 31.9308 43.4037 32.0002 43.369C32.0002 43.4037 31.9655 43.4384 31.9655 43.4384C32.0002 43.4731 32.0349 43.5426 32.0696 43.6467C32.0696 43.5426 32.1043 43.4731 32.1737 43.4384C32.139 43.4384 32.1043 43.4037 32.139 43.369C32.2084 43.4037 32.3819 43.369 32.3819 43.4384V43.4731C32.3819 43.4731 32.3819 43.4384 32.3472 43.4384C32.1737 43.4384 32.0696 43.612 32.1737 43.6814ZM32.2778 43.5078H32.2084L32.2431 43.4731C32.2431 43.4731 32.2778 43.4731 32.2778 43.5078ZM32.0696 43.9244C32.0696 43.9244 32.1043 43.8897 32.1043 43.9244C32.1043 43.9591 32.0696 43.9591 32.0696 43.9591L32.0002 43.7508H32.0349C32.0349 43.7508 32.0696 43.7161 32.1043 43.7508V43.8203C32.139 43.8203 32.139 43.8203 32.139 43.8549C32.139 43.8203 32.1043 43.8203 32.1043 43.8203C32.0696 43.8897 32.0696 43.8897 32.0696 43.9244ZM31.9655 43.8549L31.9308 43.8203C31.9308 43.8203 31.9655 43.8203 31.9655 43.8549C31.9655 43.8203 32.0002 43.8203 32.0002 43.8203C31.9655 43.8203 31.9308 43.8203 31.9308 43.7855L31.9655 43.7508V43.7161L32.0696 43.9938H31.9655C31.9655 43.9938 31.9308 43.9938 31.9308 43.9591V43.9244C31.9308 43.9244 31.9655 43.8897 31.9655 43.8549ZM31.8614 43.5078H31.792C31.792 43.4731 31.792 43.4731 31.8266 43.4731C31.8266 43.4731 31.8614 43.4731 31.8614 43.5078ZM32.0349 43.0913L32.0696 43.126L32.0349 43.1607L32.0002 43.126L32.0349 43.0913ZM31.8266 43.2649H31.8961C31.9308 43.2649 31.9308 43.2649 31.9308 43.2995C31.9655 43.2995 32.0002 43.2649 32.0002 43.2301L31.9655 43.1954C31.9308 43.1607 31.9655 43.126 32.0002 43.126L32.0349 43.1954L32.0696 43.126C32.1043 43.126 32.139 43.1607 32.1043 43.1954L32.0696 43.2301C32.0696 43.2649 32.1043 43.2995 32.139 43.2995C32.139 43.2649 32.139 43.2649 32.1737 43.2649L32.2084 43.2995L32.2431 43.2649C32.2778 43.2649 32.2778 43.2649 32.2778 43.2995L32.2431 43.3343H32.1737C32.1043 43.3343 32.0696 43.2995 32.0696 43.2649H32.0002C32.0002 43.2995 31.9655 43.3343 31.8961 43.3343H31.8266C31.8266 43.3343 31.8266 43.2995 31.792 43.2995C31.7572 43.2995 31.792 43.2649 31.8266 43.2649ZM31.6531 43.2649C31.6878 43.2301 31.7226 43.1607 31.7226 43.2301C31.6878 43.2649 31.6878 43.3343 31.7572 43.3343C31.6878 43.3343 31.6878 43.2995 31.6878 43.2649C31.6878 43.2649 31.6184 43.2649 31.6184 43.2995C31.6184 43.3343 31.6531 43.3343 31.6531 43.369C31.6531 43.369 31.6531 43.4037 31.6184 43.4037C31.6184 43.369 31.5837 43.369 31.5837 43.4037C31.6184 43.3343 31.549 43.3343 31.549 43.2995C31.5837 43.2649 31.6531 43.2995 31.6531 43.2649ZM31.4102 43.612C31.4449 43.612 31.4796 43.612 31.4449 43.5772C31.4102 43.5426 31.3755 43.4731 31.4102 43.4384C31.4102 43.4384 31.5143 43.4731 31.4796 43.4384C31.4449 43.369 31.4449 43.2995 31.4796 43.2649C31.4796 43.2995 31.6184 43.4731 31.7572 43.5772C31.7572 43.5772 31.7226 43.612 31.7226 43.6467C31.7226 43.6814 31.7572 43.7161 31.792 43.7161H31.8614V43.8203C31.8614 43.7855 31.792 43.7508 31.7572 43.7508C31.7572 43.7855 31.7226 43.8203 31.7226 43.8549C31.6878 43.8897 31.6531 43.8897 31.6184 43.8549C31.6184 43.8549 31.6531 43.7855 31.6184 43.8203C31.5837 43.8549 31.549 43.8203 31.5143 43.7855C31.549 43.7855 31.549 43.7508 31.5143 43.7508C31.4796 43.7508 31.4102 43.7508 31.4102 43.6814C31.4102 43.6814 31.4796 43.6467 31.4449 43.6467C31.4449 43.7161 31.4102 43.6814 31.4102 43.612ZM32.3819 44.1674C32.3472 44.1674 32.3125 44.1674 32.3125 44.1326C32.2778 44.0979 32.2431 44.0979 32.1737 44.0979C32.2084 44.0632 32.139 44.0285 32.1043 44.0632C32.0696 44.0632 32.0696 44.0979 32.0696 44.1326C32.139 44.1326 32.2431 44.2021 32.2431 44.2368C32.2431 44.2715 32.2431 44.2715 32.2084 44.2715C32.2084 44.2021 32.1737 44.2021 32.1737 44.2715C32.1737 44.3062 32.139 44.3062 32.139 44.3409C32.139 44.2715 32.1043 44.2715 32.1043 44.3409C32.1043 44.3756 32.0696 44.3756 32.0696 44.3756L32.0349 44.3409C32.0349 44.2715 32.0002 44.2715 32.0002 44.3409C31.9655 44.3409 31.9655 44.3062 31.9655 44.2715C31.9655 44.2021 31.9308 44.2021 31.9308 44.2715C31.896 44.2715 31.8961 44.2368 31.8961 44.2368C31.9308 44.2021 32.0002 44.1326 32.0696 44.1326C32.0696 44.0979 32.0349 44.0632 32.0349 44.0632C32.0002 44.0285 31.9655 44.0632 31.9655 44.0979C31.9308 44.0979 31.8614 44.0979 31.8614 44.1326H31.8266C31.792 44.1326 31.792 44.0979 31.792 44.0979V44.0632L31.6531 43.9591H31.6184C31.6184 43.9591 31.549 43.9591 31.549 43.9244H31.5837C31.5837 43.9244 31.549 43.8897 31.5837 43.8897H31.6531V43.8549C31.6878 43.8549 31.6878 43.9244 31.6878 43.9244C31.6878 43.9244 31.7225 43.9244 31.6878 43.9591L31.8266 44.0979H31.8614C31.896 44.0979 31.9655 44.0979 31.9655 44.0632C31.8961 43.9591 31.9655 43.8897 32.0002 43.8897V43.9591C32.0002 43.9938 32.0349 43.9938 32.0349 43.9938H32.0696C32.1043 43.9938 32.139 44.0285 32.139 44.0285C32.139 44.0285 32.1737 43.9938 32.2084 43.9938H32.2431C32.2778 43.9938 32.2778 43.9591 32.2778 43.9591V43.8897C32.3472 43.8897 32.4167 43.9591 32.3125 44.0632L32.3819 44.0979C32.3819 44.0632 32.3819 44.0632 32.4167 44.0632L32.4513 44.0979L32.4861 44.0632C32.5207 44.0632 32.5207 44.0979 32.5207 44.1326C32.4513 44.1326 32.4167 44.1674 32.3819 44.1674ZM32.6596 43.612C32.6596 43.6467 32.6249 43.7161 32.5902 43.7161C32.5207 43.7161 32.5902 43.7508 32.6249 43.7508C32.6249 43.7855 32.5902 43.8203 32.5207 43.8203C32.4861 43.8203 32.4861 43.8549 32.5207 43.8549C32.4861 43.8897 32.4513 43.8897 32.4167 43.8897C32.3819 43.8897 32.4167 43.9244 32.4167 43.9244C32.3819 43.9591 32.3472 43.9591 32.3125 43.9244C32.2778 43.8897 32.2778 43.8549 32.2778 43.8203C32.2431 43.8203 32.2084 43.8203 32.1737 43.8897V43.7855H32.2431C32.2778 43.7855 32.3125 43.7508 32.3125 43.7161C32.3125 43.6814 32.3125 43.6814 32.2778 43.6467C32.4167 43.5772 32.5207 43.369 32.5555 43.3343C32.5902 43.369 32.5902 43.4384 32.5555 43.5078C32.5207 43.5426 32.6249 43.5078 32.6249 43.5078C32.6596 43.5426 32.6249 43.612 32.5902 43.6467C32.5555 43.612 32.6249 43.612 32.6596 43.612Z" fill="#D0D2D3"/>
<path d="M26.0308 21.5356C25.7532 21.605 25.6491 21.6398 25.4755 21.7092C25.1632 22.4729 25.7532 23.3407 26.4473 23.7572C26.5861 23.6878 26.8638 23.5489 27.1761 23.5836C26.3779 23.0976 25.7185 22.4035 26.0308 21.5356ZM37.9351 21.5356C38.2127 21.605 38.3168 21.6398 38.4904 21.7092C38.768 22.4729 38.2127 23.3407 37.5186 23.7572C37.3798 23.6878 37.1021 23.5489 36.7898 23.5836C37.6227 23.0976 38.2474 22.4035 37.9351 21.5356ZM25.4756 23.0281C24.8856 23.0281 24.0873 22.438 23.4626 22.8198L23.6014 23.3058C24.2609 23.0281 24.8509 23.7223 25.8226 23.4793C25.6838 23.3058 25.5797 23.167 25.4756 23.0281Z" fill="#1FC150"/>
<path d="M26.2391 22.6117C26.3085 22.7506 26.4473 22.8894 26.5861 22.9936C26.9332 22.5423 26.8291 21.6398 26.1697 21.5357V21.5704C26.1003 21.7093 26.1003 21.8481 26.0656 21.9522C26.2738 22.1258 26.3085 22.3688 26.2391 22.6117ZM38.4902 23.028C38.386 23.1669 38.2819 23.3405 38.1431 23.4446C39.1149 23.6876 39.7049 22.9933 40.3643 23.271L40.5031 22.7851C39.8784 22.4379 39.0801 23.028 38.4902 23.028ZM37.7266 22.6117C37.6572 22.4035 37.6919 22.1258 37.9002 21.9522C37.9002 21.8481 37.8655 21.7093 37.796 21.5704V21.5357C37.1367 21.6398 37.0673 22.5423 37.3796 22.9936C37.5184 22.8547 37.6572 22.7506 37.7266 22.6117ZM30.2302 23.8612C31.1326 23.3753 31.6879 22.5422 31.7226 21.2231C31.4797 21.2231 31.2367 21.2579 31.0285 21.2926C31.0285 22.1604 30.7508 22.7505 30.2302 23.1323C30.3691 23.0976 30.4732 23.0629 30.5773 23.0282L30.9244 22.8546L30.7508 23.2017C30.612 23.5488 30.4385 23.7571 30.2302 23.8612ZM33.7009 23.8611C33.5274 23.757 33.3191 23.5487 33.1803 23.2363L33.0068 22.8892L33.3538 23.0627C33.458 23.0974 33.5621 23.1322 33.7009 23.1669C33.1803 22.785 32.9027 22.195 32.9027 21.3271C32.6944 21.2924 32.4862 21.2577 32.2085 21.2577C32.2779 22.5421 32.8333 23.4099 33.7009 23.8611ZM34.5684 30.2134L34.4296 30.1092V29.7274H34.0825L33.9784 29.5538C33.5966 28.8249 32.8678 28.3736 32.0696 28.3736H31.896C31.0978 28.3736 30.3343 28.8249 29.9872 29.5538L29.8831 29.7274H29.5708V30.1092L29.432 30.2134C28.4602 30.9423 27.9049 32.0531 27.9049 33.2332C27.9049 34.4135 28.4602 35.5242 29.432 36.2532L29.5708 36.3573V36.7391H29.8831L29.9872 36.9127C30.369 37.6416 31.0978 38.0929 31.896 38.0929H32.0696C32.8678 38.0929 33.6314 37.6416 33.9784 36.9127L34.0825 36.7391H34.4296V36.3573L34.5684 36.2532C35.5402 35.5242 36.0954 34.4135 36.0954 33.2332C36.0954 32.0531 35.5402 30.977 34.5684 30.2134ZM33.3537 36.5309H30.5773V35.9407H30.7855V35.6284H30.9243V35.3507H31.1672V33.4762H30.8202V32.5043H31.1672V32.3307H31.0284V32.0878H30.8896V31.5671H31.0284V31.3241H31.2019V31.1506C30.959 30.9076 30.7161 30.4563 30.959 30.1439C31.2019 29.8315 31.6878 30.0398 31.6878 30.0398V29.8662H31.6531L31.6878 29.7968L31.6184 29.8315V29.2761L31.6878 29.3108L31.6531 29.2414H32.2084L32.1737 29.3108L32.2431 29.2761V29.8315L32.1737 29.7968L32.2084 29.8662H32.1737V30.0398C32.1737 30.0398 32.6943 29.8315 32.9025 30.1439C33.1455 30.491 32.9025 30.9076 32.6943 31.1506V31.3241H32.8678V31.5671H33.0413V32.0878H32.9025V32.3307H32.7637V32.5043H33.1108V33.4762H32.7637V35.3507H33.0067V35.6284H33.1455V35.9407H33.3537V36.5309Z" fill="#1FC150"/>
<path d="M31.306 30.9766H31.6531C31.6531 30.6642 31.5837 30.2824 31.4101 30.1088L31.306 30.0047C31.2019 30.0047 31.1325 30.0394 31.0631 30.1436C30.8548 30.4559 31.1325 30.8378 31.306 30.9766ZM32.7635 31.3931H31.167V31.532H32.7635V31.3931ZM32.8678 31.6362H31.0284V31.8792H32.8678V31.6362ZM32.6247 32.261H31.3406V32.5039H32.6247V32.261ZM32.59 31.081H31.3406V31.2892H32.59V31.081ZM32.5902 30.9768C32.7637 30.8033 33.0413 30.4561 32.8331 30.1784C32.7637 30.0743 32.6943 30.0396 32.5902 30.0396L32.4861 30.1438C32.3125 30.2826 32.2431 30.6991 32.2431 31.0115H32.5902V30.9768ZM31.8612 29.6577H32.0694L32.0348 29.5189L32.1389 29.5536V29.38L32.0348 29.4147L32.0694 29.2759H31.8612L31.8959 29.4147L31.7571 29.38V29.5536L31.8959 29.5189L31.8612 29.6577ZM31.9654 30.0048C32.0421 30.0048 32.1043 29.9426 32.1043 29.8659C32.1043 29.7893 32.0421 29.7271 31.9654 29.7271C31.8887 29.7271 31.8266 29.7893 31.8266 29.8659C31.8266 29.9426 31.8887 30.0048 31.9654 30.0048Z" fill="#FFD400"/>
<path d="M31.757 30.9773H32.1388C32.1388 30.6302 32.2082 30.2136 32.4165 30.04L32.1388 30.1442L32.1041 30.04C32.0694 30.0748 32.0347 30.0748 31.9653 30.0748C31.9306 30.0748 31.8612 30.0748 31.8265 30.04L31.7918 30.1442L31.5141 30.04C31.7223 30.2136 31.757 30.6302 31.757 30.9773ZM32.7635 32.0187H31.167V32.1575H32.7635V32.0187ZM32.833 35.4899H31.063V35.6634H32.833V35.4899ZM33.0064 35.7325H30.924V35.9408H33.0064V35.7325ZM33.2147 36.0451H30.7159V36.3575H33.2147V36.0451ZM32.6247 35.3857V33.4071H31.3406V35.351H32.6247V35.3857ZM32.3123 33.6154H32.4165V35.108H32.3123V33.6154ZM31.9306 33.6154H32.0347V35.108H31.9306V33.6154ZM31.5488 33.6154H31.6529V35.108H31.5488V33.6154ZM31.5836 32.9905H31.6183V32.921L31.5836 32.9905Z" fill="#FFD400"/>
<path d="M30.959 32.6084V33.3026H32.9372V32.6084H30.959ZM31.3407 33.1291C31.306 33.1291 31.2713 33.1291 31.2366 33.0944V33.0249H31.2713L31.306 33.0597H31.3407C31.3754 33.0597 31.4101 33.0597 31.4101 33.0249C31.4101 32.9903 31.4101 32.9903 31.3407 32.9903H31.306C31.3407 32.9903 31.3407 32.9903 31.3407 32.9555C31.3407 32.9208 31.306 32.9208 31.306 32.9208H31.2713V32.9555H31.2366V32.8861C31.2713 32.8861 31.306 32.8514 31.3407 32.8514C31.4101 32.8514 31.4448 32.8861 31.4448 32.9208C31.4448 32.9555 31.4448 32.9903 31.4101 32.9903C31.4448 32.9903 31.4448 33.0249 31.4448 33.0597C31.4448 33.0944 31.3754 33.1291 31.3407 33.1291ZM31.7919 33.0944H31.6531V33.0597H31.6877L31.6531 33.0249H31.5489V33.0597H31.5836V33.0944H31.4795V33.0597H31.5142L31.6183 32.8167H31.6531L31.7919 33.0944ZM32.1042 33.1291H32.0001L31.896 32.9903V33.0597H31.9307V33.0944H31.7919V33.0597H31.8266V32.8514H31.7919V32.8167H31.9307V32.8514H31.896V32.9555L31.9654 32.8514V32.8167H32.0695V32.8514H32.0348L31.9654 32.9208L32.0695 33.0597L32.1042 33.1291ZM32.1042 33.1291C32.1042 33.0944 32.1042 33.0944 32.1042 33.1291ZM32.2431 33.1291C32.1389 33.1291 32.1042 33.0597 32.1042 32.9903C32.1042 32.8861 32.1389 32.8514 32.2431 32.8514C32.3472 32.8514 32.3819 32.9208 32.3819 32.9903C32.3819 33.0597 32.3125 33.1291 32.2431 33.1291ZM32.6942 33.1291H32.5554V33.0944H32.5901V32.9903H32.486V33.0597H32.5207V33.0944H32.3819V33.0597H32.4166V32.8514H32.3819V32.8167H32.5207V32.8514H32.486V32.9208H32.5901V32.8514H32.5554V32.8167H32.6942V32.8514H32.6595V33.0597L32.6942 33.1291ZM32.6942 33.1291C32.6942 33.0944 32.6942 33.0944 32.6942 33.1291Z" fill="#FFD400"/>
<path d="M32.2431 32.8516C32.2083 32.8516 32.1737 32.8863 32.1737 32.9557C32.1737 33.0251 32.2083 33.0599 32.2431 33.0599C32.2777 33.0599 32.3125 32.9904 32.3125 32.9557C32.2777 32.921 32.2777 32.8516 32.2431 32.8516Z" fill="#FFD400"/>
<path d="M39.7742 43.0217C39.8089 43.0217 39.8089 43.0217 39.7742 43.0217C39.7395 42.9176 39.7048 42.8828 39.6354 42.8134C39.6354 42.8481 39.6701 42.9176 39.6354 42.9522L39.7742 43.0217ZM30.0567 43.0216C30.0567 43.334 30.0914 43.6464 30.1608 43.9588C30.4038 43.8547 30.6467 43.7506 30.855 43.577C30.8897 43.2299 31.0979 42.9175 31.4103 42.7439C31.4449 42.6398 31.4797 42.5009 31.5144 42.3968L30.0567 43.0216ZM31.9306 42.1886L31.6877 42.2928C31.653 42.3969 31.6183 42.5358 31.5836 42.6399C31.7224 42.6052 31.8612 42.5705 32 42.5705C32.1389 42.5705 32.2777 42.6052 32.4165 42.6399C32.3818 42.5011 32.3471 42.3622 32.3124 42.2234L32 42.3622L31.9306 42.1886ZM32.625 42.7094C32.9373 42.883 33.1455 43.1954 33.1802 43.5425C33.3885 43.716 33.6314 43.8549 33.8743 43.9243C33.9438 43.5772 34.0132 43.2648 33.9785 42.9871L32.4861 42.2582C32.5208 42.4317 32.5556 42.5705 32.625 42.7094ZM31.5144 44.7571C31.6186 45.0001 31.7921 45.3472 32.0003 45.5208C32.2085 45.3472 32.4168 45.0001 32.5209 44.7571C32.3473 44.9307 31.7227 44.9307 31.5144 44.7571ZM25.5102 44.0283L25.649 44.6879L25.4755 44.4448L25.1284 45.035C25.0243 45.1738 25.0937 45.2779 25.2325 45.2085L25.3714 45.1738C25.5102 45.1391 25.7184 44.9655 25.7878 44.792L25.8572 44.6879C26.1696 44.1671 25.5102 44.0283 25.5102 44.0283ZM22.8032 44.2714L23.1156 44.2367L22.838 43.4036C22.8032 43.2647 22.6644 43.1953 22.5256 43.23L22.4215 43.2647C22.2827 43.2995 22.2133 43.4383 22.248 43.5772L22.4215 44.1325C22.4562 44.2019 22.6297 44.1673 22.6644 44.2714C22.9074 44.7226 23.2891 44.7226 23.2891 44.7226L23.185 44.3755L22.8032 44.2714ZM24.9897 43.2647L24.8508 42.8134C24.8161 42.6746 24.6773 42.6052 24.5385 42.6399L24.4344 42.6746C24.2956 42.7093 24.2261 42.8482 24.2608 42.987L24.5038 43.7506L24.8508 43.4383L24.5732 43.9242L24.6079 43.9936L24.712 44.3408C24.712 44.3408 25.0243 43.9242 24.9549 43.5771C24.8855 43.4729 25.0243 43.4035 24.9897 43.2647ZM23.8444 43.0911C23.8097 42.987 23.6709 42.9176 23.5668 42.9522L23.3932 43.0217C23.2891 43.0564 23.2197 43.1953 23.2544 43.2994L23.4626 43.9242L23.9485 44.1671H23.6362C23.7056 44.4796 23.8791 44.6184 24.0873 44.7573C24.0873 44.7573 24.2609 44.3407 24.1567 44.0283L23.8444 43.0911ZM38.4209 42.4664L38.8373 42.6747C38.9067 42.5705 39.0803 42.4317 39.3232 42.5011L39.4273 42.5359H39.4621C38.6985 41.6333 38.2126 40.7656 38.1085 39.6548L36.7203 40.2102C36.7897 40.4184 36.8938 40.6267 36.9979 40.835L37.3797 40.3837L37.4838 40.4879L37.0673 40.9738C37.1368 41.0779 37.2062 41.1821 37.2756 41.2862L37.5879 40.9044L37.692 41.0085L37.345 41.4251C37.4144 41.5292 37.4838 41.6333 37.5879 41.7028L37.9003 41.3556L38.0044 41.4598L37.692 41.8416C37.8656 42.0846 38.1085 42.2928 38.4209 42.4664ZM24.6424 42.5009C24.7465 42.5009 24.8507 42.5704 24.9201 42.6398L25.8918 42.258C26.0654 42.1538 26.2042 42.015 26.343 41.8761L25.9959 41.4596L26.1001 41.3555L26.4471 41.772C26.5165 41.6678 26.5859 41.5984 26.6901 41.4943L26.2389 41.0431L26.343 40.9389L26.6901 41.3902C26.7595 41.286 26.8289 41.1819 26.8983 41.0778L26.4471 40.5224L26.5513 40.4182L26.9677 40.9042C27.176 40.4877 27.3148 40.1058 27.3495 39.7587L25.9265 39.0992C25.9265 40.4182 25.4754 41.4943 24.6424 42.5009ZM19.8184 23.9997V23.6179L20.0614 23.9303C20.2696 24.208 20.4778 24.451 20.6861 24.6592C20.5472 24.3468 20.4431 23.965 20.4084 23.5485C19.7837 22.6459 19.2631 21.7782 19.0896 21.1187C18.7078 22.9236 19.1937 24.1385 19.992 25.1105C19.8878 24.7634 19.8184 24.4162 19.8184 23.9997ZM23.1503 30.352C23.1156 30.3174 23.1156 30.2826 23.0809 30.2479L22.8726 29.9355L23.2197 30.0397C23.4626 30.1091 23.7403 30.1438 24.0526 30.1438C23.4974 30.0049 22.942 29.7272 22.5603 29.1025C21.5885 28.6512 20.6168 27.9222 19.9921 27.0545C19.7491 26.8809 19.5062 26.7073 19.2979 26.4643C19.7144 28.2694 21.4844 29.8314 23.1503 30.352Z" fill="#FFE000"/>
<path d="M23.6707 28.8944C23.0807 28.6514 22.6642 28.2349 22.4213 27.8183C21.6925 27.4365 20.8595 26.8117 20.3389 25.9092C20.0266 25.6662 19.7489 25.3885 19.4366 25.0414C19.506 26.8117 20.9636 28.1654 22.456 28.8944C22.4213 28.8597 22.4213 28.825 22.3866 28.7556L22.2477 28.4431L22.5601 28.582C22.9418 28.7556 23.3236 28.825 23.6707 28.8944ZM22.5254 26.4645C22.4907 26.3604 22.4907 26.2562 22.456 26.1521L22.4213 25.8397L22.6642 26.0132C22.9418 26.2215 23.2195 26.3604 23.4971 26.4992C23.2542 26.2909 23.046 25.9438 23.0112 25.4578C21.7965 24.8678 21.2413 24.1388 20.4777 23.2363C20.5818 24.8331 21.4842 25.7355 22.5254 26.4645ZM25.0936 32.9556C25.2324 32.7473 25.406 32.5738 25.6142 32.4696C25.3018 32.5043 24.9895 32.5043 24.6771 32.5043C23.6707 32.5043 22.7683 32.2961 22.0048 31.9142C21.7619 31.9836 21.5536 32.0531 21.3454 32.1919C22.0395 32.9556 23.4624 33.268 25.0936 32.9556Z" fill="#FFE000"/>
<path d="M26.1697 33.3025H25.892C25.6491 33.3025 25.4062 33.2678 25.1285 33.2331L24.9203 33.1984L24.9897 33.0943C24.6079 33.1637 24.2261 33.1984 23.8444 33.1984C23.4974 33.1984 23.185 33.1637 22.8726 33.129C22.3867 33.2678 22.0397 33.4414 21.9009 33.7538C23.4626 34.205 24.7815 33.9621 26.1697 33.3025ZM25.9615 32.2612H25.9268C25.5103 32.2612 24.9897 32.1918 24.365 32.0529L24.1568 32.0182L24.2609 31.8446C24.2956 31.7752 24.365 31.7058 24.3998 31.6364C22.8727 31.5669 21.6233 31.0116 20.6515 29.9702C20.478 30.0049 20.3392 30.0743 20.2351 30.0743C21.5539 32.1571 23.7056 32.5736 25.9615 32.2612Z" fill="#FFE000"/>
<path d="M24.5386 31.4974C24.608 31.428 24.6774 31.3586 24.7468 31.3239C24.1221 31.185 23.6362 30.9073 23.3239 30.5255C22.6298 30.3519 21.8662 29.9701 21.2068 29.4147C20.7209 29.0329 20.3392 28.6164 19.9921 28.1651C19.8186 28.1304 19.6451 28.0957 19.5409 28.0957C20.5821 30.2131 22.1786 31.428 24.5386 31.4974Z" fill="#FFE000"/>
<path d="M23.8792 26.5685C25.2674 27.1933 26.5862 27.5057 26.7598 28.9983C26.1697 27.0545 24.4344 27.3669 22.5951 26.1173C22.6645 26.8462 23.1851 27.3322 23.9833 27.6446C24.9898 27.9917 25.9962 28.3041 26.378 29.3108C25.3021 27.7487 23.6362 28.2 22.3174 27.1933C22.4909 27.8182 23.0809 28.7206 24.2956 28.8942C25.1633 29.1025 25.6145 29.2413 26.0656 29.9008C25.1286 28.9289 23.7403 29.2066 22.4909 28.6859C23.2545 30.4562 25.0592 29.9008 26.1003 30.6298C25.198 30.2132 23.9486 30.4215 23.1851 30.1785C23.5668 30.7686 24.1915 31.081 24.8856 31.2199C25.2674 30.9769 25.6839 30.9769 26.135 30.9422C26.3086 30.9422 26.5168 30.9075 26.6903 30.9075C26.1697 30.3521 26.2739 29.3802 27.1762 29.4149C27.2803 26.2214 24.3304 26.4297 23.1851 25.0412C23.0809 25.909 23.4974 26.3602 23.8792 26.5685ZM29.1542 23.8265C29.5013 23.9654 30.2301 24.0348 30.6466 23.167C30.3342 23.3405 29.9178 23.3405 29.5707 23.3058C29.0848 23.2711 28.599 23.167 28.0784 23.2017C27.9395 23.2017 27.6966 23.3405 27.6619 23.5141C28.5642 23.3405 28.8072 23.6877 29.1542 23.8265ZM31.2019 25.8049C31.2019 26.0826 31.2019 26.3603 31.0631 26.5686L30.8896 26.8463L30.8202 26.5338C30.7855 26.4297 30.7508 26.3256 30.7161 26.2215C30.6467 26.4297 30.5773 26.638 30.4384 26.8115L30.2302 27.124L30.1955 26.7421C30.1955 26.6727 30.1955 26.638 30.1608 26.5686C30.1261 26.7074 30.0567 26.8463 29.9525 26.9851L29.9178 27.0546C29.8831 27.2975 29.8484 27.5405 29.8137 27.6794C30.1261 27.6099 30.5078 27.1934 30.6467 26.8463C30.7161 27.0546 30.8549 27.3323 30.9937 27.4364C31.2366 27.1587 31.3061 26.8115 31.3755 26.395C31.5143 26.6033 31.6878 26.6727 32.0002 26.7074C32.3125 26.6727 32.4861 26.5686 32.6249 26.395C32.6596 26.8115 32.7637 27.1587 33.0067 27.4364C33.1108 27.3323 33.2843 27.0546 33.3537 26.8463C33.4925 27.1587 33.8743 27.6099 34.1866 27.6794C34.152 27.5405 34.1172 27.2975 34.0825 27.0546L34.0478 27.0198C33.9437 26.881 33.8743 26.7421 33.8396 26.6033C33.8396 26.638 33.8396 26.7074 33.8049 26.7769L33.7355 27.124L33.5272 26.8115C33.3884 26.638 33.319 26.4297 33.2496 26.2215C33.2149 26.3256 33.1802 26.4297 33.1455 26.5338L33.0761 26.8463L32.9025 26.5686C32.7637 26.3603 32.7637 26.0826 32.7637 25.8049C32.5902 25.9785 32.3819 26.1173 32.2084 26.2215C32.1737 26.395 32.0696 26.5686 31.9655 26.7074C31.8614 26.5686 31.792 26.3603 31.7226 26.2215C31.5837 26.1173 31.3755 25.9785 31.2019 25.8049Z" fill="#FFE000"/>
<path d="M30.1606 23.9305C29.5706 24.2429 29.0848 23.9999 28.8071 23.7916C28.4601 23.5486 28.113 23.5486 27.766 23.6181C28.4253 24.0346 28.1824 24.7983 28.6336 25.0065C28.8418 25.1454 29.3277 25.4578 29.5359 26.0132C29.64 25.8396 29.7442 25.2148 29.1889 24.5206C29.3277 24.59 29.5012 24.7983 29.5012 24.7983C29.8483 25.0065 30.1259 25.2495 30.2995 25.5272C30.3689 25.1107 30.1606 24.7288 29.8136 24.3123C30.3689 24.9718 30.9936 25.0065 31.4101 24.8677C30.9241 24.833 30.4036 24.347 30.1606 23.9305ZM28.0783 23.7222C28.1824 23.7222 28.3907 23.6875 28.703 23.8611C28.5989 23.9652 28.3559 24.1387 28.0783 23.7222Z" fill="#FFE000"/>
<path d="M30.3345 24.9716C30.4039 25.1452 30.4385 25.3535 30.4039 25.5964L30.3345 25.9782L30.1262 25.6659C29.9874 25.4576 29.8138 25.284 29.6056 25.1452C29.7444 25.5617 29.7097 25.8741 29.6403 26.0824C29.7444 26.3601 29.8139 26.6725 29.8139 26.9502C30.0221 26.6378 30.0915 26.3254 30.0915 25.9782C30.1956 26.2213 30.265 26.4642 30.2997 26.7419C30.508 26.4295 30.6121 26.1171 30.6468 25.77C30.7856 26.013 30.8897 26.2559 30.9244 26.499C31.098 26.2559 31.0286 25.8047 30.9938 25.4229C31.2368 25.7005 31.6186 26.0477 31.8615 26.1518C31.7227 25.77 31.445 25.4229 31.1674 25.1452C31.1326 25.1105 30.6468 25.1799 30.3345 24.9716ZM29.2236 28.4776C28.3559 28.9289 28.3907 29.7967 27.9395 29.9702C28.0436 30.0049 28.113 30.0397 28.2171 30.0397C28.3212 29.9355 28.3907 29.7967 28.4601 29.6578C28.7377 29.2413 29.0501 28.7206 29.883 28.5123C29.883 28.4776 29.8483 28.4429 29.8483 28.4082C29.7095 28.4429 29.6054 28.4776 29.5012 28.4776H29.2236ZM23.983 27.8182C23.2889 27.5405 22.8377 27.1587 22.6295 26.6728C21.9354 26.2562 21.3454 25.7356 20.8942 25.076C20.5472 24.7636 20.2695 24.4165 19.9572 24.0347C19.9572 25.805 21.1024 26.9505 22.3171 27.61C22.2825 27.5058 22.213 27.367 22.1783 27.2628L22.0742 26.8463L22.3866 27.0893C22.9072 27.4711 23.4277 27.6447 23.983 27.8182Z" fill="#FFE000"/>
<path d="M19.2979 25.0757V24.6592L19.5755 24.9716C19.8184 25.284 20.0614 25.4922 20.3043 25.7005L19.8879 25.1798C19.4367 24.6244 19.1243 23.9996 18.9508 23.3748L18.7426 22.9583C18.3608 24.798 19.0202 25.7005 19.7837 26.603C19.5061 26.1518 19.3326 25.6311 19.2979 25.0757ZM25.8227 35.8365C25.6491 35.9406 25.4756 36.0101 25.2674 36.0795L25.7186 36.2878C25.7186 36.1836 25.788 36.0101 25.8227 35.8365ZM26.6207 36.8429L26.7595 36.9123L26.8637 36.8429L27.1066 36.9471V36.3223C26.9678 36.4958 26.7942 36.7041 26.6207 36.8429ZM27.8354 37.2943L28.009 37.3637L28.1131 37.5372L28.3907 37.6761C28.3213 37.3984 28.2866 37.0513 28.2866 36.7389C28.1478 36.9472 28.009 37.1207 27.8354 37.2943ZM22.9072 35.0034L23.393 35.2464C24.4689 35.2117 25.3366 34.7604 26.2042 34.205V34.1703C26.2042 33.858 26.4124 33.4761 26.5859 33.2331C25.6836 33.7191 24.8854 33.9968 24.0871 34.1009C23.5318 34.3786 23.0807 34.6563 22.9072 35.0034ZM43.9042 23.9303L44.1471 23.6179V23.9997C44.1471 24.4162 44.0777 24.7634 43.9736 25.1105C44.7718 24.1385 45.2577 22.9236 44.8759 21.1187C44.7024 21.7782 44.1818 22.6459 43.5571 23.5485C43.5224 23.965 43.4183 24.3121 43.2795 24.6592C43.4877 24.4162 43.6959 24.1733 43.9042 23.9303ZM41.3707 29.1369C40.989 29.7617 40.4337 30.0047 39.8784 30.1782C40.1907 30.1435 40.5031 30.1435 40.7113 30.0741L41.0584 29.97L40.8502 30.2824C40.8154 30.3171 40.8154 30.3518 40.7808 30.3865C42.4466 29.8658 44.2166 28.3038 44.5984 26.5335C44.3554 26.7418 44.1125 26.95 43.9043 27.1236C43.3142 27.9914 42.3425 28.6856 41.3707 29.1369Z" fill="#FFE000"/>
<path d="M41.5096 28.9291C43.002 28.1654 44.4596 26.8117 44.529 25.0761C44.2514 25.4232 43.939 25.7009 43.6267 25.9439C43.1061 26.8464 42.2384 27.4365 41.5443 27.853C41.3014 28.3043 40.8849 28.6861 40.2949 28.9291C40.6767 28.8596 41.0237 28.7902 41.4055 28.6514L41.7178 28.5125L41.579 28.8249C41.5443 28.8249 41.5443 28.8943 41.5096 28.9291ZM40.4335 26.4992C40.7112 26.3603 40.9888 26.2215 41.2665 26.0132L41.5094 25.8397L41.4747 26.1521C41.4747 26.2562 41.44 26.3603 41.4053 26.4645C42.4812 25.7703 43.3488 24.833 43.4182 23.271C42.6894 24.1735 42.1341 24.9024 40.8847 25.4926C40.8847 25.9438 40.6765 26.2909 40.4335 26.4992ZM39.2882 32.5043C39.0106 32.5043 38.6982 32.5043 38.3512 32.4696C38.5247 32.5737 38.6982 32.7473 38.8718 32.9556C40.503 33.2679 41.9259 32.9902 42.62 32.2266C42.4118 32.0878 42.2035 31.9836 41.9606 31.9489C41.1971 32.296 40.2947 32.5043 39.2882 32.5043Z" fill="#FFE000"/>
<path d="M41.0931 33.1291C40.7807 33.1985 40.4684 33.1985 40.1213 33.1985C39.7395 33.1985 39.3578 33.1637 38.976 33.0943L39.0454 33.1985L38.8372 33.2332C38.5596 33.3026 38.3166 33.3026 38.0737 33.3026H37.7961C39.1496 33.9621 40.5031 34.2051 42.0301 33.7539C41.926 33.4414 41.579 33.2679 41.0931 33.1291ZM39.5659 31.6363C39.6006 31.7057 39.67 31.7752 39.7047 31.8446L39.8089 32.0182L39.6006 32.0529C38.9759 32.1917 38.4553 32.2611 38.0389 32.2611H38.0041C40.2253 32.5735 42.4118 32.157 43.7306 30.109C43.6265 30.0743 43.453 30.0396 43.3141 30.0049C42.3077 31.0115 41.0582 31.5669 39.5659 31.6363Z" fill="#FFE000"/>
<path d="M42.7937 29.4493C42.1343 29.9701 41.3708 30.3519 40.6767 30.5601C40.3296 30.9419 39.8437 31.2196 39.2538 31.3585C39.3232 31.4279 39.3926 31.4627 39.462 31.5321C41.822 31.4279 43.4184 30.213 44.4943 28.165C44.3902 28.165 44.2167 28.1998 44.0432 28.2344C43.6614 28.651 43.2796 29.0675 42.7937 29.4493Z" fill="#FFE000"/>
<path d="M37.2409 30.9075C37.4491 30.9423 37.6226 30.9423 37.7961 30.9423C38.2473 30.977 38.6638 30.977 39.0456 31.2199C39.7397 31.0811 40.3644 30.7687 40.7461 30.1786C39.9826 30.4216 38.7679 30.2133 37.8309 30.6298C38.872 29.9009 40.6767 30.4563 41.4055 28.7554C40.1561 29.2761 38.7679 28.9984 37.8309 29.9703C38.282 29.3108 38.7332 29.172 39.6009 28.9637C40.8502 28.7554 41.4055 27.8876 41.5791 27.2628C40.2603 28.2695 38.5944 27.8182 37.5185 29.3802C37.935 28.3389 38.9067 28.0265 39.9132 27.7141C40.7114 27.4017 41.232 26.9157 41.3014 26.1868C39.462 27.4364 37.7267 27.124 37.1367 29.0678C37.3103 27.5752 38.6638 27.2281 40.0173 26.638C40.3991 26.395 40.7808 25.9438 40.7114 25.1107C39.5661 26.4644 36.6162 26.2909 36.7203 29.4844C37.692 29.3802 37.7961 30.3521 37.2409 30.9075ZM34.8112 23.8265C35.1583 23.6529 35.4012 23.3405 36.3036 23.5141C36.2688 23.3405 36.0606 23.2017 35.8871 23.2017C35.3665 23.167 34.8806 23.2711 34.3948 23.3058C34.0477 23.3405 33.6312 23.3405 33.3189 23.167C33.7353 24.0348 34.4642 23.9654 34.8112 23.8265ZM32.9374 25.423C32.9027 25.8048 32.8333 26.256 33.0068 26.499C33.0762 26.256 33.1803 25.9783 33.2844 25.7701C33.3191 26.1172 33.4232 26.4296 33.6315 26.742C33.6662 26.4643 33.7356 26.2213 33.8397 25.9783C33.8397 26.3255 33.9091 26.6726 34.1174 26.9503C34.1174 26.6379 34.1521 26.3602 34.2909 26.0825C34.2215 25.8742 34.1868 25.5618 34.3256 25.1453C34.1174 25.2841 33.9438 25.4924 33.805 25.666L33.5968 25.9783L33.5274 25.5965C33.4926 25.3883 33.5274 25.18 33.5968 24.9717C33.2844 25.1453 32.7985 25.1106 32.7291 25.1106C32.4515 25.3883 32.2085 25.7354 32.035 26.1172C32.3473 26.0131 32.6944 25.7006 32.9374 25.423ZM34.7421 28.4776L34.6032 28.5123H34.4991C34.395 28.5123 34.2562 28.4776 34.1521 28.4429C34.1521 28.4776 34.1174 28.5123 34.1174 28.547C34.9503 28.7206 35.2626 29.2412 35.5403 29.6925C35.6097 29.8313 35.7138 29.9702 35.7832 30.0743C35.8874 30.0743 35.9568 30.0396 36.0609 30.0049C35.575 29.7966 35.6097 28.9289 34.7421 28.4776Z" fill="#FFE000"/>
<path d="M41.6485 27.61C42.8632 26.9157 44.0085 25.7702 44.0085 24.0347C43.6961 24.4512 43.3838 24.7636 43.0714 25.076C42.655 25.7702 42.0303 26.2909 41.3709 26.7075C41.1626 27.1934 40.7114 27.5405 40.052 27.8182H40.0173C40.5379 27.6794 41.0932 27.5058 41.5791 27.124L41.8915 26.881L41.7873 27.2976C41.7526 27.367 41.6832 27.4711 41.6485 27.61Z" fill="#FFE000"/>
<path d="M43.6615 25.7006C43.9044 25.4923 44.1473 25.2494 44.3903 24.9717L44.6679 24.6592V25.0758C44.6332 25.6312 44.4944 26.1866 44.2167 26.6726C44.9802 25.7353 45.6397 24.8675 45.2579 23.0278C45.1885 23.1666 45.1191 23.3055 45.0497 23.4443C44.8762 24.1039 44.5638 24.694 44.1126 25.2494L43.6615 25.7006ZM40.8848 34.7952C40.6765 34.5522 40.2948 34.3439 39.8783 34.101C39.0801 33.9968 38.2819 33.7191 37.3795 33.2332C37.5877 33.4761 37.7612 33.858 37.7612 34.1704V34.2051C38.5248 34.691 39.2883 35.0729 40.1907 35.177C40.3989 35.0382 40.6418 34.8993 40.8848 34.7952ZM38.5596 36.0448C38.4208 35.9754 38.2819 35.906 38.1431 35.8365C38.1778 35.9754 38.1778 36.1142 38.2125 36.2184C38.3513 36.1837 38.4554 36.1142 38.5596 36.0448ZM37.2754 36.7737C37.1366 36.6349 36.9977 36.496 36.8589 36.3572C36.8936 36.6002 36.8936 36.8085 36.8589 36.982C36.9977 36.9126 37.1366 36.8432 37.2754 36.7737ZM35.5402 37.6761C35.7484 37.572 35.9566 37.4331 36.1996 37.329C36.026 37.1207 35.8525 36.9472 35.7137 36.7389C35.679 37.1207 35.6443 37.4331 35.5402 37.6761ZM39.5312 35.5241C39.4271 35.3852 39.323 35.2464 39.1842 35.1075C38.6288 34.934 38.143 34.6215 37.6224 34.3092H37.4141C37.1018 34.3092 36.7548 34.205 36.4771 34.0315C36.4771 34.1009 36.4424 34.1356 36.4424 34.205C37.1018 34.9687 37.7959 35.6282 38.733 35.9753C39.0106 35.8018 39.2883 35.6629 39.5312 35.5241ZM38.0738 36.3224C38.0738 36.1489 38.0391 35.9753 37.9697 35.767C37.3797 35.42 36.8591 34.934 36.4079 34.3786C36.3385 34.5869 36.2691 34.7951 36.1997 35.0034C36.4773 35.6629 36.8591 36.2183 37.4144 36.7043C37.6226 36.5654 37.8656 36.4613 38.0738 36.3224ZM36.6854 36.149C36.4425 35.8365 36.2689 35.4894 36.1301 35.1423C35.9566 35.4894 35.7483 35.8018 35.4707 36.0795C35.6789 36.496 35.9566 36.8779 36.3036 37.2597C36.4425 37.1903 36.5813 37.1208 36.7201 37.0514C36.7548 36.8085 36.7201 36.4961 36.6854 36.149ZM35.5402 36.5306C35.4708 36.4265 35.4014 36.3224 35.3667 36.2182C35.2279 36.3571 35.089 36.4959 34.9155 36.6001V37.2249C35.0544 37.3984 35.1932 37.572 35.332 37.7456C35.5055 37.4679 35.5749 37.0513 35.5402 36.5306ZM34.3948 37.2597C34.2907 37.3985 34.2213 37.5721 34.0825 37.6762C34.1866 37.8498 34.3254 38.0581 34.4642 38.2316C34.5683 38.1622 34.6725 38.1275 34.7766 38.0581C34.846 37.8845 34.9154 37.711 34.9501 37.468C34.8807 37.3985 34.8113 37.2944 34.7766 37.225H34.3948V37.2597ZM33.9785 37.7802C33.7703 37.9885 33.5274 38.1968 33.2497 38.3356C33.3885 38.4398 33.5274 38.5439 33.6662 38.648C33.8397 38.5439 34.048 38.4745 34.2215 38.3703C34.2215 38.2662 34.1868 38.1968 34.1521 38.0927C34.0826 37.9885 34.048 37.8844 33.9785 37.7802ZM33.4577 38.7521V38.6827C33.3536 38.6133 33.2147 38.5091 33.1107 38.405C32.8677 38.5091 32.59 38.5786 32.2777 38.6133C32.3818 38.8215 32.4859 38.9951 32.6248 39.1687L33.4577 38.7521ZM32.139 38.6135H31.8266C31.7572 38.787 31.6184 38.9606 31.549 39.1342L31.9308 39.3077C31.9655 39.2383 32.0002 39.1342 32.0002 39.0647C32.0349 39.2036 32.0696 39.3077 32.1043 39.4465C32.2431 39.3771 32.3819 39.3077 32.5208 39.2383C32.3819 39.03 32.2431 38.8217 32.139 38.6135ZM30.5078 38.7174L30.7508 38.8215L30.8202 38.7868L31.3755 39.0645C31.4796 38.9257 31.5837 38.7521 31.6531 38.6133C31.3755 38.5786 31.0978 38.5091 30.8202 38.405C30.7508 38.4744 30.6119 38.648 30.5078 38.7174ZM30.716 38.3356C30.4384 38.1968 30.1954 38.0232 29.9872 37.7802C29.9178 37.8844 29.8831 37.9885 29.8137 38.0579C29.8137 38.1274 29.7443 38.2662 29.7443 38.3009L30.4036 38.6133C30.4731 38.5786 30.6119 38.4051 30.716 38.3356ZM29.5707 37.2596H29.2237C29.1542 37.329 29.1195 37.4331 29.0501 37.5026C29.0501 37.6761 29.0848 37.9191 29.1195 38.0232L29.5707 38.2315C29.6748 38.0927 29.8483 37.815 29.9178 37.6761C29.7789 37.5373 29.6748 37.3984 29.5707 37.2596ZM29.0849 37.1208V36.6002C28.9113 36.4613 28.7725 36.3225 28.6337 36.1836C28.5643 36.2878 28.4949 36.4266 28.4255 36.5308C28.3908 37.0167 28.4255 37.5027 28.5643 37.7804L28.6337 37.8151C28.7725 37.6416 28.9461 37.3639 29.0502 37.1903V37.1208H29.0849ZM27.8702 35.1074C27.6967 35.4545 27.5232 35.8016 27.2802 36.1487C27.2455 36.4958 27.2108 36.8083 27.2455 37.0512L27.6967 37.2595C28.0437 36.8777 28.3214 36.4958 28.5296 36.0793C28.2519 35.7669 28.0437 35.4545 27.8702 35.1074ZM27.5578 34.3437C27.072 34.8991 26.5514 35.4197 25.9614 35.7668C25.892 36.0098 25.8225 36.2875 25.8225 36.4958L26.5167 36.8082C27.1066 36.3222 27.5232 35.5933 27.8008 34.9338C27.6967 34.7602 27.6272 34.5519 27.5578 34.3437Z" fill="#FFE000"/>
<path d="M27.5231 34.1703C27.5231 34.1356 27.4884 34.0662 27.4884 34.0315C27.176 34.205 26.8637 34.3439 26.5166 34.3439H26.3084C25.8225 34.6562 25.3019 34.9339 24.7466 35.1422C24.5731 35.3505 24.3302 35.5935 24.1913 35.767L24.8854 36.1141C25.996 35.7323 26.829 35.0034 27.5231 34.1703ZM39.566 31.9487C38.6637 30.5602 37.5184 31.5322 36.1302 30.6643C36.026 30.7338 35.8872 30.7338 35.7137 30.7685C36.0954 31.2892 36.3384 31.8793 36.4425 32.4694C36.8937 33.1636 37.8307 33.2677 38.7331 33.0942C38.4208 32.5735 38.0043 32.3999 37.5184 32.2958C36.9631 32.1222 36.5119 31.914 36.3731 31.3239C36.859 32.3305 38.3166 32.1917 39.566 31.9487ZM37.5879 34.1702C37.5879 33.8231 37.3102 33.3371 37.102 33.1983C36.8244 33.0942 36.6508 32.9553 36.512 32.7471C36.5467 32.9206 36.5467 33.0942 36.5467 33.233C36.5467 33.4413 36.512 33.6843 36.4773 33.8925C36.859 34.1008 37.2408 34.2049 37.5879 34.1702ZM26.829 33.1982C26.6208 33.3718 26.3779 33.823 26.3431 34.1702C26.7249 34.2049 27.072 34.1007 27.4537 33.8578C27.419 33.6495 27.419 33.4412 27.419 33.233C27.419 33.0594 27.419 32.8511 27.4537 32.6776C27.3149 32.9205 27.1414 33.0594 26.829 33.1982ZM26.378 32.2958C25.8921 32.3999 25.4756 32.6082 25.1633 33.0942C26.1003 33.2677 27.0721 33.1636 27.5233 32.3999C27.6274 31.8099 27.905 31.2545 28.2521 30.7685C28.0785 30.7685 27.9397 30.7338 27.8356 30.6643C26.4821 31.5322 25.3021 30.5602 24.3998 31.9487C25.6491 32.2264 27.1068 32.3652 27.558 31.3239C27.3844 31.914 26.9333 32.1222 26.378 32.2958ZM34.9155 29.8661C35.1931 30.0743 35.4361 30.352 35.6443 30.595C35.8525 30.595 36.026 30.5603 36.1996 30.4561C35.2625 30.2826 35.4361 28.9288 34.0131 28.6512L33.9784 28.6858C34.1172 28.8247 34.256 28.9983 34.3602 29.2065H34.9155V29.8661ZM28.3561 30.6296C28.5643 30.3519 28.8073 30.1089 29.0849 29.9006V29.2411H29.5708C29.6749 29.0328 29.8137 28.8593 29.9526 28.7204L29.9178 28.6857C28.4949 28.9981 28.6684 30.3172 27.7314 30.4907C27.9396 30.5949 28.1131 30.6296 28.3561 30.6296ZM29.9872 28.3735C30.022 28.4429 30.0567 28.5123 30.0914 28.5817C30.2302 28.4429 30.369 28.3387 30.5425 28.2346C30.5078 28.1652 30.5078 28.061 30.5078 27.9569C30.3343 28.1652 30.1608 28.304 29.9872 28.3735ZM33.4925 27.9915C33.4925 28.0956 33.4578 28.1998 33.4578 28.2692C33.6314 28.3733 33.7702 28.4775 33.909 28.6163C33.9437 28.5469 33.9784 28.4775 34.0131 28.408C33.8049 28.3039 33.6314 28.165 33.4925 27.9915ZM31.5144 27.8873H31.6532C31.6532 27.8526 31.6186 27.7831 31.6186 27.7484C31.5838 27.7831 31.5492 27.8526 31.5144 27.8873ZM32.4514 27.8874C32.4167 27.8527 32.382 27.7833 32.3473 27.7139C32.3473 27.7833 32.3126 27.818 32.3126 27.8527C32.3473 27.8874 32.4167 27.8874 32.4514 27.8874Z" fill="#FFE000"/>
<path d="M34.1171 27.8183C33.8395 27.7489 33.5272 27.4712 33.3536 27.1935C33.2842 27.3324 33.1801 27.4712 33.076 27.5753L32.9719 27.6795L32.8678 27.5753C32.6595 27.3324 32.5554 27.0199 32.486 26.7075C32.3472 26.9852 31.5489 26.9852 31.4448 26.7075C31.4101 26.9852 31.306 27.2976 31.063 27.5753L30.959 27.6795L30.8548 27.5753C30.7507 27.5059 30.6813 27.367 30.5772 27.1935C30.3689 27.4712 30.0566 27.7836 29.8137 27.8183L29.7095 27.853C29.6401 28.0266 29.536 28.2001 29.3972 28.3737C29.7789 28.4431 30.3342 28.096 30.6119 27.5753C30.6119 27.853 30.6119 28.0266 30.6466 28.2001C30.8548 28.096 31.063 27.9919 31.306 27.9571C31.4448 27.7836 31.5837 27.5406 31.6183 27.2282C31.6878 27.5753 31.7225 27.7489 31.7919 27.8877H32.1389C32.2083 27.7489 32.2431 27.5406 32.3125 27.2282C32.3472 27.5406 32.486 27.7836 32.6248 27.9571C32.8678 28.0266 33.076 28.096 33.2842 28.2001C33.319 28.0613 33.319 27.8877 33.319 27.5753C33.6313 28.096 34.1519 28.4431 34.5337 28.3737C34.3948 28.2001 34.2907 28.0266 34.2213 27.853L34.1171 27.8183Z" fill="#FFE000"/>
<path d="M34.2908 37.1207H34.7766V36.5306C35.7831 35.7669 36.4425 34.5867 36.4425 33.233C36.4425 31.9139 35.7831 30.699 34.7766 29.9354V29.3453H34.2908C33.8743 28.5469 33.0413 27.9915 32.0696 27.9915H31.896C30.9243 27.9915 30.0914 28.5469 29.6749 29.3453H29.2237V29.9354C28.2173 30.699 27.5578 31.8792 27.5578 33.233C27.5578 34.552 28.2173 35.7669 29.2237 36.5306V37.1207H29.6749C30.0914 37.919 30.9243 38.4744 31.896 38.4744H32.0696C33.0413 38.4744 33.8743 37.919 34.2908 37.1207ZM32.0696 38.2661H31.896C31.0284 38.2661 30.2649 37.7802 29.8484 37.0166L29.779 36.9124H29.3972V36.4612L29.3278 36.3917C28.3214 35.6281 27.7661 34.4826 27.7661 33.2677C27.7661 32.0528 28.3561 30.9073 29.3278 30.1436L29.3972 30.0742V29.5882H29.779L29.8484 29.4841C30.2649 28.7205 31.0284 28.2345 31.896 28.2345H32.0696C32.9373 28.2345 33.7008 28.7205 34.1172 29.4841L34.1866 29.5882H34.5684V30.0395L34.6378 30.1089C35.6443 30.8726 36.1996 32.018 36.1996 33.233C36.1996 34.4479 35.6096 35.5934 34.6378 36.357L34.5684 36.4264V36.8777H34.1866L34.1172 36.9818C33.7008 37.7802 32.9373 38.2661 32.0696 38.2661ZM34.1865 24.3816C33.8395 24.7982 33.6312 25.18 33.7006 25.5965C33.8742 25.3188 34.1171 25.0759 34.4988 24.8676C34.4988 24.8676 34.6724 24.6246 34.8112 24.5899C34.2559 25.2841 34.36 25.8742 34.4642 26.0825C34.6724 25.4924 35.1583 25.18 35.3665 25.0759C35.8177 24.8676 35.5747 24.0692 36.2341 23.6874C35.8524 23.618 35.5053 23.618 35.193 23.861C34.9153 24.0692 34.4294 24.3122 33.8395 23.9998C33.5965 24.3816 33.0759 24.9023 32.6248 24.9717C33.0065 25.0411 33.6312 25.0065 34.1865 24.3816ZM35.8871 23.7221C35.6095 24.1039 35.4012 23.9304 35.2624 23.861C35.5747 23.7221 35.7483 23.7568 35.8871 23.7221ZM38.1431 44.306L37.9349 44.5143L38.1431 43.8548C38.1431 43.8548 37.449 43.9242 37.7267 44.5143L37.7614 44.6184C37.8308 44.792 38.0043 44.9656 38.1431 45.035L38.2473 45.1044C38.3861 45.1738 38.4555 45.1044 38.3861 44.9309L38.1431 44.306ZM41.3012 43.473L41.1971 43.4383C41.0582 43.3689 40.9194 43.4383 40.85 43.5772L40.4683 44.3755L40.7806 44.4449L40.3989 44.5144L40.26 44.8615C40.26 44.8615 40.6418 44.9309 40.9194 44.4796C40.9888 44.3755 41.1276 44.4449 41.1624 44.3755L41.4053 43.8201C41.4747 43.6813 41.44 43.5424 41.3012 43.473ZM39.5314 43.0216C39.6008 42.8828 39.5314 42.7439 39.3926 42.6745L39.2884 42.6051C39.1496 42.5357 39.0108 42.6051 38.9414 42.7439L38.7331 43.1605C38.6637 43.2993 38.8025 43.3687 38.7331 43.5076C38.629 43.8547 38.9067 44.2713 38.9067 44.2713L39.0455 43.9241L39.0802 43.8547L38.8719 43.3687L39.1843 43.6812L39.5314 43.0216ZM40.4684 43.3688C40.5031 43.2647 40.4684 43.1258 40.3643 43.0911L40.1908 43.0217C40.0866 42.987 39.9478 43.0217 39.9131 43.1258L39.5313 43.9937C39.3925 44.306 39.5313 44.7573 39.5313 44.7573C39.7396 44.6184 39.9131 44.4796 40.0172 44.2019L39.7396 44.1672L40.2254 43.9937L40.4684 43.3688Z" fill="#FFE000"/>
</svg>
