<svg width="76" height="76" viewBox="0 0 76 76" fill="none" xmlns="http://www.w3.org/2000/svg">
<rect x="0.5" y="0.5" width="75" height="75" rx="37.5" stroke="#2F94EF" stroke-opacity="0.12"/>
<rect x="8" y="8" width="60" height="60" rx="30" fill="url(#paint0_linear_2001_138400)"/>
<path d="M31 34.915H30M46 34.915H45M38 29.915V31.915M37 31.915H39M33 40.915H35M41 40.915H43M41.0712 29.915H34.9287C32.75 29.915 32.2687 30.9775 31.9887 32.2798L31 36.915H45L44.0113 32.2798C43.7313 30.9775 43.25 29.915 41.0712 29.915ZM46.9921 44.9332C47.0911 45.9969 46.245 46.915 45.1649 46.915H43.4727C42.5006 46.915 42.3655 46.4969 42.1945 45.9787L42.0145 45.4332C41.7625 44.6878 41.6004 44.1878 40.3043 44.1878H35.6957C34.3996 44.1878 34.2105 44.7514 33.9855 45.4332L33.8055 45.9787C33.6345 46.4969 33.4994 46.915 32.5273 46.915H30.8351C29.755 46.915 28.9089 45.9969 29.0079 44.9332L29.5119 39.3969C29.638 38.0332 29.899 36.915 32.2573 36.915H43.7427C46.101 36.915 46.362 38.0332 46.4881 39.3969L46.9921 44.9332Z" stroke="white" stroke-width="1.5" stroke-linecap="round" stroke-linejoin="round"/>
<defs>
<linearGradient id="paint0_linear_2001_138400" x1="38" y1="8" x2="38" y2="68" gradientUnits="userSpaceOnUse">
<stop stop-color="#2F94EF"/>
<stop offset="1" stop-color="#91C6F6"/>
</linearGradient>
</defs>
</svg>
