<svg width="76" height="76" viewBox="0 0 76 76" fill="none" xmlns="http://www.w3.org/2000/svg">
<rect x="0.5" y="0.5" width="75" height="75" rx="37.5" stroke="#2F94EF" stroke-opacity="0.12"/>
<rect x="8" y="8" width="60" height="60" rx="30" fill="url(#paint0_linear_2001_138407)"/>
<path d="M29.0588 38.3873V34.0719C29.0588 32.9482 29.7481 31.9473 30.7963 31.5507L38.2939 28.7178C39.4648 28.274 40.7207 29.1428 40.7207 30.3987V33.9869M33 37.9995H40M43.7329 39.4644C43.3363 39.8515 43.1097 40.4087 43.1664 41.0036C43.2513 42.0234 44.1862 42.7694 45.206 42.7694H47.0002V43.8931C47.0002 45.8477 45.4043 47.4436 43.4496 47.4436H32.6093C30.6546 47.4436 29.0588 45.8477 29.0588 43.8931V37.5381C29.0588 35.5834 30.6546 33.9875 32.6093 33.9875H43.4496C45.4043 33.9875 47.0002 35.5834 47.0002 37.5381V38.8978H45.0927C44.5639 38.8978 44.0823 39.1055 43.7329 39.4644ZM48 39.9946V42.0044C48 42.541 47.571 42.98 47.0251 42.9995H45.1145C44.0617 42.9995 43.0966 42.2288 43.0089 41.1751C42.9504 40.5605 43.1843 39.9848 43.5938 39.5848C43.9544 39.2141 44.4516 38.9995 44.9975 38.9995H47.0251C47.571 39.019 48 39.458 48 39.9946Z" stroke="white" stroke-width="1.5" stroke-linecap="round" stroke-linejoin="round"/>
<defs>
<linearGradient id="paint0_linear_2001_138407" x1="38" y1="8" x2="38" y2="68" gradientUnits="userSpaceOnUse">
<stop stop-color="#2F94EF"/>
<stop offset="1" stop-color="#91C6F6"/>
</linearGradient>
</defs>
</svg>
