<svg width="76" height="76" viewBox="0 0 76 76" fill="none" xmlns="http://www.w3.org/2000/svg">
<rect x="0.5" y="0.5" width="75" height="75" rx="37.5" stroke="#2F94EF" stroke-opacity="0.12"/>
<rect x="8" y="8" width="60" height="60" rx="30" fill="url(#paint0_linear_2001_138393)"/>
<path d="M46.01 44.5101L41.06 39.5601" stroke="white" stroke-width="1.5" stroke-miterlimit="10" stroke-linecap="round" stroke-linejoin="round"/>
<path d="M41.06 39.56L37.52 43.1C36.74 43.88 35.47 43.88 34.69 43.1L30.45 38.86C29.67 38.08 29.67 36.81 30.45 36.03L37.52 28.96C38.3 28.18 39.57 28.18 40.35 28.96L44.59 33.2C45.37 33.98 45.37 35.25 44.59 36.03L41.06 39.56Z" stroke="white" stroke-width="1.5" stroke-miterlimit="10" stroke-linecap="round" stroke-linejoin="round"/>
<path d="M28 47H34" stroke="white" stroke-width="1.5" stroke-miterlimit="10" stroke-linecap="round" stroke-linejoin="round"/>
<path d="M32.56 33.92L39.63 40.99" stroke="white" stroke-width="1.5" stroke-miterlimit="10" stroke-linecap="round" stroke-linejoin="round"/>
<defs>
<linearGradient id="paint0_linear_2001_138393" x1="38" y1="8" x2="38" y2="68" gradientUnits="userSpaceOnUse">
<stop stop-color="#2F94EF"/>
<stop offset="1" stop-color="#91C6F6"/>
</linearGradient>
</defs>
</svg>
