<svg width="34" height="12" viewBox="0 0 34 12" fill="none" xmlns="http://www.w3.org/2000/svg">
<g clip-path="url(#clip0_2001_139740)">
<path d="M11.4049 0.452881H0.42627V11.5579H11.4049V0.452881Z" fill="#FF0032"/>
<path d="M7.74033 1.29932V1.81715H8.84369V3.87724H9.4614V1.81715H10.5647V1.29932H7.73975H7.74033Z" fill="white"/>
<path d="M3.76641 1.30688L2.95935 3.00166L2.15228 1.30688H1.271V3.86945H1.88872V2.03516L2.67766 3.58452H3.24102L4.02998 2.03516V3.86945H4.64769V1.30688H3.76641Z" fill="white"/>
<path d="M9.94555 9.84879C9.93389 9.94341 9.89124 10.0314 9.8246 10.0988C9.75505 10.1627 9.66974 10.2064 9.57741 10.2247C9.443 10.252 9.30566 10.2644 9.16833 10.262C9.02222 10.2644 8.8767 10.2431 8.73761 10.1982C8.62366 10.1609 8.52489 10.0858 8.45827 9.98472C8.39107 9.88371 8.35776 9.73827 8.35776 9.55325V9.29078C8.35776 9.10398 8.39165 8.95857 8.45827 8.85807C8.52489 8.75758 8.62307 8.68251 8.73703 8.64526C8.87612 8.60034 9.02164 8.57905 9.16773 8.58142C9.30507 8.57905 9.44182 8.59207 9.57682 8.61866C9.66916 8.63699 9.75447 8.68073 9.82402 8.74457C9.89066 8.81196 9.93331 8.90004 9.94496 8.99463H10.5633C10.5522 8.79778 10.478 8.6092 10.3517 8.45905C10.2273 8.32073 10.066 8.22083 9.88716 8.17236C9.6528 8.1097 9.41085 8.08073 9.16833 8.08546C8.87203 8.08546 8.61548 8.12861 8.40509 8.21374C8.19704 8.29472 8.02289 8.44546 7.91127 8.64113C7.80257 8.83029 7.7453 9.0827 7.74121 9.39246V9.42083L7.77452 9.42201H7.74121V9.45039C7.7453 9.76014 7.80198 10.0126 7.91127 10.2017C8.02289 10.3968 8.19704 10.5481 8.40509 10.6291C8.61548 10.7143 8.87261 10.7573 9.16833 10.7573C9.41085 10.7621 9.6528 10.7332 9.88716 10.6705C10.066 10.622 10.2273 10.5227 10.3517 10.3838C10.478 10.2331 10.5522 10.045 10.5633 9.8482L9.94555 9.84997V9.84879Z" fill="white"/>
<path d="M11.4049 0.452881H0.42627V11.5579H11.4049V0.452881Z" fill="#FF0032"/>
<path d="M7.74033 1.29932V1.81715H8.84369V3.87724H9.4614V1.81715H10.5647V1.29932H7.73975H7.74033Z" fill="white"/>
<path d="M3.76641 1.30688L2.95935 3.00166L2.15228 1.30688H1.271V3.86945H1.88872V2.03516L2.67766 3.58452H3.24102L4.02998 2.03516V3.86945H4.64769V1.30688H3.76641Z" fill="white"/>
<path d="M9.94555 9.84879C9.93389 9.94341 9.89124 10.0314 9.8246 10.0988C9.75505 10.1627 9.66974 10.2064 9.57741 10.2247C9.443 10.252 9.30566 10.2644 9.16833 10.262C9.02222 10.2644 8.8767 10.2431 8.73761 10.1982C8.62366 10.1609 8.52489 10.0858 8.45827 9.98472C8.39107 9.88371 8.35776 9.73827 8.35776 9.55325V9.29078C8.35776 9.10457 8.39165 8.95857 8.45827 8.85807C8.52489 8.75758 8.62307 8.68251 8.73703 8.64526C8.87612 8.60034 9.02164 8.57905 9.16773 8.58142C9.30507 8.57905 9.44182 8.59207 9.57682 8.61866C9.66916 8.63699 9.75447 8.68073 9.82402 8.74457C9.89066 8.81196 9.93331 8.90004 9.94496 8.99463H10.5633C10.5522 8.79719 10.478 8.6092 10.3517 8.45905C10.2273 8.32073 10.066 8.22083 9.88716 8.17236C9.6528 8.1097 9.41085 8.08073 9.16833 8.08546C8.87203 8.08546 8.61548 8.12861 8.40509 8.21374C8.19704 8.29472 8.02289 8.44546 7.91127 8.64113C7.80257 8.83029 7.7453 9.0827 7.74121 9.39246V9.45039C7.7453 9.76014 7.80198 10.0126 7.91127 10.2017C8.02289 10.3968 8.19704 10.5481 8.40509 10.6291C8.61548 10.7143 8.87261 10.7573 9.16833 10.7573C9.41085 10.7621 9.6528 10.7332 9.88716 10.6705C10.066 10.622 10.2273 10.5227 10.3517 10.3838C10.478 10.2331 10.5522 10.045 10.5633 9.8482L9.94555 9.84997V9.84879Z" fill="white"/>
<path d="M16.7829 8.58471H17.9228L19.5678 4.13705V8.58471H20.6175V3.25635H19.0253L17.4166 7.61966L15.8243 3.25635H14.1792V8.58471H15.1446V4.1596L16.7839 8.58471H16.7829Z" fill="black"/>
<path d="M23.4868 4.13705V8.58471H24.5494V4.13705H26.6899V3.25635H21.3491V4.13705H23.4877H23.4868Z" fill="black"/>
<path d="M26.9092 5.92787C26.9092 7.94559 27.9547 8.65875 29.7934 8.65875C31.435 8.65875 32.3552 8.15992 32.5427 6.90994H31.4808C31.3067 7.63869 30.749 7.82282 29.7934 7.82282C28.6703 7.82282 27.971 7.40876 27.971 6.18118V5.64436C27.971 4.39436 28.6866 4.0183 29.7934 4.0183C30.7873 4.0183 31.3373 4.23361 31.4723 4.99257H32.534C32.383 3.68803 31.4502 3.18237 29.7934 3.18237C27.9547 3.18237 26.9092 3.91893 26.9092 5.92885V5.92787Z" fill="black"/>
</g>
<defs>
<clipPath id="clip0_2001_139740">
<rect width="34" height="12" fill="white"/>
</clipPath>
</defs>
</svg>
