<svg width="114" height="52" viewBox="0 0 114 52" fill="none" xmlns="http://www.w3.org/2000/svg">
<rect width="114" height="52" rx="8" fill="#0F1B33" fill-opacity="0.04"/>
<path opacity="0.7" d="M41.294 16.7156L41.1205 16.9586C41.2246 16.2643 41.0858 15.2924 40.9123 14.737C40.6693 15.6395 40.2182 16.4379 39.5935 17.2015L39.5587 16.7503C38.8299 17.8958 37.9276 18.833 36.9211 19.2843C36.9211 19.1107 36.8864 18.9024 36.817 18.7636C35.4982 20.4992 32.3053 20.0826 32.6523 23.5885C33.3811 23.4844 33.7282 24.2133 33.1035 24.9075C32.8258 24.9075 32.5482 24.8034 32.3053 24.6646L32.4441 24.4563L31.8888 24.1786C32.0276 24.1439 32.1664 24.0744 32.3053 24.005C31.4723 23.5885 31.75 22.7901 30.7782 22.3736C30.6047 22.2 30.4658 21.957 30.3617 21.7141C30.327 21.5405 30.2923 21.3323 30.2576 21.124C30.2576 20.7074 30.2576 20.4644 30.3617 20.2909L30.4311 20.395C30.6741 19.8396 30.9864 19.4231 31.4029 19.1801C32.5482 19.2148 33.2076 19.1454 33.4158 18.4512C33.3464 18.4859 33.3117 18.4859 33.277 18.4859C33.2423 18.4165 33.2076 18.3817 33.1729 18.347C33.4505 18.2429 33.867 18.4165 33.9711 18.4165C33.9364 18.0694 33.7976 17.9652 33.7282 17.8264L34.1099 17.5487C35.0817 17.8611 35.9146 17.1321 36.5046 17.4445L36.7129 16.7156C35.8452 16.2991 35.3246 16.8544 34.5958 16.8544C34.8041 16.4032 34.8387 15.9866 34.6652 15.5701L33.9017 15.3271C32.9646 15.6048 32.9994 16.4726 33.3464 17.0627C33.1382 17.271 32.9299 17.3751 32.7911 17.4445L32.5482 17.4792C32.5482 17.4792 32.5135 17.1668 32.097 17.0627V16.8544C32.6176 16.4379 32.6523 16.0214 32.5482 15.7784C32.4441 15.5354 32.1664 15.3965 31.9235 15.466L31.5764 15.5701L31.5417 15.5007C31.5764 15.466 31.5764 15.4312 31.5764 15.3965C31.5764 15.3271 31.5417 15.2577 31.507 15.223H31.5417L31.507 15.0842L31.6458 15.1189V14.6329L31.507 14.6676L31.5417 14.5288H31.0558L31.0906 14.6676L30.9517 14.6329V15.1189L31.0906 15.0842L30.9517 15.2577H31.0211C30.9864 15.2924 30.9517 15.3618 30.9517 15.4312C30.9517 15.466 30.9517 15.5354 30.9864 15.5701L30.9517 15.6395L30.6047 15.5354C30.3617 15.466 30.0841 15.5701 29.9799 15.8478C29.8758 16.0908 29.9105 16.4726 30.4311 16.9238V17.2015H30.0493C29.6329 16.9586 29.2858 16.542 29.1817 16.0214C29.4594 15.9866 29.6676 15.8825 29.8411 15.7089V14.98C30.9517 14.1469 31.2641 13.0362 30.2923 12.5502C29.737 12.2725 29.0429 12.5155 28.6958 12.7932C28.6264 12.689 28.5223 12.5849 28.4182 12.5502C28.4182 12.4461 28.3835 12.3419 28.2794 12.2378H28.3488L28.2794 11.9948L28.5223 12.0642V11.3006L28.2794 11.37L28.3488 11.127H27.5853L27.6547 11.37L27.4117 11.3006V12.0642L27.6547 11.9948L27.5853 12.2378H27.6547C27.5853 12.3072 27.5159 12.4113 27.5159 12.5502V12.5849C27.4464 12.6196 27.3423 12.7237 27.2729 12.7932C26.9258 12.5155 26.2317 12.2725 25.7111 12.5502C24.7394 13.0362 25.0517 14.1469 26.1623 14.98V15.7089C26.3358 15.8825 26.5788 15.9866 26.8218 16.0214C26.7176 16.5073 26.3706 16.9238 25.9541 17.2015H25.5723V16.8891C26.0929 16.4726 26.1276 16.0561 26.0235 15.8131C25.9194 15.5701 25.6417 15.4312 25.3988 15.5007L25.0517 15.6048L25.017 15.5354C25.0517 15.5007 25.0517 15.466 25.0517 15.4312C25.0517 15.3618 25.017 15.2924 24.9823 15.2577H25.017L24.9823 15.1189L25.1211 15.1536V14.6676L24.9823 14.7023L25.017 14.5635H24.5312L24.5658 14.7023L24.427 14.6676V15.1536L24.5658 15.1189V15.2577H24.6353C24.6006 15.2924 24.5658 15.3618 24.5658 15.4312C24.5658 15.466 24.5658 15.5354 24.6006 15.5701L24.5658 15.6395L24.2188 15.5354C23.9759 15.466 23.6982 15.5701 23.5941 15.8478C23.49 16.0908 23.5247 16.4726 24.0453 16.9238V17.1321C23.6288 17.2363 23.5941 17.5834 23.5941 17.5834H23.4206C23.2817 17.514 22.9694 17.3057 22.7612 17.0974C23.1082 16.4726 23.1082 15.7089 22.2059 15.4312L21.4076 15.6048C21.2341 16.0214 21.2688 16.4032 21.4771 16.8544C20.7482 16.8544 20.2276 16.2991 19.36 16.7156L19.5682 17.4445C20.1582 17.1321 20.9912 17.8611 21.9629 17.5487L22.3447 17.8264C22.2059 17.9999 22.067 18.1735 22.0324 18.4859C22.2753 18.347 22.5182 18.3123 22.9 18.3817C22.7612 18.3817 22.7265 18.4512 22.7265 18.4859C22.7612 18.5206 22.7959 18.5206 22.7959 18.5206C22.7612 18.5206 22.657 18.4859 22.5529 18.4859C22.7612 19.1454 23.4553 19.2148 24.6006 19.1801C25.017 19.3884 25.2947 19.8049 25.5723 20.395L25.6417 20.2909C25.7111 20.4992 25.7459 20.7074 25.7459 21.124C25.7459 21.3669 25.7111 21.5405 25.6417 21.7141C25.5029 21.957 25.3641 22.2 25.2253 22.3736C24.2535 22.7901 24.5312 23.5885 23.6982 23.9703C23.837 24.0744 23.9412 24.1439 24.1147 24.1439L23.5594 24.4216L23.6982 24.6298C23.4553 24.7687 23.2123 24.8728 22.9 24.8728C22.2406 24.1786 22.5876 23.4844 23.3511 23.5538C23.6982 20.0479 20.5053 20.4992 19.1865 18.7289C19.1518 18.8677 19.1171 19.076 19.0823 19.2495C18.0759 18.7983 17.1735 17.8611 16.4447 16.7156L16.41 17.1668C15.82 16.4032 15.3688 15.5701 15.0912 14.7023C14.9177 15.2577 14.7788 16.2296 14.883 16.9238L14.7094 16.6809C14.3624 17.9999 14.3971 18.8677 15.1259 20.0132C15.23 20.7421 15.5424 21.4711 15.8894 22.0265C15.6812 21.9918 15.5424 21.957 15.3341 21.957C15.7159 22.686 16.1671 23.3802 16.5835 23.8315L15.9935 24.005C16.5141 24.8034 17.1041 25.3241 17.7982 25.7753C17.4859 25.8447 17.347 25.9489 17.1041 26.1224C17.5553 26.6084 17.9371 26.8514 18.5617 27.025C18.0759 27.1985 17.8676 27.4068 17.7288 27.7886C18.3535 27.9969 19.0477 28.1357 19.7418 28.101C19.3253 28.344 18.9435 28.6217 18.7353 29.0035L18.5965 28.9341C18.5271 28.8994 18.4923 28.8994 18.4229 28.8994C18.2841 28.8994 18.1106 29.0035 18.0759 29.1424C18.0759 29.1771 18.0412 29.2118 18.0412 29.2118V29.2812C18.0065 29.3159 17.9371 29.3506 17.9024 29.3853L17.7288 29.3159C17.6594 29.2812 17.59 29.2812 17.5206 29.2812C17.347 29.2812 17.1735 29.3853 17.1041 29.5589C17 29.8019 17.1041 30.0448 17.3124 30.1837L17.4512 30.2531H17.4859V30.4267L17.4512 30.4961C17.4512 30.5308 17.4165 30.5308 17.4165 30.5656C17.3818 30.6697 17.3818 30.7738 17.4165 30.8779C17.4512 30.9821 17.5206 31.0515 17.6247 31.1209L17.9024 31.2598L17.833 31.2251L17.9718 31.2945L18.4577 31.5374L18.4923 31.5722C18.1453 31.9887 17.7288 32.2317 17.243 32.2317H17L16.8959 32.1623H16.8612C16.6529 32.1276 16.4447 32.0582 16.2365 31.954L15.9935 31.8151L16.063 32.0928C16.2018 32.7524 16.7918 33.4119 17.6941 34.002C18.5617 34.5226 19.4988 34.8351 20.2971 34.8351C20.7135 34.8351 21.0606 34.7309 21.3035 34.5574L21.5465 34.3838L21.2688 34.3144C21.0606 34.245 20.8523 34.1408 20.7135 34.0367L20.5747 34.002L20.4706 33.8979C19.9847 33.4466 19.9847 32.7871 20.1235 32.3011H20.1582L20.6441 32.5441L20.7829 32.6135L20.8177 32.5441L21.8241 33.03C21.7894 34.5921 21.3035 35.564 20.4012 36.5706H20.3665C20.2276 36.6054 20.1235 36.7442 20.0888 36.8831L19.9847 36.9872H19.95C19.8806 36.8831 19.7764 36.8136 19.6376 36.8136C19.6029 36.8136 19.5682 36.8136 19.5335 36.8483L19.36 36.9178C19.2559 36.9525 19.1865 37.0219 19.1518 37.0913C19.1171 37.1608 19.1171 37.2302 19.1171 37.3343C19.0823 37.3343 19.0129 37.369 18.9782 37.369C18.9088 37.2302 18.77 37.126 18.6312 37.126C18.5965 37.126 18.5617 37.126 18.4923 37.1608L18.3882 37.1955C18.18 37.2649 18.0759 37.4384 18.1453 37.6467C17.6941 37.7855 17.243 37.9591 16.8265 38.0632C16.8959 39.1393 17.243 40.0418 17.9371 40.8749C19.0129 40.3542 20.0541 39.8335 21.0606 39.3476C21.0953 39.3823 21.1647 39.417 21.2341 39.417C21.2688 39.417 21.3035 39.417 21.3382 39.3823L21.4771 39.3476C21.6506 39.2781 21.8588 39.1046 21.9629 38.931C23.4206 38.2368 24.7741 37.612 25.9541 37.0913C25.9888 37.5079 26.0235 37.8897 26.1623 38.1674C26.44 38.0632 26.6829 37.9938 26.9258 37.7855C26.9258 37.9244 26.9953 38.0632 27.03 38.2368L26.5094 38.7922L26.8564 39.1393L27.377 38.6534C27.4464 39.0352 27.8629 39.5906 28.1059 39.7294C28.2794 39.5906 28.7306 39.0005 28.8346 38.6534L29.3552 39.1393L29.7023 38.7922L29.1817 38.2368C29.2511 38.098 29.2858 37.9591 29.2858 37.7855C29.5288 37.9591 29.7717 38.0632 30.0493 38.1674C30.1535 37.8897 30.2229 37.5426 30.2576 37.0913L30.3964 37.1608L30.4658 37.0913L32.9646 38.3062L33.1729 38.4104L33.2423 38.5145L33.277 38.5492H33.3117L33.6588 38.7228L33.7629 38.7575C33.867 38.931 34.1446 39.3823 34.6305 39.3476C34.7347 39.3476 34.8041 39.3129 34.8735 39.2781L35.2205 39.4517L35.3593 39.5211L35.394 39.4517L36.6782 40.0418L36.6435 40.1112L36.7823 40.1807L37.2682 40.4237L37.407 40.4931L37.4417 40.4237L37.8234 40.5972C37.7888 40.5972 37.7193 40.5972 37.8234 40.5972C37.9623 40.5972 38.1358 40.4931 38.1705 40.3542C38.1705 40.3195 38.2052 40.2848 38.2052 40.2848V40.2154C38.2399 40.1807 38.3093 40.1807 38.344 40.1112H38.3788L38.587 40.2154C38.6564 40.2501 38.7258 40.2501 38.7952 40.2501C38.9687 40.2501 39.1423 40.146 39.2117 39.9724C39.3158 39.7294 39.2117 39.4864 39.0035 39.3476L38.8299 39.2435V39.0699L38.8646 39.0352C38.8993 39.0005 38.8993 39.0005 38.8993 38.9658C38.934 38.8616 38.934 38.7575 38.8993 38.6534C38.8646 38.5492 38.7605 38.5492 38.6911 38.5145L38.2746 38.3062L38.3094 38.2368L38.1705 38.1674L37.6846 37.9244L37.5458 37.855L37.5805 37.7855C37.6499 37.612 37.5111 37.4037 37.407 37.369L37.2335 37.2996C37.0599 37.2302 36.8517 37.2996 36.7823 37.4732L36.7476 37.5426L36.6087 37.4732L36.6435 37.369C36.7129 37.1955 36.6435 36.9872 36.4352 36.8831L36.2617 36.8136C36.1576 36.7789 36.0188 36.8136 35.9494 36.8483C34.9082 35.7376 34.3529 34.8003 34.2835 33.5854C35.9146 32.9606 37.754 32.3011 39.6976 31.6763C39.4893 30.6697 39.1075 29.7325 38.587 28.8647L38.1011 29.1424L37.6846 28.344C37.4764 28.4828 37.2682 28.587 37.0252 28.7258C36.817 28.5176 36.5393 28.3093 36.2617 28.1704C36.9558 28.2051 37.6846 28.0663 38.2746 27.858C38.1011 27.5109 37.8928 27.2679 37.4417 27.0944C38.0664 26.9208 38.4829 26.6778 38.8993 26.1919C38.6564 26.0183 38.5176 25.9142 38.2052 25.8447C38.8993 25.3935 39.4546 24.8728 40.0099 24.0744L39.4199 23.9009C39.8364 23.4496 40.2876 22.7554 40.6693 22.0265C40.4611 22.0265 40.3222 22.0265 40.114 22.0959C40.4958 21.5752 40.7734 20.8116 40.8776 20.0826C41.6064 18.8677 41.6411 18.0346 41.294 16.7156ZM31.1946 31.9193C31.16 31.954 31.0906 31.954 31.0558 31.9887L31.0906 31.7457L31.1946 31.9193ZM27.7588 16.1602H28.2447C28.4529 16.9586 28.9388 17.514 29.6329 17.9652C29.6329 17.9652 29.1817 18.6247 28.3835 18.9024C28.4529 19.0066 28.4876 19.0066 28.5917 19.076C28.3141 19.319 28.0017 19.9091 28.0017 19.9091C28.0017 19.9091 27.6894 19.319 27.4117 19.076C27.4811 19.0066 27.5505 19.0066 27.6199 18.9024C26.8218 18.6247 26.3706 17.9652 26.3706 17.9652C27.0647 17.514 27.5853 16.9586 27.7588 16.1602ZM24.9476 31.954L24.8088 31.9193L24.9129 31.7457L24.9476 31.954ZM19.6376 29.3853C19.9153 29.3506 20.1929 29.3159 20.4359 29.2465C20.2971 29.3506 20.1582 29.5242 20.0888 29.663L19.6029 29.4548L19.6376 29.3853ZM22.31 36.1194C22.7959 35.564 23.2471 34.9739 23.5247 33.8631L24.8088 34.4532L25.017 34.5574L25.0864 34.6615L25.1211 34.6962H25.1559L25.3294 34.8003L24.1147 35.3905C23.5247 35.5987 22.8653 35.8764 22.31 36.1194ZM33.7282 36.1541L32.2358 35.4599L32.0276 35.3557L31.9582 35.2516L31.9235 35.2169H31.8888L31.16 34.8698C31.5764 34.6962 32.0623 34.5226 32.5482 34.3144C32.8258 35.0086 33.2076 35.6334 33.7282 36.1541ZM35.7411 29.4201C35.6717 29.3506 35.6023 29.2812 35.5329 29.2118C35.637 29.2465 35.7758 29.2812 35.9146 29.3159C35.8452 29.3506 35.8105 29.3853 35.7411 29.4201Z" fill="#231F20"/>
<path d="M23.6256 17.6874C23.3133 17.6527 22.9662 17.6527 22.758 17.7221C22.4803 17.7915 22.2721 17.9304 22.168 18.2775C23.0356 18.0345 23.1051 18.5205 23.9033 18.694C23.6603 18.7982 23.0356 18.7982 22.6886 18.5899C22.9315 18.9717 23.2439 19.0759 24.3892 19.0412C24.0074 18.7288 24.2156 18.0345 23.6256 17.6874Z" fill="#FCD015"/>
<path d="M22.8633 18.4857C23.0715 18.5204 23.0368 18.6593 23.3839 18.6593C23.3145 18.5899 23.0021 18.3469 22.8633 18.4857ZM32.3033 17.6874C32.6156 17.6527 32.9627 17.6527 33.1709 17.7221C33.4486 17.7915 33.6568 17.9304 33.7609 18.2775C32.8932 18.0345 32.8238 18.5205 32.0256 18.694C32.2685 18.7982 32.8932 18.7982 33.2403 18.5899C32.9974 18.9717 32.685 19.0759 31.5397 19.0412C31.9215 18.7288 31.748 18.0345 32.3033 17.6874Z" fill="#FCD015"/>
<path d="M33.1026 18.4857C32.8944 18.5204 32.9291 18.6593 32.582 18.6593C32.6514 18.5899 32.9638 18.3469 33.1026 18.4857Z" fill="#FCD015"/>
<path d="M27.9673 33.8286L28.939 35.8071L28.1061 36.1542L27.169 34.141L27.9673 33.8286ZM27.0649 38.3757L26.6484 38.7922L26.7872 38.9311L27.169 38.5492C27.169 38.4798 27.0996 38.4104 27.0649 38.3757ZM28.9737 38.3757C28.9389 38.4451 28.9043 38.4798 28.8348 38.5145L29.2166 38.8963L29.3554 38.7575L28.9737 38.3757Z" fill="#221F1F"/>
<path d="M24.0803 16.8892V17.0975C24.6009 17.0628 25.0174 17.1322 25.5033 17.1669V16.8892C25.0521 16.8198 24.5662 16.8198 24.0803 16.8892ZM24.1499 15.7437L24.0111 15.6396C23.9069 15.6396 23.8028 15.709 23.7334 15.8131C23.4211 16.1949 23.8375 16.6115 24.0458 16.785H24.1152C24.2193 16.785 24.3581 16.7503 24.4622 16.7503C24.4622 16.3338 24.3928 15.9519 24.1499 15.7437ZM25.5727 15.6396L25.4339 15.7437C25.1909 15.9519 25.1562 16.3338 25.1215 16.7503C25.2256 16.7503 25.3645 16.785 25.4686 16.785H25.538C25.7462 16.6115 26.1627 16.1949 25.8503 15.8131C25.7809 15.6742 25.6768 15.6396 25.5727 15.6396ZM24.8093 15.5701C24.8859 15.5701 24.9481 15.508 24.9481 15.4313C24.9481 15.3546 24.8859 15.2924 24.8093 15.2924C24.7326 15.2924 24.6704 15.3546 24.6704 15.4313C24.6704 15.508 24.7326 15.5701 24.8093 15.5701Z" fill="#FFC112"/>
<path d="M24.5628 16.7156H25.0487C25.0487 16.2644 25.1181 15.8478 25.3957 15.6396L25.0487 15.7437L24.9793 15.6396C24.9445 15.6742 24.8751 15.6742 24.8404 15.6742C24.771 15.6742 24.7363 15.6396 24.7016 15.6396L24.6322 15.7437L24.2852 15.6396C24.4934 15.8825 24.5628 16.2991 24.5628 16.7156ZM24.6669 15.1535H24.9098L24.8751 15.0147L25.0486 15.0494V14.8064L24.8751 14.8411L24.9098 14.7023H24.6669L24.7363 14.8411L24.5627 14.8064V15.0494L24.7363 15.0147L24.6669 15.1535ZM31.6425 16.8544H31.6079C31.3302 16.8197 31.0526 16.8197 30.7402 16.8544H30.7055C30.6361 16.8544 30.5667 16.8544 30.4973 16.8891V17.1668C30.9484 17.1668 31.3649 17.0627 31.8855 17.0974V16.8891C31.7814 16.8544 31.712 16.8544 31.6425 16.8544ZM32.2327 15.7785C32.1633 15.6744 32.0592 15.6397 31.955 15.605L31.8162 15.7438C31.5733 15.9521 31.5386 16.3339 31.5039 16.7505C31.608 16.7505 31.7468 16.7852 31.8509 16.7852H31.9203C32.1286 16.6116 32.545 16.1951 32.2327 15.7785ZM30.5321 15.7437L30.3932 15.6396C30.2891 15.6396 30.185 15.6742 30.0809 15.8131C29.7685 16.195 30.185 16.6115 30.3932 16.785H30.4626C30.5667 16.785 30.7056 16.7503 30.8097 16.7503C30.8097 16.3338 30.775 15.9519 30.5321 15.7437ZM31.1567 15.5701C31.2333 15.5701 31.2955 15.508 31.2955 15.4313C31.2955 15.3546 31.2333 15.2924 31.1567 15.2924C31.08 15.2924 31.0179 15.3546 31.0179 15.4313C31.0179 15.508 31.08 15.5701 31.1567 15.5701Z" fill="#FFC112"/>
<path d="M30.9515 15.7783L30.6044 15.6741C30.882 15.8824 30.9515 16.2989 30.9515 16.7502H31.4374C31.4374 16.2989 31.5068 15.8824 31.7844 15.6741L31.4374 15.7783L31.368 15.6741C31.3332 15.7088 31.2638 15.7088 31.2291 15.7088C31.1597 15.7088 31.125 15.6741 31.0903 15.6741L30.9515 15.7783ZM31.0554 15.1535H31.2983L31.2289 15.0147L31.4025 15.0493V14.8064L31.2289 14.8411L31.2983 14.7022H31.0554L31.0901 14.8411L30.9166 14.8064V15.0493L31.0901 15.0147L31.0554 15.1535ZM25.9883 13.3833V13.5915L26.1618 13.661V13.4874L25.9883 13.3833ZM27.9668 14.5287C27.0297 14.5287 26.2662 14.7717 26.2662 15.0494V15.5006C26.5438 15.2229 27.2727 15.1188 27.9668 15.1188C28.6609 15.1188 29.355 15.2576 29.6674 15.5006V15.0494C29.6674 14.7717 28.9038 14.5287 27.9668 14.5287ZM28.8343 13.5915C28.9731 13.0014 29.459 12.689 29.9449 12.5849C29.4243 12.4808 28.8343 12.7237 28.6261 13.0709C28.522 13.2444 28.4525 13.4527 28.3831 13.6262C28.522 13.5568 28.6955 13.5568 28.8343 13.5915ZM27.0989 13.5916C27.2724 13.5569 27.4112 13.5569 27.55 13.6263C27.4806 13.4181 27.4112 13.2098 27.3071 13.0363C27.0989 12.7238 26.5089 12.4462 25.9883 12.5503C26.4742 12.6891 26.96 13.0015 27.0989 13.5916Z" fill="#FFC112"/>
<path d="M26.3359 15.6396C26.4401 15.7437 26.6136 15.8479 26.8565 15.9173C26.8912 15.7437 26.8912 15.5702 26.926 15.3619C26.6483 15.4313 26.4401 15.5355 26.3359 15.6396ZM28.0714 15.2229H27.8632C27.8632 15.5006 27.8285 15.7783 27.7591 16.0213H28.1756C28.1408 15.7783 28.1062 15.5353 28.0714 15.2229ZM29.0433 15.3619C29.0433 15.5702 29.078 15.7437 29.1127 15.9173C29.3556 15.8479 29.5291 15.7437 29.6333 15.6396C29.5291 15.5355 29.3209 15.4313 29.0433 15.3619ZM27.9674 12.8627C28.1399 12.8627 28.2797 12.7228 28.2797 12.5503C28.2797 12.3777 28.1399 12.2378 27.9674 12.2378C27.7949 12.2378 27.6551 12.3777 27.6551 12.5503C27.6551 12.7228 27.7949 12.8627 27.9674 12.8627ZM27.7589 12.0989H28.1407L28.0365 11.7865L28.3489 11.8907V11.5088L28.0365 11.613L28.1407 11.3006H27.7589L27.8977 11.613L27.5507 11.5088V11.8907L27.8977 11.7865L27.7589 12.0989ZM29.8065 13.661L29.9801 13.5915V13.3833L29.8412 13.4874L29.8065 13.661Z" fill="#FFC112"/>
<path d="M30.532 12.9668C30.4626 12.8279 30.3585 12.7585 30.2197 12.6891C29.6991 12.7238 29.1091 13.0015 28.9703 13.6957V13.7651L28.9009 13.7304C28.6926 13.661 28.5191 13.6957 28.3456 13.7998C28.3109 13.9387 28.2762 14.0428 28.2762 14.1122C28.2415 14.2511 28.1027 14.3205 27.9985 14.3205C27.8944 14.3205 27.7556 14.2164 27.7209 14.1122C27.7209 14.0775 27.6862 13.9734 27.6515 13.8345C27.5127 13.7304 27.3044 13.7304 27.0962 13.7651L27.0268 13.7998V13.7304C26.888 13.0362 26.3326 12.7585 25.7774 12.7238C25.6733 12.7932 25.5691 12.8973 25.465 13.0015C24.9791 13.7304 25.9162 14.5982 26.2632 14.8759C26.5062 14.5635 27.2697 14.4247 27.9985 14.4247C28.7621 14.4247 29.5256 14.5982 29.7338 14.8759C30.0462 14.5635 30.9832 13.6957 30.532 12.9668ZM25.9162 13.6957L25.8468 13.661V13.175L26.055 13.2792L26.2286 13.3486L26.298 13.3833V13.8693L26.0897 13.7651L25.9162 13.6957ZM26.2286 14.5288C26.1591 14.5288 26.1244 14.4941 26.1244 14.4247C26.1244 14.3552 26.1591 14.3205 26.2286 14.3205C26.298 14.3205 26.3326 14.3552 26.3326 14.4247C26.3326 14.4593 26.298 14.5288 26.2286 14.5288ZM26.7491 14.3205C26.6797 14.3205 26.645 14.2858 26.645 14.2164C26.645 14.147 26.6797 14.1122 26.7491 14.1122C26.8185 14.1122 26.8532 14.147 26.8532 14.2164C26.8532 14.2511 26.7838 14.3205 26.7491 14.3205ZM27.2697 14.1816C27.2003 14.1816 27.1656 14.147 27.1656 14.0775C27.1656 14.0081 27.2003 13.9734 27.2697 13.9734C27.3391 13.9734 27.3738 14.0081 27.3738 14.0775C27.3738 14.147 27.3391 14.1816 27.2697 14.1816ZM28.6926 14.1816C28.6232 14.1816 28.5886 14.147 28.5886 14.0775C28.5886 14.0081 28.6232 13.9734 28.6926 13.9734C28.7621 13.9734 28.7968 14.0081 28.7968 14.0775C28.7968 14.147 28.7274 14.1816 28.6926 14.1816ZM29.2132 14.3205C29.1438 14.3205 29.1091 14.2858 29.1091 14.2164C29.1091 14.147 29.1438 14.1122 29.2132 14.1122C29.2827 14.1122 29.3174 14.147 29.3174 14.2164C29.3174 14.2511 29.2827 14.3205 29.2132 14.3205ZM29.7338 14.5288C29.6644 14.5288 29.6297 14.4941 29.6297 14.4247C29.6297 14.3552 29.6644 14.3205 29.7338 14.3205C29.8033 14.3205 29.8379 14.3552 29.8379 14.4247C29.8379 14.4593 29.8033 14.5288 29.7338 14.5288ZM29.6644 13.8693V13.3833L29.7338 13.3486L29.9073 13.2792L30.1156 13.175V13.661L30.0462 13.6957L29.8727 13.7651L29.6644 13.8693Z" fill="#FFC112"/>
<path d="M27.9651 14.1816C28.0609 14.1816 28.1386 14.1039 28.1386 14.008C28.1386 13.9122 28.0609 13.8345 27.9651 13.8345C27.8692 13.8345 27.7915 13.9122 27.7915 14.008C27.7915 14.1039 27.8692 14.1816 27.9651 14.1816ZM27.7568 13.7651C27.8262 13.6957 27.8956 13.6957 27.965 13.6957C28.0344 13.6957 28.1386 13.7304 28.1732 13.7651C28.208 13.5568 28.3121 13.2444 28.4856 12.9668C28.4856 12.9668 28.4856 12.932 28.5203 12.932C28.5203 12.8279 28.4509 12.7585 28.3468 12.6891C28.2774 12.8279 28.1386 12.9668 27.9303 12.9668C27.7568 12.9668 27.5833 12.8626 27.5138 12.6891C27.4444 12.7238 27.375 12.7932 27.375 12.8973C27.375 12.932 27.4097 12.932 27.4097 12.9668C27.618 13.2792 27.7221 13.5568 27.7568 13.7651Z" fill="#FFC112"/>
<path d="M37.5796 28.5869C34.1437 30.4266 31.1243 32.1275 28.0355 33.6548L28.1049 33.7589V33.7937C31.2284 32.4399 34.5255 30.9473 37.9266 29.2465C37.8572 29.0382 37.7184 28.7605 37.5796 28.5869ZM27.0637 34.2102L27.0291 34.1408C26.3349 34.4879 25.6061 34.8003 24.912 35.1127C25.6061 34.835 26.3349 34.5573 27.0637 34.2102ZM38.4127 29.1771C35.1503 30.8085 31.6797 32.4053 28.1745 33.9326L28.9727 35.5987C32.4432 34.1408 35.9833 32.7524 39.3844 31.6069C39.2456 30.7391 38.8985 29.9407 38.4127 29.1771ZM20.9555 36.7787L21.1291 37.2994C21.1638 37.4035 21.0596 37.5077 21.0596 37.6466C21.0944 38.1325 20.782 38.4796 20.782 38.4796L20.6085 38.6184L20.5391 38.4102L20.0879 37.0912C20.0879 37.1258 20.0532 37.1258 20.0185 37.1258L20.2961 37.9242C20.4003 38.2713 20.2267 38.7573 20.192 38.7573L20.1226 38.8961L19.9838 38.8615C19.9838 38.8615 19.6367 38.6184 19.4632 38.1672C19.4285 38.0978 19.3591 38.0978 19.3244 38.0284L19.1508 37.473C19.1161 37.473 19.0814 37.5077 19.012 37.5077L19.4285 38.7573L19.4979 38.9656H19.2896C19.255 38.9656 18.8732 38.9656 18.5608 38.5143C18.5261 38.4449 18.3526 38.4796 18.3179 38.3755L18.1444 37.8201C17.7279 37.9589 17.3461 38.0978 16.9297 38.2366C17.0685 39.1738 17.3808 40.0069 17.9361 40.6664C18.9079 40.1805 19.9144 39.6945 20.9555 39.2086C20.9555 39.1738 20.9902 39.1044 21.025 39.035L21.4414 38.3408C21.4414 38.3408 21.372 38.1325 21.4067 37.8895C21.7191 37.9589 21.962 38.0978 22.0661 38.3061C22.1008 38.4102 22.1008 38.5838 22.0314 38.7226C23.9402 37.8201 25.9184 36.9523 27.8967 36.1192L27.1331 34.3489C25.0855 35.2167 23.0032 36.0498 20.9555 36.7787Z" fill="#E0E0E0"/>
<path d="M20.537 34.141C20.1899 34.1062 19.8776 34.0716 19.5652 34.0021L19.5999 33.8633C19.8429 33.9327 20.0858 33.9674 20.3635 34.0021C19.8776 33.5509 19.8082 32.8913 19.9817 32.2318L18.6281 31.5723C18.2117 32.1624 17.6564 32.4054 16.997 32.3013C17.587 32.9261 18.2464 33.412 19.0446 33.6897L19.0099 33.8286C18.1423 33.5162 17.4134 32.9955 16.7888 32.2665C16.5805 32.2318 16.3723 32.1277 16.1641 32.0236C16.5111 33.655 19.947 35.2865 21.1617 34.4187C20.9187 34.3492 20.7105 34.2451 20.537 34.141Z" fill="#E2E2E2"/>
<path d="M17.7969 29.4893L17.6234 29.4199C17.4499 29.3505 17.2763 29.4199 17.2069 29.5587C17.1375 29.7323 17.2069 29.9059 17.3457 29.9753L17.4846 30.0447C17.554 29.9059 17.6581 29.8364 17.7969 29.8364C17.7622 29.7323 17.7622 29.5935 17.7969 29.4893ZM38.9327 39.5557L38.7591 39.4516C38.6897 39.5557 38.5856 39.6599 38.4468 39.6599C38.5162 39.764 38.5162 39.9028 38.4468 40.007L38.655 40.1111C38.8285 40.1805 39.0021 40.1111 39.0715 39.9723C39.1409 39.8334 39.0715 39.6251 38.9327 39.5557Z" fill="#A5A5A5"/>
<path d="M37.5935 38.0698L36.6533 40.0441L37.1547 40.2829L38.0948 38.3087L37.5935 38.0698ZM21.1273 30.198L20.1871 32.1723L20.6884 32.4111L21.6286 30.4369L21.1273 30.198ZM18.948 29.1875L18.0078 31.1618L18.5091 31.4006L19.4493 29.4264L18.948 29.1875ZM22.8964 31.0516L25.1523 34.5575L25.4994 34.7311C25.6035 34.6964 25.6729 34.6616 25.777 34.5922L23.7641 31.4682L22.8964 31.0516ZM26.9571 32.9954L27.4777 33.7937C27.6165 33.7243 27.79 33.6549 27.9288 33.5854L27.8247 33.4119L26.9571 32.9954ZM29.0394 35.7027L29.1088 35.8416L28.97 35.911L28.8659 35.9457L29.1782 36.4664L30.0111 36.8829L29.213 35.6333C29.1782 35.668 29.1088 35.7027 29.0394 35.7027ZM30.9828 34.9045L33.2387 38.4104L33.5857 38.5839C33.4816 38.3062 33.5857 38.098 33.6204 38.0633L31.8504 35.321L30.9828 34.9045ZM35.7375 37.1609L35.5987 37.1262L34.9739 38.5494L34.9045 38.4799L34.6269 39.07L35.1128 39.313L35.3904 38.7229C35.3557 38.584 35.2516 38.2369 35.3904 37.9593L35.7375 37.1609Z" fill="#939393"/>
<path d="M20.9549 32.1621L20.8161 32.4052L24.8419 34.3143L24.5296 33.863L20.9549 32.1621ZM23.8702 32.8217L21.2326 31.5374L20.9896 32.0234L24.3908 33.6548L23.8702 32.8217ZM23.1759 31.7456L21.51 30.9472L21.3018 31.4332L23.7312 32.5787L23.1759 31.7456ZM22.7944 31.1209L22.7597 31.0862L21.6838 30.5655L21.5797 30.8085L23.0373 31.5027L22.7944 31.1209ZM17.5189 30.496L17.4843 30.5308C17.4149 30.6696 17.4843 30.8085 17.6231 30.8779L17.9007 31.0168L18.0048 30.7737L17.6578 30.6002C17.6231 30.5655 17.5884 30.5308 17.5189 30.496ZM18.7911 31.1291L18.6717 31.3798L20.0817 32.0515L20.201 31.8007L18.7911 31.1291ZM17.6232 30.1142C17.5538 30.2531 17.6232 30.3919 17.762 30.4613L18.1091 30.6349L18.3173 30.1489L17.9702 29.9754C17.8314 29.9407 17.6579 29.9754 17.6232 30.1142ZM19.0715 30.5389L18.8476 31.0089L20.2576 31.6806L20.4814 31.2105L19.0715 30.5389ZM17.9354 29.5241C17.866 29.6629 17.9354 29.8018 18.0742 29.8712L18.3865 30.01L18.5947 29.5241L18.2824 29.42C18.1436 29.3505 18.0048 29.3852 17.9354 29.5241ZM19.3545 29.9033L19.1306 30.3734L20.5406 31.045L20.7644 30.5749L19.3545 29.9033ZM18.1784 29.2465C18.2478 29.2465 18.2825 29.2465 18.3519 29.2812L18.6643 29.42L18.7684 29.1771L18.4907 29.0382C18.3519 28.9688 18.2131 29.0382 18.1437 29.1771C18.1784 29.2118 18.1784 29.2118 18.1784 29.2465ZM19.5303 29.5325L19.4109 29.7832L20.8209 30.4549L20.9402 30.2041L19.5303 29.5325ZM29.9091 36.4319L30.152 36.8138L30.1867 36.8485L32.9285 38.1676L32.6508 37.7163L29.9091 36.4319ZM35.4031 39.0351L35.2837 39.2858L36.5683 39.8978L36.6877 39.6471L35.4031 39.0351ZM27.0976 33.4466L26.82 33.0647L26.7853 32.9953L24.0782 31.711L24.3559 32.1622L27.0976 33.4466ZM38.5855 38.6185L38.169 38.4102L38.0649 38.6532L38.5508 38.8962C38.6202 38.9309 38.6549 38.9656 38.6896 39.0004L38.7243 38.9656C38.7937 38.8268 38.7243 38.6879 38.5855 38.6185ZM37.8913 40.2155L37.4402 40.0072L37.3013 40.2501L37.6831 40.4237C37.8219 40.4932 37.9607 40.4237 38.0301 40.2849C38.0301 40.2501 38.0301 40.2501 38.0649 40.2155C37.9954 40.2501 37.926 40.2501 37.8913 40.2155ZM38.1688 39.6253L37.7176 39.417L37.5094 39.903L37.9606 40.1113C38.0994 40.1807 38.2382 40.1113 38.3076 39.9724C38.3424 39.8336 38.3076 39.6947 38.1688 39.6253ZM38.4811 39.0352L37.9953 38.7923L37.787 39.2783L38.2729 39.5212C38.4117 39.5906 38.5505 39.5212 38.6199 39.3824C38.6894 39.2435 38.6199 39.1047 38.4811 39.0352ZM25.7443 34.2796L26.0914 34.4532C26.2997 34.3491 26.5079 34.2796 26.7161 34.1755L25.2238 33.4465L25.7443 34.2796ZM24.4948 32.3706L25.0153 33.2037L26.8548 34.0715C27.0283 34.0021 27.1671 33.9326 27.3406 33.8285L27.2365 33.6549L24.4948 32.3706ZM28.59 36.0848L28.8676 36.2236L28.7288 36.0154L28.59 36.0848ZM30.8808 34.974C30.7766 35.0087 30.6725 35.0434 30.5337 35.0781L31.1237 35.3558L30.8808 34.974ZM31.2624 35.5987L30.36 35.1821C30.1518 35.2863 29.9436 35.3557 29.7006 35.4598L31.783 36.4665L31.2624 35.5987ZM31.9565 36.6747L29.5271 35.5292C29.4577 35.564 29.423 35.564 29.3536 35.5987L29.7353 36.2235L32.4424 37.5078L31.9565 36.6747ZM34.6637 37.0568L34.8025 36.8138L32.1649 35.5642L32.4426 36.0154L34.6637 37.0568ZM34.629 37.2301L32.616 36.2235L33.1366 37.0566L34.629 37.7508C34.629 37.6467 34.6637 37.5425 34.6637 37.4731C34.629 37.369 34.5596 37.3343 34.629 37.2301ZM33.2753 37.2997L33.6917 37.9593C33.9347 37.751 34.2817 37.7857 34.2817 37.7857L34.1776 38.1328L34.2817 38.3411L34.7329 38.5494L34.837 38.3758C34.7676 38.2717 34.6982 38.1328 34.6635 37.9245L33.2753 37.2997ZM34.5594 38.8964L34.6635 38.6881L34.3859 38.5492L34.5594 38.8964ZM36.6418 37.6814L36.503 37.612L36.3642 37.8897L36.5377 37.9591L36.6418 37.6814ZM36.4683 38.0634L36.3295 37.994L36.2601 38.1328C36.2254 38.2022 36.156 38.1328 36.0171 38.4105L36.2254 38.5147L36.4683 38.0634ZM37.0235 38.8963L37.2318 38.4797C37.1971 38.5144 37.0929 38.4797 37.0582 38.5492C36.9888 38.6533 36.85 38.7921 36.8153 38.7921L37.0235 38.8963ZM36.2946 38.9658H36.0864L36.1558 38.7575L36.1905 38.6881L35.9823 38.5492C35.8088 38.7575 35.5311 38.9311 35.5311 38.9311L36.7806 39.5211L36.9888 39.0352L36.6764 38.8964C36.4682 38.9311 36.3294 38.9658 36.2946 38.9658Z" fill="#DBDBDB"/>
<path d="M28.0338 36.7096C27.4785 36.7096 27.0273 37.1608 27.0273 37.7162C27.0273 38.2716 27.4785 38.7228 28.0338 38.7228C28.5891 38.7228 29.0403 38.2716 29.0403 37.7162C29.0403 37.1608 28.5891 36.7096 28.0338 36.7096ZM28.2768 37.3344C28.3462 37.3344 28.3462 37.265 28.3115 37.2302C28.3462 37.1608 28.3809 37.2302 28.3809 37.265C28.3809 37.265 28.4503 37.265 28.4503 37.2996C28.4503 37.3344 28.4156 37.3344 28.4156 37.4038C28.4156 37.4038 28.3462 37.3691 28.3809 37.4038C28.3809 37.4038 28.3462 37.4038 28.3462 37.3691C28.3462 37.3344 28.3809 37.3344 28.3809 37.2996C28.3809 37.265 28.3115 37.265 28.3115 37.265C28.3462 37.2996 28.3462 37.3691 28.2768 37.3344ZM28.1726 37.6815H27.9297C27.9991 37.6121 27.9297 37.4385 27.7909 37.4385C27.7562 37.4385 27.7562 37.4732 27.7562 37.4732V37.4385C27.7562 37.3691 27.9297 37.4038 27.9991 37.3691C27.9991 37.4038 27.9644 37.4385 27.9644 37.4385C27.9991 37.4732 28.0338 37.5426 28.0686 37.6468C28.0686 37.5426 28.1032 37.4732 28.1726 37.4385C28.138 37.4385 28.1032 37.4038 28.138 37.3691C28.2074 37.4038 28.3809 37.3691 28.3809 37.4385V37.4732C28.3809 37.4732 28.3809 37.4385 28.3462 37.4385C28.1726 37.4385 28.0686 37.6121 28.1726 37.6815ZM28.2768 37.5079H28.2074L28.2421 37.4732C28.2421 37.4732 28.2768 37.4732 28.2768 37.5079ZM28.0686 37.9245C28.0686 37.9245 28.1032 37.8897 28.1032 37.9245C28.1032 37.9592 28.0686 37.9592 28.0686 37.9592L27.9991 37.7509H28.0338C28.0338 37.7509 28.0686 37.7162 28.1032 37.7509V37.8203C28.138 37.8203 28.138 37.8203 28.138 37.855C28.138 37.8203 28.1032 37.8203 28.1032 37.8203C28.0686 37.8897 28.0686 37.8897 28.0686 37.9245ZM27.9644 37.855L27.9297 37.8203C27.9297 37.8203 27.9644 37.8203 27.9644 37.855C27.9644 37.8203 27.9991 37.8203 27.9991 37.8203C27.9644 37.8203 27.9297 37.8203 27.9297 37.7856L27.9644 37.7509V37.7162L28.0686 37.9939H27.9644C27.9644 37.9939 27.9297 37.9939 27.9297 37.9592V37.9245C27.9297 37.9245 27.9644 37.8897 27.9644 37.855ZM27.8603 37.5079H27.7909C27.7909 37.4732 27.7909 37.4732 27.8256 37.4732C27.8256 37.4732 27.8603 37.4732 27.8603 37.5079ZM28.0338 37.0914L28.0686 37.1261L28.0338 37.1608L27.9991 37.1261L28.0338 37.0914ZM27.8256 37.265H27.895C27.9297 37.265 27.9297 37.265 27.9297 37.2996C27.9644 37.2996 27.9991 37.265 27.9991 37.2302L27.9644 37.1955C27.9297 37.1608 27.9644 37.1261 27.9991 37.1261L28.0338 37.1955L28.0686 37.1261C28.1032 37.1261 28.138 37.1608 28.1032 37.1955L28.0686 37.2302C28.0686 37.265 28.1032 37.2996 28.138 37.2996C28.138 37.265 28.138 37.265 28.1726 37.265L28.2074 37.2996L28.2421 37.265C28.2768 37.265 28.2768 37.265 28.2768 37.2996L28.2421 37.3344H28.1726C28.1032 37.3344 28.0686 37.2996 28.0686 37.265H27.9991C27.9991 37.2996 27.9644 37.3344 27.895 37.3344H27.8256C27.8256 37.3344 27.8256 37.2996 27.7909 37.2996C27.7562 37.2996 27.7909 37.265 27.8256 37.265ZM27.6521 37.265C27.6868 37.2302 27.7215 37.1608 27.7215 37.2302C27.6868 37.265 27.6868 37.3344 27.7562 37.3344C27.6868 37.3344 27.6868 37.2996 27.6868 37.265C27.6868 37.265 27.6174 37.265 27.6174 37.2996C27.6174 37.3344 27.6521 37.3344 27.6521 37.3691C27.6521 37.3691 27.6521 37.4038 27.6174 37.4038C27.6174 37.3691 27.5827 37.3691 27.5827 37.4038C27.6174 37.3344 27.5479 37.3344 27.5479 37.2996C27.5827 37.265 27.6521 37.2996 27.6521 37.265ZM27.4091 37.6121C27.4438 37.6121 27.4785 37.6121 27.4438 37.5773C27.4091 37.5427 27.3744 37.4732 27.4091 37.4385C27.4091 37.4385 27.5132 37.4732 27.4785 37.4385C27.4438 37.3691 27.4438 37.2996 27.4785 37.265C27.4785 37.2996 27.6174 37.4732 27.7562 37.5773C27.7562 37.5773 27.7215 37.6121 27.7215 37.6468C27.7215 37.6815 27.7562 37.7162 27.7909 37.7162H27.8603V37.8203C27.8603 37.7856 27.7909 37.7509 27.7562 37.7509C27.7562 37.7856 27.7215 37.8203 27.7215 37.855C27.6868 37.8897 27.6521 37.8897 27.6174 37.855C27.6174 37.855 27.6521 37.7856 27.6174 37.8203C27.5827 37.855 27.5479 37.8203 27.5132 37.7856C27.5479 37.7856 27.5479 37.7509 27.5132 37.7509C27.4785 37.7509 27.4091 37.7509 27.4091 37.6815C27.4091 37.6815 27.4785 37.6468 27.4438 37.6468C27.4438 37.7162 27.4091 37.6815 27.4091 37.6121ZM28.3809 38.1674C28.3462 38.1674 28.3115 38.1674 28.3115 38.1327C28.2768 38.098 28.2421 38.098 28.1726 38.098C28.2074 38.0633 28.138 38.0286 28.1032 38.0633C28.0686 38.0633 28.0686 38.098 28.0686 38.1327C28.138 38.1327 28.2421 38.2022 28.2421 38.2368C28.2421 38.2716 28.2421 38.2716 28.2074 38.2716C28.2074 38.2022 28.1726 38.2022 28.1726 38.2716C28.1726 38.3063 28.138 38.3063 28.138 38.341C28.138 38.2716 28.1032 38.2716 28.1032 38.341C28.1032 38.3757 28.0686 38.3757 28.0686 38.3757L28.0338 38.341C28.0338 38.2716 27.9991 38.2716 27.9991 38.341C27.9644 38.341 27.9644 38.3063 27.9644 38.2716C27.9644 38.2022 27.9297 38.2022 27.9297 38.2716C27.895 38.2716 27.895 38.2368 27.895 38.2368C27.9297 38.2022 27.9991 38.1327 28.0686 38.1327C28.0686 38.098 28.0338 38.0633 28.0338 38.0633C27.9991 38.0286 27.9644 38.0633 27.9644 38.098C27.9297 38.098 27.8603 38.098 27.8603 38.1327H27.8256C27.7909 38.1327 27.7909 38.098 27.7909 38.098V38.0633L27.6521 37.9592H27.6174C27.6174 37.9592 27.5479 37.9592 27.5479 37.9245H27.5827C27.5827 37.9245 27.5479 37.8897 27.5827 37.8897H27.6521V37.855C27.6868 37.855 27.6868 37.9245 27.6868 37.9245C27.6868 37.9245 27.7215 37.9245 27.6868 37.9592L27.8256 38.098H27.8603C27.895 38.098 27.9644 38.098 27.9644 38.0633C27.895 37.9592 27.9644 37.8897 27.9991 37.8897V37.9592C27.9991 37.9939 28.0338 37.9939 28.0338 37.9939H28.0686C28.1032 37.9939 28.138 38.0286 28.138 38.0286C28.138 38.0286 28.1726 37.9939 28.2074 37.9939H28.2421C28.2768 37.9939 28.2768 37.9592 28.2768 37.9592V37.8897C28.3462 37.8897 28.4156 37.9592 28.3115 38.0633L28.3809 38.098C28.3809 38.0633 28.3809 38.0633 28.4156 38.0633L28.4503 38.098L28.485 38.0633C28.5197 38.0633 28.5197 38.098 28.5197 38.1327C28.4503 38.1327 28.4156 38.1674 28.3809 38.1674ZM28.6585 37.6121C28.6585 37.6468 28.6238 37.7162 28.5891 37.7162C28.5197 37.7162 28.5891 37.7509 28.6238 37.7509C28.6238 37.7856 28.5891 37.8203 28.5197 37.8203C28.485 37.8203 28.485 37.855 28.5197 37.855C28.485 37.8897 28.4503 37.8897 28.4156 37.8897C28.3809 37.8897 28.4156 37.9245 28.4156 37.9245C28.3809 37.9592 28.3462 37.9592 28.3115 37.9245C28.2768 37.8897 28.2768 37.855 28.2768 37.8203C28.2421 37.8203 28.2074 37.8203 28.1726 37.8897V37.7856H28.2421C28.2768 37.7856 28.3115 37.7509 28.3115 37.7162C28.3115 37.6815 28.3115 37.6815 28.2768 37.6468C28.4156 37.5773 28.5197 37.3691 28.5544 37.3344C28.5891 37.3691 28.5891 37.4385 28.5544 37.5079C28.5197 37.5427 28.6238 37.5079 28.6238 37.5079C28.6585 37.5427 28.6238 37.6121 28.5891 37.6468C28.5544 37.6121 28.6238 37.6121 28.6585 37.6121Z" fill="#D0D2D3"/>
<path d="M22.0291 15.5355C21.7515 15.6049 21.6474 15.6396 21.4738 15.709C21.1615 16.4727 21.7515 17.3405 22.4456 17.757C22.5844 17.6876 22.8621 17.5487 23.1744 17.5835C22.3762 17.0975 21.7168 16.4033 22.0291 15.5355ZM33.9334 15.5355C34.211 15.6049 34.3151 15.6396 34.4887 15.709C34.7663 16.4727 34.211 17.3405 33.5169 17.757C33.3781 17.6876 33.1004 17.5487 32.7881 17.5835C33.621 17.0975 34.2457 16.4033 33.9334 15.5355ZM21.4739 17.0279C20.8839 17.0279 20.0856 16.4378 19.4609 16.8196L19.5997 17.3056C20.2592 17.0279 20.8492 17.7221 21.8209 17.4792C21.6821 17.3056 21.578 17.1668 21.4739 17.0279Z" fill="#1FC150"/>
<path d="M22.2399 16.6115C22.3093 16.7504 22.4482 16.8892 22.587 16.9934C22.934 16.5421 22.8299 15.6396 22.1705 15.5355V15.5702C22.1011 15.709 22.1011 15.8479 22.0664 15.952C22.2747 16.1256 22.3093 16.3686 22.2399 16.6115ZM34.491 17.0278C34.3869 17.1667 34.2828 17.3402 34.144 17.4444C35.1157 17.6873 35.7057 16.9931 36.3651 17.2708L36.5039 16.7849C35.8792 16.4377 35.081 17.0278 34.491 17.0278ZM33.7275 16.6115C33.6581 16.4033 33.6928 16.1256 33.901 15.952C33.901 15.8479 33.8663 15.709 33.7969 15.5702V15.5355C33.1375 15.6396 33.0681 16.5421 33.3804 16.9934C33.5192 16.8545 33.6581 16.7504 33.7275 16.6115ZM26.2311 17.861C27.1335 17.375 27.6887 16.542 27.7234 15.2229C27.4805 15.2229 27.2376 15.2577 27.0293 15.2924C27.0293 16.1601 26.7517 16.7503 26.2311 17.1321C26.3699 17.0974 26.474 17.0627 26.5781 17.0279L26.9252 16.8544L26.7517 17.2015C26.6129 17.5486 26.4393 17.7569 26.2311 17.861ZM29.7017 17.8609C29.5282 17.7567 29.32 17.5485 29.1812 17.2361L29.0076 16.889L29.3547 17.0625C29.4588 17.0972 29.5629 17.132 29.7017 17.1667C29.1812 16.7848 28.9035 16.1947 28.9035 15.3269C28.6953 15.2922 28.487 15.2575 28.2094 15.2575C28.2788 16.5418 28.8341 17.4096 29.7017 17.8609ZM30.5693 24.2131L30.4304 24.109V23.7271H30.0834L29.9793 23.5536C29.5975 22.8247 28.8687 22.3734 28.0704 22.3734H27.8969C27.0987 22.3734 26.3351 22.8247 25.9881 23.5536L25.884 23.7271H25.5716V24.109L25.4328 24.2131C24.461 24.9421 23.9057 26.0528 23.9057 27.233C23.9057 28.4132 24.461 29.524 25.4328 30.2529L25.5716 30.3571V30.7389H25.884L25.9881 30.9125C26.3699 31.6414 27.0987 32.0926 27.8969 32.0926H28.0704C28.8687 32.0926 29.6322 31.6414 29.9793 30.9125L30.0834 30.7389H30.4304V30.3571L30.5693 30.2529C31.541 29.524 32.0963 28.4132 32.0963 27.233C32.0963 26.0528 31.541 24.9768 30.5693 24.2131ZM29.3546 30.5306H26.5781V29.9405H26.7863V29.6282H26.9252V29.3505H27.1681V27.476H26.821V26.5041H27.1681V26.3305H27.0292V26.0876H26.8904V25.5669H27.0292V25.3239H27.2028V25.1503C26.9598 24.9074 26.7169 24.4561 26.9598 24.1437C27.2028 23.8313 27.6887 24.0396 27.6887 24.0396V23.866H27.654L27.6887 23.7966L27.6193 23.8313V23.2759L27.6887 23.3106L27.654 23.2412H28.2093L28.1745 23.3106L28.2439 23.2759V23.8313L28.1745 23.7966L28.2093 23.866H28.1745V24.0396C28.1745 24.0396 28.6951 23.8313 28.9034 24.1437C29.1463 24.4908 28.9034 24.9074 28.6951 25.1503V25.3239H28.8687V25.5669H29.0422V26.0876H28.9034V26.3305H28.7645V26.5041H29.1116V27.476H28.7645V29.3505H29.0075V29.6282H29.1463V29.9405H29.3546V30.5306Z" fill="#1FC150"/>
<path d="M27.3055 24.9769H27.6526C27.6526 24.6644 27.5832 24.2826 27.4096 24.1091L27.3055 24.0049C27.2014 24.0049 27.132 24.0397 27.0626 24.1438C26.8543 24.4562 27.132 24.838 27.3055 24.9769ZM28.763 25.3934H27.1666V25.5322H28.763V25.3934ZM28.8673 25.6364H27.028V25.8794H28.8673V25.6364ZM28.6242 26.2612H27.3401V26.5041H28.6242V26.2612ZM28.5895 25.0812H27.3401V25.2894H28.5895V25.0812ZM28.5897 24.977C28.7632 24.8035 29.0408 24.4564 28.8326 24.1787C28.7632 24.0745 28.6938 24.0398 28.5897 24.0398L28.4856 24.144C28.3121 24.2828 28.2427 24.6993 28.2427 25.0117H28.5897V24.977ZM27.8607 23.658H28.069L28.0343 23.5191L28.1384 23.5538V23.3803L28.0343 23.4149L28.069 23.2761H27.8607L27.8954 23.4149L27.7566 23.3803V23.5538L27.8954 23.5191L27.8607 23.658ZM27.9649 24.005C28.0416 24.005 28.1038 23.9428 28.1038 23.8661C28.1038 23.7895 28.0416 23.7273 27.9649 23.7273C27.8883 23.7273 27.8261 23.7895 27.8261 23.8661C27.8261 23.9428 27.8883 24.005 27.9649 24.005Z" fill="#FFD400"/>
<path d="M27.7559 24.977H28.1377C28.1377 24.6299 28.2071 24.2134 28.4154 24.0398L28.1377 24.144L28.103 24.0398C28.0683 24.0745 28.0336 24.0745 27.9642 24.0745C27.9295 24.0745 27.8601 24.0745 27.8254 24.0398L27.7907 24.144L27.513 24.0398C27.7213 24.2134 27.7559 24.6299 27.7559 24.977ZM28.7624 26.0184H27.1659V26.1573H28.7624V26.0184ZM28.8319 29.4896H27.0619V29.6631H28.8319V29.4896ZM29.0053 29.7323H26.9229V29.9406H29.0053V29.7323ZM29.2136 30.0448H26.7148V30.3573H29.2136V30.0448ZM28.6236 29.3854V27.4069H27.3395V29.3508H28.6236V29.3854ZM28.3112 27.6152H28.4154V29.1078H28.3112V27.6152ZM27.9295 27.6152H28.0336V29.1078H27.9295V27.6152ZM27.5477 27.6152H27.6518V29.1078H27.5477V27.6152ZM27.5825 26.9902H27.6172V26.9208L27.5825 26.9902Z" fill="#FFD400"/>
<path d="M26.957 26.6083V27.3025H28.9352V26.6083H26.957ZM27.3388 27.129C27.3041 27.129 27.2694 27.129 27.2346 27.0943V27.0248H27.2694L27.3041 27.0595H27.3388C27.3735 27.0595 27.4082 27.0595 27.4082 27.0248C27.4082 26.9901 27.4082 26.9901 27.3388 26.9901H27.3041C27.3388 26.9901 27.3388 26.9901 27.3388 26.9554C27.3388 26.9207 27.3041 26.9207 27.3041 26.9207H27.2694V26.9554H27.2346V26.886C27.2694 26.886 27.3041 26.8513 27.3388 26.8513C27.4082 26.8513 27.4429 26.886 27.4429 26.9207C27.4429 26.9554 27.4429 26.9901 27.4082 26.9901C27.4429 26.9901 27.4429 27.0248 27.4429 27.0595C27.4429 27.0943 27.3735 27.129 27.3388 27.129ZM27.79 27.0943H27.6511V27.0595H27.6858L27.6511 27.0248H27.547V27.0595H27.5817V27.0943H27.4776V27.0595H27.5123L27.6164 26.8166H27.6511L27.79 27.0943ZM28.1023 27.129H27.9982L27.8941 26.9901V27.0595H27.9288V27.0943H27.79V27.0595H27.8247V26.8513H27.79V26.8166H27.9288V26.8513H27.8941V26.9554L27.9635 26.8513V26.8166H28.0676V26.8513H28.0329L27.9635 26.9207L28.0676 27.0595L28.1023 27.129ZM28.1023 27.129C28.1023 27.0943 28.1023 27.0943 28.1023 27.129ZM28.2411 27.129C28.137 27.129 28.1023 27.0595 28.1023 26.9901C28.1023 26.886 28.137 26.8513 28.2411 26.8513C28.3453 26.8513 28.3799 26.9207 28.3799 26.9901C28.3799 27.0595 28.3105 27.129 28.2411 27.129ZM28.6923 27.129H28.5535V27.0943H28.5882V26.9901H28.4841V27.0595H28.5188V27.0943H28.3799V27.0595H28.4147V26.8513H28.3799V26.8166H28.5188V26.8513H28.4841V26.9207H28.5882V26.8513H28.5535V26.8166H28.6923V26.8513H28.6576V27.0595L28.6923 27.129ZM28.6923 27.129C28.6923 27.0943 28.6923 27.0943 28.6923 27.129Z" fill="#FFD400"/>
<path d="M28.2413 26.8513C28.2066 26.8513 28.1719 26.886 28.1719 26.9555C28.1719 27.0249 28.2066 27.0596 28.2413 27.0596C28.276 27.0596 28.3107 26.9902 28.3107 26.9555C28.276 26.9208 28.276 26.8513 28.2413 26.8513Z" fill="#FFD400"/>
<path d="M35.7742 37.0219C35.8089 37.0219 35.8089 37.0219 35.7742 37.0219C35.7395 36.9178 35.7048 36.8831 35.6354 36.8136C35.6354 36.8484 35.6701 36.9178 35.6354 36.9525L35.7742 37.0219ZM26.0568 37.0218C26.0568 37.3343 26.0915 37.6467 26.1609 37.9591C26.4038 37.8549 26.6468 37.7508 26.855 37.5772C26.8897 37.2301 27.0979 36.9177 27.4103 36.7441C27.445 36.64 27.4797 36.5012 27.5144 36.397L26.0568 37.0218ZM27.9307 36.1889L27.6878 36.293C27.653 36.3972 27.6183 36.536 27.5836 36.6401C27.7224 36.6054 27.8613 36.5707 28.0001 36.5707C28.1389 36.5707 28.2777 36.6054 28.4165 36.6401C28.3819 36.5013 28.3471 36.3625 28.3125 36.2236L28.0001 36.3625L27.9307 36.1889ZM28.625 36.7096C28.9373 36.8832 29.1456 37.1956 29.1803 37.5427C29.3885 37.7163 29.6315 37.8551 29.8744 37.9245C29.9438 37.5774 30.0132 37.265 29.9785 36.9873L28.4862 36.2584C28.5209 36.4319 28.5556 36.5708 28.625 36.7096ZM27.5145 38.7574C27.6186 39.0003 27.7921 39.3475 28.0003 39.521C28.2086 39.3475 28.4168 39.0003 28.5209 38.7574C28.3474 38.9309 27.7227 38.9309 27.5145 38.7574ZM21.5102 38.0285L21.6491 38.6881L21.4755 38.4451L21.1285 39.0352C21.0244 39.174 21.0938 39.2782 21.2326 39.2088L21.3714 39.174C21.5102 39.1393 21.7185 38.9658 21.7879 38.7922L21.8573 38.6881C22.1696 38.1674 21.5102 38.0285 21.5102 38.0285ZM18.8033 38.2716L19.1157 38.2369L18.838 37.4038C18.8033 37.265 18.6645 37.1956 18.5256 37.2303L18.4215 37.265C18.2827 37.2997 18.2133 37.4386 18.248 37.5774L18.4215 38.1328C18.4562 38.2022 18.6298 38.1675 18.6645 38.2716C18.9074 38.7229 19.2892 38.7229 19.2892 38.7229L19.1851 38.3758L18.8033 38.2716ZM20.9897 37.2649L20.8509 36.8137C20.8162 36.6748 20.6773 36.6054 20.5385 36.6401L20.4344 36.6748C20.2956 36.7095 20.2262 36.8484 20.2609 36.9872L20.5038 37.7509L20.8509 37.4385L20.5732 37.9245L20.6079 37.9939L20.7121 38.341C20.7121 38.341 21.0244 37.9245 20.955 37.5774C20.8856 37.4732 21.0244 37.4038 20.9897 37.2649ZM19.8445 37.0913C19.8097 36.9872 19.6709 36.9178 19.5668 36.9525L19.3933 37.0219C19.2891 37.0566 19.2197 37.1955 19.2545 37.2996L19.4627 37.9244L19.9486 38.1674H19.6362C19.7056 38.4798 19.8791 38.6187 20.0874 38.7575C20.0874 38.7575 20.2609 38.341 20.1568 38.0285L19.8445 37.0913ZM34.4209 36.4667L34.8374 36.675C34.9068 36.5708 35.0803 36.4319 35.3233 36.5014L35.4274 36.5361H35.4621C34.6986 35.6336 34.2127 34.7658 34.1086 33.655L32.7203 34.2104C32.7897 34.4187 32.8939 34.627 32.998 34.8352L33.3798 34.3839L33.4839 34.4881L33.0674 34.9741C33.1368 35.0782 33.2062 35.1824 33.2756 35.2865L33.588 34.9047L33.6921 35.0088L33.345 35.4253C33.4144 35.5295 33.4839 35.6336 33.588 35.703L33.9003 35.3559L34.0045 35.46L33.6921 35.8419C33.8656 36.0848 34.1086 36.2931 34.4209 36.4667ZM20.6425 36.5012C20.7466 36.5012 20.8507 36.5706 20.9201 36.64L21.8919 36.2582C22.0654 36.1541 22.2042 36.0152 22.3431 35.8764L21.996 35.4598L22.1001 35.3557L22.4472 35.7722C22.5166 35.6681 22.586 35.5987 22.6901 35.4946L22.2389 35.0433L22.3431 34.9392L22.6901 35.3904C22.7595 35.2863 22.829 35.1821 22.8984 35.078L22.4472 34.5226L22.5513 34.4185L22.9678 34.9044C23.176 34.4879 23.3148 34.1061 23.3495 33.7589L21.9266 33.0994C21.9266 34.4185 21.4754 35.4945 20.6425 36.5012ZM15.8185 17.9999V17.6181L16.0614 17.9305C16.2696 18.2082 16.4779 18.4512 16.6861 18.6594C16.5473 18.3471 16.4432 17.9652 16.4085 17.5487C15.7838 16.6462 15.2632 15.7784 15.0897 15.1189C14.7079 16.9239 15.1938 18.1388 15.992 19.1107C15.8879 18.7636 15.8185 18.4165 15.8185 17.9999ZM19.1503 24.3523C19.1156 24.3176 19.1156 24.2829 19.0809 24.2482L18.8727 23.9358L19.2197 24.0399C19.4627 24.1093 19.7403 24.144 20.0527 24.144C19.4974 24.0052 18.9421 23.7275 18.5603 23.1027C17.5886 22.6514 16.6168 21.9225 15.9921 21.0547C15.7492 20.8811 15.5062 20.7076 15.298 20.4646C15.7145 22.2696 17.4845 23.8316 19.1503 24.3523Z" fill="#FFE000"/>
<path d="M19.6716 22.8942C19.0816 22.6512 18.6651 22.2347 18.4222 21.8182C17.6934 21.4363 16.8604 20.8115 16.3398 19.909C16.0275 19.666 15.7499 19.3883 15.4375 19.0412C15.5069 20.8115 16.9646 22.1653 18.4569 22.8942C18.4222 22.8595 18.4222 22.8248 18.3875 22.7554L18.2487 22.443L18.561 22.5818C18.9428 22.7554 19.3245 22.8248 19.6716 22.8942ZM18.5263 20.4643C18.4916 20.3602 18.4916 20.256 18.4569 20.1519L18.4222 19.8395L18.6651 20.0131C18.9428 20.2213 19.2204 20.3602 19.4981 20.499C19.2551 20.2907 19.0469 19.9437 19.0122 19.4577C17.7975 18.8676 17.2422 18.1386 16.4786 17.2361C16.5828 18.8329 17.4851 19.7354 18.5263 20.4643ZM21.0945 26.9554C21.2334 26.7471 21.4069 26.5736 21.6151 26.4694C21.3028 26.5041 20.9904 26.5041 20.6781 26.5041C19.6716 26.5041 18.7692 26.2959 18.0057 25.9141C17.7628 25.9835 17.5545 26.0529 17.3463 26.1918C18.0404 26.9554 19.4634 27.2678 21.0945 26.9554Z" fill="#FFE000"/>
<path d="M22.169 27.3026H21.8913C21.6484 27.3026 21.4055 27.268 21.1278 27.2332L20.9196 27.1985L20.989 27.0944C20.6072 27.1638 20.2254 27.1985 19.8437 27.1985C19.4967 27.1985 19.1843 27.1638 18.8719 27.1291C18.386 27.268 18.039 27.4415 17.9002 27.7539C19.4619 28.2052 20.7808 27.9622 22.169 27.3026ZM21.9608 26.2613H21.9261C21.5096 26.2613 20.989 26.1919 20.3643 26.0531L20.1561 26.0183L20.2602 25.8448C20.2949 25.7754 20.3643 25.7059 20.3991 25.6365C18.872 25.5671 17.6226 25.0117 16.6508 23.9703C16.4773 24.0051 16.3385 24.0745 16.2344 24.0745C17.5532 26.1572 19.7049 26.5737 21.9608 26.2613Z" fill="#FFE000"/>
<path d="M20.5367 25.4975C20.6061 25.4281 20.6755 25.3587 20.7449 25.3239C20.1202 25.1851 19.6343 24.9074 19.322 24.5256C18.6279 24.352 17.8644 23.9702 17.2049 23.4148C16.7191 23.033 16.3373 22.6164 15.9902 22.1652C15.8167 22.1305 15.6432 22.0958 15.5391 22.0958C16.5803 24.2132 18.1767 25.4281 20.5367 25.4975Z" fill="#FFE000"/>
<path d="M19.8782 20.5685C21.2664 21.1933 22.5852 21.5057 22.7587 22.9983C22.1687 21.0545 20.4334 21.3669 18.5941 20.1173C18.6635 20.8462 19.184 21.3322 19.9823 21.6446C20.9887 21.9917 21.9952 22.3041 22.377 23.3108C21.3011 21.7487 19.6352 22.2 18.3164 21.1933C18.4899 21.8182 19.0799 22.7206 20.2946 22.8942C21.1623 23.1025 21.6134 23.2413 22.0646 23.9008C21.1275 22.9289 19.7393 23.2066 18.4899 22.6859C19.2535 24.4562 21.0581 23.9008 22.0993 24.6298C21.197 24.2132 19.9476 24.4215 19.184 24.1785C19.5658 24.7686 20.1905 25.081 20.8846 25.2199C21.2664 24.9769 21.6828 24.9769 22.134 24.9422C22.3076 24.9422 22.5158 24.9075 22.6893 24.9075C22.1687 24.3521 22.2728 23.3802 23.1752 23.4149C23.2793 20.2214 20.3293 20.4297 19.184 19.0412C19.0799 19.909 19.4964 20.3602 19.8782 20.5685ZM25.1532 17.8265C25.5003 17.9654 26.2291 18.0348 26.6456 17.167C26.3332 17.3405 25.9168 17.3405 25.5697 17.3058C25.0838 17.2711 24.5979 17.167 24.0774 17.2017C23.9385 17.2017 23.6956 17.3405 23.6609 17.5141C24.5632 17.3405 24.8062 17.6877 25.1532 17.8265ZM27.2009 19.8049C27.2009 20.0826 27.2009 20.3603 27.0621 20.5686L26.8886 20.8463L26.8192 20.5338C26.7845 20.4297 26.7498 20.3256 26.715 20.2215C26.6456 20.4297 26.5762 20.638 26.4374 20.8115L26.2292 21.124L26.1945 20.7421C26.1945 20.6727 26.1945 20.638 26.1597 20.5686C26.1251 20.7074 26.0557 20.8463 25.9515 20.9851L25.9168 21.0546C25.8821 21.2975 25.8474 21.5405 25.8127 21.6794C26.1251 21.6099 26.5068 21.1934 26.6456 20.8463C26.715 21.0546 26.8539 21.3323 26.9927 21.4364C27.2356 21.1587 27.305 20.8115 27.3744 20.395C27.5133 20.6033 27.6868 20.6727 27.9992 20.7074C28.3115 20.6727 28.4851 20.5686 28.6239 20.395C28.6586 20.8115 28.7627 21.1587 29.0056 21.4364C29.1098 21.3323 29.2833 21.0546 29.3527 20.8463C29.4915 21.1587 29.8733 21.6099 30.1856 21.6794C30.1509 21.5405 30.1162 21.2975 30.0815 21.0546L30.0468 21.0198C29.9427 20.881 29.8733 20.7421 29.8386 20.6033C29.8386 20.638 29.8386 20.7074 29.8039 20.7769L29.7344 21.124L29.5262 20.8115C29.3874 20.638 29.318 20.4297 29.2486 20.2215C29.2139 20.3256 29.1792 20.4297 29.1444 20.5338L29.075 20.8463L28.9015 20.5686C28.7627 20.3603 28.7627 20.0826 28.7627 19.8049C28.5892 19.9785 28.3809 20.1173 28.2074 20.2215C28.1727 20.395 28.0686 20.5686 27.9645 20.7074C27.8603 20.5686 27.7909 20.3603 27.7215 20.2215C27.5827 20.1173 27.3744 19.9785 27.2009 19.8049Z" fill="#FFE000"/>
<path d="M26.1603 17.9305C25.5703 18.2429 25.0844 17.9999 24.8068 17.7917C24.4597 17.5487 24.1127 17.5487 23.7656 17.6181C24.425 18.0346 24.1821 18.7983 24.6333 19.0066C24.8415 19.1454 25.3274 19.4578 25.5356 20.0132C25.6397 19.8396 25.7438 19.2149 25.1885 18.5206C25.3274 18.59 25.5009 18.7983 25.5009 18.7983C25.848 19.0066 26.1256 19.2495 26.2991 19.5272C26.3686 19.1107 26.1603 18.7289 25.8132 18.3123C26.3686 18.9718 26.9933 19.0066 27.4097 18.8677C26.9238 18.833 26.4032 18.347 26.1603 17.9305ZM24.078 17.7222C24.1821 17.7222 24.3903 17.6875 24.7027 17.8611C24.5985 17.9652 24.3556 18.1388 24.078 17.7222Z" fill="#FFE000"/>
<path d="M26.3343 18.9717C26.4037 19.1453 26.4384 19.3535 26.4037 19.5965L26.3343 19.9783L26.1261 19.666C25.9873 19.4577 25.8137 19.2841 25.6055 19.1453C25.7443 19.5618 25.7096 19.8742 25.6402 20.0825C25.7443 20.3602 25.8137 20.6726 25.8137 20.9503C26.022 20.6379 26.0914 20.3255 26.0914 19.9783C26.1955 20.2214 26.2649 20.4643 26.2996 20.742C26.5079 20.4296 26.6119 20.1172 26.6467 19.7701C26.7855 20.0131 26.8896 20.256 26.9243 20.499C27.0978 20.256 27.0284 19.8048 26.9937 19.423C27.2367 19.7006 27.6184 20.0478 27.8614 20.1519C27.7226 19.7701 27.4449 19.423 27.1672 19.1453C27.1325 19.1106 26.6467 19.18 26.3343 18.9717ZM25.2235 22.4777C24.3558 22.929 24.3905 23.7967 23.9394 23.9703C24.0435 24.005 24.1129 24.0398 24.217 24.0398C24.3211 23.9356 24.3905 23.7967 24.4599 23.6579C24.7376 23.2414 25.0499 22.7207 25.8829 22.5124C25.8829 22.4777 25.8482 22.443 25.8482 22.4083C25.7093 22.443 25.6052 22.4777 25.5011 22.4777H25.2235ZM19.9829 21.8183C19.2888 21.5406 18.8376 21.1588 18.6294 20.6729C17.9353 20.2563 17.3452 19.7357 16.8941 19.0761C16.547 18.7637 16.2694 18.4166 15.957 18.0348C15.957 19.8051 17.1023 20.9506 18.317 21.6101C18.2823 21.5059 18.2129 21.3671 18.1782 21.2629L18.0741 20.8464L18.3865 21.0894C18.907 21.4712 19.4276 21.6448 19.9829 21.8183Z" fill="#FFE000"/>
<path d="M15.2997 19.0759V18.6594L15.5774 18.9718C15.8203 19.2842 16.0632 19.4925 16.3062 19.7007L15.8897 19.1801C15.4385 18.6247 15.1262 17.9999 14.9527 17.3751L14.7444 16.9585C14.3627 18.7983 15.0221 19.7007 15.7856 20.6033C15.508 20.152 15.3344 19.6313 15.2997 19.0759ZM21.8245 29.8367C21.651 29.9409 21.4775 30.0103 21.2693 30.0797L21.7205 30.288C21.7205 30.1838 21.7899 30.0103 21.8245 29.8367ZM22.6226 30.8432L22.7614 30.9126L22.8655 30.8432L23.1085 30.9473V30.3225C22.9696 30.496 22.7961 30.7043 22.6226 30.8432ZM23.8373 31.2945L24.0108 31.3639L24.1149 31.5375L24.3926 31.6763C24.3232 31.3986 24.2885 31.0515 24.2885 30.7391C24.1496 30.9474 24.0108 31.1209 23.8373 31.2945ZM18.909 29.0037L19.3949 29.2466C20.4708 29.2119 21.3384 28.7607 22.2061 28.2053V28.1706C22.2061 27.8582 22.4143 27.4763 22.5878 27.2334C21.6855 27.7193 20.8872 27.997 20.089 28.1012C19.5337 28.3789 19.0826 28.6566 18.909 29.0037ZM39.9061 17.9305L40.149 17.6181V17.9999C40.149 18.4165 40.0796 18.7636 39.9755 19.1107C40.7737 18.1388 41.2596 16.9239 40.8778 15.1189C40.7043 15.7784 40.1837 16.6462 39.559 17.5487C39.5243 17.9652 39.4202 18.3123 39.2813 18.6594C39.4896 18.4165 39.6978 18.1735 39.9061 17.9305ZM37.3726 23.1371C36.9908 23.762 36.4355 24.0049 35.8803 24.1785C36.1926 24.1438 36.505 24.1438 36.7132 24.0743L37.0602 23.9702L36.852 24.2826C36.8173 24.3173 36.8173 24.352 36.7826 24.3868C38.4485 23.8661 40.2185 22.304 40.6002 20.5337C40.3573 20.742 40.1143 20.9503 39.9061 21.1239C39.3161 21.9917 38.3444 22.6859 37.3726 23.1371Z" fill="#FFE000"/>
<path d="M37.51 22.9291C39.0024 22.1655 40.46 20.8117 40.5294 19.0761C40.2517 19.4232 39.9394 19.7009 39.627 19.9439C39.1064 20.8464 38.2388 21.4365 37.5447 21.853C37.3018 22.3043 36.8853 22.6861 36.2953 22.9291C36.677 22.8597 37.0241 22.7903 37.4059 22.6514L37.7182 22.5126L37.5794 22.825C37.5447 22.825 37.5447 22.8944 37.51 22.9291ZM36.4339 20.4992C36.7116 20.3604 36.9892 20.2215 37.2669 20.0133L37.5098 19.8397L37.4751 20.1521C37.4751 20.2562 37.4404 20.3604 37.4057 20.4645C38.4816 19.7703 39.3492 18.8331 39.4186 17.271C38.6898 18.1736 38.1345 18.9025 36.8851 19.4926C36.8851 19.9439 36.6768 20.291 36.4339 20.4992ZM35.2886 26.5043C35.011 26.5043 34.6986 26.5043 34.3516 26.4696C34.5251 26.5738 34.6986 26.7473 34.8721 26.9556C36.5033 27.268 37.9263 26.9903 38.6204 26.2266C38.4122 26.0878 38.2039 25.9837 37.961 25.9489C37.1975 26.2961 36.2951 26.5043 35.2886 26.5043Z" fill="#FFE000"/>
<path d="M37.0939 27.1291C36.7815 27.1985 36.4692 27.1985 36.1221 27.1985C35.7404 27.1985 35.3586 27.1638 34.9769 27.0944L35.0463 27.1985L34.838 27.2332C34.5604 27.3026 34.3175 27.3026 34.0745 27.3026H33.7969C35.1504 27.9622 36.5039 28.2051 38.031 27.7539C37.9268 27.4415 37.5798 27.2679 37.0939 27.1291ZM35.5667 25.6364C35.6014 25.7058 35.6708 25.7752 35.7056 25.8446L35.8097 26.0182L35.6014 26.0529C34.9767 26.1918 34.4561 26.2612 34.0397 26.2612H34.005C36.2261 26.5736 38.4126 26.157 39.7314 24.109C39.6273 24.0743 39.4538 24.0396 39.3149 24.0049C38.3085 25.0115 37.0591 25.5669 35.5667 25.6364Z" fill="#FFE000"/>
<path d="M38.7939 23.4496C38.1345 23.9703 37.3709 24.3521 36.6768 24.5603C36.3298 24.9422 35.8439 25.2199 35.2539 25.3587C35.3233 25.4282 35.3927 25.4629 35.4621 25.5323C37.8221 25.4282 39.4186 24.2132 40.4944 22.1653C40.3904 22.1653 40.2168 22.2 40.0433 22.2347C39.6615 22.6512 39.2797 23.0677 38.7939 23.4496Z" fill="#FFE000"/>
<path d="M33.241 24.9075C33.4492 24.9423 33.6227 24.9423 33.7963 24.9423C34.2475 24.977 34.6639 24.977 35.0457 25.2199C35.7398 25.0811 36.3645 24.7687 36.7463 24.1786C35.9827 24.4216 34.768 24.2133 33.831 24.6298C34.8722 23.9009 36.6769 24.4563 37.4057 22.7554C36.1563 23.2761 34.768 22.9984 33.831 23.9703C34.2822 23.3108 34.7334 23.172 35.601 22.9637C36.8504 22.7554 37.4057 21.8876 37.5792 21.2628C36.2604 22.2695 34.5945 21.8182 33.5187 23.3802C33.9351 22.3389 34.9069 22.0265 35.9133 21.7141C36.7116 21.4017 37.2322 20.9157 37.3016 20.1868C35.4622 21.4364 33.7269 21.124 33.1369 23.0678C33.3104 21.5752 34.6639 21.2281 36.0175 20.638C36.3992 20.395 36.781 19.9438 36.7116 19.1107C35.5663 20.4644 32.6163 20.2909 32.7204 23.4844C33.6922 23.3802 33.7963 24.3521 33.241 24.9075ZM30.8114 17.8265C31.1584 17.6529 31.4014 17.3405 32.3037 17.5141C32.269 17.3405 32.0608 17.2017 31.8873 17.2017C31.3667 17.167 30.8808 17.2711 30.3949 17.3058C30.0478 17.3405 29.6313 17.3405 29.319 17.167C29.7355 18.0348 30.4643 17.9654 30.8114 17.8265ZM28.9375 19.423C28.9028 19.8048 28.8334 20.256 29.0069 20.499C29.0763 20.256 29.1805 19.9783 29.2846 19.7701C29.3193 20.1172 29.4234 20.4296 29.6316 20.742C29.6663 20.4643 29.7357 20.2213 29.8398 19.9783C29.8398 20.3255 29.9092 20.6726 30.1175 20.9503C30.1175 20.6379 30.1522 20.3602 30.291 20.0825C30.2216 19.8742 30.1869 19.5618 30.3257 19.1453C30.1175 19.2841 29.944 19.4924 29.8052 19.666L29.5969 19.9783L29.5275 19.5965C29.4928 19.3883 29.5275 19.18 29.5969 18.9717C29.2846 19.1453 28.7987 19.1106 28.7293 19.1106C28.4516 19.3883 28.2087 19.7354 28.0352 20.1172C28.3475 20.0131 28.6945 19.7006 28.9375 19.423ZM30.7422 22.4776L30.6034 22.5123H30.4993C30.3952 22.5123 30.2563 22.4776 30.1522 22.4429C30.1522 22.4776 30.1175 22.5123 30.1175 22.547C30.9504 22.7206 31.2628 23.2412 31.5404 23.6925C31.6099 23.8313 31.714 23.9702 31.7834 24.0743C31.8875 24.0743 31.9569 24.0396 32.061 24.0049C31.5751 23.7966 31.6098 22.9289 30.7422 22.4776Z" fill="#FFE000"/>
<path d="M37.6468 21.6101C38.8615 20.9158 40.0068 19.7703 40.0068 18.0348C39.6944 18.4513 39.3821 18.7637 39.0697 19.0761C38.6533 19.7703 38.0286 20.291 37.3692 20.7075C37.1609 21.1935 36.7097 21.5406 36.0503 21.8183H36.0156C36.5362 21.6795 37.0915 21.5059 37.5774 21.1241L37.8898 20.8811L37.7856 21.2977C37.7509 21.3671 37.6815 21.4712 37.6468 21.6101Z" fill="#FFE000"/>
<path d="M39.6631 19.7008C39.9061 19.4925 40.149 19.2495 40.3919 18.9718L40.6696 18.6594V19.076C40.6349 19.6314 40.4961 20.1867 40.2184 20.6727C40.9819 19.7355 41.6413 18.8677 41.2596 17.028C41.1902 17.1668 41.1208 17.3057 41.0514 17.4445C40.8778 18.1041 40.5655 18.6941 40.1143 19.2495L39.6631 19.7008ZM36.8865 28.7954C36.6782 28.5524 36.2964 28.3441 35.88 28.1011C35.0817 27.997 34.2835 27.7193 33.3812 27.2333C33.5894 27.4763 33.7629 27.8582 33.7629 28.1705V28.2053C34.5265 28.6912 35.29 29.0731 36.1924 29.1772C36.4006 29.0384 36.6435 28.8995 36.8865 28.7954ZM34.5612 30.045C34.4224 29.9756 34.2836 29.9062 34.1448 29.8367C34.1795 29.9756 34.1795 30.1144 34.2142 30.2185C34.353 30.1839 34.4571 30.1144 34.5612 30.045ZM33.2771 30.7739C33.1382 30.6351 32.9994 30.4962 32.8606 30.3574C32.8953 30.6004 32.8953 30.8087 32.8606 30.9822C32.9994 30.9128 33.1382 30.8434 33.2771 30.7739ZM31.5419 31.6763C31.7501 31.5722 31.9583 31.4333 32.2012 31.3292C32.0277 31.1209 31.8542 30.9474 31.7154 30.7391C31.6807 31.1209 31.646 31.4333 31.5419 31.6763ZM35.5329 29.5243C35.4288 29.3854 35.3246 29.2466 35.1858 29.1077C34.6305 28.9341 34.1447 28.6217 33.6241 28.3094H33.4158C33.1035 28.3094 32.7564 28.2052 32.4788 28.0317C32.4788 28.1011 32.4441 28.1358 32.4441 28.2052C33.1035 28.9689 33.7976 29.6284 34.7346 29.9755C35.0123 29.802 35.2899 29.6631 35.5329 29.5243ZM34.0755 30.3226C34.0755 30.1491 34.0408 29.9755 33.9714 29.7672C33.3814 29.4201 32.8608 28.9341 32.4096 28.3788C32.3402 28.587 32.2708 28.7953 32.2014 29.0036C32.479 29.6631 32.8608 30.2185 33.4161 30.7044C33.6243 30.5656 33.8672 30.4615 34.0755 30.3226ZM32.6871 30.1491C32.4441 29.8367 32.2706 29.4896 32.1318 29.1425C31.9582 29.4896 31.75 29.802 31.4724 30.0797C31.6806 30.4962 31.9582 30.8781 32.3053 31.2599C32.4441 31.1905 32.5829 31.121 32.7218 31.0516C32.7565 30.8087 32.7218 30.4962 32.6871 30.1491ZM31.5419 30.5308C31.4725 30.4267 31.4031 30.3225 31.3684 30.2184C31.2296 30.3573 31.0907 30.4961 30.9172 30.6002V31.2251C31.056 31.3986 31.1948 31.5722 31.3337 31.7457C31.5072 31.468 31.5766 31.0515 31.5419 30.5308ZM30.3965 31.2599C30.2923 31.3987 30.2229 31.5723 30.0841 31.6764C30.1883 31.85 30.3271 32.0583 30.4659 32.2318C30.57 32.1624 30.6741 32.1277 30.7783 32.0583C30.8477 31.8847 30.9171 31.7111 30.9518 31.4682C30.8824 31.3987 30.8129 31.2946 30.7783 31.2252H30.3965V31.2599ZM29.9802 31.7804C29.772 31.9887 29.529 32.197 29.2514 32.3358C29.3902 32.44 29.529 32.5441 29.6678 32.6482C29.8414 32.5441 30.0496 32.4747 30.2232 32.3705C30.2232 32.2664 30.1884 32.197 30.1537 32.0928C30.0843 31.9887 30.0496 31.8846 29.9802 31.7804ZM29.4594 32.7523V32.6829C29.3553 32.6135 29.2164 32.5093 29.1123 32.4052C28.8694 32.5093 28.5917 32.5787 28.2794 32.6135C28.3835 32.8217 28.4876 32.9953 28.6264 33.1689L29.4594 32.7523ZM28.1407 32.6137H27.8283C27.7589 32.7872 27.6201 32.9608 27.5507 33.1343L27.9324 33.3079C27.9672 33.2385 28.0018 33.1343 28.0018 33.0649C28.0366 33.2037 28.0713 33.3079 28.106 33.4467C28.2448 33.3773 28.3836 33.3079 28.5224 33.2385C28.3836 33.0302 28.2448 32.8219 28.1407 32.6137ZM26.5095 32.7176L26.7525 32.8217L26.8219 32.787L27.3771 33.0647C27.4813 32.9258 27.5854 32.7523 27.6548 32.6135C27.3771 32.5787 27.0995 32.5093 26.8219 32.4052C26.7525 32.4746 26.6136 32.6481 26.5095 32.7176ZM26.7177 32.3358C26.44 32.197 26.1971 32.0234 25.9889 31.7804C25.9195 31.8846 25.8847 31.9887 25.8153 32.0581C25.8153 32.1276 25.7459 32.2664 25.7459 32.3011L26.4053 32.6135C26.4747 32.5788 26.6136 32.4053 26.7177 32.3358ZM25.5724 31.2598H25.2253C25.1559 31.3292 25.1212 31.4333 25.0518 31.5028C25.0518 31.6763 25.0865 31.9193 25.1212 32.0234L25.5724 32.2317C25.6765 32.0928 25.85 31.8151 25.9195 31.6763C25.7806 31.5374 25.6765 31.3986 25.5724 31.2598ZM25.0865 31.121V30.6004C24.913 30.4615 24.7742 30.3227 24.6354 30.1838C24.566 30.288 24.4965 30.4268 24.4271 30.531C24.3924 31.0169 24.4271 31.5029 24.566 31.7806L24.6354 31.8153C24.7742 31.6417 24.9477 31.364 25.0519 31.1905V31.121H25.0865ZM23.8719 29.1076C23.6984 29.4547 23.5248 29.8018 23.2819 30.1489C23.2472 30.496 23.2124 30.8084 23.2472 31.0514L23.6983 31.2597C24.0454 30.8779 24.3231 30.496 24.5313 30.0795C24.2536 29.7671 24.0454 29.4547 23.8719 29.1076ZM23.5595 28.3439C23.0736 28.8993 22.5531 29.4199 21.9631 29.767C21.8936 30.01 21.8242 30.2877 21.8242 30.496L22.5183 30.8084C23.1083 30.3224 23.5248 29.5935 23.8025 28.9339C23.6984 28.7604 23.6289 28.5521 23.5595 28.3439Z" fill="#FFE000"/>
<path d="M23.5232 28.1705C23.5232 28.1358 23.4885 28.0664 23.4885 28.0317C23.1761 28.2052 22.8638 28.3441 22.5167 28.3441H22.3085C21.8226 28.6565 21.302 28.9342 20.7467 29.1424C20.5732 29.3507 20.3303 29.5937 20.1914 29.7672L20.8855 30.1143C21.9961 29.7325 22.8291 29.0036 23.5232 28.1705ZM35.5661 25.9489C34.6638 24.5604 33.5185 25.5324 32.1303 24.6646C32.0261 24.734 31.8873 24.734 31.7138 24.7687C32.0955 25.2894 32.3385 25.8795 32.4426 26.4696C32.8938 27.1638 33.8308 27.2679 34.7332 27.0944C34.4209 26.5737 34.0044 26.4001 33.5185 26.296C32.9632 26.1224 32.512 25.9142 32.3732 25.3241C32.8591 26.3307 34.3167 26.1919 35.5661 25.9489ZM33.588 28.1704C33.588 27.8233 33.3103 27.3373 33.1021 27.1985C32.8245 27.0944 32.6509 26.9555 32.5121 26.7473C32.5468 26.9208 32.5468 27.0944 32.5468 27.2332C32.5468 27.4415 32.5121 27.6845 32.4774 27.8927C32.8591 28.101 33.2409 28.2052 33.588 28.1704ZM22.8291 27.1985C22.6209 27.372 22.378 27.8233 22.3432 28.1704C22.725 28.2051 23.0721 28.1009 23.4538 27.858C23.4191 27.6497 23.4191 27.4414 23.4191 27.2332C23.4191 27.0596 23.4191 26.8513 23.4538 26.6778C23.315 26.9208 23.1415 27.0596 22.8291 27.1985ZM22.3781 26.296C21.8922 26.4001 21.4757 26.6084 21.1634 27.0944C22.1004 27.2679 23.0722 27.1638 23.5234 26.4001C23.6275 25.8101 23.9051 25.2547 24.2522 24.7687C24.0786 24.7687 23.9398 24.734 23.8357 24.6646C22.4822 25.5324 21.3022 24.5604 20.3999 25.9489C21.6492 26.2266 23.1069 26.3655 23.5581 25.3241C23.3845 25.9142 22.9334 26.1224 22.3781 26.296ZM30.9156 23.8663C31.1932 24.0745 31.4362 24.3522 31.6444 24.5952C31.8526 24.5952 32.0261 24.5605 32.1997 24.4564C31.2626 24.2828 31.4362 22.929 30.0132 22.6514L29.9785 22.6861C30.1173 22.8249 30.2561 22.9985 30.3603 23.2067H30.9156V23.8663ZM24.3562 24.6298C24.5644 24.3521 24.8074 24.1091 25.085 23.9008V23.2413H25.5709C25.675 23.033 25.8138 22.8595 25.9526 22.7207L25.9179 22.6859C24.495 22.9983 24.6685 24.3174 23.7315 24.4909C23.9397 24.5951 24.1132 24.6298 24.3562 24.6298ZM25.9873 22.3737C26.0221 22.4431 26.0568 22.5125 26.0915 22.5819C26.2303 22.4431 26.3691 22.339 26.5426 22.2348C26.5079 22.1654 26.5079 22.0613 26.5079 21.9571C26.3344 22.1654 26.1609 22.3042 25.9873 22.3737ZM29.4926 21.9917C29.4926 22.0958 29.4579 22.2 29.4579 22.2694C29.6315 22.3735 29.7703 22.4777 29.9091 22.6165C29.9438 22.5471 29.9785 22.4777 30.0132 22.4082C29.805 22.3041 29.6315 22.1653 29.4926 21.9917ZM27.5145 21.8875H27.6533C27.6533 21.8528 27.6187 21.7834 27.6187 21.7486C27.5839 21.7834 27.5493 21.8528 27.5145 21.8875ZM28.4515 21.8876C28.4168 21.8529 28.3821 21.7835 28.3474 21.7141C28.3474 21.7835 28.3127 21.8182 28.3127 21.8529C28.3474 21.8876 28.4168 21.8876 28.4515 21.8876Z" fill="#FFE000"/>
<path d="M30.1184 21.8181C29.8408 21.7486 29.5284 21.471 29.3549 21.1933C29.2855 21.3321 29.1813 21.471 29.0772 21.5751L28.9731 21.6792L28.869 21.5751C28.6608 21.3321 28.5566 21.0197 28.4872 20.7073C28.3484 20.985 27.5502 20.985 27.4461 20.7073C27.4113 20.985 27.3073 21.2974 27.0643 21.5751L26.9602 21.6792L26.8561 21.5751C26.7519 21.5057 26.6825 21.3668 26.5784 21.1933C26.3702 21.471 26.0578 21.7834 25.8149 21.8181L25.7108 21.8528C25.6414 22.0263 25.5372 22.1999 25.3984 22.3735C25.7802 22.4429 26.3355 22.0958 26.6131 21.5751C26.6131 21.8528 26.6131 22.0263 26.6478 22.1999C26.8561 22.0958 27.0643 21.9917 27.3072 21.9569C27.4461 21.7834 27.5849 21.5404 27.6196 21.228C27.689 21.5751 27.7237 21.7486 27.7931 21.8875H28.1402C28.2096 21.7486 28.2443 21.5404 28.3137 21.228C28.3484 21.5404 28.4872 21.7834 28.6261 21.9569C28.869 22.0263 29.0772 22.0958 29.2855 22.1999C29.3202 22.0611 29.3202 21.8875 29.3202 21.5751C29.6325 22.0958 30.1531 22.4429 30.5349 22.3735C30.396 22.1999 30.2919 22.0263 30.2225 21.8528L30.1184 21.8181Z" fill="#FFE000"/>
<path d="M30.2915 31.1209H30.7774V30.5307C31.7839 29.7671 32.4433 28.5869 32.4433 27.2332C32.4433 25.9141 31.7839 24.6992 30.7774 23.9355V23.3454H30.2915C29.8751 22.5471 29.0421 21.9917 28.0703 21.9917H27.8968C26.9251 21.9917 26.0921 22.5471 25.6757 23.3454H25.2245V23.9355C24.218 24.6992 23.5586 25.8794 23.5586 27.2332C23.5586 28.5522 24.218 29.7671 25.2245 30.5307V31.1209H25.6757C26.0921 31.9192 26.9251 32.4746 27.8968 32.4746H28.0703C29.0421 32.4746 29.8751 31.9192 30.2915 31.1209ZM28.0703 32.2663H27.8968C27.0292 32.2663 26.2656 31.7804 25.8492 31.0167L25.7798 30.9126H25.398V30.4613L25.3286 30.3919C24.3222 29.6283 23.7668 28.4828 23.7668 27.2679C23.7668 26.0529 24.3568 24.9075 25.3286 24.1438L25.398 24.0744V23.5884H25.7798L25.8492 23.4843C26.2656 22.7206 27.0292 22.2347 27.8968 22.2347H28.0703C28.938 22.2347 29.7015 22.7206 30.118 23.4843L30.1874 23.5884H30.5692V24.0397L30.6386 24.1091C31.645 24.8728 32.2003 26.0182 32.2003 27.2332C32.2003 28.4481 31.6103 29.5935 30.6386 30.3572L30.5692 30.4266V30.8779H30.1874L30.118 30.982C29.7015 31.7804 28.938 32.2663 28.0703 32.2663ZM30.1873 18.3818C29.8402 18.7984 29.632 19.1802 29.7014 19.5967C29.8749 19.319 30.1179 19.076 30.4996 18.8678C30.4996 18.8678 30.6731 18.6248 30.812 18.5901C30.2567 19.2843 30.3608 19.8744 30.4649 20.0827C30.6731 19.4926 31.159 19.1802 31.3672 19.076C31.8184 18.8678 31.5755 18.0694 32.2349 17.6876C31.8532 17.6182 31.5061 17.6182 31.1937 17.8611C30.9161 18.0694 30.4302 18.3124 29.8402 18C29.5973 18.3818 29.0767 18.9025 28.6255 18.9719C29.0073 19.0413 29.632 19.0066 30.1873 18.3818ZM31.8878 17.7223C31.6102 18.1041 31.402 17.9305 31.2632 17.8611C31.5755 17.7223 31.749 17.757 31.8878 17.7223ZM34.1439 38.3062L33.9357 38.5145L34.1439 37.855C34.1439 37.855 33.4498 37.9244 33.7275 38.5145L33.7622 38.6186C33.8316 38.7922 34.0051 38.9658 34.1439 39.0352L34.248 39.1046C34.3869 39.174 34.4563 39.1046 34.3869 38.931L34.1439 38.3062ZM37.3019 37.4732L37.1979 37.4385C37.059 37.369 36.9202 37.4385 36.8508 37.5773L36.469 38.3757L36.7814 38.4451L36.3996 38.5145L36.2608 38.8616C36.2608 38.8616 36.6425 38.9311 36.9202 38.4798C36.9896 38.3757 37.1284 38.4451 37.1631 38.3757L37.4061 37.8203C37.4755 37.6815 37.4408 37.5426 37.3019 37.4732ZM35.5321 37.0218C35.6015 36.883 35.5321 36.7441 35.3933 36.6747L35.2892 36.6053C35.1504 36.5358 35.0116 36.6053 34.9421 36.7441L34.7339 37.1607C34.6645 37.2995 34.8033 37.3689 34.7339 37.5078C34.6298 37.8549 34.9074 38.2715 34.9074 38.2715L35.0462 37.9243L35.081 37.8549L34.8727 37.3689L35.1851 37.6813L35.5321 37.0218ZM36.4691 37.369C36.5039 37.2649 36.4691 37.126 36.3651 37.0913L36.1915 37.0219C36.0874 36.9872 35.9486 37.0219 35.9139 37.126L35.5321 37.9938C35.3933 38.3062 35.5321 38.7575 35.5321 38.7575C35.7403 38.6186 35.9139 38.4798 36.018 38.2021L35.7403 38.1674L36.2262 37.9938L36.4691 37.369Z" fill="#FFE000"/>
<path d="M57.952 29.24V21.512C55.984 21.736 54.832 23.464 54.832 25.384C54.832 27.32 56.048 29.064 57.952 29.24ZM59.936 29.24C61.808 29.064 63.056 27.32 63.056 25.384C63.056 23.464 61.872 21.736 59.936 21.512V29.24ZM57.952 32.28V31C55.008 30.808 52.8 28.472 52.8 25.384C52.8 22.296 55.008 19.992 57.952 19.784V18.472H59.936V19.784C62.864 19.992 65.072 22.296 65.072 25.384C65.072 28.472 62.864 30.808 59.936 31V32.28H57.952ZM72.531 31.064C69.139 31.048 66.755 28.856 66.755 25.384C66.755 21.912 69.139 19.688 72.531 19.688C73.459 19.688 74.483 19.8 75.363 20.072L74.835 21.832C74.115 21.624 73.315 21.512 72.579 21.512C70.211 21.528 68.755 22.968 68.755 25.384C68.755 27.8 70.211 29.24 72.579 29.256C73.315 29.256 74.115 29.144 74.835 28.92L75.363 30.696C74.483 30.984 73.459 31.08 72.531 31.064ZM82.0154 31.064C78.6234 31.048 76.2394 28.856 76.2394 25.384C76.2394 21.912 78.6234 19.688 82.0154 19.688C82.9434 19.688 83.9674 19.8 84.8474 20.072L84.3194 21.832C83.5994 21.624 82.7994 21.512 82.0634 21.512C79.6954 21.528 78.2394 22.968 78.2394 25.384C78.2394 27.8 79.6954 29.24 82.0634 29.256C82.7994 29.256 83.5994 29.144 84.3194 28.92L84.8474 30.696C83.9674 30.984 82.9434 31.08 82.0154 31.064ZM86.9244 31V30.616V19.784H96.0124V30.616V31H95.5964H94.3964H93.9644V30.616V21.512H88.9404V30.616V31H88.5244H87.3404H86.9244Z" fill="#0F1B33"/>
</svg>
