<svg width="52" height="52" viewBox="0 0 52 52" fill="none" xmlns="http://www.w3.org/2000/svg">
<rect width="52" height="52" rx="8" fill="#2F94EF" fill-opacity="0.08"/>
<path d="M22.0416 38.9197L25.1483 36.3064C25.6149 35.9064 26.3883 35.9064 26.8549 36.3064L29.9616 38.9197C30.6816 39.2797 31.5616 38.9197 31.8283 38.1464L32.4149 36.373C32.5616 35.9464 32.4149 35.3197 32.0949 34.9997L29.0683 31.9597C28.8416 31.7464 28.6683 31.3197 28.6683 31.013V27.213C28.6683 26.653 29.0816 26.3864 29.6016 26.5997L36.1483 29.4264C37.1749 29.8664 38.0149 29.3197 38.0149 28.1997V26.4797C38.0149 25.5864 37.3483 24.5597 36.5216 24.213L29.0683 20.9997C28.8549 20.9064 28.6683 20.6264 28.6683 20.3864V16.3864C28.6683 15.133 27.7483 13.653 26.6283 13.0797C26.2283 12.8797 25.7616 12.8797 25.3616 13.0797C24.2416 13.653 23.3216 15.1464 23.3216 16.3997V20.3997C23.3216 20.6397 23.1349 20.9197 22.9216 21.013L15.4816 24.2264C14.6549 24.5597 13.9883 25.5864 13.9883 26.4797V28.1997C13.9883 29.3197 14.8283 29.8664 15.8549 29.4264L22.4016 26.5997C22.9083 26.373 23.3349 26.653 23.3349 27.213V31.013C23.3349 31.3197 23.1616 31.7464 22.9483 31.9597L19.9216 34.9997C19.6016 35.3197 19.4549 35.933 19.6016 36.373L20.1883 38.1464C20.4283 38.9197 21.3083 39.293 22.0416 38.9197Z" stroke="#2F94EF" stroke-width="1.5" stroke-linecap="round" stroke-linejoin="round"/>
</svg>
