<svg width="64" height="64" viewBox="0 0 64 64" fill="none" xmlns="http://www.w3.org/2000/svg">
<rect width="64" height="64" rx="32" fill="#2F94EF" fill-opacity="0.08"/>
<path d="M32.2134 30.4933C32.0801 30.48 31.9201 30.48 31.7734 30.4933C28.6001 30.3867 26.0801 27.7867 26.0801 24.5867C26.0801 21.32 28.7201 18.6667 32.0001 18.6667C35.2667 18.6667 37.9201 21.32 37.9201 24.5867C37.9067 27.7867 35.3867 30.3867 32.2134 30.4933Z" stroke="#2F94EF" stroke-width="1.5" stroke-linecap="round" stroke-linejoin="round"/>
<path d="M25.547 35.4133C22.3203 37.5733 22.3203 41.0933 25.547 43.24C29.2136 45.6933 35.227 45.6933 38.8936 43.24C42.1203 41.08 42.1203 37.56 38.8936 35.4133C35.2403 32.9733 29.227 32.9733 25.547 35.4133Z" stroke="#2F94EF" stroke-width="1.5" stroke-linecap="round" stroke-linejoin="round"/>
</svg>
