<svg width="64" height="64" viewBox="0 0 64 64" fill="none" xmlns="http://www.w3.org/2000/svg">
<rect width="64" height="64" rx="32" fill="#E2A32E" fill-opacity="0.12"/>
<path d="M38.2669 41.3067H25.7336C25.1736 41.3067 24.5469 40.8667 24.3603 40.3333L18.8403 24.8933C18.0536 22.68 18.9736 22 20.8669 23.36L26.0669 27.08C26.9336 27.68 27.9203 27.3733 28.2936 26.4L30.6403 20.1467C31.3869 18.1467 32.6269 18.1467 33.3736 20.1467L35.7203 26.4C36.0936 27.3733 37.0803 27.68 37.9336 27.08L42.8136 23.6C44.8936 22.1067 45.8936 22.8667 45.0403 25.28L39.6536 40.36C39.4536 40.8667 38.8269 41.3067 38.2669 41.3067Z" stroke="#E2A32E" stroke-width="1.5" stroke-linecap="round" stroke-linejoin="round"/>
<path d="M24.666 45.3333H39.3327" stroke="#E2A32E" stroke-width="1.5" stroke-linecap="round" stroke-linejoin="round"/>
<path d="M28.666 34.6667H35.3327" stroke="#E2A32E" stroke-width="1.5" stroke-linecap="round" stroke-linejoin="round"/>
</svg>
