<svg width="64" height="64" viewBox="0 0 64 64" fill="none" xmlns="http://www.w3.org/2000/svg">
<rect width="64" height="64" rx="32" fill="#2F94EF" fill-opacity="0.08"/>
<path d="M20.2266 25.9199L31.9999 32.7332L43.6932 25.9599" stroke="#2F94EF" stroke-width="1.5" stroke-linecap="round" stroke-linejoin="round"/>
<path d="M32 44.8131V32.7197" stroke="#2F94EF" stroke-width="1.5" stroke-linecap="round" stroke-linejoin="round"/>
<path d="M44.8141 33.1066V28.2265C44.8141 26.3865 43.4942 24.1465 41.8808 23.2532L34.7608 19.3065C33.2408 18.4532 30.7608 18.4532 29.2408 19.3065L22.1208 23.2532C20.5075 24.1465 19.1875 26.3865 19.1875 28.2265V35.7732C19.1875 37.6132 20.5075 39.8532 22.1208 40.7465L29.2408 44.6932C30.0008 45.1199 31.0008 45.3332 32.0008 45.3332C33.0008 45.3332 34.0008 45.1199 34.7608 44.6932" stroke="#2F94EF" stroke-width="1.5" stroke-linecap="round" stroke-linejoin="round"/>
<path d="M41.6007 44.5334C43.9571 44.5334 45.8673 42.6231 45.8673 40.2667C45.8673 37.9103 43.9571 36 41.6007 36C39.2443 36 37.334 37.9103 37.334 40.2667C37.334 42.6231 39.2443 44.5334 41.6007 44.5334Z" stroke="#2F94EF" stroke-width="1.5" stroke-linecap="round" stroke-linejoin="round"/>
<path d="M46.6673 45.3333L45.334 44" stroke="#2F94EF" stroke-width="1.5" stroke-linecap="round" stroke-linejoin="round"/>
</svg>
