<svg width="64" height="64" viewBox="0 0 64 64" fill="none" xmlns="http://www.w3.org/2000/svg">
<rect width="64" height="64" rx="32" fill="#2F94EF" fill-opacity="0.08"/>
<path d="M20.72 36.5294C20.6718 36.5294 20.5754 36.5294 20.5272 36.4812C20.3825 36.433 20.1415 36.2884 19.8041 36.1438C18.2614 35.4207 17.4419 35.035 17.2009 34.8422C16.8153 34.5048 16.5742 34.0227 16.5742 33.4442C16.5742 32.8175 16.8635 32.2873 17.3937 31.8052C17.4901 31.516 17.4901 30.359 17.3937 29.5395C17.3455 29.202 17.4419 28.9128 17.683 28.6236C17.924 28.3825 18.2614 28.1897 18.5989 28.1897H20.7682C25.5888 24.6224 33.3501 23.8511 39.0385 29.0574C41.8826 29.0574 43.8591 29.3949 45.4017 30.0698C45.8838 30.2626 46.3659 30.5518 46.8479 30.8893C47.2818 31.2749 47.5228 31.8534 47.4746 32.3837L47.1854 34.9868C47.1372 35.6135 46.6551 36.192 45.9802 36.3848C45.932 36.3848 45.8838 36.433 45.8356 36.433H43.9073C43.6181 36.433 43.4253 36.2402 43.4253 35.951C43.4253 35.6617 43.6181 35.4689 43.9073 35.4689H45.7392C45.9802 35.3725 46.173 35.1797 46.2212 34.8904L46.5105 32.2873C46.5587 32.0944 46.4141 31.8052 46.2694 31.6606C45.8838 31.3713 45.4499 31.1303 45.0643 30.9857C43.6181 30.359 41.6898 30.0698 38.8938 30.0698C38.7492 30.0698 38.6528 30.0216 38.5564 29.9251C33.1091 24.8635 25.7335 25.683 21.202 29.1056C21.1056 29.1538 21.0092 29.202 20.9128 29.202H18.5989C18.5025 29.202 18.4543 29.2503 18.4061 29.2985C18.3579 29.3467 18.3579 29.3949 18.3579 29.4431C18.3579 29.4431 18.5989 31.516 18.2132 32.2873C18.165 32.3837 18.0686 32.5283 17.9722 32.5765C17.7794 32.7693 17.5383 33.0586 17.5383 33.396C17.5383 33.7335 17.6348 33.9263 17.7794 34.0709C18.0204 34.2637 19.4666 34.9386 20.1897 35.2761C20.5272 35.4207 20.8164 35.5653 20.961 35.6135C21.202 35.7099 21.2985 35.9992 21.1538 36.2402C21.0574 36.433 20.9128 36.5294 20.72 36.5294Z" fill="#2F94EF" stroke="#2F94EF" stroke-width="0.3"/>
<path d="M38.7983 36.5295H25.7825C25.4933 36.5295 25.3005 36.3366 25.3005 36.0474C25.3005 35.7581 25.4933 35.5653 25.7825 35.5653H38.7983C39.0875 35.5653 39.2803 35.7581 39.2803 36.0474C39.2803 36.3366 39.0875 36.5295 38.7983 36.5295ZM35.6649 30.1662C32.9171 30.1662 29.2052 30.1662 27.3251 30.118C26.2646 30.0698 25.3005 29.8287 24.2881 29.2985C24.0471 29.2021 23.9507 28.9128 24.0953 28.6718C24.1917 28.4308 24.4809 28.3343 24.722 28.479C25.6379 28.9128 26.4574 29.1539 27.3733 29.2021C29.2534 29.2503 32.9653 29.2503 35.7131 29.2503C36.0023 29.2503 36.1951 29.4431 36.1951 29.7323C36.1951 30.0216 35.9541 30.1662 35.6649 30.1662Z" fill="#2F94EF" stroke="#2F94EF" stroke-width="0.3"/>
<path d="M23.275 38.554C21.5878 38.554 20.238 37.2042 20.238 35.517C20.238 33.8298 21.5878 32.48 23.275 32.48C24.9622 32.48 26.312 33.8298 26.312 35.517C26.312 37.2042 24.9622 38.554 23.275 38.554ZM23.275 33.4441C22.1663 33.4441 21.2021 34.4082 21.2021 35.517C21.2021 36.6257 22.1663 37.5899 23.275 37.5899C24.432 37.5899 25.3479 36.6739 25.3479 35.517C25.3479 34.4082 24.3838 33.4441 23.275 33.4441ZM41.3525 38.554C39.6652 38.554 38.3155 37.2042 38.3155 35.517C38.3155 33.8298 39.6652 32.48 41.3525 32.48C43.0397 32.48 44.3895 33.8298 44.3895 35.517C44.3895 37.2042 43.0397 38.554 41.3525 38.554ZM41.3525 33.4441C40.2437 33.4441 39.2796 34.4082 39.2796 35.517C39.2796 36.6257 40.2437 37.5899 41.3525 37.5899C42.5094 37.5899 43.4253 36.6739 43.4253 35.517C43.4253 34.4082 42.4612 33.4441 41.3525 33.4441ZM29.6865 30.1661C29.3972 30.1661 29.2044 29.9732 29.2044 29.684V26.1167C29.2044 25.8275 29.3972 25.6346 29.6865 25.6346C29.9757 25.6346 30.1686 25.8275 30.1686 26.1167V29.684C30.1686 29.9732 29.9757 30.1661 29.6865 30.1661ZM32.145 31.5158H31.0363C30.747 31.5158 30.5542 31.323 30.5542 31.0338C30.5542 30.7445 30.747 30.5517 31.0363 30.5517H32.145C32.4343 30.5517 32.6271 30.7445 32.6271 31.0338C32.6271 31.323 32.4343 31.5158 32.145 31.5158ZM46.7998 34.2154C45.4018 34.2154 44.3413 33.1549 44.3413 31.7569C44.3413 31.2748 44.4859 30.7927 44.7751 30.3589C44.9198 30.1661 45.1608 30.1179 45.3536 30.1661C45.8839 30.3589 46.3659 30.6963 46.7998 30.9856C46.7998 30.9856 46.848 30.9856 46.848 31.0338C47.2819 31.4194 47.5229 31.9497 47.4747 32.48L47.3301 33.7815C47.2337 34.0226 47.0408 34.2154 46.7998 34.2154ZM45.4018 31.2748C45.3536 31.4194 45.3054 31.564 45.3054 31.7569C45.3054 32.4318 45.7393 33.0102 46.3659 33.2031L46.4624 32.3836C46.5106 32.1907 46.3659 31.9497 46.2213 31.8051C45.9321 31.6123 45.6428 31.4194 45.4018 31.2748ZM19.3703 31.082H17.9723C17.6831 31.082 17.4902 30.8892 17.4902 30.5999C17.4902 30.3107 17.6831 30.1179 17.9723 30.1179H19.3703C19.6595 30.1179 19.8524 30.3107 19.8524 30.5999C19.8524 30.8892 19.6595 31.082 19.3703 31.082Z" fill="#2F94EF" stroke="#2F94EF" stroke-width="0.3"/>
</svg>
