<svg width="52" height="52" viewBox="0 0 52 52" fill="none" xmlns="http://www.w3.org/2000/svg">
<rect width="52" height="52" rx="8" fill="#2F94EF" fill-opacity="0.08"/>
<path d="M14.2275 19.9203L26.0008 26.7336L37.6941 19.9603M26.0008 38.8136V26.7203M38.8141 27.107V22.227C38.8141 20.387 37.4942 18.147 35.8808 17.2537L28.7608 13.307C27.2408 12.4537 24.7608 12.4537 23.2408 13.307L16.1208 17.2537C14.5075 18.147 13.1875 20.387 13.1875 22.227V29.7737C13.1875 31.6137 14.5075 33.8537 16.1208 34.747L23.2408 38.6937C24.0008 39.1204 25.0008 39.3337 26.0008 39.3337C27.0008 39.3337 28.0008 39.1204 28.7608 38.6937" stroke="#2F94EF" stroke-width="1.5" stroke-linecap="round" stroke-linejoin="round"/>
<path d="M31.5704 35.8878C31.5704 36.3182 31.2215 36.6671 30.7911 36.6671C30.3606 36.6671 30.0117 36.3182 30.0117 35.8878V31.1338C30.0117 30.5815 30.4594 30.1338 31.0117 30.1338H33.1664C34.6691 30.1338 35.5651 30.9645 35.5651 32.3458C35.5651 33.3258 35.0237 33.9698 34.1837 34.2405L34.982 35.5139C35.2965 36.0155 34.9359 36.6671 34.3439 36.6671C34.067 36.6671 33.8124 36.5152 33.681 36.2715L32.6811 34.4178H31.5704V35.8878ZM33.2504 31.6085H31.5704V33.1018H33.2691C33.8011 33.1018 34.0157 32.8031 34.0157 32.3458C34.0157 31.8885 33.7917 31.6085 33.2504 31.6085Z" fill="#2F94EF"/>
<path d="M36.1761 30.9178C36.1761 30.4848 36.5271 30.1338 36.9601 30.1338C37.3931 30.1338 37.7441 30.4848 37.7441 30.9178V33.8485C37.7441 34.7071 38.1454 35.2298 39.1254 35.2298C40.1428 35.2298 40.5161 34.7071 40.5161 33.8485V30.9131C40.5161 30.4827 40.865 30.1338 41.2954 30.1338C41.7258 30.1338 42.0748 30.4827 42.0748 30.9131V33.8671C42.0748 35.6311 40.9454 36.7138 39.1254 36.7138C37.3054 36.7138 36.1761 35.6311 36.1761 33.8671V30.9178Z" fill="#2F94EF"/>
</svg>
