<svg width="52" height="52" viewBox="0 0 52 52" fill="none" xmlns="http://www.w3.org/2000/svg">
<rect width="52" height="52" rx="8" fill="#2F94EF" fill-opacity="0.08"/>
<path d="M33.6571 12.4302L30.0729 11.6764C27.8287 11.2528 25.526 11.211 23.267 11.5529L18.5065 12.3417C17.6177 12.4869 16.8108 12.9346 16.2294 13.6049C15.6481 14.2753 15.3301 15.1248 15.332 16.0022V30.6419C15.3379 31.1286 15.4488 31.6086 15.6576 32.0509C15.8664 32.4931 16.1684 32.8877 16.544 33.2089C16.9197 33.5301 17.3605 33.7708 17.8379 33.9154C18.3153 34.0599 18.8186 34.1051 19.3151 34.0479C18.9737 34.8839 17.2956 39.0269 16.923 39.9414C16.8705 40.0705 16.8729 40.2146 16.9296 40.342C16.9862 40.4695 17.0926 40.5697 17.2252 40.6208C17.3578 40.6719 17.5058 40.6696 17.6367 40.6145C17.7676 40.5593 17.8706 40.4558 17.9231 40.3266L18.5452 38.794H33.3597L33.9652 40.3225C34.0165 40.452 34.1186 40.5564 34.249 40.6126C34.3793 40.6688 34.5273 40.6724 34.6604 40.6224C34.7934 40.5724 34.9006 40.473 34.9584 40.3461C35.0162 40.2192 35.0198 40.0751 34.9685 39.9456L32.6323 34.0479C33.1323 34.1104 33.6402 34.0694 34.1228 33.9274C34.6053 33.7855 35.0516 33.5459 35.4324 33.2243C35.8132 32.9027 36.1199 32.5064 36.3324 32.0614C36.5449 31.6163 36.6583 31.1326 36.6654 30.6419V16.0597C36.6618 15.212 36.3619 14.3907 35.8151 13.731C35.2682 13.0713 34.5075 12.6125 33.6571 12.4302ZM18.9699 37.7471L19.6834 35.9883H32.2489L32.9457 37.7471H18.9699ZM31.8344 34.9414H20.1087L20.4711 34.0479H31.4806L31.8344 34.9414ZM35.5906 30.6419C35.5901 31.2674 35.3347 31.8672 34.8803 32.3096C34.4259 32.7519 33.8098 33.0006 33.1673 33.001H31.8698C31.23 33.0105 19.0581 32.9942 18.8307 33.001C18.1881 33.0006 17.572 32.7519 17.1176 32.3096C16.6633 31.8672 16.4078 31.2674 16.4074 30.6419V16.0022C16.406 15.3722 16.6344 14.7622 17.0519 14.2808C17.4694 13.7995 18.0489 13.4781 18.6871 13.3739L23.4472 12.5851C25.5711 12.2654 27.7357 12.3044 29.846 12.7003L33.4302 13.4535C34.0408 13.5845 34.5874 13.914 34.98 14.3876C35.3727 14.8613 35.588 15.451 35.5906 16.0597V30.6419Z" fill="#2F94EF" stroke="#2F94EF" stroke-width="0.2"/>
<path d="M31.425 16.8356H20.6431C20.3048 16.836 19.9805 16.9747 19.7413 17.2214C19.5021 17.4682 19.3675 17.8027 19.3672 18.1516V21.9067C19.3675 22.2556 19.5021 22.5901 19.7413 22.8369C19.9805 23.0836 20.3048 23.2224 20.6431 23.2227H31.4246C31.7629 23.2224 32.0872 23.0836 32.3264 22.8369C32.5656 22.5901 32.7002 22.2556 32.7005 21.9067V18.1516C32.7002 17.8027 32.5656 17.4682 32.3264 17.2214C32.0872 16.9747 31.7633 16.836 31.425 16.8356ZM31.8503 21.9067C31.8503 22.023 31.8055 22.1346 31.7258 22.2169C31.646 22.2991 31.5378 22.3454 31.425 22.3454H20.6431C20.5303 22.3454 20.4221 22.2991 20.3424 22.2169C20.2626 22.1346 20.2178 22.023 20.2178 21.9067V18.1516C20.2178 18.0353 20.2626 17.9237 20.3424 17.8414C20.4221 17.7592 20.5303 17.713 20.6431 17.713H31.4246C31.5374 17.713 31.6456 17.7592 31.7253 17.8414C31.8051 17.9237 31.8499 18.0353 31.8499 18.1516L31.8503 21.9067ZM21.8348 25.277C19.0078 25.3692 19.0082 29.5975 21.8348 29.6901C24.6622 29.5971 24.6614 25.3692 21.8348 25.277ZM21.8348 28.8128C21.493 28.8128 21.1653 28.6727 20.9236 28.4234C20.6819 28.1742 20.5461 27.8361 20.5461 27.4836C20.5461 27.131 20.6819 26.793 20.9236 26.5437C21.1653 26.2944 21.493 26.1544 21.8348 26.1544C22.1766 26.1544 22.5044 26.2944 22.746 26.5437C22.9877 26.793 23.1235 27.131 23.1235 27.4836C23.1235 27.8361 22.9877 28.1742 22.746 28.4234C22.5044 28.6727 22.1766 28.8128 21.8348 28.8128ZM30.1602 25.277C27.3327 25.3692 27.3336 29.5975 30.1602 29.6901C32.9872 29.5971 32.9868 25.3692 30.1602 25.277ZM30.1602 28.8128C29.8184 28.8128 29.4906 28.6727 29.2489 28.4234C29.0073 28.1742 28.8715 27.8361 28.8715 27.4836C28.8715 27.131 29.0073 26.793 29.2489 26.5437C29.4906 26.2944 29.8184 26.1544 30.1602 26.1544C30.5019 26.1544 30.8297 26.2944 31.0714 26.5437C31.3131 26.793 31.4488 27.131 31.4488 27.4836C31.4488 27.8361 31.3131 28.1742 31.0714 28.4234C30.8297 28.6727 30.5019 28.8128 30.1602 28.8128ZM23.7487 15.9008H28.3475C28.4603 15.9008 28.5685 15.8546 28.6483 15.7723C28.728 15.69 28.7728 15.5785 28.7728 15.4621C28.7728 15.3458 28.728 15.2342 28.6483 15.1519C28.5685 15.0697 28.4603 15.0234 28.3475 15.0234H23.7487C23.6359 15.0234 23.5277 15.0697 23.4479 15.1519C23.3682 15.2342 23.3234 15.3458 23.3234 15.4621C23.3234 15.5785 23.3682 15.69 23.4479 15.7723C23.5277 15.8546 23.6359 15.9008 23.7487 15.9008Z" fill="#2F94EF" stroke="#2F94EF" stroke-width="0.2"/>
</svg>
