<svg width="1348" height="569" viewBox="0 0 1348 569" fill="none" xmlns="http://www.w3.org/2000/svg">
<g clip-path="url(#clip0_2206_24733)">
<rect width="1348" height="569" rx="24" fill="#EBF2FF" fill-opacity="0.4"/>
<g filter="url(#filter0_f_2206_24733)">
<path d="M1238.03 -185.959C1307.86 -111.131 1222.76 99.5683 1138.94 39.7609C1066.52 -11.9113 796.773 133.76 802.235 68.0559C809.246 -16.267 1007.6 -117.491 971.901 -257.269C961.524 -297.896 1157.36 -272.406 1238.03 -185.959Z" fill="url(#paint0_linear_2206_24733)" fill-opacity="0.6"/>
</g>
<g filter="url(#filter1_f_2206_24733)">
<path d="M1016.42 -352.092C1078.92 -247.267 1256.05 38.4662 1139.2 73.6739C1063.76 96.4016 809.848 1.12841 785.46 -52.3455C766.037 -94.9325 905.747 -148.448 914.192 -191.713C926.798 -256.296 859.317 -323.012 927.888 -336.82C976.686 -346.647 987.332 -400.87 1016.42 -352.092Z" fill="url(#paint1_linear_2206_24733)" fill-opacity="0.6"/>
</g>
<g opacity="0.5">
<g filter="url(#filter2_f_2206_24733)">
<path d="M376.421 632.483C465.429 507.786 473.288 612.051 417.196 516.235C401.273 372.503 275.655 336.097 178.056 514.877C99.9762 657.901 33.1257 685.201 126.503 730.98C207.052 763.136 287.412 757.18 376.421 632.483Z" fill="url(#paint2_linear_2206_24733)" fill-opacity="0.6"/>
</g>
<g filter="url(#filter3_f_2206_24733)">
<path d="M-112.562 609.627C-112.562 609.627 -54.1013 326.152 57.2609 357.157C146.822 382.091 150.818 568.01 150.818 568.01L39.1728 627.876L-112.562 609.627Z" fill="url(#paint3_linear_2206_24733)" fill-opacity="0.6"/>
</g>
<g filter="url(#filter4_f_2206_24733)">
<path d="M-2.71322 663.687C-9.50267 632.266 15.3936 503.867 72.4664 493.545C123.179 500.298 147.018 495.999 157.243 491.035C170.508 484.595 160.858 477.035 157.243 491.035C153.679 504.837 155.979 539.593 191.878 617.032C272.186 790.265 181.372 845.088 41.675 774.999C22.1424 761.464 10.6643 756.45 4.31043 755.221C-8.45861 752.752 -0.531665 765.567 4.31043 755.221C8.24068 746.823 10.1385 723.166 -2.71322 663.687Z" fill="url(#paint4_linear_2206_24733)" fill-opacity="0.6"/>
</g>
</g>
</g>
<rect x="0.5" y="0.5" width="1347" height="568" rx="23.5" stroke="#0F1B33" stroke-opacity="0.04"/>
<defs>
<filter id="filter0_f_2206_24733" x="640.66" y="-437.638" width="784.661" height="684.551" filterUnits="userSpaceOnUse" color-interpolation-filters="sRGB">
<feFlood flood-opacity="0" result="BackgroundImageFix"/>
<feBlend mode="normal" in="SourceGraphic" in2="BackgroundImageFix" result="shape"/>
<feGaussianBlur stdDeviation="80.7469" result="effect1_foregroundBlur_2206_24733"/>
</filter>
<filter id="filter1_f_2206_24733" x="622.116" y="-533.656" width="717.562" height="772.266" filterUnits="userSpaceOnUse" color-interpolation-filters="sRGB">
<feFlood flood-opacity="0" result="BackgroundImageFix"/>
<feBlend mode="normal" in="SourceGraphic" in2="BackgroundImageFix" result="shape"/>
<feGaussianBlur stdDeviation="80.7469" result="effect1_foregroundBlur_2206_24733"/>
</filter>
<filter id="filter2_f_2206_24733" x="-117.155" y="196.097" width="768.02" height="749.511" filterUnits="userSpaceOnUse" color-interpolation-filters="sRGB">
<feFlood flood-opacity="0" result="BackgroundImageFix"/>
<feBlend mode="normal" in="SourceGraphic" in2="BackgroundImageFix" result="shape"/>
<feGaussianBlur stdDeviation="99.0528" result="effect1_foregroundBlur_2206_24733"/>
</filter>
<filter id="filter3_f_2206_24733" x="-310.668" y="156.681" width="659.592" height="669.3" filterUnits="userSpaceOnUse" color-interpolation-filters="sRGB">
<feFlood flood-opacity="0" result="BackgroundImageFix"/>
<feBlend mode="normal" in="SourceGraphic" in2="BackgroundImageFix" result="shape"/>
<feGaussianBlur stdDeviation="99.0528" result="effect1_foregroundBlur_2206_24733"/>
</filter>
<filter id="filter4_f_2206_24733" x="-201.909" y="285.018" width="621.98" height="717.728" filterUnits="userSpaceOnUse" color-interpolation-filters="sRGB">
<feFlood flood-opacity="0" result="BackgroundImageFix"/>
<feBlend mode="normal" in="SourceGraphic" in2="BackgroundImageFix" result="shape"/>
<feGaussianBlur stdDeviation="99.0528" result="effect1_foregroundBlur_2206_24733"/>
</filter>
<linearGradient id="paint0_linear_2206_24733" x1="1025.05" y1="212.521" x2="823.825" y2="-2.25907" gradientUnits="userSpaceOnUse">
<stop stop-color="#614BF1"/>
<stop offset="1" stop-color="#614BF1" stop-opacity="0"/>
</linearGradient>
<linearGradient id="paint1_linear_2206_24733" x1="525.778" y1="-381.876" x2="819.589" y2="-662.911" gradientUnits="userSpaceOnUse">
<stop stop-color="#1D98F0"/>
<stop offset="1" stop-color="#1D98F0" stop-opacity="0"/>
</linearGradient>
<linearGradient id="paint2_linear_2206_24733" x1="-7.16035" y1="535.213" x2="304.348" y2="544.114" gradientUnits="userSpaceOnUse">
<stop offset="0.572115" stop-color="#0CBDC6"/>
<stop offset="1" stop-color="white" stop-opacity="0"/>
</linearGradient>
<linearGradient id="paint3_linear_2206_24733" x1="40.2689" y1="418.002" x2="112.54" y2="606.921" gradientUnits="userSpaceOnUse">
<stop stop-color="#0CBDC6"/>
<stop offset="1" stop-color="white" stop-opacity="0"/>
</linearGradient>
<linearGradient id="paint4_linear_2206_24733" x1="182.687" y1="678.629" x2="72.8037" y2="448.607" gradientUnits="userSpaceOnUse">
<stop stop-color="#19D6A1"/>
<stop offset="1" stop-color="white"/>
</linearGradient>
<clipPath id="clip0_2206_24733">
<rect width="1348" height="569" rx="24" fill="white"/>
</clipPath>
</defs>
</svg>
