<svg width="128" height="40" viewBox="0 0 128 40" fill="none" xmlns="http://www.w3.org/2000/svg">
<g clip-path="url(#clip0_2007_32657)">
<path fill-rule="evenodd" clip-rule="evenodd" d="M15.1208 2.52294e-05C23.3329 2.52294e-05 29.9926 6.67043 29.9926 14.8956C29.9926 18.4806 28.7271 21.77 26.6198 24.3407L33.7786 31.5774C34.5256 32.3298 34.5223 33.5465 33.7711 34.2948C33.0199 35.043 31.8051 35.0397 31.0581 34.2873L23.8234 26.9739C21.3764 28.746 18.3705 29.7912 15.1208 29.7912C6.90876 29.7912 0.249023 23.1208 0.249023 14.8956C0.249023 6.67041 6.90876 2.52294e-05 15.1208 2.52294e-05ZM8.40829 14.8786L9.62474 13.635C9.86451 13.3899 10.2606 13.3859 10.5053 13.6259L13.708 16.7688L20.8673 9.16207C21.1021 8.91255 21.492 8.8859 21.7467 9.11538L23.039 10.2797C23.2937 10.5092 23.3199 10.9109 23.0855 11.1605L15.4939 19.2455L15.4907 19.2491L14.2302 20.5914L14.2191 20.603L14.2078 20.6141L14.1961 20.6249L14.1843 20.6354L14.1724 20.6454L14.1601 20.6551L14.1476 20.6644L14.135 20.6734L14.1222 20.682L14.1093 20.6902L14.0961 20.698L14.0828 20.7055L14.0692 20.7127L14.0556 20.7194L14.0419 20.7259L14.0279 20.7318L14.0139 20.7376L13.9998 20.7428L13.9712 20.7524C13.8416 20.7922 13.7003 20.7882 13.5716 20.7409L13.5712 20.7406L13.5432 20.7296L13.5429 20.7294C13.5289 20.7235 13.5151 20.7171 13.5015 20.7101L13.5013 20.7099L13.4879 20.703L13.4877 20.7028L13.4744 20.6954L13.4742 20.6952L13.4611 20.6875L13.4609 20.6872L13.448 20.6792L13.4478 20.679C13.4347 20.6705 13.4219 20.6616 13.4094 20.6521L13.3971 20.6426L13.3849 20.6326L13.3729 20.6223L13.3495 20.6005L8.41728 15.7606C8.17267 15.5205 8.16852 15.1237 8.40829 14.8786ZM15.1208 3.2206C21.5574 3.2206 26.7772 8.44877 26.7772 14.8956C26.7772 21.3425 21.5574 26.5707 15.1208 26.5707C8.68423 26.5707 3.46445 21.3425 3.46445 14.8956C3.46445 8.44875 8.68425 3.2206 15.1208 3.2206Z" fill="#2F94EF"/>
<path d="M39.5107 15.1567H41.8594V3.32071H39.5107V15.1567ZM51.8875 3.32071V10.9954L45.9521 3.32071H44.0422V15.1567H46.3573V7.46513L52.301 15.1567H54.2026V3.32071H51.8875ZM64.9901 5.43378V3.32071H56.3966V15.1567H58.7116V10.4601H64.1265V8.38083H58.7116V5.43377L64.9901 5.43378ZM72.0703 15.3934C72.9591 15.3934 73.7749 15.2469 74.5118 14.9539C75.2517 14.658 75.9155 14.2186 76.5035 13.6268C77.0941 13.0381 77.533 12.3759 77.8283 11.6406C78.1209 10.908 78.2672 10.0995 78.2672 9.22044C78.2672 8.34978 78.1208 7.5497 77.8283 6.81998C77.533 6.09301 77.0941 5.43377 76.5035 4.84775C75.9155 4.26172 75.2517 3.82215 74.5118 3.52914C73.7749 3.23613 72.9591 3.08968 72.0703 3.08968C71.1786 3.08968 70.3628 3.23613 69.623 3.52914C68.8832 3.82216 68.2165 4.26173 67.6286 4.84775C67.0379 5.43377 66.5963 6.09301 66.3009 6.81998C66.0056 7.5497 65.8565 8.34978 65.8565 9.22044C65.8565 10.0995 66.0056 10.908 66.3009 11.6406C66.5963 12.3759 67.0379 13.0381 67.6286 13.6268C68.2165 14.2186 68.8803 14.658 69.6202 14.9539C70.3572 15.2469 71.173 15.3934 72.0618 15.3934H72.0703ZM72.0533 13.2465C71.4796 13.2465 70.962 13.1507 70.495 12.962C70.0308 12.7704 69.6174 12.483 69.2602 12.0998C68.9001 11.7166 68.6329 11.2856 68.4556 10.8066C68.2784 10.3276 68.1884 9.8036 68.1884 9.22881C68.1884 8.66536 68.2784 8.14409 68.4556 7.67082C68.6329 7.19469 68.9001 6.76635 69.2602 6.38327C69.6174 6.00008 70.0308 5.71268 70.495 5.52109C70.962 5.33235 71.4796 5.23656 72.0533 5.23656C72.6272 5.23656 73.1448 5.33235 73.6117 5.52109C74.0758 5.71268 74.4894 6.00008 74.8466 6.38327C75.2066 6.76635 75.4739 7.19469 75.6511 7.67082C75.8311 8.14408 75.9184 8.66536 75.9184 9.22881C75.9184 9.8036 75.8311 10.3276 75.6511 10.8066C75.4739 11.2856 75.2066 11.7166 74.8466 12.0998C74.4894 12.483 74.0758 12.7732 73.6117 12.9647C73.1448 13.1592 72.6272 13.255 72.0533 13.255V13.2465ZM79.8846 10.8968H86.0392V9.05703H79.8846V10.8968Z" fill="#0F1B33"/>
<path d="M44.7459 19.0355H39.458V30.8714H41.6537V27.2566H44.6492C45.2613 27.2566 45.8088 27.1523 46.2947 26.9468C46.7832 26.7411 47.2072 26.4312 47.5697 26.0198C47.9293 25.6057 48.2005 25.1605 48.3829 24.6844C48.5629 24.2055 48.6541 23.6955 48.6541 23.1546C48.6541 22.0981 48.2918 21.1485 47.5697 20.3061C47.2072 19.8863 46.7886 19.5707 46.3162 19.3594C45.8437 19.1481 45.315 19.0439 44.7298 19.0439L44.7459 19.0355ZM44.5634 25.2028H41.6376V21.1401H44.6654C44.9283 21.1401 45.17 21.1908 45.3874 21.2922C45.6048 21.3964 45.7981 21.5486 45.9726 21.7514C46.3188 22.1543 46.4907 22.6248 46.4907 23.163C46.4907 23.7012 46.3107 24.1717 45.9483 24.5745C45.7686 24.7774 45.5619 24.9295 45.3284 25.0338C45.0949 25.1352 44.8345 25.1859 44.5473 25.1859L44.5634 25.2028ZM56.8545 30.8714H59.4018L56.6021 26.4961C56.9886 26.3524 57.3323 26.1608 57.6329 25.9241C57.9362 25.6903 58.1939 25.4057 58.4113 25.076C58.626 24.7464 58.7898 24.397 58.8999 24.0336C59.0099 23.6673 59.0636 23.2869 59.0636 22.884C59.0636 21.8839 58.7092 20.9907 58.0006 20.2075C57.6489 19.8158 57.2383 19.5228 56.7712 19.3285C56.3042 19.1313 55.7808 19.0355 55.2037 19.0355H49.7146V30.8714H51.9075V26.7354H54.3072L56.8545 30.8714ZM51.9075 21.1147H55.1393C55.3997 21.1147 55.6359 21.157 55.8479 21.2443C56.0625 21.3317 56.2531 21.4613 56.4223 21.6359C56.5914 21.8107 56.7176 22.0022 56.8007 22.2107C56.884 22.422 56.9243 22.6474 56.9243 22.8925C56.9243 23.4053 56.7525 23.8364 56.4063 24.1829C56.2317 24.3576 56.0331 24.4872 55.8077 24.5745C55.5848 24.6619 55.3325 24.7041 55.0534 24.7041H51.8994L51.9075 21.1147ZM66.0374 31.108C66.8855 31.108 67.664 30.9616 68.3672 30.6686C69.0732 30.3727 69.7067 29.9332 70.2677 29.3415C70.8313 28.7527 71.2501 28.0906 71.5318 27.3553C71.8111 26.6227 71.9507 25.8142 71.9507 24.9352C71.9507 24.0646 71.8111 23.2645 71.5318 22.5348C71.2501 21.8078 70.8313 21.1485 70.2677 20.5625C69.7067 19.9765 69.0732 19.5369 68.3672 19.2439C67.664 18.9509 66.8855 18.8045 66.0374 18.8045C65.1865 18.8045 64.4081 18.9509 63.702 19.2439C62.9961 19.5369 62.36 19.9765 61.799 20.5625C61.2354 21.1485 60.8139 21.8078 60.532 22.5348C60.2502 23.2645 60.108 24.0646 60.108 24.9352C60.108 25.8142 60.2502 26.6227 60.532 27.3553C60.8139 28.0906 61.2354 28.7527 61.799 29.3415C62.36 29.9332 62.9935 30.3727 63.6995 30.6686C64.4028 30.9616 65.1811 31.108 66.0293 31.108H66.0374ZM66.0213 28.9612C65.4737 28.9612 64.9798 28.8654 64.5341 28.6766C64.0913 28.485 63.6968 28.1976 63.3559 27.8145C63.0123 27.4313 62.7574 27.0003 62.5882 26.5214C62.4191 26.0424 62.3332 25.5184 62.3332 24.9436C62.3332 24.3801 62.4191 23.8589 62.5882 23.3856C62.7574 22.9095 63.0123 22.4811 63.3559 22.0981C63.6968 21.7149 64.0913 21.4275 64.5341 21.2359C64.9798 21.0471 65.4737 20.9513 66.0213 20.9513C66.5689 20.9513 67.0627 21.0471 67.5083 21.2359C67.9512 21.4275 68.3458 21.7149 68.6867 22.0981C69.0302 22.4811 69.2853 22.9095 69.4544 23.3856C69.6261 23.8589 69.7093 24.3801 69.7093 24.9436C69.7093 25.5184 69.6261 26.0424 69.4544 26.5214C69.2853 27.0003 69.0302 27.4313 68.6867 27.8145C68.3458 28.1976 67.9512 28.4879 67.5083 28.6794C67.0627 28.8738 66.5689 28.9696 66.0213 28.9696V28.9612ZM81.1656 19.0355L77.9419 27.9328L74.7155 19.0355H72.2863L76.7287 30.8714H79.1524L83.5947 19.0355H81.1656ZM92.7132 21.1316V19.0355H84.4002V30.8714H92.6971V28.7752H86.5637V25.8705H91.8865V23.8392H86.5637V21.1316H92.7132ZM101.316 30.8714H103.864L101.064 26.4961C101.45 26.3524 101.794 26.1608 102.095 25.9241C102.398 25.6903 102.656 25.4057 102.873 25.076C103.088 24.7464 103.252 24.397 103.362 24.0336C103.472 23.6673 103.525 23.2869 103.525 22.884C103.525 21.8839 103.171 20.9907 102.462 20.2075C102.111 19.8158 101.7 19.5228 101.233 19.3285C100.766 19.1313 100.243 19.0355 99.6655 19.0355H94.1764V30.8714H96.3693V26.7354H98.769L101.316 30.8714ZM96.3693 21.1147H99.6011C99.8614 21.1147 100.098 21.157 100.31 21.2443C100.524 21.3317 100.715 21.4613 100.884 21.6359C101.053 21.8107 101.179 22.0022 101.263 22.2107C101.346 22.422 101.386 22.6474 101.386 22.8925C101.386 23.4053 101.214 23.8364 100.868 24.1829C100.693 24.3576 100.495 24.4872 100.269 24.5745C100.047 24.6619 99.7944 24.7041 99.5151 24.7041H96.3611L96.3693 21.1147ZM112.464 30.8714H115.153L110.357 24.2111L114.799 19.0355H112L107.251 24.7718V19.0355H105.042V30.8714H107.251V27.8427L108.91 25.9184L112.464 30.8714ZM124.275 30.8714H126.578L122.245 19.0355H119.373L115.057 30.8714H117.347L118.281 28.3047H123.354L124.275 30.8714ZM119.006 26.2566L120.807 21.2556L122.613 26.2566H119.006Z" fill="#0F1B33"/>
<path d="M39.5762 34.413H42.9046V38.7585H42.204V35.0586H40.2769V38.7585H39.5762L39.5762 34.413ZM43.839 35.4683H44.4346V36.0209C44.5281 35.8305 44.6672 35.6794 44.8521 35.5676C45.0371 35.4559 45.2463 35.4 45.4798 35.4C45.8847 35.4 46.2039 35.5346 46.4375 35.8036C46.6711 36.0726 46.7879 36.4782 46.7879 37.0202V37.1444C46.7879 37.4259 46.7567 37.6721 46.6945 37.8832C46.6321 38.0943 46.5435 38.2691 46.4288 38.4078C46.314 38.5464 46.1767 38.6509 46.017 38.7213C45.8574 38.7916 45.6783 38.8268 45.4798 38.8268C45.2579 38.8268 45.0555 38.775 44.8725 38.6716C44.6897 38.5681 44.5592 38.4233 44.4813 38.237V40H43.839L43.839 35.4683ZM45.3281 38.2308C45.5694 38.2308 45.7641 38.1419 45.9119 37.9639C46.0598 37.786 46.1339 37.5128 46.1339 37.1445V37.0202C46.1339 36.6726 46.0618 36.4151 45.9179 36.2475C45.7737 36.0798 45.5772 35.996 45.3281 35.996C45.219 35.996 45.1139 36.0146 45.0127 36.0519C44.9115 36.0891 44.8209 36.144 44.7412 36.2164C44.6613 36.2888 44.5981 36.3798 44.5514 36.4895C44.5046 36.5992 44.4813 36.7244 44.4813 36.8651V37.2996C44.4813 37.4569 44.5046 37.5935 44.5514 37.7093C44.5981 37.8253 44.6604 37.9225 44.7381 38.0011C44.8161 38.0798 44.9057 38.1377 45.0068 38.175C45.1081 38.2122 45.2152 38.2308 45.3281 38.2308ZM48.7733 38.8268C48.5592 38.8268 48.3597 38.7905 48.1747 38.7182C47.9898 38.6457 47.8292 38.5391 47.6929 38.3984C47.5568 38.2577 47.4496 38.0828 47.3719 37.8738C47.2939 37.6648 47.255 37.4217 47.255 37.1445V37.0202C47.255 36.7596 47.294 36.5288 47.3719 36.3281C47.4496 36.1274 47.5568 35.9578 47.6929 35.819C47.8292 35.6804 47.9898 35.5759 48.1747 35.5055C48.3597 35.4353 48.5592 35.4 48.7733 35.4C48.9874 35.4 49.1868 35.4353 49.3719 35.5055C49.5568 35.5759 49.7173 35.6804 49.8536 35.819C49.9898 35.9578 50.0969 36.1274 50.1748 36.3281C50.2526 36.5288 50.2915 36.7596 50.2915 37.0202V37.1445C50.2915 37.4217 50.2526 37.6648 50.1748 37.8738C50.0969 38.0828 49.9898 38.2577 49.8536 38.3984C49.7173 38.5391 49.5568 38.6457 49.3719 38.7182C49.1868 38.7905 48.9874 38.8268 48.7733 38.8268ZM48.7733 38.2308C48.8862 38.2308 48.9942 38.2101 49.0974 38.1687C49.2006 38.1273 49.292 38.0632 49.3719 37.9762C49.4516 37.8894 49.5159 37.7776 49.5645 37.6411C49.6132 37.5045 49.6376 37.3389 49.6376 37.1445V37.0202C49.6376 36.8423 49.6132 36.6892 49.5645 36.561C49.5159 36.4326 49.4516 36.3271 49.3719 36.2443C49.292 36.1616 49.2006 36.0995 49.0974 36.0581C48.9942 36.0167 48.8862 35.996 48.7733 35.996C48.6604 35.996 48.5524 36.0167 48.4492 36.0581C48.346 36.0995 48.2546 36.1616 48.1746 36.2443C48.0949 36.3271 48.0307 36.4326 47.982 36.561C47.9333 36.6892 47.909 36.8423 47.909 37.0202V37.1445C47.909 37.3389 47.9333 37.5045 47.982 37.6411C48.0307 37.7776 48.0949 37.8894 48.1746 37.9762C48.2546 38.0632 48.346 38.1273 48.4492 38.1687C48.5524 38.2101 48.6604 38.2308 48.7733 38.2308ZM50.9338 35.4683H52.3937C52.783 35.4683 53.0652 35.5521 53.2404 35.7197C53.4157 35.8874 53.5032 36.1016 53.5032 36.3622C53.5032 36.5071 53.4624 36.6467 53.3805 36.7813C53.2988 36.9157 53.1839 37.0058 53.0361 37.0513C53.2268 37.101 53.3718 37.1951 53.4711 37.3337C53.5703 37.4725 53.62 37.6349 53.62 37.8211C53.62 38.1066 53.5304 38.3343 53.3514 38.504C53.1724 38.6737 52.8919 38.7585 52.5104 38.7585H50.9338V35.4683ZM52.4229 38.175C52.6331 38.175 52.7781 38.1388 52.858 38.0663C52.9378 37.9939 52.9776 37.8914 52.9776 37.759C52.9776 37.6266 52.9378 37.5262 52.858 37.4579C52.7781 37.3897 52.6331 37.3555 52.4229 37.3555H51.5762V38.175H52.4229ZM52.3353 36.8216C52.5299 36.8216 52.6662 36.7875 52.7441 36.7192C52.8219 36.6509 52.8609 36.5568 52.8609 36.4367C52.8609 36.3167 52.8219 36.2226 52.7441 36.1543C52.6662 36.086 52.5299 36.0519 52.3353 36.0519H51.5762V36.8216H52.3353ZM55.6054 38.8267C55.399 38.8267 55.2044 38.7926 55.0214 38.7243C54.8385 38.6561 54.678 38.5526 54.5397 38.4139C54.4015 38.2753 54.2915 38.1004 54.2097 37.8894C54.128 37.6783 54.0872 37.43 54.0872 37.1444V37.0202C54.0872 36.7472 54.1261 36.5092 54.204 36.3064C54.2817 36.1035 54.3878 35.935 54.5222 35.8004C54.6565 35.666 54.8112 35.5655 54.9864 35.4994C55.1616 35.4332 55.3485 35.4 55.547 35.4C56.0181 35.4 56.3791 35.5346 56.6302 35.8036C56.8812 36.0726 57.0069 36.4574 57.0069 36.9582V37.3059H54.7412C54.745 37.4755 54.7714 37.6194 54.82 37.7373C54.8686 37.8552 54.9329 37.9505 55.0127 38.0228C55.0924 38.0953 55.184 38.148 55.2872 38.1812C55.3903 38.2143 55.4964 38.2308 55.6054 38.2308C55.8272 38.2308 55.9898 38.1936 56.0931 38.1191C56.1962 38.0446 56.2671 37.9473 56.3061 37.8273H56.9485C56.8861 38.1543 56.7333 38.4026 56.49 38.5723C56.2468 38.742 55.9518 38.8267 55.6054 38.8267ZM55.5761 35.9959C55.4672 35.9959 55.363 36.0105 55.2638 36.0394C55.1645 36.0684 55.0769 36.115 55.0009 36.1791C54.9251 36.2433 54.8637 36.3261 54.817 36.4274C54.7703 36.5288 54.745 36.6519 54.7412 36.7968H56.3645C56.3606 36.6436 56.3382 36.5154 56.2974 36.4118C56.2564 36.3085 56.201 36.2256 56.1309 36.1635C56.061 36.1015 55.9782 36.0581 55.8828 36.0332C55.7873 36.0084 55.6852 35.9959 55.5761 35.9959ZM57.6492 35.4683H58.2449V36.0208C58.3383 35.8305 58.4775 35.6794 58.6624 35.5676C58.8473 35.4558 59.0565 35.4 59.29 35.4C59.6949 35.4 60.0142 35.5346 60.2478 35.8036C60.4813 36.0726 60.5982 36.4781 60.5982 37.0202V37.1444C60.5982 37.4259 60.5669 37.6721 60.5047 37.8832C60.4424 38.0943 60.3538 38.2691 60.239 38.4078C60.1242 38.5464 59.9869 38.6509 59.8273 38.7212C59.6677 38.7916 59.4886 38.8267 59.29 38.8267C59.0682 38.8267 58.8658 38.775 58.6827 38.6716C58.4999 38.5681 58.3694 38.4233 58.2916 38.237V40H57.6492V35.4683ZM59.1383 38.2308C59.3796 38.2308 59.5743 38.1418 59.7222 37.9639C59.87 37.786 59.9441 37.5128 59.9441 37.1444V37.0202C59.9441 36.6726 59.872 36.415 59.7281 36.2475C59.584 36.0798 59.3874 35.996 59.1383 35.996C59.0292 35.996 58.9241 36.0146 58.8229 36.0519C58.7218 36.0891 58.6312 36.1439 58.5515 36.2164C58.4715 36.2887 58.4083 36.3798 58.3616 36.4895C58.3149 36.5992 58.2916 36.7244 58.2916 36.8651V37.2996C58.2916 37.4569 58.3149 37.5935 58.3616 37.7093C58.4083 37.8253 58.4707 37.9225 58.5485 38.0011C58.6263 38.0797 58.7159 38.1377 58.8171 38.175C58.9183 38.2122 59.0254 38.2308 59.1383 38.2308ZM61.2404 35.4683H61.8829V36.803H62.2331L63.3193 35.4683H64.0433L62.7296 37.0389L64.1017 38.7585H63.3193L62.2331 37.3617H61.8829V38.7585H61.2404V35.4683ZM65.4741 38.8267C65.3067 38.8267 65.1578 38.8009 65.0274 38.7491C64.8969 38.6975 64.787 38.625 64.6975 38.5319C64.6079 38.4388 64.5398 38.3301 64.493 38.2059C64.4463 38.0818 64.423 37.9453 64.423 37.7963C64.423 37.4693 64.5144 37.2261 64.6975 37.0668C64.8804 36.9075 65.1491 36.8279 65.5033 36.8279H66.4668V36.6478C66.4668 36.3995 66.4152 36.2287 66.312 36.1357C66.2089 36.0425 66.0464 35.996 65.8243 35.996C65.6259 35.996 65.4799 36.0291 65.3864 36.0953C65.293 36.1616 65.2386 36.2525 65.223 36.3685H64.5981C64.6059 36.2278 64.64 36.0984 64.7003 35.9804C64.7606 35.8625 64.8445 35.7601 64.9514 35.6732C65.0585 35.5862 65.1879 35.5191 65.3397 35.4714C65.4915 35.4238 65.6629 35.4 65.8536 35.4C66.0444 35.4 66.2166 35.4228 66.3705 35.4683C66.5242 35.5139 66.6555 35.5852 66.7645 35.6825C66.8737 35.7797 66.9582 35.9049 67.0187 36.0581C67.0789 36.2112 67.109 36.3953 67.109 36.6106V37.9204C67.109 38.0943 67.111 38.2463 67.115 38.3767C67.1188 38.5071 67.1285 38.6343 67.1441 38.7585H66.5602C66.5485 38.6633 66.5398 38.5826 66.5338 38.5163C66.528 38.4502 66.5252 38.3674 66.5252 38.268C66.4512 38.4212 66.3238 38.5526 66.1427 38.6622C65.9616 38.7719 65.7388 38.8267 65.4741 38.8267ZM65.6492 38.2308C65.7582 38.2308 65.8624 38.2153 65.9616 38.1842C66.0609 38.1532 66.1475 38.1077 66.2215 38.0477C66.2954 37.9877 66.3548 37.9131 66.3996 37.8242C66.4444 37.7352 66.4668 37.6328 66.4668 37.517V37.3369H65.6201C65.4566 37.3369 65.3251 37.3741 65.2259 37.4486C65.1265 37.5231 65.077 37.6328 65.077 37.7776C65.077 37.9142 65.1227 38.0239 65.2142 38.1066C65.3056 38.1894 65.4506 38.2308 65.6492 38.2308ZM69.2988 35.4683H69.9412V37.7963L71.4302 35.4683H72.0434V38.7585H71.401V36.4306L69.912 38.7585H69.2988V35.4683ZM72.8608 35.4683H73.5032V36.7905H74.963V35.4683H75.6054V38.7585H74.963V37.3741H73.5032V38.7585H72.8608V35.4683ZM77.8828 38.8267C77.3456 38.8267 76.9387 38.682 76.6623 38.3922C76.3859 38.1025 76.2478 37.6866 76.2478 37.1444V37.0202C76.2478 36.5029 76.3859 36.1035 76.6623 35.8222C76.9387 35.5408 77.3456 35.4 77.8828 35.4V34.413H78.5251V35.4C79.0584 35.4 79.4643 35.5408 79.7426 35.8222C80.021 36.1035 80.1602 36.5029 80.1602 37.0202V37.1444C80.1602 37.6866 80.021 38.1025 79.7426 38.3922C79.4643 38.6819 79.0584 38.8267 78.5251 38.8267V40H77.8828V38.8267ZM79.5061 37.0202C79.5061 36.6768 79.4272 36.4202 79.2696 36.2505C79.1119 36.0809 78.8599 35.996 78.5134 35.996V38.2308C78.8599 38.2308 79.1119 38.1407 79.2696 37.9608C79.4272 37.7808 79.5061 37.5086 79.5061 37.1444V37.0202ZM76.9018 37.1444C76.9018 37.5086 76.9816 37.7808 77.1412 37.9608C77.3008 38.1407 77.5519 38.2308 77.8944 38.2308V35.996C77.548 35.996 77.2959 36.0809 77.1383 36.2505C76.9806 36.4202 76.9018 36.6747 76.9018 37.0141V37.1444ZM82.1455 38.8267C81.9315 38.8267 81.7319 38.7905 81.547 38.7182C81.3621 38.6457 81.2016 38.5391 81.0653 38.3984C80.9291 38.2577 80.8219 38.0828 80.7441 37.8738C80.6662 37.6648 80.6273 37.4217 80.6273 37.1444V37.0202C80.6273 36.7596 80.6662 36.5288 80.7441 36.3281C80.8219 36.1274 80.9291 35.9578 81.0653 35.819C81.2016 35.6804 81.3621 35.5759 81.547 35.5055C81.7319 35.4353 81.9315 35.4 82.1455 35.4C82.3597 35.4 82.5591 35.4353 82.7441 35.5055C82.929 35.5759 83.0895 35.6804 83.2259 35.819C83.3621 35.9578 83.4691 36.1274 83.5471 36.3281C83.6248 36.5288 83.6638 36.7596 83.6638 37.0202V37.1444C83.6638 37.4217 83.6248 37.6648 83.5471 37.8738C83.4691 38.0828 83.3621 38.2577 83.2259 38.3984C83.0895 38.5391 82.929 38.6457 82.7441 38.7182C82.5591 38.7905 82.3597 38.8267 82.1455 38.8267ZM82.1455 38.2308C82.2584 38.2308 82.3665 38.2101 82.4696 38.1687C82.5728 38.1273 82.6643 38.0632 82.7441 37.9762C82.8239 37.8894 82.8881 37.7776 82.9368 37.6411C82.9854 37.5045 83.0098 37.3389 83.0098 37.1444V37.0202C83.0098 36.8423 82.9854 36.6892 82.9368 36.561C82.8881 36.4326 82.8239 36.3271 82.7441 36.2443C82.6643 36.1616 82.5728 36.0995 82.4696 36.0581C82.3665 36.0167 82.2584 35.996 82.1455 35.996C82.0326 35.996 81.9246 36.0167 81.8214 36.0581C81.7183 36.0995 81.6268 36.1616 81.547 36.2443C81.4672 36.3271 81.403 36.4326 81.3543 36.561C81.3056 36.6892 81.2813 36.8423 81.2813 37.0202V37.1444C81.2813 37.3389 81.3056 37.5045 81.3543 37.6411C81.403 37.7776 81.4672 37.8894 81.547 37.9762C81.6268 38.0632 81.7183 38.1273 81.8214 38.1687C81.9246 38.2101 82.0326 38.2308 82.1455 38.2308ZM84.3061 35.4683H84.9017V36.0208C84.9952 35.8305 85.1344 35.6794 85.3193 35.5676C85.5042 35.4559 85.7134 35.4 85.947 35.4C86.3518 35.4 86.6711 35.5346 86.9047 35.8036C87.1382 36.0726 87.255 36.4781 87.255 37.0202V37.1444C87.255 37.4259 87.2239 37.6721 87.1616 37.8832C87.0993 38.0943 87.0108 38.2691 86.896 38.4078C86.7811 38.5464 86.6438 38.6509 86.4843 38.7213C86.3246 38.7916 86.1456 38.8267 85.947 38.8267C85.725 38.8267 85.5227 38.775 85.3397 38.6716C85.1568 38.5681 85.0264 38.4233 84.9484 38.237V40H84.3061L84.3061 35.4683ZM85.7952 38.2308C86.0366 38.2308 86.2312 38.1418 86.3791 37.9639C86.527 37.786 86.601 37.5128 86.601 37.1444V37.0202C86.601 36.6726 86.529 36.4151 86.385 36.2475C86.2409 36.0798 86.0443 35.996 85.7952 35.996C85.6861 35.996 85.581 36.0146 85.4798 36.0519C85.3786 36.0891 85.288 36.144 85.2083 36.2164C85.1285 36.2888 85.0652 36.3798 85.0185 36.4895C84.9718 36.5992 84.9485 36.7244 84.9485 36.8651V37.2996C84.9485 37.4569 84.9718 37.5935 85.0185 37.7093C85.0652 37.8253 85.1275 37.9225 85.2054 38.0011C85.2832 38.0797 85.3728 38.1377 85.4741 38.175C85.5752 38.2122 85.6823 38.2308 85.7952 38.2308ZM87.8973 35.4683H88.6214L89.6083 37.3927L90.5952 35.4683H91.2842V38.7585H90.642V36.4926L89.8244 38.0757H89.3572L88.5398 36.4926V38.7585H87.8973V35.4683ZM93.0068 38.8268C92.8395 38.8268 92.6905 38.8009 92.5601 38.7491C92.4296 38.6975 92.3197 38.625 92.2302 38.5319C92.1406 38.4388 92.0726 38.3301 92.0257 38.2059C91.979 38.0818 91.9557 37.9453 91.9557 37.7963C91.9557 37.4693 92.0472 37.2262 92.2302 37.0668C92.4131 36.9075 92.6818 36.8279 93.036 36.8279H93.9995V36.6478C93.9995 36.3995 93.948 36.2288 93.8447 36.1357C93.7416 36.0425 93.5791 35.996 93.3572 35.996C93.1586 35.996 93.0126 36.0291 92.9192 36.0953C92.8257 36.1616 92.7713 36.2525 92.7557 36.3685H92.1308C92.1386 36.2278 92.1727 36.0984 92.2331 35.9804C92.2934 35.8625 92.3772 35.7601 92.4842 35.6732C92.5912 35.5862 92.7206 35.5191 92.8725 35.4714C93.0243 35.4238 93.1957 35.4 93.3863 35.4C93.5772 35.4 93.7494 35.4228 93.9032 35.4683C94.0569 35.5139 94.1883 35.5853 94.2974 35.6825C94.4064 35.7797 94.4909 35.9049 94.5514 36.0581C94.6117 36.2112 94.6418 36.3954 94.6418 36.6106V37.9204C94.6418 38.0943 94.6438 38.2463 94.6477 38.3767C94.6516 38.5071 94.6612 38.6343 94.677 38.7585H94.093C94.0812 38.6633 94.0725 38.5826 94.0666 38.5163C94.0609 38.4502 94.0579 38.3674 94.0579 38.268C93.984 38.4212 93.8565 38.5526 93.6754 38.6622C93.4944 38.7719 93.2715 38.8268 93.0068 38.8268ZM93.1819 38.2308C93.291 38.2308 93.3951 38.2153 93.4944 38.1842C93.5937 38.1532 93.6803 38.1077 93.7543 38.0477C93.8283 37.9877 93.8875 37.9131 93.9324 37.8242C93.9771 37.7352 93.9995 37.6328 93.9995 37.517V37.3369H93.1528C92.9893 37.3369 92.8578 37.3741 92.7587 37.4486C92.6593 37.5231 92.6097 37.6328 92.6097 37.7776C92.6097 37.9142 92.6554 38.0239 92.7469 38.1066C92.8384 38.1894 92.9834 38.2308 93.1819 38.2308ZM97.9294 38.7585H95.4301V35.4683H96.0725V38.175H97.4156V35.4683H98.0579V38.175H98.5251V39.5344H97.9294V38.7585ZM99.0798 35.4683H99.7222V37.7963L101.211 35.4683H101.824V38.7585H101.182V36.4306L99.6929 38.7585H99.0798V35.4683ZM102.642 35.4683H103.284V37.7963L104.773 35.4683H105.386V38.7585H104.744V36.4306L103.255 38.7585H102.642V35.4683ZM108.948 38.8268C108.734 38.8268 108.535 38.7905 108.35 38.7182C108.165 38.6457 108.004 38.5391 107.868 38.3984C107.732 38.2577 107.625 38.0828 107.547 37.8738C107.469 37.6648 107.43 37.4217 107.43 37.1445V37.0202C107.43 36.7596 107.469 36.5288 107.547 36.3281C107.625 36.1275 107.732 35.9578 107.868 35.819C108.004 35.6804 108.165 35.5759 108.35 35.5055C108.535 35.4353 108.734 35.4 108.948 35.4C109.162 35.4 109.362 35.4353 109.547 35.5055C109.732 35.5759 109.892 35.6804 110.029 35.819C110.165 35.9578 110.272 36.1274 110.35 36.3281C110.428 36.5288 110.467 36.7596 110.467 37.0202V37.1445C110.467 37.4217 110.428 37.6648 110.35 37.8738C110.272 38.0828 110.165 38.2577 110.029 38.3984C109.892 38.5391 109.732 38.6457 109.547 38.7182C109.362 38.7905 109.162 38.8268 108.948 38.8268ZM108.948 38.2308C109.061 38.2308 109.169 38.2101 109.273 38.1687C109.376 38.1273 109.467 38.0632 109.547 37.9762C109.627 37.8894 109.691 37.7776 109.74 37.6411C109.788 37.5045 109.813 37.3389 109.813 37.1445V37.0202C109.813 36.8423 109.788 36.6892 109.74 36.561C109.691 36.4326 109.627 36.3271 109.547 36.2443C109.467 36.1616 109.376 36.0995 109.273 36.0581C109.169 36.0167 109.061 35.996 108.948 35.996C108.836 35.996 108.727 36.0167 108.624 36.0581C108.521 36.0995 108.43 36.1616 108.35 36.2443C108.27 36.3271 108.206 36.4326 108.157 36.561C108.108 36.6892 108.084 36.8423 108.084 37.0202V37.1445C108.084 37.3389 108.108 37.5045 108.157 37.6411C108.206 37.7776 108.27 37.8894 108.35 37.9762C108.43 38.0632 108.521 38.1273 108.624 38.1687C108.727 38.2101 108.836 38.2308 108.948 38.2308ZM111.109 35.4683H111.751V36.7905H113.211V35.4683H113.854V38.7585H113.211V37.3741H111.751V38.7585H111.109V35.4683ZM114.613 38.8268C114.581 38.8268 114.547 38.8258 114.51 38.8237C114.473 38.8216 114.439 38.8164 114.408 38.8082V38.1626C114.428 38.1666 114.457 38.1687 114.496 38.1687C114.578 38.1687 114.648 38.1429 114.706 38.0911C114.764 38.0395 114.812 37.9484 114.849 37.818C114.886 37.6876 114.914 37.5128 114.934 37.2934C114.953 37.0741 114.963 36.7968 114.963 36.4617V35.4683H117.299V38.7585H116.657V36.0519H115.582V36.5857C115.582 37.0286 115.562 37.3938 115.521 37.6815C115.48 37.9691 115.419 38.1977 115.337 38.3674C115.255 38.5371 115.154 38.6561 115.033 38.7244C114.912 38.7926 114.772 38.8268 114.613 38.8268ZM119.021 38.8268C118.854 38.8268 118.705 38.8009 118.575 38.7491C118.444 38.6975 118.334 38.625 118.245 38.5319C118.155 38.4388 118.087 38.3302 118.04 38.2059C117.994 38.0818 117.97 37.9453 117.97 37.7963C117.97 37.4693 118.062 37.2262 118.245 37.0668C118.428 36.9075 118.696 36.8279 119.051 36.8279H120.014V36.6479C120.014 36.3995 119.963 36.2288 119.859 36.1357C119.756 36.0426 119.594 35.996 119.372 35.996C119.173 35.996 119.027 36.0291 118.934 36.0953C118.84 36.1616 118.786 36.2525 118.77 36.3685H118.145C118.153 36.2278 118.187 36.0984 118.248 35.9805C118.308 35.8625 118.392 35.7601 118.499 35.6732C118.606 35.5863 118.735 35.5191 118.887 35.4714C119.039 35.4238 119.21 35.4001 119.401 35.4001C119.592 35.4001 119.764 35.4228 119.918 35.4683C120.071 35.5139 120.203 35.5853 120.312 35.6825C120.421 35.7797 120.506 35.9049 120.566 36.0581C120.626 36.2113 120.656 36.3954 120.656 36.6106V37.9204C120.656 38.0943 120.658 38.2464 120.662 38.3767C120.666 38.5071 120.676 38.6343 120.691 38.7585H120.108C120.096 38.6634 120.087 38.5826 120.081 38.5164C120.075 38.4502 120.072 38.3674 120.072 38.268C119.998 38.4212 119.871 38.5526 119.69 38.6623C119.509 38.7719 119.286 38.8268 119.021 38.8268ZM119.196 38.2308C119.306 38.2308 119.41 38.2153 119.509 38.1843C119.608 38.1532 119.695 38.1077 119.769 38.0477C119.843 37.9877 119.902 37.9132 119.947 37.8242C119.992 37.7352 120.014 37.6328 120.014 37.517V37.3369H119.167C119.004 37.3369 118.872 37.3742 118.773 37.4486C118.674 37.5231 118.624 37.6328 118.624 37.7776C118.624 37.9143 118.67 38.0239 118.761 38.1066C118.853 38.1894 118.998 38.2308 119.196 38.2308ZM121.445 35.4683H122.087V37.7963L123.576 35.4683H124.189V38.7585H123.547V36.4306L122.058 38.7585H121.445V35.4683ZM122.817 35.0959C122.494 35.0959 122.257 35.0204 122.107 34.8693C121.958 34.7182 121.883 34.5041 121.883 34.2268H122.478C122.478 34.3758 122.507 34.4834 122.563 34.5495C122.619 34.6158 122.704 34.6489 122.817 34.6489C122.93 34.6489 123.014 34.6158 123.071 34.5495C123.127 34.4834 123.156 34.3758 123.156 34.2268H123.751C123.751 34.5041 123.675 34.7182 123.524 34.8693C123.372 35.0204 123.136 35.0959 122.817 35.0959ZM125.007 35.4683H125.649V36.7906H127.109V35.4683H127.751V38.7585H127.109V37.3742H125.649V38.7585H125.007V35.4683Z" fill="#0F1B33"/>
</g>
<defs>
<clipPath id="clip0_2007_32657">
<rect width="128" height="40" fill="white"/>
</clipPath>
</defs>
</svg>
