<?xml version="1.0" encoding="UTF-8"?>
<!DOCTYPE svg PUBLIC "-//W3C//DTD SVG 1.1//EN" "http://www.w3.org/Graphics/SVG/1.1/DTD/svg11.dtd">
<!-- Creator: CorelDRAW -->
<svg xmlns="http://www.w3.org/2000/svg" xml:space="preserve" width="500px" height="152px" style="shape-rendering:geometricPrecision; text-rendering:geometricPrecision; image-rendering:optimizeQuality; fill-rule:evenodd; clip-rule:evenodd"
viewBox="0 0 517.382 157.073"
 xmlns:xlink="http://www.w3.org/1999/xlink">
 <defs>
  <style type="text/css">
   <![CDATA[
    .fil0 {fill:#2C86DB}
    .fil1 {fill:#125D9F;fill-rule:nonzero}
   ]]>
  </style>
 </defs>
 <g id="Слой_x0020_1">
  <metadata id="CorelCorpID_0Corel-Layer"/>
  <path class="fil0" d="M59.9785 0c33.1195,0 59.9785,26.859 59.9785,59.9785 0,14.4351 -5.10373,27.6801 -13.6029,38.0312l28.8719 29.1393c3.01276,3.0296 2.99946,7.92894 -0.0301478,10.9417 -3.02961,3.01276 -7.92894,2.99946 -10.9417,-0.030153l-29.1779 -29.4479c-9.86872,7.13573 -21.9916,11.3443 -35.0978,11.3443 -33.1195,0 -59.9785,-26.859 -59.9785,-59.9785 0,-33.1195 26.859,-59.9785 59.9785,-59.9785zm-27.0718 59.9098l4.90598 -5.00752c0.967012,-0.986962 2.5645,-1.00292 3.55147,-0.0363564l12.9165 12.6549 28.8737 -30.629c0.947056,-1.0047 2.51927,-1.11199 3.54659,-0.187991l5.21191 4.68828c1.02731,0.924002 1.13283,2.54144 0.187546,3.54659l-30.6171 32.5551 -0.0128569 0.0141918 -5.08378 5.40523 -0.000444948 0 -0.0443344 0.046554 -0.000444948 0 -0.0452243 0.0447794 -0.000444948 0 -0.046554 0.0434497 -0.000444948 0 -0.0469989 0.0421252 -0.000439774 0 -0.0478836 0.0403454 -0.000444948 0 -0.0492133 0.0390157 -0.000444948 0 -0.0496583 0.0376861 -0.000444948 0 -0.050543 0.0359166 -0.0514329 0.0345818 -0.000444948 0 -0.0518727 0.0332521 -0.000444948 0 -0.0527626 0.0314827 -0.0536473 0.0301478 -0.000444948 0.000444948 -0.0540922 0.0283784 -0.0549769 0.0270435 0 0.000444948 -0.0554219 0.0257139 -0.0563118 0.0239444 0 0.000444948 -0.0563066 0.0226096 0 0.000444948 -0.0571965 0.0208349 0 0.000444948 -0.115278 0.038131 0 0.000444948c-0.522747,0.160057 -1.09249,0.143656 -1.61168,-0.0469989l-0.00132967 -0.000884722 -0.113058 -0.0443396 -0.00133484 -0.000889896c-0.0563066,-0.0239392 -0.112173,-0.0496583 -0.166705,-0.0775865l-0.000889896 -0.000889896 -0.0540922 -0.0279334 -0.000884722 -0.000884722 -0.0536524 -0.029708 -0.000884722 -0.000884722 -0.0527626 -0.0310377 -0.000884722 -0.000884722 -0.0518778 -0.0323674 -0.000884722 -0.000889896c-0.0527626,-0.0341368 -0.104195,-0.0700534 -0.154738,-0.108184l-0.0496583 -0.0381258 -0.000444948 -0.000444948 -0.0487735 -0.0399056 -0.000439774 -0.000444948 -0.0478888 -0.0412301 -0.000439774 -0.000444948 -0.0939979 -0.0873443 -19.8917 -19.4883c-0.986517,-0.966567 -1.00337,-2.5645 -0.0363564,-3.55147zm27.0718 -46.9418c25.9589,0 47.0105,21.0516 47.0105,47.0105 0,25.9589 -21.0516,47.0105 -47.0105,47.0105 -25.9589,0 -47.0105,-21.0516 -47.0105,-47.0105 0,-25.9589 21.0516,-47.0105 47.0105,-47.0105z"/>
  <path class="fil1" d="M189.686 29.0894l-21.0614 30.2433 -9.56723 0 0 -44.9475 9.82438 0 0 29.4727 20.4832 -29.4727 10.1454 0 0 44.9475 -9.82439 0 0 -30.2433zm21.8768 30.2433l0 -44.9475 9.82439 0 0 17.2727 19.5198 0 0 -17.2727 9.82438 0 0 44.9475 -9.82438 0 0 -18.942 -19.5198 0 0 18.942 -9.82439 0zm104.837 -22.6664c0,5.99315 -2.1832,11.0654 -6.54959,15.2181 -4.36639,4.15224 -9.93124,6.378 -16.6945,6.67773l0 3.9811 -9.3748 0 0 -3.9811c-6.84932,-0.171145 -12.4359,-2.29005 -16.7593,-6.35672 -4.32339,-4.06667 -6.4853,-9.11809 -6.4853,-15.1538 0,-5.99315 2.1832,-11.0658 6.54959,-15.2181 4.36639,-4.15224 9.93124,-6.37845 16.695,-6.67817l0 -3.98109 9.3748 0 0 3.98109c6.84887,0.17159 12.4354,2.2905 16.7588,6.35717 4.32339,4.06667 6.4853,9.11809 6.4853,15.1538zm-23.2441 13.2916c4.06667,-0.214155 7.31974,-1.53054 9.7601,-3.94918 2.43991,-2.41863 3.65965,-5.46863 3.65965,-9.15001 0,-3.68137 -1.21973,-6.73138 -3.65965,-9.15001 -2.44036,-2.41863 -5.69343,-3.73502 -9.7601,-3.94873l0 26.1979zm-19.1349 -22.2492c-2.44036,2.41863 -3.66009,5.46864 -3.66009,9.15001 0,3.68138 1.21973,6.73138 3.66009,9.15001 2.43991,2.41863 5.69299,3.73502 9.7601,3.94918l0 -26.1979c-4.06711,0.213704 -7.32019,1.5301 -9.7601,3.94873zm56.647 25.6845c-4.47325,-4.38768 -6.7101,-9.83503 -6.7101,-16.3416 0,-6.50702 2.29005,-12.0182 6.8706,-16.5345 4.58055,-4.51626 10.2097,-6.77438 16.8874,-6.77438 6.67817,0 12.2537,2.19384 16.7269,6.58196 4.47369,4.38768 6.7101,9.83503 6.7101,16.3416 0,6.50658 -2.29005,12.0182 -6.8706,16.534 -4.5801,4.51626 -10.2092,6.77438 -16.8874,6.77438 -6.67773,0 -12.2537,-2.19384 -16.7269,-6.58152zm7.0311 -26.5513c-2.6115,2.69707 -3.9168,6.03572 -3.9168,10.0168 0,3.9811 1.30531,7.32019 3.9168,10.0173 2.61106,2.69663 5.88585,4.04494 9.82439,4.04494 3.9811,0 7.27718,-1.34831 9.88823,-4.04494 2.6115,-2.69707 3.91681,-6.03616 3.91681,-10.0173 0,-3.98109 -1.30531,-7.31974 -3.91681,-10.0168 -2.61106,-2.69663 -5.90713,-4.04538 -9.88823,-4.04538 -3.93853,0 -7.21333,1.34876 -9.82439,4.04538zm41.3327 13.8055l0 -8.2832 20.5475 0 0 8.2832 -20.5475 0z"/>
  <path class="fil1" d="M158.823 119.024l0 -44.9475 37.3755 0 0 44.9475 -9.37436 0 0 -36.1509 -18.6263 0 0 36.1509 -9.3748 0zm48.8768 0l0 -44.9475 18.5656 0c4.81953,0 8.70086,1.40196 11.6414,4.20545 2.94094,2.80393 4.41162,6.47466 4.41162,11.0122 0,4.49497 -1.52124,8.19763 -4.56459,11.1089 -3.04335,2.91078 -6.97479,4.36639 -11.7948,4.36639l-8.88442 0 0 14.2546 -9.37481 0zm9.37481 -22.3454l8.27123 0c2.28783,0 4.12608,-0.663738 5.51474,-1.99077 1.38866,-1.32703 2.08299,-3.03892 2.08299,-5.13654 0,-2.09762 -0.694331,-3.8206 -2.08299,-5.16891 -1.38866,-1.34876 -3.22691,-2.0227 -5.51474,-2.0227l-8.27123 0 0 14.3189zm38.491 16.4059c-4.26841,-4.38767 -6.40283,-9.83503 -6.40283,-16.3416 0,-6.50703 2.18497,-12.0182 6.5558,-16.5345 4.37127,-4.51626 9.74281,-6.77438 16.1146,-6.77438 6.37268,0 11.6928,2.19384 15.9616,6.58196 4.26885,4.38767 6.40283,9.83503 6.40283,16.3416 0,6.50658 -2.18541,12.0182 -6.55624,16.534 -4.37039,4.51626 -9.74192,6.77438 -16.1146,6.77438 -6.3718,0 -11.6928,-2.19384 -15.9612,-6.58152zm6.70921 -26.5513c-2.49179,2.69707 -3.73724,6.03571 -3.73724,10.0168 0,3.98109 1.24545,7.32018 3.73724,10.0173 2.49179,2.69663 5.61672,4.04494 9.37481,4.04494 3.79887,0 6.9442,-1.34831 9.43554,-4.04494 2.49224,-2.69707 3.73769,-6.03616 3.73769,-10.0173 0,-3.9811 -1.24545,-7.31974 -3.73769,-10.0168 -2.49134,-2.69663 -5.63667,-4.04539 -9.43554,-4.04539 -3.75808,0 -6.88301,1.34876 -9.37481,4.04539zm41.2795 32.4908l0 -44.9475 19.2391 0c4.08485,0 7.35299,1.06987 9.80355,3.2105 2.451,2.14019 3.6765,4.90111 3.6765,8.2832 0,2.14019 -0.520972,4.07731 -1.56247,5.81092 -1.0415,1.73361 -2.50199,3.11429 -4.38103,4.1416 2.451,0.856168 4.37083,2.26877 5.75949,4.23781 1.38911,1.96949 2.08344,4.23826 2.08344,6.80675 0,3.5528 -1.33812,6.51723 -4.01347,8.89285 -2.67579,2.37607 -6.09646,3.56388 -10.2629,3.56388l-20.3422 0zm9.37436 -26.6475l7.84293 0c1.87904,0 3.37012,-0.513874 4.4728,-1.54118 1.10313,-1.02731 1.65425,-2.29005 1.65425,-3.78823 0,-1.54119 -0.55112,-2.82565 -1.65425,-3.85296 -1.10268,-1.02731 -2.59376,-1.54074 -4.4728,-1.54074l-7.84293 0 0 10.7231zm0 19.0706l9.25243 0c2.0422,0 3.65566,-0.577724 4.84037,-1.73361 1.18427,-1.15589 1.77662,-2.58977 1.77662,-4.3021 0,-1.71233 -0.592355,-3.13557 -1.77662,-4.27018 -1.18471,-1.13416 -2.79816,-1.70169 -4.84037,-1.70169l-9.25243 0 0 12.0076zm34.6004 7.5769l0 -44.9475 31.5553 0 0 8.53992 -22.1805 0 0 9.31051 19.1167 0 0 7.96219 -19.1167 0 0 10.595 22.7932 0 0 8.53992 -32.168 0zm41.5242 0l0 -44.9475 18.5656 0c4.81997,0 8.70086,1.40196 11.6418,4.20545 2.94049,2.80393 4.41118,6.47466 4.41118,11.0122 0,4.49497 -1.52124,8.19763 -4.56459,11.1089 -3.04335,2.91078 -6.97479,4.36639 -11.7948,4.36639l-8.88443 0 0 14.2546 -9.3748 0zm9.3748 -22.3454l8.27124 0c2.28783,0 4.12608,-0.663738 5.51474,-1.99077 1.38911,-1.32703 2.08299,-3.03892 2.08299,-5.13654 0,-2.09762 -0.693886,-3.8206 -2.08299,-5.16891 -1.38866,-1.34876 -3.22691,-2.0227 -5.51474,-2.0227l-8.27124 0 0 14.3189zm34.2328 22.3454l0 -44.9475 9.3748 0 0 20.0979 16.6041 -20.0979 11.9486 0 -18.8108 21.3181 20.0358 23.6294 -11.9477 0 -17.83 -21.3824 0 21.3824 -9.3748 0zm40.5439 0l17.4008 -44.9475 9.3748 0 17.4013 44.9475 -10.3551 0 -3.43131 -9.43909 -17.0949 0 -3.43086 9.43909 -9.86473 0zm15.8694 -17.2084l11.8865 0 -5.88231 -16.4383 -6.00424 16.4383z"/>
  <path class="fil1" d="M158.608 134.576l13.4237 0 0 17.4975 -2.82565 0 0 -14.898 -7.77199 0 0 14.898 -2.8261 0 0 -17.4975zm17.192 4.24934l2.40223 0 0 2.22487c0.376871,-0.766599 0.938188,-1.37492 1.68395,-1.82494 0.745764,-0.450029 1.58951,-0.674826 2.53125,-0.674826 1.63296,0 2.92054,0.541812 3.86271,1.62499 0.941738,1.08317 1.41305,2.71614 1.41305,4.89889l0 0.500132c0,1.13327 -0.12592,2.12467 -0.376871,2.97463 -0.251401,0.849954 -0.608761,1.55404 -1.07165,2.11226 -0.462891,0.558213 -1.01667,0.978979 -1.66046,1.2623 -0.643783,0.283318 -1.36605,0.424755 -2.16679,0.424755 -0.894739,0 -1.711,-0.208386 -2.44923,-0.624723 -0.737341,-0.416777 -1.26363,-0.999819 -1.57754,-1.75002l0 7.09894 -2.59066 0 0 -18.2473zm6.00557 11.1235c0.973215,0 1.75844,-0.35825 2.35478,-1.07475 0.596344,-0.716501 0.895184,-1.81653 0.895184,-3.29963l0 -0.500132c0,-1.39975 -0.290856,-2.43681 -0.871239,-3.11164 -0.581268,-0.675265 -1.37403,-1.01268 -2.37873,-1.01268 -0.439831,0 -0.863701,0.0749323 -1.27205,0.225237 -0.407909,0.14986 -0.773252,0.370662 -1.0947,0.662409 -0.322334,0.291301 -0.577279,0.657975 -0.765714,1.09958 -0.188435,0.441606 -0.282433,0.945727 -0.282433,1.51236l0 1.74957c0,0.63359 0.0939979,1.18338 0.282433,1.64982 0.188435,0.466875 0.439831,0.858382 0.753302,1.17495 0.314356,0.31657 0.675705,0.54979 1.08361,0.700095 0.408354,0.149865 0.840207,0.224792 1.29555,0.224792zm13.8946 2.39957c-0.863261,0 -1.66799,-0.145871 -2.4142,-0.437172 -0.745319,-0.291741 -1.3931,-0.720935 -1.94289,-1.28757 -0.5489,-0.566641 -0.981198,-1.27072 -1.29466,-2.11226 -0.314356,-0.841536 -0.471314,-1.82052 -0.471314,-2.93694l0 -0.500132c0,-1.04948 0.156958,-1.9788 0.471314,-2.78708 0.313466,-0.807834 0.745764,-1.49108 1.29466,-2.04974 0.54979,-0.558213 1.19757,-0.978979 1.94289,-1.2623 0.746209,-0.282878 1.55094,-0.42476 2.4142,-0.42476 0.863701,0 1.66799,0.141881 2.41419,0.42476 0.745764,0.283318 1.3931,0.704084 1.94289,1.2623 0.549345,0.558658 0.981198,1.24191 1.29555,2.04974 0.313471,0.808279 0.470424,1.7376 0.470424,2.78708l0 0.500132c0,1.11643 -0.156953,2.0954 -0.470424,2.93694 -0.314356,0.841531 -0.746209,1.54561 -1.29555,2.11226 -0.54979,0.566636 -1.19712,0.99583 -1.94289,1.28757 -0.746204,0.291301 -1.55049,0.437172 -2.41419,0.437172zm0 -2.39957c0.455347,0 0.891189,-0.0833553 1.30708,-0.250066 0.416337,-0.166711 0.785225,-0.424755 1.10712,-0.775022 0.321449,-0.349827 0.580828,-0.799856 0.776802,-1.34965 0.196413,-0.54979 0.294845,-1.21663 0.294845,-1.99964l0 -0.500132c0,-0.716501 -0.0984318,-1.3328 -0.294845,-1.84933 -0.195974,-0.516983 -0.455353,-0.941738 -0.776802,-1.27516 -0.321894,-0.332976 -0.690782,-0.583042 -1.10712,-0.749753 -0.415887,-0.166711 -0.851729,-0.250066 -1.30708,-0.250066 -0.455353,0 -0.89075,0.0833553 -1.30708,0.250066 -0.415892,0.166711 -0.78478,0.416777 -1.10712,0.749753 -0.321449,0.333421 -0.580383,0.758176 -0.776802,1.27516 -0.196413,0.516533 -0.2944,1.13283 -0.2944,1.84933l0 0.500132c0,0.783005 0.0979869,1.44985 0.2944,1.99964 0.196419,0.54979 0.455353,0.999819 0.776802,1.34965 0.322339,0.350267 0.691227,0.608311 1.10712,0.775022 0.416332,0.166711 0.851729,0.250066 1.30708,0.250066zm8.71372 -11.1235l5.88763 0c1.57,0 2.70816,0.337415 3.4149,1.01224 0.706743,0.675265 1.05967,1.53764 1.05967,2.58711 0,0.583487 -0.164496,1.14569 -0.494813,1.6875 -0.329427,0.541367 -0.792758,0.904046 -1.38911,1.08716 0.769263,0.199963 1.35408,0.579053 1.75445,1.13727 0.40037,0.558658 0.600778,1.21264 0.600778,1.9624 0,1.14968 -0.36135,2.06659 -1.08361,2.74984 -0.721825,0.683249 -1.85288,1.02465 -3.3914,1.02465l-6.3585 0 0 -13.2482zm6.00557 10.8987c0.84774,0 1.43256,-0.145871 1.75445,-0.437612 0.321894,-0.291746 0.482396,-0.704089 0.482396,-1.23747 0,-0.532939 -0.160502,-0.937304 -0.482396,-1.2122 -0.321894,-0.274895 -0.906711,-0.412343 -1.75445,-0.412343l-3.4149 0 0 3.29963 3.4149 0zm-0.353371 -5.44957c0.78478,0 1.33457,-0.137448 1.64848,-0.412343 0.313911,-0.274895 0.471314,-0.653986 0.471314,-1.13727 0,-0.483286 -0.157403,-0.862371 -0.471314,-1.13727 -0.313911,-0.274895 -0.863701,-0.412343 -1.64848,-0.412343l-3.06153 0 0 3.09922 3.06153 0zm13.1883 8.07393c-0.832218,0 -1.617,-0.137448 -2.35523,-0.412343 -0.737781,-0.274895 -1.38511,-0.691672 -1.94289,-1.24988 -0.557323,-0.558213 -1.0007,-1.2623 -1.33058,-2.11226 -0.329432,-0.849959 -0.494368,-1.84978 -0.494368,-2.99946l0 -0.500132c0,-1.09958 0.156953,-2.05772 0.471309,-2.87443 0.313471,-0.816702 0.74133,-1.49552 1.28314,-2.03732 0.541807,-0.541367 1.16564,-0.945727 1.87239,-1.2122 0.706303,-0.266472 1.46005,-0.399931 2.26079,-0.399931 1.89988,0 3.35594,0.541812 4.36861,1.62499 1.01224,1.08317 1.51902,2.63278 1.51902,4.64927l0 1.39974 -9.1376 0c0.0155214,0.683249 0.121931,1.2623 0.317905,1.73716 0.195974,0.474858 0.455347,0.858382 0.777241,1.14968 0.321449,0.291746 0.690787,0.504121 1.10712,0.637579 0.415887,0.133459 0.843751,0.199963 1.28314,0.199963 0.894739,0 1.5505,-0.14986 1.96683,-0.450029 0.415887,-0.299724 0.701869,-0.691672 0.859267,-1.17495l2.59066 0c-0.251396,1.31683 -0.867695,2.31665 -1.84889,2.9999 -0.981198,0.683249 -2.17078,1.02465 -3.56787,1.02465zm-0.117937 -11.3984c-0.439391,0 -0.859712,0.0585262 -1.25964,0.175134 -0.400376,0.116607 -0.753747,0.304158 -1.06012,0.562207 -0.305933,0.258489 -0.553339,0.59191 -0.741775,0.999819 -0.188435,0.408348 -0.290411,0.904046 -0.305933,1.48753l6.54693 0c-0.0155163,-0.616739 -0.105965,-1.13328 -0.270461,-1.55005 -0.165381,-0.416332 -0.388843,-0.749753 -0.671716,-0.999819 -0.281994,-0.249621 -0.615855,-0.424755 -1.00071,-0.524961 -0.384854,-0.0997563 -0.796752,-0.14986 -1.23658,-0.14986zm8.3608 -2.12467l2.40223 0 0 2.22487c0.376871,-0.766599 0.938188,-1.37492 1.68395,-1.82494 0.745759,-0.450029 1.58951,-0.674826 2.53125,-0.674826 1.63296,0 2.92054,0.541812 3.86272,1.62499 0.941738,1.08317 1.41305,2.71614 1.41305,4.89889l0 0.500132c0,1.13327 -0.12592,2.12467 -0.376871,2.97463 -0.251396,0.849954 -0.608761,1.55404 -1.07165,2.11226 -0.462886,0.558213 -1.01666,0.978979 -1.66045,1.2623 -0.643788,0.283318 -1.36605,0.424755 -2.16679,0.424755 -0.894739,0 -1.711,-0.208386 -2.44922,-0.624723 -0.737341,-0.416777 -1.26363,-0.999819 -1.57754,-1.75002l0 7.09894 -2.59066 0 0 -18.2473zm6.00557 11.1235c0.973215,0 1.75844,-0.35825 2.35478,-1.07475 0.596344,-0.716501 0.895184,-1.81653 0.895184,-3.29963l0 -0.500132c0,-1.39975 -0.290856,-2.43681 -0.871239,-3.11164 -0.581273,-0.675265 -1.37404,-1.01268 -2.37873,-1.01268 -0.439831,0 -0.863706,0.0749323 -1.27205,0.225237 -0.407909,0.14986 -0.773252,0.370662 -1.0947,0.662409 -0.322339,0.291301 -0.577279,0.657975 -0.765719,1.09958 -0.188435,0.441606 -0.282428,0.945727 -0.282428,1.51236l0 1.74957c0,0.63359 0.0939927,1.18338 0.282428,1.64982 0.188441,0.466875 0.439836,0.858382 0.753747,1.17495 0.313911,0.31657 0.675265,0.54979 1.08317,0.700095 0.408354,0.149865 0.840202,0.224792 1.29555,0.224792zm8.47784 -11.1235l2.59111 0 0 5.3742 1.41261 0 4.38058 -5.3742 2.9201 0 -5.29838 6.32436 5.53381 6.9238 -3.15553 0 -4.38058 -5.62426 -1.41261 0 0 5.62426 -2.59111 0 0 -13.2482zm17.0745 13.5231c-0.674826,0 -1.2756,-0.104195 -1.80145,-0.312581 -0.526291,-0.207946 -0.969671,-0.499687 -1.33058,-0.874788 -0.361355,-0.374657 -0.635805,-0.812268 -0.824685,-1.3124 -0.188435,-0.499687 -0.282433,-1.04948 -0.282433,-1.64937 0,-1.31683 0.368893,-2.29581 1.10712,-2.93739 0.737781,-0.641568 1.8214,-0.962128 3.24997,-0.962128l3.88577 0 0 -0.724929c0,-0.999819 -0.207946,-1.6875 -0.624278,-2.06215 -0.415887,-0.375096 -1.0712,-0.562647 -1.96683,-0.562647 -0.800296,0 -1.3891,0.133459 -1.76598,0.399925 -0.376871,0.266917 -0.596344,0.633145 -0.659304,1.10003l-2.52016 0c0.0314827,-0.566636 0.16893,-1.08761 0.412343,-1.56247 0.242973,-0.474858 0.581273,-0.8872 1.01268,-1.23703 0.431848,-0.350267 0.953705,-0.620728 1.56601,-0.812713 0.612305,-0.19154 1.30354,-0.287312 2.07236,-0.287312 0.769703,0 1.46403,0.0917835 2.08477,0.274895 0.619844,0.183562 1.14968,0.470869 1.58907,0.862371 0.440276,0.391508 0.78123,0.895629 1.02509,1.51237 0.242973,0.616739 0.364459,1.35807 0.364459,2.22487l0 5.27399c0,0.700095 0.00798319,1.31241 0.0239444,1.83737 0.0155163,0.524956 0.054532,1.03706 0.117492,1.53719l-2.35478 0c-0.0474387,-0.38308 -0.0824654,-0.708078 -0.10641,-0.97499 -0.0234995,-0.266472 -0.0350267,-0.599893 -0.0350267,-0.999819 -0.298395,0.616739 -0.812268,1.14569 -1.54252,1.5873 -0.730242,0.441606 -1.62898,0.662409 -2.69663,0.662409zm0.706303 -2.39957c0.439831,0 0.859707,-0.0625152 1.26008,-0.187546 0.40037,-0.125036 0.749753,-0.308152 1.04815,-0.54979 0.29795,-0.241643 0.537373,-0.541812 0.71827,-0.900063 0.180457,-0.35825 0.270906,-0.770588 0.270906,-1.23702l0 -0.724924 -3.4149 0c-0.659304,0 -1.18958,0.14986 -1.58951,0.449584 -0.400815,0.300169 -0.600778,0.741775 -0.600778,1.32482 0,0.55023 0.184446,0.991836 0.553339,1.32481 0.368888,0.333421 0.953705,0.500132 1.75445,0.500132zm14.7188 -11.1235l2.59111 0 0 9.37392 6.00512 -9.37392 2.47317 0 0 13.2482 -2.5911 0 0 -9.37347 -6.00513 9.37347 -2.47317 0 0 -13.2482zm14.3659 0l2.59066 0 0 5.32409 5.88763 0 0 -5.32409 2.59066 0 0 13.2482 -2.59066 0 0 -5.57416 -5.88763 0 0 5.57416 -2.59066 0 0 -13.2482zm20.254 13.5231c-2.16679,0 -3.80774,-0.583042 -4.92239,-1.74957 -1.11466,-1.16653 -1.67199,-2.84117 -1.67199,-5.02437l0 -0.500132c0,-2.08299 0.557328,-3.69113 1.67199,-4.82396 1.11465,-1.13328 2.7556,-1.69992 4.92239,-1.69992l0 -3.97445 2.59022 0 0 3.97445c2.15083,0 3.78779,0.566641 4.91042,1.69992 1.12263,1.13283 1.68395,2.74097 1.68395,4.82396l0 0.500132c0,2.18319 -0.561317,3.85784 -1.68395,5.02437 -1.12263,1.16653 -2.75959,1.74957 -4.91042,1.74957l0 4.7242 -2.59022 0 0 -4.7242zm6.54649 -7.27407c0,-1.3829 -0.317905,-2.41597 -0.95371,-3.09922 -0.635805,-0.683249 -1.65247,-1.02509 -3.04956,-1.02509l0 8.99881c1.39708,0 2.41375,-0.362684 3.04956,-1.08716 0.635805,-0.724924 0.95371,-1.82095 0.95371,-3.28721l0 -0.500132zm-10.5032 0.500132c0,1.46625 0.321894,2.56228 0.965682,3.28721 0.643783,0.724479 1.65646,1.08716 3.03759,1.08716l0 -8.99881c-1.39709,0 -2.41375,0.341844 -3.04912,1.02509 -0.636245,0.683244 -0.95415,1.70789 -0.95415,3.07439l0 0.524961zm21.1483 6.77394c-0.863261,0 -1.66799,-0.145871 -2.41375,-0.437172 -0.745764,-0.291741 -1.3931,-0.720935 -1.94289,-1.28757 -0.549345,-0.566641 -0.981643,-1.27072 -1.29511,-2.11226 -0.314356,-0.841536 -0.471314,-1.82052 -0.471314,-2.93694l0 -0.500132c0,-1.04948 0.156958,-1.9788 0.471314,-2.78708 0.313466,-0.807834 0.745764,-1.49108 1.29511,-2.04974 0.54979,-0.558213 1.19712,-0.978979 1.94289,-1.2623 0.745764,-0.282878 1.55049,-0.42476 2.41375,-0.42476 0.863701,0 1.66799,0.141881 2.41419,0.42476 0.745764,0.283318 1.3931,0.704084 1.94289,1.2623 0.54935,0.558658 0.981198,1.24191 1.29555,2.04974 0.313471,0.808279 0.470869,1.7376 0.470869,2.78708l0 0.500132c0,1.11643 -0.157398,2.0954 -0.470869,2.93694 -0.314356,0.841531 -0.746204,1.54561 -1.29555,2.11226 -0.54979,0.566636 -1.19712,0.99583 -1.94289,1.28757 -0.746204,0.291301 -1.55049,0.437172 -2.41419,0.437172zm0 -2.39957c0.455347,0 0.891189,-0.0833553 1.30708,-0.250066 0.416332,-0.166711 0.785225,-0.424755 1.10711,-0.775022 0.321894,-0.349827 0.580828,-0.799856 0.777247,-1.34965 0.195974,-0.54979 0.2944,-1.21663 0.2944,-1.99964l0 -0.500132c0,-0.716501 -0.0984266,-1.3328 -0.2944,-1.84933 -0.196419,-0.516983 -0.455353,-0.941738 -0.777247,-1.27516 -0.321889,-0.332976 -0.690782,-0.583042 -1.10711,-0.749753 -0.415892,-0.166711 -0.851734,-0.250066 -1.30708,-0.250066 -0.455353,0 -0.89075,0.0833553 -1.30708,0.250066 -0.415892,0.166711 -0.78478,0.416777 -1.10667,0.749753 -0.321894,0.333421 -0.580828,0.758176 -0.777241,1.27516 -0.196419,0.516533 -0.294406,1.13283 -0.294406,1.84933l0 0.500132c0,0.783005 0.0979869,1.44985 0.294406,1.99964 0.196413,0.54979 0.455347,0.999819 0.777241,1.34965 0.321894,0.350267 0.690782,0.608311 1.10667,0.775022 0.416332,0.166711 0.851729,0.250066 1.30708,0.250066zm8.71372 -11.1235l2.40223 0 0 2.22487c0.376871,-0.766599 0.938188,-1.37492 1.68395,-1.82494 0.745764,-0.450029 1.58951,-0.674826 2.53169,-0.674826 1.63252,0 2.9201,0.541812 3.86227,1.62499 0.941738,1.08317 1.41305,2.71614 1.41305,4.89889l0 0.500132c0,1.13327 -0.125475,2.12467 -0.376871,2.97463 -0.251401,0.849954 -0.608316,1.55404 -1.07121,2.11226 -0.463331,0.558213 -1.01711,0.978979 -1.66045,1.2623 -0.643788,0.283318 -1.36605,0.424755 -2.16679,0.424755 -0.895178,0 -1.71144,-0.208386 -2.44922,-0.624723 -0.737786,-0.416777 -1.26363,-0.999819 -1.57799,-1.75002l0 7.09894 -2.59066 0 0 -18.2473zm6.00557 11.1235c0.97366,0 1.75844,-0.35825 2.35478,-1.07475 0.596789,-0.716501 0.895184,-1.81653 0.895184,-3.29963l0 -0.500132c0,-1.39975 -0.290411,-2.43681 -0.871239,-3.11164 -0.581268,-0.675265 -1.37403,-1.01268 -2.37873,-1.01268 -0.439831,0 -0.863701,0.0749323 -1.27205,0.225237 -0.407909,0.14986 -0.773252,0.370662 -1.0947,0.662409 -0.321894,0.291301 -0.577279,0.657975 -0.765714,1.09958 -0.188435,0.441606 -0.282433,0.945727 -0.282433,1.51236l0 1.74957c0,0.63359 0.0939979,1.18338 0.282433,1.64982 0.188435,0.466875 0.439831,0.858382 0.753742,1.17495 0.313916,0.31657 0.675265,0.54979 1.08362,0.700095 0.407909,0.149865 0.839762,0.224792 1.29511,0.224792zm8.47785 -11.1235l2.92054 0 3.98021 7.74893 3.98022 -7.74893 2.77865 0 0 13.2482 -2.59022 0 0 -9.12385 -3.29741 6.37446 -1.88391 0 -3.29697 -6.37446 0 9.12385 -2.5911 0 0 -13.2482zm20.6069 13.5231c-0.674826,0 -1.2756,-0.104195 -1.80145,-0.312581 -0.526291,-0.207946 -0.969671,-0.499687 -1.33058,-0.874788 -0.361355,-0.374657 -0.635805,-0.812268 -0.824685,-1.3124 -0.188435,-0.499687 -0.282428,-1.04948 -0.282428,-1.64937 0,-1.31683 0.368888,-2.29581 1.10711,-2.93739 0.737786,-0.641568 1.8214,-0.962128 3.24997,-0.962128l3.88577 0 0 -0.724929c0,-0.999819 -0.207946,-1.6875 -0.624278,-2.06215 -0.415887,-0.375096 -1.0712,-0.562647 -1.96639,-0.562647 -0.800741,0 -1.38955,0.133459 -1.76642,0.399925 -0.376876,0.266917 -0.596349,0.633145 -0.659304,1.10003l-2.52017 0c0.0314827,-0.566636 0.16893,-1.08761 0.412343,-1.56247 0.243418,-0.474858 0.581273,-0.8872 1.01268,-1.23703 0.431848,-0.350267 0.953705,-0.620728 1.56601,-0.812713 0.612311,-0.19154 1.30354,-0.287312 2.07236,-0.287312 0.769703,0 1.46448,0.0917835 2.08477,0.274895 0.619844,0.183562 1.14968,0.470869 1.58951,0.862371 0.439836,0.391508 0.780791,0.895629 1.02465,1.51237 0.242967,0.616739 0.364454,1.35807 0.364454,2.22487l0 5.27399c0,0.700095 0.00798319,1.31241 0.0239444,1.83737 0.0155163,0.524956 0.0545372,1.03706 0.117937,1.53719l-2.35523 0c-0.0474387,-0.38308 -0.0824654,-0.708078 -0.10641,-0.97499 -0.0230545,-0.266472 -0.0350267,-0.599893 -0.0350267,-0.999819 -0.29795,0.616739 -0.812268,1.14569 -1.54252,1.5873 -0.730242,0.441606 -1.62898,0.662409 -2.69663,0.662409zm0.706303 -2.39957c0.439831,0 0.859712,-0.0625152 1.26008,-0.187546 0.40037,-0.125036 0.749753,-0.308152 1.04815,-0.54979 0.298395,-0.241643 0.537373,-0.541812 0.71827,-0.900063 0.180457,-0.35825 0.270906,-0.770588 0.270906,-1.23702l0 -0.724924 -3.4149 0c-0.659304,0 -1.18958,0.14986 -1.58951,0.449584 -0.40081,0.300169 -0.600778,0.741775 -0.600778,1.32482 0,0.55023 0.184446,0.991836 0.553339,1.32481 0.368888,0.333421 0.953705,0.500132 1.75445,0.500132zm19.1469 2.12467l-10.0798 0 0 -13.2482 2.59066 0 0 10.8987 5.41676 0 0 -10.8987 2.59066 0 0 10.8987 1.88391 0 0 5.47396 -2.40223 0 0 -3.12449zm4.63952 -13.2482l2.59066 0 0 9.37392 6.00556 -9.37392 2.47273 0 0 13.2482 -2.59066 0 0 -9.37347 -6.00557 9.37347 -2.47272 0 0 -13.2482zm14.3659 0l2.59066 0 0 9.37392 6.00557 -9.37392 2.47272 0 0 13.2482 -2.59066 0 0 -9.37347 -6.00557 9.37347 -2.47272 0 0 -13.2482zm25.4344 13.5231c-0.863256,0 -1.66799,-0.145871 -2.41419,-0.437172 -0.745319,-0.291741 -1.3931,-0.720935 -1.94289,-1.28757 -0.549345,-0.566641 -0.981198,-1.27072 -1.29466,-2.11226 -0.314356,-0.841536 -0.471314,-1.82052 -0.471314,-2.93694l0 -0.500132c0,-1.04948 0.156958,-1.9788 0.471314,-2.78708 0.313466,-0.807834 0.745319,-1.49108 1.29466,-2.04974 0.54979,-0.558213 1.19757,-0.978979 1.94289,-1.2623 0.746204,-0.282878 1.55094,-0.42476 2.41419,-0.42476 0.863261,0 1.66799,0.141881 2.4142,0.42476 0.745764,0.283318 1.3931,0.704084 1.94289,1.2623 0.549345,0.558658 0.981198,1.24191 1.29511,2.04974 0.313911,0.808279 0.470869,1.7376 0.470869,2.78708l0 0.500132c0,1.11643 -0.156958,2.0954 -0.470869,2.93694 -0.313911,0.841531 -0.745764,1.54561 -1.29511,2.11226 -0.54979,0.566636 -1.19712,0.99583 -1.94289,1.28757 -0.746209,0.291301 -1.55094,0.437172 -2.4142,0.437172zm0 -2.39957c0.455353,0 0.891195,-0.0833553 1.30708,-0.250066 0.415892,-0.166711 0.784785,-0.424755 1.10712,-0.775022 0.321449,-0.349827 0.580383,-0.799856 0.776802,-1.34965 0.196413,-0.54979 0.2944,-1.21663 0.2944,-1.99964l0 -0.500132c0,-0.716501 -0.0979869,-1.3328 -0.2944,-1.84933 -0.196419,-0.516983 -0.455353,-0.941738 -0.776802,-1.27516 -0.322334,-0.332976 -0.691227,-0.583042 -1.10712,-0.749753 -0.415887,-0.166711 -0.851729,-0.250066 -1.30708,-0.250066 -0.455347,0 -0.891189,0.0833553 -1.30708,0.250066 -0.415892,0.166711 -0.784785,0.416777 -1.10712,0.749753 -0.321449,0.333421 -0.580383,0.758176 -0.776802,1.27516 -0.196413,0.516533 -0.2944,1.13283 -0.2944,1.84933l0 0.500132c0,0.783005 0.0979869,1.44985 0.2944,1.99964 0.196419,0.54979 0.455353,0.999819 0.776802,1.34965 0.322334,0.350267 0.691227,0.608311 1.10712,0.775022 0.415887,0.166711 0.851729,0.250066 1.30708,0.250066zm8.71373 -11.1235l2.59066 0 0 5.32409 5.88762 0 0 -5.32409 2.59066 0 0 13.2482 -2.59066 0 0 -5.57416 -5.88762 0 0 5.57416 -2.59066 0 0 -13.2482zm14.1305 13.5231c-0.12592,0 -0.263368,-0.00398901 -0.412343,-0.0124172 -0.148975,-0.00842297 -0.286422,-0.0292631 -0.412343,-0.0625152l0 -2.59953c0.0784764,0.0164062 0.196419,0.0248291 0.353371,0.0248291 0.329877,0 0.612311,-0.10419 0.848185,-0.312581 0.234989,-0.207941 0.427864,-0.574619 0.576839,-1.09958 0.148975,-0.524956 0.262923,-1.22904 0.341399,-2.11226 0.0784764,-0.883211 0.117497,-1.99964 0.117497,-3.34928l0 -3.99972 9.42047 0 0 13.2482 -2.59022 0 0 -10.8983 -4.33358 0 0 2.1495c0,1.78327 -0.0824706,3.25351 -0.247407,4.41206 -0.164491,1.1581 -0.411898,2.07856 -0.741775,2.7618 -0.329872,0.683249 -0.737781,1.16254 -1.22461,1.43744 -0.486385,0.274895 -1.05169,0.412343 -1.69548,0.412343zm17.7804 0c-0.674821,0 -1.2756,-0.104195 -1.80144,-0.312581 -0.526291,-0.207946 -0.969671,-0.499687 -1.33058,-0.874788 -0.361355,-0.374657 -0.635805,-0.812268 -0.824685,-1.3124 -0.188435,-0.499687 -0.282433,-1.04948 -0.282433,-1.64937 0,-1.31683 0.368893,-2.29581 1.10712,-2.93739 0.737781,-0.641568 1.8214,-0.962128 3.24997,-0.962128l3.88577 0 0 -0.724929c0,-0.999819 -0.207946,-1.6875 -0.624278,-2.06215 -0.415892,-0.375096 -1.07121,-0.562647 -1.96683,-0.562647 -0.800296,0 -1.38911,0.133459 -1.76598,0.399925 -0.376871,0.266917 -0.596344,0.633145 -0.659304,1.10003l-2.52016 0c0.0314775,-0.566636 0.168925,-1.08761 0.412343,-1.56247 0.242973,-0.474858 0.581268,-0.8872 1.01268,-1.23703 0.431853,-0.350267 0.95371,-0.620728 1.56602,-0.812713 0.612305,-0.19154 1.30353,-0.287312 2.07235,-0.287312 0.769708,0 1.46404,0.0917835 2.08477,0.274895 0.619844,0.183562 1.14968,0.470869 1.58907,0.862371 0.440276,0.391508 0.781236,0.895629 1.02509,1.51237 0.242973,0.616739 0.364459,1.35807 0.364459,2.22487l0 5.27399c0,0.700095 0.00797802,1.31241 0.0239392,1.83737 0.0155214,0.524956 0.0545372,1.03706 0.117497,1.53719l-2.35478 0c-0.0474439,-0.38308 -0.0824706,-0.708078 -0.10641,-0.97499 -0.0230597,-0.266472 -0.0350267,-0.599893 -0.0350267,-0.999819 -0.298395,0.616739 -0.812273,1.14569 -1.54252,1.5873 -0.730248,0.441606 -1.62898,0.662409 -2.69663,0.662409zm0.706303 -2.39957c0.439831,0 0.859712,-0.0625152 1.26008,-0.187546 0.40037,-0.125036 0.749753,-0.308152 1.04815,-0.54979 0.29795,-0.241643 0.537378,-0.541812 0.718275,-0.900063 0.180457,-0.35825 0.270906,-0.770588 0.270906,-1.23702l0 -0.724924 -3.4149 0c-0.659304,0 -1.18959,0.14986 -1.58951,0.449584 -0.400815,0.300169 -0.600778,0.741775 -0.600778,1.32482 0,0.55023 0.184446,0.991836 0.553334,1.32481 0.368893,0.333421 0.95371,0.500132 1.75445,0.500132zm9.0671 -11.1235l2.59066 0 0 9.37392 6.00557 -9.37392 2.47272 0 0 13.2482 -2.59066 0 0 -9.37347 -6.00557 9.37347 -2.47272 0 0 -13.2482zm5.5347 -1.49951c-1.30353,0 -2.25724,-0.304158 -2.86157,-0.912475 -0.604767,-0.608316 -0.906706,-1.47069 -0.906706,-2.58711l2.40222 0c0,0.599893 0.113948,1.03307 0.341404,1.29954 0.227896,0.266912 0.569295,0.399925 1.02465,0.399925 0.454908,0 0.796307,-0.133014 1.0242,-0.399925 0.227456,-0.266472 0.341404,-0.69965 0.341404,-1.29954l2.40223 0c0,1.11643 -0.306378,1.9788 -0.918238,2.58711 -0.612305,0.608316 -1.56247,0.912475 -2.8496,0.912475zm8.83122 1.49951l2.59066 0 0 5.32409 5.88762 0 0 -5.32409 2.59066 0 0 13.2482 -2.59066 0 0 -5.57416 -5.88762 0 0 5.57416 -2.59066 0 0 -13.2482z"/>
 </g>
</svg>
