<svg width="20" height="20" viewBox="0 0 20 20" fill="none" xmlns="http://www.w3.org/2000/svg">
<path d="M7.52454 18.075L9.46621 16.4417C9.75788 16.1917 10.2412 16.1917 10.5329 16.4417L12.4745 18.075C12.9245 18.3 13.4745 18.075 13.6412 17.5917L14.0079 16.4833C14.0995 16.2167 14.0079 15.825 13.8079 15.625L11.9162 13.725C11.7745 13.5917 11.6662 13.325 11.6662 13.1333V10.7583C11.6662 10.4083 11.9245 10.2417 12.2495 10.375L16.3412 12.1417C16.9829 12.4167 17.5079 12.075 17.5079 11.375V10.3C17.5079 9.74165 17.0912 9.09999 16.5745 8.88332L11.9162 6.87499C11.7829 6.81665 11.6662 6.64165 11.6662 6.49165V3.99165C11.6662 3.20832 11.0912 2.28332 10.3912 1.92499C10.1412 1.79999 9.84955 1.79999 9.59955 1.92499C8.89955 2.28332 8.32454 3.21665 8.32454 3.99999V6.49999C8.32454 6.64999 8.20788 6.82499 8.07454 6.88332L3.42454 8.89165C2.90788 9.09999 2.49121 9.74165 2.49121 10.3V11.375C2.49121 12.075 3.01621 12.4167 3.65788 12.1417L7.74954 10.375C8.06621 10.2333 8.33288 10.4083 8.33288 10.7583V13.1333C8.33288 13.325 8.22454 13.5917 8.09121 13.725L6.19954 15.625C5.99954 15.825 5.90788 16.2083 5.99954 16.4833L6.36621 17.5917C6.51621 18.075 7.06621 18.3083 7.52454 18.075Z" stroke="#0F1B33" stroke-linecap="round" stroke-linejoin="round"/>
</svg>
