<svg width="20" height="20" viewBox="0 0 20 20" fill="none" xmlns="http://www.w3.org/2000/svg">
<path d="M5.23366 15.125C5.23366 15.4011 5.45752 15.625 5.73366 15.625C6.0098 15.625 6.23366 15.4011 6.23366 15.125H5.73366H5.23366ZM6.23366 13.4C6.23366 13.1238 6.0098 12.9 5.73366 12.9C5.45752 12.9 5.23366 13.1238 5.23366 13.4H5.73366H6.23366ZM9.50033 15.125C9.50033 15.4011 9.72418 15.625 10.0003 15.625C10.2765 15.625 10.5003 15.4011 10.5003 15.125H10.0003H9.50033ZM10.5003 11.675C10.5003 11.3988 10.2765 11.175 10.0003 11.175C9.72418 11.175 9.50033 11.3988 9.50033 11.675H10.0003H10.5003ZM13.767 15.125C13.767 15.4011 13.9909 15.625 14.267 15.625C14.5431 15.625 14.767 15.4011 14.767 15.125H14.267H13.767ZM14.767 9.94163C14.767 9.66548 14.5431 9.44163 14.267 9.44163C13.9909 9.44163 13.767 9.66548 13.767 9.94163H14.267H14.767ZM14.267 4.87496H14.767V4.37496H14.267V4.87496ZM13.8837 5.32496L14.2636 5.65004L14.2643 5.64919L13.8837 5.32496ZM5.61269 9.87315C5.34475 9.93996 5.1817 10.2113 5.24851 10.4793C5.31532 10.7472 5.58669 10.9102 5.85463 10.8434L5.73366 10.3583L5.61269 9.87315ZM11.8253 4.37496C11.5492 4.37496 11.3253 4.59882 11.3253 4.87496C11.3253 5.1511 11.5492 5.37496 11.8253 5.37496V4.87496V4.37496ZM13.767 7.30829C13.767 7.58444 13.9909 7.80829 14.267 7.80829C14.5431 7.80829 14.767 7.58444 14.767 7.30829H14.267H13.767ZM5.73366 15.125H6.23366V13.4H5.73366H5.23366V15.125H5.73366ZM10.0003 15.125H10.5003V11.675H10.0003H9.50033V15.125H10.0003ZM14.267 15.125H14.767V9.94163H14.267H13.767V15.125H14.267ZM14.267 4.87496L13.8864 4.55073L13.503 5.00073L13.8837 5.32496L14.2643 5.64919L14.6476 5.19919L14.267 4.87496ZM13.8837 5.32496L13.5038 4.99988C11.4466 7.40395 8.68721 9.10653 5.61269 9.87315L5.73366 10.3583L5.85463 10.8434C9.1301 10.0267 12.0707 8.21263 14.2636 5.65004L13.8837 5.32496ZM11.8253 4.87496V5.37496H14.267V4.87496V4.37496H11.8253V4.87496ZM14.267 4.87496H13.767V7.30829H14.267H14.767V4.87496H14.267ZM7.50033 18.3333V18.8333H12.5003V18.3333V17.8333H7.50033V18.3333ZM12.5003 18.3333V18.8333C14.633 18.8333 16.2559 18.4098 17.333 17.3327C18.4102 16.2555 18.8337 14.6326 18.8337 12.5H18.3337H17.8337C17.8337 14.534 17.4238 15.8277 16.6259 16.6256C15.8281 17.4234 14.5343 17.8333 12.5003 17.8333V18.3333ZM18.3337 12.5H18.8337V7.49996H18.3337H17.8337V12.5H18.3337ZM18.3337 7.49996H18.8337C18.8337 5.36731 18.4102 3.74439 17.333 2.66724C16.2559 1.59009 14.633 1.16663 12.5003 1.16663V1.66663V2.16663C14.5343 2.16663 15.8281 2.57649 16.6259 3.37435C17.4238 4.1722 17.8337 5.46594 17.8337 7.49996H18.3337ZM12.5003 1.66663V1.16663H7.50033V1.66663V2.16663H12.5003V1.66663ZM7.50033 1.66663V1.16663C5.36768 1.16663 3.74475 1.59009 2.66761 2.66724C1.59046 3.74439 1.16699 5.36731 1.16699 7.49996H1.66699H2.16699C2.16699 5.46594 2.57686 4.1722 3.37471 3.37435C4.17257 2.57649 5.46631 2.16663 7.50033 2.16663V1.66663ZM1.66699 7.49996H1.16699V12.5H1.66699H2.16699V7.49996H1.66699ZM1.66699 12.5H1.16699C1.16699 14.6326 1.59046 16.2555 2.66761 17.3327C3.74475 18.4098 5.36768 18.8333 7.50033 18.8333V18.3333V17.8333C5.46631 17.8333 4.17257 17.4234 3.37471 16.6256C2.57686 15.8277 2.16699 14.534 2.16699 12.5H1.66699Z" fill="#0F1B33"/>
</svg>
