<svg width="20" height="20" viewBox="0 0 20 20" fill="none" xmlns="http://www.w3.org/2000/svg">
<path d="M4.16667 7.42921H3.33333M16.6667 7.42921H15.8333M10 3.26254V4.92921M9.16667 4.92921H10.8333M5.83333 12.4292H7.5M12.5 12.4292H14.1667M12.5594 3.26254H7.44062C5.625 3.26254 5.22396 4.1479 4.99062 5.23317L4.16667 9.09588H15.8333L15.0094 5.23317C14.776 4.1479 14.375 3.26254 12.5594 3.26254ZM17.4934 15.7777C17.5759 16.6641 16.8709 17.4292 15.9707 17.4292H14.5606C13.7505 17.4292 13.638 17.0807 13.4954 16.6489L13.3454 16.1944C13.1354 15.5732 13.0004 15.1565 11.9202 15.1565H8.07976C6.99963 15.1565 6.84211 15.6262 6.65458 16.1944L6.50457 16.6489C6.36205 17.0807 6.24953 17.4292 5.43943 17.4292H4.02926C3.12915 17.4292 2.42406 16.6641 2.50657 15.7777L2.92662 11.1641C3.03164 10.0277 3.24916 9.09588 5.21441 9.09588H14.7856C16.7508 9.09588 16.9684 10.0277 17.0734 11.1641L17.4934 15.7777Z" stroke="#0F1B33" stroke-linecap="round" stroke-linejoin="round"/>
</svg>
