<svg width="20" height="20" viewBox="0 0 20 20" fill="none" xmlns="http://www.w3.org/2000/svg">
<path d="M2.89165 5.76726C2.65264 5.62895 2.34677 5.71058 2.20845 5.94958C2.07014 6.18859 2.15176 6.49447 2.39077 6.63278L2.64121 6.20002L2.89165 5.76726ZM9.99953 10.4583L9.74909 10.8911C9.90408 10.9808 10.0952 10.9808 10.2501 10.891L9.99953 10.4583ZM17.5585 6.65765C17.7974 6.51924 17.8789 6.21333 17.7405 5.97438C17.6021 5.73543 17.2962 5.65393 17.0572 5.79234L17.3079 6.225L17.5585 6.65765ZM9.49953 18.0083C9.49953 18.2845 9.72339 18.5083 9.99953 18.5083C10.2757 18.5083 10.4995 18.2845 10.4995 18.0083H9.99953H9.49953ZM10.4995 10.45C10.4995 10.1739 10.2757 9.95 9.99953 9.95C9.72339 9.95 9.49953 10.1739 9.49953 10.45H9.99953H10.4995ZM17.5079 10.6917C17.5079 10.9679 17.7317 11.1917 18.0079 11.1917C18.284 11.1917 18.5079 10.9679 18.5079 10.6917H18.0079H17.5079ZM16.1745 4.53337L15.9321 4.97068L15.9323 4.97079L16.1745 4.53337ZM11.7245 2.06669L11.4798 2.50269L11.4821 2.504L11.7245 2.06669ZM8.27453 2.06669L8.51694 2.504L8.51929 2.50268L8.27453 2.06669ZM3.82453 4.53337L4.06674 4.97079L4.06693 4.97068L3.82453 4.53337ZM3.82453 15.4667L4.06693 15.0294L4.06674 15.0293L3.82453 15.4667ZM8.27453 17.9334L8.5193 17.4974L8.51693 17.4961L8.27453 17.9334ZM11.9693 18.3694C12.2101 18.2342 12.2957 17.9294 12.1605 17.6886C12.0253 17.4478 11.7206 17.3622 11.4798 17.4974L11.7245 17.9334L11.9693 18.3694ZM12.7481 13.9972L12.2609 13.8848L12.2608 13.8853L12.7481 13.9972ZM18.4172 14.0006L17.9299 14.1125L17.9299 14.1125L18.4172 14.0006ZM16.8003 18.0149L16.4566 17.6518L16.4557 17.6527L16.8003 18.0149ZM14.3615 18.0149L14.0172 18.3774L14.0178 18.378L14.3615 18.0149ZM2.64121 6.20002L2.39077 6.63278L9.74909 10.8911L9.99953 10.4583L10.25 10.0256L2.89165 5.76726L2.64121 6.20002ZM9.99953 10.4583L10.2501 10.891L17.5585 6.65765L17.3079 6.225L17.0572 5.79234L9.74892 10.0257L9.99953 10.4583ZM9.99953 18.0083H10.4995V10.45H9.99953H9.49953V18.0083H9.99953ZM18.0079 10.6917H18.5079V7.64169H18.0079H17.5079V10.6917H18.0079ZM18.0079 7.64169H18.5079C18.5079 6.95599 18.2654 6.2314 17.9 5.61169C17.5346 4.99195 17.0176 4.42866 16.4167 4.09595L16.1745 4.53337L15.9323 4.97079C16.3398 5.19642 16.7395 5.61229 17.0386 6.11962C17.3378 6.62699 17.5079 7.17739 17.5079 7.64169H18.0079ZM16.1745 4.53337L16.4169 4.09606L11.9669 1.62938L11.7245 2.06669L11.4821 2.504L15.9321 4.97068L16.1745 4.53337ZM11.7245 2.06669L11.9693 1.6307C11.4012 1.31175 10.6864 1.16669 9.99953 1.16669C9.31267 1.16669 8.59788 1.31175 8.02976 1.6307L8.27453 2.06669L8.51929 2.50268C8.90117 2.28829 9.43639 2.16669 9.99953 2.16669C10.5627 2.16669 11.0979 2.28829 11.4798 2.50268L11.7245 2.06669ZM8.27453 2.06669L8.03212 1.62938L3.58212 4.09606L3.82453 4.53337L4.06693 4.97068L8.51693 2.504L8.27453 2.06669ZM3.82453 4.53337L3.58232 4.09595C2.98146 4.42866 2.46447 4.99195 2.09904 5.61169C1.73364 6.2314 1.49121 6.95599 1.49121 7.64169H1.99121H2.49121C2.49121 7.17739 2.66128 6.62699 2.96045 6.11962C3.25959 5.61229 3.65926 5.19642 4.06674 4.97079L3.82453 4.53337ZM1.99121 7.64169H1.49121V12.3584H1.99121H2.49121V7.64169H1.99121ZM1.99121 12.3584H1.49121C1.49121 13.0441 1.73364 13.7687 2.09904 14.3884C2.46447 15.0081 2.98146 15.5714 3.58232 15.9041L3.82453 15.4667L4.06674 15.0293C3.65926 14.8037 3.25959 14.3878 2.96045 13.8805C2.66128 13.3731 2.49121 12.8227 2.49121 12.3584H1.99121ZM3.82453 15.4667L3.58212 15.904L8.03212 18.3707L8.27453 17.9334L8.51693 17.4961L4.06693 15.0294L3.82453 15.4667ZM8.27453 17.9334L8.02976 18.3694C8.59789 18.6883 9.31268 18.8334 9.99953 18.8334V18.3334V17.8334C9.43638 17.8334 8.90117 17.7118 8.51929 17.4974L8.27453 17.9334ZM9.99953 18.3334V18.8334C10.6864 18.8334 11.4012 18.6883 11.9693 18.3694L11.7245 17.9334L11.4798 17.4974C11.0979 17.7118 10.5627 17.8334 9.99953 17.8334V18.3334ZM15.9995 14.5834H15.4995C15.4995 14.5373 15.5368 14.5 15.5829 14.5V15V15.5C16.0891 15.5 16.4995 15.0896 16.4995 14.5834H15.9995ZM15.5829 15V14.5C15.6289 14.5 15.6662 14.5373 15.6662 14.5834H15.1662H14.6662C14.6662 15.0896 15.0766 15.5 15.5829 15.5V15ZM15.1662 14.5834H15.6662C15.6662 14.6294 15.6289 14.6667 15.5829 14.6667V14.1667V13.6667C15.0766 13.6667 14.6662 14.0771 14.6662 14.5834H15.1662ZM15.5829 14.1667V14.6667C15.5368 14.6667 15.4995 14.6294 15.4995 14.5834H15.9995H16.4995C16.4995 14.0771 16.0891 13.6667 15.5829 13.6667V14.1667ZM12.7481 13.9972L13.2353 14.1097C13.5055 12.9386 14.5151 12.3327 15.5836 12.3334C16.6521 12.3341 17.661 12.9414 17.9299 14.1125L18.4172 14.0006L18.9045 13.8887C18.5104 12.1723 17.0179 11.3343 15.5842 11.3334C14.1505 11.3324 12.657 12.1685 12.2609 13.8848L12.7481 13.9972ZM18.4172 14.0006L17.9299 14.1125C18.2551 15.5288 17.3694 16.7878 16.4566 17.6518L16.8003 18.0149L17.1441 18.378C18.1052 17.4683 19.3572 15.8599 18.9045 13.8887L18.4172 14.0006ZM16.8003 18.0149L16.4557 17.6527C15.9693 18.1154 15.1962 18.1166 14.7053 17.6518L14.3615 18.0149L14.0178 18.378C14.8934 19.2069 16.2716 19.2081 17.145 18.3772L16.8003 18.0149ZM14.3615 18.0149L14.7059 17.6524C13.7963 16.7883 12.91 15.5259 13.2354 14.1092L12.7481 13.9972L12.2608 13.8853C11.8081 15.8561 13.0596 17.4678 14.0172 18.3774L14.3615 18.0149Z" fill="#0F1B33"/>
</svg>
