<svg width="20" height="20" viewBox="0 0 20 20" fill="none" xmlns="http://www.w3.org/2000/svg">
<path d="M14.7862 1.51849L12.5461 1.04739C11.1434 0.782618 9.70422 0.756495 8.29239 0.970177L5.31703 1.4632C4.76156 1.55395 4.25723 1.83374 3.89388 2.25272C3.53053 2.6717 3.33177 3.20265 3.33301 3.75098V12.9008C3.33665 13.205 3.40597 13.505 3.53647 13.7814C3.66698 14.0578 3.85574 14.3044 4.09051 14.5052C4.32528 14.706 4.60081 14.8564 4.89919 14.9467C5.19757 15.0371 5.51213 15.0653 5.82245 15.0296C5.60906 15.5521 4.56026 18.1415 4.32738 18.713C4.29458 18.7937 4.29605 18.8838 4.33147 18.9634C4.36689 19.043 4.43335 19.1057 4.51623 19.1377C4.59912 19.1696 4.69164 19.1681 4.77344 19.1337C4.85524 19.0992 4.91962 19.0345 4.95242 18.9538L5.34123 17.9959H14.6003L14.9787 18.9512C15.0108 19.0321 15.0746 19.0974 15.1561 19.1325C15.2376 19.1677 15.3301 19.1699 15.4132 19.1386C15.4964 19.1074 15.5634 19.0453 15.5995 18.966C15.6356 18.8866 15.6379 18.7966 15.6058 18.7156L14.1457 15.0296C14.4582 15.0687 14.7756 15.043 15.0772 14.9543C15.3788 14.8656 15.6578 14.7158 15.8958 14.5148C16.1337 14.3138 16.3254 14.0661 16.4582 13.788C16.591 13.5098 16.6619 13.2075 16.6663 12.9008V3.78697C16.6641 3.25714 16.4767 2.74383 16.1349 2.33153C15.7931 1.91922 15.3176 1.63247 14.7862 1.51849ZM5.60671 17.3416L6.05264 16.2423H13.9061L14.3416 17.3416H5.60671ZM13.647 15.588H6.31845L6.54495 15.0296H13.4258L13.647 15.588ZM15.9946 12.9008C15.9943 13.2918 15.8347 13.6667 15.5507 13.9431C15.2667 14.2196 14.8816 14.375 14.48 14.3753H13.6691C13.2692 14.3812 5.66182 14.371 5.51967 14.3753C5.11806 14.375 4.73298 14.2196 4.44901 13.9431C4.16503 13.6667 4.00537 13.2918 4.00511 12.9008V3.75098C4.00424 3.35724 4.14699 2.97598 4.40794 2.67515C4.66888 2.37432 5.03106 2.17345 5.42994 2.10834L8.40497 1.61532C9.73242 1.41554 11.0853 1.43988 12.4043 1.6873L14.6443 2.15807C15.026 2.23995 15.3676 2.44586 15.613 2.74191C15.8584 3.03797 15.993 3.40654 15.9946 3.78697V12.9008Z" fill="#0F1B33" stroke="#0F1B33" stroke-width="0.2"/>
<path d="M13.3906 4.27213H6.65194C6.44051 4.27235 6.2378 4.35908 6.08829 4.51328C5.93879 4.66749 5.8547 4.87657 5.85449 5.09465V7.44156C5.8547 7.65964 5.93879 7.86872 6.08829 8.02293C6.2378 8.17713 6.44051 8.26386 6.65194 8.26408H13.3904C13.6018 8.26386 13.8045 8.17713 13.954 8.02293C14.1035 7.86872 14.1876 7.65964 14.1878 7.44156V5.09465C14.1876 4.87657 14.1035 4.66749 13.954 4.51328C13.8045 4.35908 13.6021 4.27235 13.3906 4.27213ZM13.6565 7.44156C13.6565 7.51427 13.6285 7.58401 13.5786 7.63543C13.5288 7.68685 13.4611 7.71573 13.3906 7.71573H6.65194C6.58144 7.71573 6.51383 7.68685 6.46398 7.63543C6.41413 7.58401 6.38612 7.51427 6.38612 7.44156V5.09465C6.38612 5.02193 6.41413 4.9522 6.46398 4.90078C6.51383 4.84936 6.58144 4.82047 6.65194 4.82047H13.3904C13.4609 4.82047 13.5285 4.84936 13.5783 4.90078C13.6282 4.9522 13.6562 5.02193 13.6562 5.09465L13.6565 7.44156ZM7.39676 9.54802C5.62988 9.6056 5.63014 12.2483 7.39676 12.3062C9.1639 12.2481 9.16337 9.6056 7.39676 9.54802ZM7.39676 11.7578C7.18315 11.7578 6.97828 11.6703 6.82724 11.5145C6.67619 11.3587 6.59133 11.1474 6.59133 10.9271C6.59133 10.7068 6.67619 10.4955 6.82724 10.3397C6.97828 10.1839 7.18315 10.0964 7.39676 10.0964C7.61037 10.0964 7.81523 10.1839 7.96628 10.3397C8.11732 10.4955 8.20218 10.7068 8.20218 10.9271C8.20218 11.1474 8.11732 11.3587 7.96628 11.5145C7.81523 11.6703 7.61037 11.7578 7.39676 11.7578ZM12.6001 9.54802C10.833 9.6056 10.8335 12.2483 12.6001 12.3062C14.367 12.2481 14.3667 9.6056 12.6001 9.54802ZM12.6001 11.7578C12.3865 11.7578 12.1816 11.6703 12.0306 11.5145C11.8795 11.3587 11.7947 11.1474 11.7947 10.9271C11.7947 10.7068 11.8795 10.4955 12.0306 10.3397C12.1816 10.1839 12.3865 10.0964 12.6001 10.0964C12.8137 10.0964 13.0186 10.1839 13.1696 10.3397C13.3207 10.4955 13.4055 10.7068 13.4055 10.9271C13.4055 11.1474 13.3207 11.3587 13.1696 11.5145C13.0186 11.6703 12.8137 11.7578 12.6001 11.7578ZM8.59293 3.68787H11.4672C11.5377 3.68787 11.6053 3.65898 11.6552 3.60757C11.705 3.55615 11.733 3.48641 11.733 3.4137C11.733 3.34098 11.705 3.27125 11.6552 3.21983C11.6053 3.16841 11.5377 3.13953 11.4672 3.13953H8.59293C8.52243 3.13953 8.45482 3.16841 8.40497 3.21983C8.35512 3.27125 8.32711 3.34098 8.32711 3.4137C8.32711 3.48641 8.35512 3.55615 8.40497 3.60757C8.45482 3.65898 8.52243 3.68787 8.59293 3.68787Z" fill="#0F1B33" stroke="#0F1B33" stroke-width="0.2"/>
</svg>
