<svg width="52" height="52" viewBox="0 0 52 52" fill="none" xmlns="http://www.w3.org/2000/svg">
<rect width="52" height="52" rx="8" fill="#2F94EF" fill-opacity="0.08"/>
<path d="M32.532 36.666H19.4654C17.1987 36.666 15.332 34.998 15.332 32.946V16.386C15.332 14.346 17.1854 12.666 19.4654 12.666H32.532C34.7987 12.666 36.6654 14.334 36.6654 16.386V32.946C36.6654 34.998 34.812 36.666 32.532 36.666Z" stroke="#2F94EF" stroke-width="1.5" stroke-linecap="round" stroke-linejoin="round"/>
<path d="M34.6654 25.9993H17.332C16.2254 25.9993 15.332 25.2847 15.332 24.3993V22.266C15.332 21.3807 16.2254 20.666 17.332 20.666H34.6654C35.772 20.666 36.6654 21.3807 36.6654 22.266V24.3993C36.6654 25.2847 35.772 25.9993 34.6654 25.9993Z" stroke="#2F94EF" stroke-linecap="round" stroke-linejoin="round"/>
<path d="M21.3273 32.0007H21.3393" stroke="#2F94EF" stroke-width="2" stroke-linecap="round" stroke-linejoin="round"/>
<path d="M30.6593 32.0007H30.6713" stroke="#2F94EF" stroke-width="2" stroke-linecap="round" stroke-linejoin="round"/>
<path d="M21.3281 38L21.3353 38.6667" stroke="#2F94EF" stroke-width="2" stroke-linecap="round" stroke-linejoin="round"/>
<path d="M30.6602 38L30.6673 38.6667" stroke="#2F94EF" stroke-width="2" stroke-linecap="round" stroke-linejoin="round"/>
<path d="M22.668 16.666H29.3346" stroke="#2F94EF" stroke-linecap="round" stroke-linejoin="round"/>
</svg>
