<svg width="64" height="64" viewBox="0 0 64 64" fill="none" xmlns="http://www.w3.org/2000/svg">
<rect width="64" height="64" rx="32" fill="#28AF4C" fill-opacity="0.08"/>
<path d="M25.3333 32C20 32 20 34.3867 20 37.3333V38.6667C20 42.3467 20 45.3333 26.6667 45.3333H37.3333C42.6667 45.3333 44 42.3467 44 38.6667V37.3333C44 34.3867 44 32 38.6667 32C37.3333 32 36.96 32.28 36.2667 32.8L34.9067 34.24C33.3333 35.92 30.6667 35.92 29.08 34.24L27.7333 32.8C27.04 32.28 26.6667 32 25.3333 32Z" stroke="#28AF4C" stroke-width="1.5" stroke-miterlimit="10" stroke-linecap="round" stroke-linejoin="round"/>
<path d="M41.3332 31.9998V23.9998C41.3332 21.0532 41.3332 18.6665 35.9998 18.6665H27.9998C22.6665 18.6665 22.6665 21.0532 22.6665 23.9998V31.9998" stroke="#28AF4C" stroke-width="1.5" stroke-miterlimit="10" stroke-linecap="round" stroke-linejoin="round"/>
<path d="M30.0669 28.3066H34.5069" stroke="#28AF4C" stroke-width="1.5" stroke-linecap="round" stroke-linejoin="round"/>
<path d="M28.96 24.3066H35.6266" stroke="#28AF4C" stroke-width="1.5" stroke-linecap="round" stroke-linejoin="round"/>
</svg>
