<svg width="64" height="64" viewBox="0 0 64 64" fill="none" xmlns="http://www.w3.org/2000/svg">
<rect width="64" height="64" rx="32" fill="#2F94EF" fill-opacity="0.08"/>
<path d="M24 29.3332V26.6665C24 22.2532 25.3333 18.6665 32 18.6665C38.6667 18.6665 40 22.2532 40 26.6665V29.3332" stroke="#2F94EF" stroke-width="1.5" stroke-linecap="round" stroke-linejoin="round"/>
<path d="M38.6667 45.3335H25.3334C20 45.3335 18.6667 44.0002 18.6667 38.6668V36.0002C18.6667 30.6668 20 29.3335 25.3334 29.3335H38.6667C44 29.3335 45.3334 30.6668 45.3334 36.0002V38.6668C45.3334 44.0002 44 45.3335 38.6667 45.3335Z" stroke="#2F94EF" stroke-width="1.5" stroke-linecap="round" stroke-linejoin="round"/>
<path d="M37.3286 37.3332H37.3406" stroke="#2F94EF" stroke-width="2" stroke-linecap="round" stroke-linejoin="round"/>
<path d="M31.994 37.3332H32.006" stroke="#2F94EF" stroke-width="2" stroke-linecap="round" stroke-linejoin="round"/>
<path d="M26.6593 37.3332H26.6713" stroke="#2F94EF" stroke-width="2" stroke-linecap="round" stroke-linejoin="round"/>
</svg>
