<svg width="64" height="64" viewBox="0 0 64 64" fill="none" xmlns="http://www.w3.org/2000/svg">
<rect width="64" height="64" rx="32" fill="#2F94EF" fill-opacity="0.08"/>
<path d="M22.6658 35.1112C20.9497 35.1112 19.5547 36.5074 19.5547 38.2223C19.5547 39.9371 20.9497 41.3334 22.6658 41.3334C24.3819 41.3334 25.7769 39.9371 25.7769 38.2223C25.7769 36.5075 24.3819 35.1112 22.6658 35.1112ZM22.6658 40.089C21.6366 40.089 20.7991 39.2515 20.7991 38.2223C20.7991 37.1931 21.6366 36.3556 22.6658 36.3556C23.695 36.3556 24.5324 37.1931 24.5324 38.2223C24.5324 39.2515 23.695 40.089 22.6658 40.089ZM41.3324 35.1112C39.6163 35.1112 38.2214 36.5074 38.2214 38.2223C38.2214 39.9371 39.6163 41.3334 41.3324 41.3334C43.0486 41.3334 44.4435 39.9371 44.4435 38.2223C44.4435 36.5075 43.0486 35.1112 41.3324 35.1112ZM41.3324 40.089C40.3033 40.089 39.4658 39.2515 39.4658 38.2223C39.4658 37.1931 40.3033 36.3556 41.3324 36.3556C42.3616 36.3556 43.1991 37.1931 43.1991 38.2223C43.1991 39.2515 42.3616 40.089 41.3324 40.089ZM36.3547 32.6223H35.1103C34.7668 32.6223 34.488 32.9011 34.488 33.2446C34.488 33.588 34.7667 33.8667 35.1102 33.8667H36.3546C36.6981 33.8667 36.9769 33.588 36.9769 33.2445C36.9769 32.901 36.6982 32.6223 36.3547 32.6223Z" fill="#2F94EF" stroke="#2F94EF" stroke-width="0.3"/>
<path d="M45.5194 30.5378C44.6173 30.3122 43.7935 29.8454 43.1363 29.1876L37.5251 23.5776C36.9364 22.9903 36.1562 22.6667 35.3249 22.6667H20.1775C18.4614 22.6667 17.0664 24.063 17.0664 25.7778V35.7334C17.0664 37.4482 18.4614 38.8445 20.1775 38.8445C20.521 38.8445 20.7997 38.5657 20.7997 38.2223C20.7997 37.8788 20.521 37.6001 20.1775 37.6001C19.1483 37.6001 18.3108 36.7626 18.3108 35.7334V25.7778C18.3108 24.7487 19.1483 23.9112 20.1775 23.9112H35.3249C35.8151 23.9112 36.2967 24.1103 36.6439 24.4587L42.2551 30.0687C43.0702 30.8863 44.0957 31.4662 45.2169 31.7462C45.3516 31.7797 45.4712 31.8574 45.5567 31.9668C45.6422 32.0761 45.6886 32.211 45.6885 32.3498V35.7334C45.6885 36.7626 44.851 37.6001 43.8219 37.6001C43.4784 37.6001 43.1996 37.8789 43.1996 38.2223C43.1996 38.5658 43.4784 38.8446 43.8219 38.8446C45.538 38.8445 46.9331 37.4482 46.9331 35.7334V32.3498C46.9331 31.4911 46.3507 30.7469 45.5194 30.5378Z" fill="#2F94EF" stroke="#2F94EF" stroke-width="0.3"/>
<path d="M38.8436 37.6H25.1547C24.8113 37.6 24.5325 37.8788 24.5325 38.2222C24.5325 38.5657 24.8113 38.8445 25.1547 38.8445H38.8437C39.1871 38.8445 39.4659 38.5657 39.4659 38.2222C39.4659 37.8788 39.1871 37.6 38.8436 37.6ZM40.0881 30.1333H33.2436V25.7778C33.2436 25.4343 32.9648 25.1555 32.6214 25.1555C32.2779 25.1555 31.9992 25.4343 31.9992 25.7778V30.7555C31.9992 31.099 32.2779 31.3778 32.6214 31.3778H40.0881C40.4315 31.3778 40.7103 31.099 40.7103 30.7555C40.7103 30.4121 40.4315 30.1333 40.0881 30.1333ZM30.1325 30.1333H27.0214V25.7778C27.0214 25.4343 26.7426 25.1555 26.3992 25.1555C26.0557 25.1555 25.7769 25.4343 25.7769 25.7778V30.7555C25.7769 31.099 26.0557 31.3778 26.3992 31.3778H30.1325C30.476 31.3778 30.7547 31.099 30.7547 30.7555C30.7547 30.4121 30.476 30.1333 30.1325 30.1333ZM23.9103 30.1333H20.7992V25.7778C20.7992 25.4343 20.5204 25.1555 20.1769 25.1555C19.8335 25.1555 19.5547 25.4343 19.5547 25.7778V30.7555C19.5547 31.099 19.8335 31.3778 20.1769 31.3778H23.9103C24.2537 31.3778 24.5325 31.099 24.5325 30.7555C24.5325 30.4121 24.2537 30.1333 23.9103 30.1333Z" fill="#2F94EF" stroke="#2F94EF" stroke-width="0.3"/>
</svg>
