<svg width="52" height="52" viewBox="0 0 52 52" fill="none" xmlns="http://www.w3.org/2000/svg">
<rect width="52" height="52" rx="8" fill="#2F94EF" fill-opacity="0.08"/>
<path d="M14.2275 19.9203L26.0008 26.7336L37.6941 19.9603M26.0008 38.8136V26.7203M38.8141 27.107V22.227C38.8141 20.387 37.4942 18.147 35.8808 17.2537L28.7608 13.307C27.2408 12.4537 24.7608 12.4537 23.2408 13.307L16.1208 17.2537C14.5075 18.147 13.1875 20.387 13.1875 22.227V29.7737C13.1875 31.6137 14.5075 33.8537 16.1208 34.747L23.2408 38.6937C24.0008 39.1204 25.0008 39.3337 26.0008 39.3337C27.0008 39.3337 28.0008 39.1204 28.7608 38.6937" stroke="#2F94EF" stroke-width="1.5" stroke-linecap="round" stroke-linejoin="round"/>
<path d="M33.4641 29.1337H33.9308C33.0208 31.859 33.0208 34.8083 33.9308 37.5337H33.4641M36.7307 29.1337C37.6407 31.859 37.6407 34.8083 36.7307 37.5337M31.1307 35.2003V34.7337C33.8561 35.6437 36.8054 35.6437 39.5307 34.7337V35.2003M31.1307 31.9337C33.8561 31.0237 36.8054 31.0237 39.5307 31.9337M39.9974 33.3337C39.9974 35.911 37.9081 38.0003 35.3307 38.0003C32.7534 38.0003 30.6641 35.911 30.6641 33.3337C30.6641 30.7563 32.7534 28.667 35.3307 28.667C37.9081 28.667 39.9974 30.7563 39.9974 33.3337Z" stroke="#2F94EF" stroke-linecap="round" stroke-linejoin="round"/>
</svg>
