<svg width="64" height="64" viewBox="0 0 64 64" fill="none" xmlns="http://www.w3.org/2000/svg">
<rect width="64" height="64" rx="32" fill="#2F94EF" fill-opacity="0.08"/>
<path d="M42.667 32.2668V34.5335C42.667 38.7335 40.267 40.5335 36.667 40.5335H24.667C21.067 40.5335 18.667 38.7335 18.667 34.5335V27.3335C18.667 23.1335 21.067 21.3335 24.667 21.3335H28.267C28.0937 21.8402 28.0003 22.4002 28.0003 23.0002V28.2002C28.0003 29.4935 28.427 30.5868 29.187 31.3468C29.947 32.1068 31.0403 32.5335 32.3337 32.5335V34.3869C32.3337 35.0669 33.107 35.4801 33.6803 35.1068L37.5337 32.5335H41.0003C41.6003 32.5335 42.1603 32.4401 42.667 32.2668Z" stroke="#2F94EF" stroke-width="1.5" stroke-miterlimit="10" stroke-linecap="round" stroke-linejoin="round"/>
<path d="M45.3333 22.9998V28.1999C45.3333 30.1865 44.32 31.6798 42.6667 32.2664C42.16 32.4398 41.6 32.5332 41 32.5332H37.5333L33.68 35.1064C33.1067 35.4798 32.3333 35.0666 32.3333 34.3866V32.5332C31.04 32.5332 29.9467 32.1065 29.1867 31.3465C28.4267 30.5865 28 29.4932 28 28.1999V22.9998C28 22.3998 28.0933 21.8398 28.2667 21.3332C28.8533 19.6798 30.3467 18.6665 32.3333 18.6665H41C43.6 18.6665 45.3333 20.3998 45.3333 22.9998Z" stroke="#2F94EF" stroke-width="1.5" stroke-miterlimit="10" stroke-linecap="round" stroke-linejoin="round"/>
<path d="M25.8662 45.3335H35.4662" stroke="#2F94EF" stroke-width="1.5" stroke-miterlimit="10" stroke-linecap="round" stroke-linejoin="round"/>
<path d="M30.667 40.5332V45.3332" stroke="#2F94EF" stroke-width="1.5" stroke-miterlimit="10" stroke-linecap="round" stroke-linejoin="round"/>
<path d="M40.6607 25.6667H40.6727" stroke="#2F94EF" stroke-width="1.5" stroke-linecap="round" stroke-linejoin="round"/>
<path d="M36.9273 25.6667H36.9393" stroke="#2F94EF" stroke-width="1.5" stroke-linecap="round" stroke-linejoin="round"/>
<path d="M33.1939 25.6667H33.2059" stroke="#2F94EF" stroke-width="1.5" stroke-linecap="round" stroke-linejoin="round"/>
</svg>
