<svg width="56" height="56" viewBox="0 0 56 56" fill="none" xmlns="http://www.w3.org/2000/svg">
<rect width="56" height="56" rx="28" fill="#0F1B33" fill-opacity="0.04"/>
<path d="M37.2274 36.2574C37.2285 36.8174 37.1079 37.3721 36.8727 37.8898C36.6375 38.4075 36.2923 38.8779 35.8568 39.2743C35.4212 39.6706 34.904 39.9851 34.3345 40.1996C33.7651 40.4141 33.1547 40.5245 32.5383 40.5245H21.6719C21.6722 39.3459 22.1877 38.2155 23.105 37.3821C24.0224 36.5487 25.2665 36.0803 26.5639 36.0801H37.2269L37.2274 36.2574Z" fill="#007DEE"/>
<path d="M19.0078 37.4128V18.7461C20.1866 18.7461 21.317 19.2506 22.1505 20.1487C22.984 21.0468 23.4523 22.2648 23.4523 23.5348V32.624C23.4523 33.2529 23.3373 33.8756 23.1139 34.4566C22.8906 35.0376 22.5632 35.5655 22.1505 36.0102C21.7378 36.4548 21.2479 36.8076 20.7087 37.0483C20.1694 37.2889 19.5915 37.4128 19.0078 37.4128Z" fill="#006CCD"/>
<path d="M23.4523 27.635C22.2735 27.635 21.1431 27.1257 20.3096 26.2192C19.4761 25.3127 19.0078 24.0832 19.0078 22.8011V18.7461C20.1866 18.7461 21.317 19.2554 22.1505 20.1619C22.984 21.0684 23.4523 22.298 23.4523 23.58V27.635Z" fill="#00E5BA"/>
<path d="M21.6719 15.6348H32.3153C32.9605 15.6346 33.5993 15.7725 34.1953 16.0404C34.7913 16.3084 35.3329 16.7013 35.789 17.1965C36.2452 17.6918 36.607 18.2798 36.8538 18.927C37.1006 19.5741 37.2276 20.2677 37.2274 20.9681H26.584C25.9389 20.9683 25.3001 20.8304 24.7041 20.5624C24.1081 20.2944 23.5665 19.9016 23.1103 19.4063C22.6541 18.9111 22.2923 18.3231 22.0455 17.6759C21.7987 17.0288 21.6717 16.3352 21.6719 15.6348Z" fill="#007DEE"/>
<path d="M35.2308 16.5234C36.2467 17.2741 36.9383 18.4198 37.1537 19.7086C37.3691 20.9974 37.0906 22.3237 36.3793 23.3958L30.6173 32.079L30.0175 31.636C29.1607 31.0027 28.5774 30.0362 28.3958 28.9491C28.2143 27.862 28.4494 26.7433 29.0495 25.8391L35.2308 16.5234Z" fill="#006CCD"/>
<path d="M29.6415 24.5234L36.2823 33.1824C36.6524 33.6651 36.9221 34.2159 37.0758 34.8028C37.2294 35.3897 37.264 36.001 37.1775 36.6013C37.091 37.2016 36.885 37.7788 36.5718 38.2995C36.2584 38.8202 35.8439 39.274 35.3523 39.6345L28.699 30.7086C28.1822 30.0153 27.8994 29.1779 27.8908 28.3157C27.8823 27.4537 28.1486 26.6109 28.6516 25.9077L29.6415 24.5234Z" fill="#00E5BA"/>
<path d="M35.2902 39.6352L32.3359 36.0801H37.2053C37.2053 36.0801 37.3688 36.96 36.7506 38.0831C36.1318 39.2061 35.2908 39.6356 35.2908 39.6356" fill="#14B2C6"/>
<path d="M35.1385 16.5234C35.1385 16.5234 36.0045 17.1215 36.643 18.3929C37.2804 19.6645 37.2235 20.9679 37.2235 20.9679H32.3359L35.1385 16.5234Z" fill="#1891FF"/>
</svg>
