<svg width="20" height="20" viewBox="0 0 20 20" fill="none" xmlns="http://www.w3.org/2000/svg">
<path d="M18.3333 7.10001V3.31667C18.3333 2.14167 17.8 1.66667 16.475 1.66667H13.1083C11.7833 1.66667 11.25 2.14167 11.25 3.31667V7.09167C11.25 8.27501 11.7833 8.74167 13.1083 8.74167H16.475C17.8 8.75 18.3333 8.27501 18.3333 7.10001Z" stroke="#0F1B33" stroke-linecap="round" stroke-linejoin="round"/>
<path d="M18.3333 16.475V13.1083C18.3333 11.7833 17.8 11.25 16.475 11.25H13.1083C11.7833 11.25 11.25 11.7833 11.25 13.1083V16.475C11.25 17.8 11.7833 18.3333 13.1083 18.3333H16.475C17.8 18.3333 18.3333 17.8 18.3333 16.475Z" stroke="#0F1B33" stroke-linecap="round" stroke-linejoin="round"/>
<path d="M8.75033 7.10001V3.31667C8.75033 2.14167 8.21699 1.66667 6.89199 1.66667H3.52533C2.20033 1.66667 1.66699 2.14167 1.66699 3.31667V7.09167C1.66699 8.27501 2.20033 8.74167 3.52533 8.74167H6.89199C8.21699 8.75 8.75033 8.27501 8.75033 7.10001Z" stroke="#0F1B33" stroke-linecap="round" stroke-linejoin="round"/>
<path d="M8.75033 16.475V13.1083C8.75033 11.7833 8.21699 11.25 6.89199 11.25H3.52533C2.20033 11.25 1.66699 11.7833 1.66699 13.1083V16.475C1.66699 17.8 2.20033 18.3333 3.52533 18.3333H6.89199C8.21699 18.3333 8.75033 17.8 8.75033 16.475Z" stroke="#0F1B33" stroke-linecap="round" stroke-linejoin="round"/>
</svg>
