<svg width="20" height="20" viewBox="0 0 20 20" fill="none" xmlns="http://www.w3.org/2000/svg">
<path d="M1.66699 17.8333C1.39085 17.8333 1.16699 18.0572 1.16699 18.3333C1.16699 18.6095 1.39085 18.8333 1.66699 18.8333V18.3333V17.8333ZM18.3337 18.8333C18.6098 18.8333 18.8337 18.6095 18.8337 18.3333C18.8337 18.0572 18.6098 17.8333 18.3337 17.8333V18.3333V18.8333ZM10.0003 1.66666L10.186 1.20242C10.032 1.1408 9.8574 1.15961 9.72001 1.25262C9.58262 1.34564 9.50033 1.50074 9.50033 1.66666H10.0003ZM14.167 1.66666H14.667C14.667 1.50074 14.5847 1.34564 14.4473 1.25262C14.3099 1.15961 14.1353 1.1408 13.9813 1.20242L14.167 1.66666ZM14.167 4.16666L14.3527 4.63089C14.5425 4.55496 14.667 4.37111 14.667 4.16666H14.167ZM9.50033 6.66666C9.50033 6.9428 9.72418 7.16666 10.0003 7.16666C10.2765 7.16666 10.5003 6.9428 10.5003 6.66666H10.0003H9.50033ZM3.33366 18.3333H2.83366C2.83366 18.6095 3.05752 18.8333 3.33366 18.8333V18.3333ZM16.667 18.3333V18.8333C16.9431 18.8333 17.167 18.6095 17.167 18.3333H16.667ZM3.81699 9.49999C3.54085 9.49999 3.31699 9.72385 3.31699 9.99999C3.31699 10.2761 3.54085 10.5 3.81699 10.5V9.99999V9.49999ZM16.1837 10.5C16.4598 10.5 16.6837 10.2761 16.6837 9.99999C16.6837 9.72385 16.4598 9.49999 16.1837 9.49999V9.99999V10.5ZM1.66699 18.3333V18.8333H18.3337V18.3333V17.8333H1.66699V18.3333ZM10.0003 1.66666L9.81463 2.13089C11.2672 2.71191 12.9001 2.71191 14.3527 2.13089L14.167 1.66666L13.9813 1.20242C12.7672 1.68807 11.4001 1.68807 10.186 1.20242L10.0003 1.66666ZM14.167 1.66666H13.667V4.16666H14.167H14.667V1.66666H14.167ZM14.167 4.16666L13.9813 3.70242C12.7672 4.18807 11.4001 4.18807 10.186 3.70242L10.0003 4.16666L9.81463 4.63089C11.2672 5.21191 12.9001 5.21191 14.3527 4.63089L14.167 4.16666ZM10.0003 4.16666H10.5003V1.66666H10.0003H9.50033V4.16666H10.0003ZM10.0003 4.16666H9.50033V6.66666H10.0003H10.5003V4.16666H10.0003ZM14.167 6.66666V6.16666H5.83366V6.66666V7.16666H14.167V6.66666ZM5.83366 6.66666V6.16666C4.92325 6.16666 4.14861 6.3946 3.60511 6.9381C3.0616 7.48161 2.83366 8.25625 2.83366 9.16666H3.33366H3.83366C3.83366 8.4104 4.02239 7.93504 4.31221 7.64521C4.60204 7.35538 5.0774 7.16666 5.83366 7.16666V6.66666ZM3.33366 9.16666H2.83366V18.3333H3.33366H3.83366V9.16666H3.33366ZM3.33366 18.3333V18.8333H16.667V18.3333V17.8333H3.33366V18.3333ZM16.667 18.3333H17.167V9.16666H16.667H16.167V18.3333H16.667ZM16.667 9.16666H17.167C17.167 8.25625 16.9391 7.48161 16.3955 6.9381C15.852 6.3946 15.0774 6.16666 14.167 6.16666V6.66666V7.16666C14.9233 7.16666 15.3986 7.35538 15.6884 7.64521C15.9783 7.93504 16.167 8.4104 16.167 9.16666H16.667ZM3.81699 9.99999V10.5H16.1837V9.99999V9.49999H3.81699V9.99999ZM6.65866 9.99999H6.15866V18.3333H6.65866H7.15866V9.99999H6.65866ZM9.99199 9.99999H9.49199V18.3333H9.99199H10.492V9.99999H9.99199ZM13.3253 9.99999H12.8253V18.3333H13.3253H13.8253V9.99999H13.3253Z" fill="#0F1B33"/>
</svg>
