<svg width="20" height="20" viewBox="0 0 20 20" fill="none" xmlns="http://www.w3.org/2000/svg">
<path d="M2.64121 6.20002L9.99953 10.4583L17.3079 6.225M9.99953 18.0083V10.45M18.0079 10.6917V7.64169C18.0079 6.49169 17.1829 5.09171 16.1745 4.53337L11.7245 2.06669C10.7745 1.53335 9.22453 1.53335 8.27453 2.06669L3.82453 4.53337C2.8162 5.09171 1.99121 6.49169 1.99121 7.64169V12.3584C1.99121 13.5084 2.8162 14.9084 3.82453 15.4667L8.27453 17.9334C8.74953 18.2001 9.37453 18.3334 9.99953 18.3334C10.6245 18.3334 11.2495 18.2001 11.7245 17.9334" stroke="#0F1B33" stroke-linecap="round" stroke-linejoin="round"/>
<path d="M14.667 11.9584H14.9587C14.3899 13.6617 14.3899 15.505 14.9587 17.2084H14.667M16.7087 11.9584C17.2774 13.6617 17.2774 15.505 16.7087 17.2084M13.2087 15.75V15.4584C14.912 16.0271 16.7553 16.0271 18.4587 15.4584V15.75M13.2087 13.7084C14.912 13.1396 16.7553 13.1396 18.4587 13.7084M18.7503 14.5834C18.7503 16.1942 17.4445 17.5 15.8337 17.5C14.2228 17.5 12.917 16.1942 12.917 14.5834C12.917 12.9725 14.2228 11.6667 15.8337 11.6667C17.4445 11.6667 18.7503 12.9725 18.7503 14.5834Z" stroke="#0F1B33" stroke-width="0.5" stroke-linecap="round" stroke-linejoin="round"/>
</svg>
