<svg width="21" height="20" viewBox="0 0 21 20" fill="none" xmlns="http://www.w3.org/2000/svg">
<path d="M2.64121 6.20002L9.99953 10.4583L17.3079 6.225M9.99953 18.0083V10.45M18.0079 10.6917V7.64169C18.0079 6.49169 17.1829 5.09171 16.1745 4.53337L11.7245 2.06669C10.7745 1.53335 9.22453 1.53335 8.27453 2.06669L3.82453 4.53337C2.8162 5.09171 1.99121 6.49169 1.99121 7.64169V12.3584C1.99121 13.5084 2.8162 14.9084 3.82453 15.4667L8.27453 17.9334C8.74953 18.2001 9.37453 18.3334 9.99953 18.3334C10.6245 18.3334 11.2495 18.2001 11.7245 17.9334" stroke="#0F1B33" stroke-linecap="round" stroke-linejoin="round"/>
<path d="M13.482 16.1796C13.482 16.4486 13.2639 16.6666 12.9949 16.6666C12.7259 16.6666 12.5078 16.4486 12.5078 16.1796V13.5833C12.5078 13.031 12.9555 12.5833 13.5078 12.5833H14.4795C15.4186 12.5833 15.9786 13.1025 15.9786 13.9658C15.9786 14.5783 15.6403 14.9808 15.1153 15.15L15.6143 15.9459C15.8108 16.2594 15.5854 16.6666 15.2154 16.6666C15.0424 16.6666 14.8833 16.5717 14.8011 16.4194L14.1761 15.2608H13.482V16.1796ZM14.532 13.505H13.482V14.4383H14.5436C14.8761 14.4383 15.0103 14.2516 15.0103 13.9658C15.0103 13.68 14.8703 13.505 14.532 13.505Z" fill="#0F1B33"/>
<path d="M16.3605 13.0733C16.3605 12.8027 16.5799 12.5833 16.8505 12.5833C17.1212 12.5833 17.3405 12.8027 17.3405 13.0733V14.905C17.3405 15.4416 17.5914 15.7683 18.2039 15.7683C18.8397 15.7683 19.073 15.4416 19.073 14.905V13.0704C19.073 12.8014 19.2911 12.5833 19.5601 12.5833C19.8291 12.5833 20.0472 12.8014 20.0472 13.0704V14.9166C20.0472 16.0191 19.3414 16.6958 18.2039 16.6958C17.0664 16.6958 16.3605 16.0191 16.3605 14.9166V13.0733Z" fill="#0F1B33"/>
</svg>
