<svg width="20" height="20" viewBox="0 0 20 20" fill="none" xmlns="http://www.w3.org/2000/svg">
<path d="M2.54883 10.3227V6.72663C2.54883 5.79021 3.12327 4.95606 3.99673 4.62556L10.2447 2.26486C11.2205 1.89501 12.2671 2.61899 12.2671 3.66557V6.65579M5.83315 9.99959H11.6665M14.7773 11.2203C14.4468 11.543 14.2579 12.0072 14.3051 12.503C14.376 13.3528 15.155 13.9745 16.0049 13.9745H17.5V14.9109C17.5 16.5398 16.1701 17.8697 14.5412 17.8697H5.50758C3.87869 17.8697 2.54883 16.5398 2.54883 14.9109V9.61506C2.54883 7.98617 3.87869 6.6563 5.50758 6.6563H14.5412C16.1701 6.6563 17.5 7.98617 17.5 9.61506V10.7482H15.9104C15.4698 10.7482 15.0684 10.9213 14.7773 11.2203ZM18.3332 11.6622V13.337C18.3332 13.7842 17.9757 14.15 17.5208 14.1663H15.9286C15.0512 14.1663 14.247 13.524 14.1739 12.6459C14.1252 12.1337 14.3201 11.654 14.6613 11.3207C14.9619 11.0118 15.3762 10.8329 15.8311 10.8329H17.5208C17.9757 10.8492 18.3332 11.215 18.3332 11.6622Z" stroke="#0F1B33" stroke-linecap="round" stroke-linejoin="round"/>
</svg>
