<svg width="20" height="20" viewBox="0 0 20 20" fill="none" xmlns="http://www.w3.org/2000/svg">
<path d="M14.083 16.6667H5.91635C4.49968 16.6667 3.33301 15.6242 3.33301 14.3417V3.99169C3.33301 2.71669 4.49135 1.66669 5.91635 1.66669H14.083C15.4997 1.66669 16.6663 2.70919 16.6663 3.99169V14.3417C16.6663 15.6242 15.508 16.6667 14.083 16.6667Z" stroke="#0F1B33" stroke-linecap="round" stroke-linejoin="round"/>
<path d="M15.4163 10H4.58301C3.89134 10 3.33301 9.55335 3.33301 9.00002V7.66669C3.33301 7.11335 3.89134 6.66669 4.58301 6.66669H15.4163C16.108 6.66669 16.6663 7.11335 16.6663 7.66669V9.00002C16.6663 9.55335 16.108 10 15.4163 10Z" stroke="#0F1B33" stroke-linecap="round" stroke-linejoin="round"/>
<path d="M7.07908 13.75H7.08657" stroke="#0F1B33" stroke-width="2" stroke-linecap="round" stroke-linejoin="round"/>
<path d="M12.9121 13.75H12.9196" stroke="#0F1B33" stroke-width="2" stroke-linecap="round" stroke-linejoin="round"/>
<path d="M7.0791 17.5L7.08358 17.9167" stroke="#0F1B33" stroke-width="2" stroke-linecap="round" stroke-linejoin="round"/>
<path d="M12.9121 17.5L12.9166 17.9167" stroke="#0F1B33" stroke-width="2" stroke-linecap="round" stroke-linejoin="round"/>
<path d="M7.91699 4.16669H12.0837" stroke="#0F1B33" stroke-linecap="round" stroke-linejoin="round"/>
</svg>
