<?xml version="1.0" standalone="no"?>
<!DOCTYPE svg PUBLIC "-//W3C//DTD SVG 1.1//EN" "http://www.w3.org/Graphics/SVG/1.1/DTD/svg11.dtd" >
<svg xmlns="http://www.w3.org/2000/svg" xmlns:xlink="http://www.w3.org/1999/xlink" version="1.1">
<metadata>
Created by FontForge 20190801 at Mon Oct  2 08:32:21 2023
 By www-data
Copyright (c) 2023 by Vasiliy Shishkin. All rights reserved.
</metadata>
<defs>
<font id="AASteticaRegular" horiz-adv-x="593" >
  <font-face 
    font-family="AASteticaRegular"
    font-weight="400"
    font-stretch="normal"
    units-per-em="1000"
    panose-1="2 0 5 3 3 0 0 2 0 4"
    ascent="800"
    descent="-200"
    x-height="528"
    cap-height="700"
    bbox="-27 -199 986 898"
    underline-thickness="50"
    underline-position="-100"
    unicode-range="U+000D-2116"
  />
<missing-glyph horiz-adv-x="0" 
 />
    <glyph glyph-name=".notdef" horiz-adv-x="0" 
 />
    <glyph glyph-name=".null" horiz-adv-x="0" 
 />
    <glyph glyph-name="nonmarkingreturn" horiz-adv-x="333" 
 />
    <glyph glyph-name="NULL" horiz-adv-x="0" 
 />
    <glyph glyph-name="NULL" horiz-adv-x="0" 
 />
    <glyph glyph-name="CR" unicode="&#xd;" horiz-adv-x="250" 
 />
    <glyph glyph-name="space" unicode=" " horiz-adv-x="250" 
 />
    <glyph glyph-name="exclam" unicode="!" horiz-adv-x="296" 
d="M148 -4q-23 0 -38 16t-15 39t15 39t38 16t38 -16t15 -39t-15 -39t-38 -16zM124 211l-23 489h47h46l-23 -489h-23h-24z" />
    <glyph glyph-name="quotedbl" unicode="&#x22;" horiz-adv-x="312" 
d="M197 466l-22 235h87l-21 -235h-44zM72 465l-22 235h86l-20 -235h-44z" />
    <glyph glyph-name="numbersign" unicode="#" horiz-adv-x="613" 
d="M223 255h142l33 170h-142zM93 -54l49 252h-92v57h103l33 170h-136v58h148l42 217h69l-42 -217h143l42 217h69l-42 -217h84v-58h-95l-34 -170h129v-57h-140l-49 -252h-69l49 252h-143l-49 -252h-69z" />
    <glyph glyph-name="dollar" unicode="$" horiz-adv-x="585" 
d="M264 402v228q-136 -13 -140 -107q-1 -28 11 -49.5t35.5 -35.5t43.5 -21t50 -15zM330 69q129 13 145 97q7 33 -3.5 58.5t-36 42t-48.5 25.5t-57 18v-241zM264 -74v67q-61 3 -122.5 22t-101.5 45l33 66q93 -51 191 -59v259q-37 10 -64 19t-58.5 25.5t-51 36.5t-32 50.5
t-10.5 68.5q6 164 216 179v69h66v-68q100 -4 192 -40l-31 -68q-87 28 -161 33v-245q55 -13 93 -28t74 -41.5t49.5 -68.5t3.5 -98q-13 -71 -72.5 -109t-147.5 -46v-69h-66z" />
    <glyph glyph-name="percent" unicode="%" horiz-adv-x="626" 
d="M143 -11l-44 24l389 695l44 -24zM148 702q51 0 84.5 -33.5t33.5 -84.5q0 -50 -34 -83.5t-84 -33.5t-84 33.5t-34 83.5q0 51 33.5 84.5t84.5 33.5zM148 651q-30 0 -49 -18.5t-19 -48.5q0 -29 19 -47.5t49 -18.5q29 0 48.5 18.5t19.5 47.5q0 30 -19 48.5t-49 18.5zM479 229
q50 0 83.5 -33t33.5 -84q0 -50 -33.5 -83.5t-83.5 -33.5q-51 0 -85 33.5t-34 83.5q0 51 33.5 84t85.5 33zM479 179q-30 0 -49.5 -18.5t-19.5 -48.5t19.5 -48.5t49.5 -18.5t49 18.5t19 48.5t-19 48.5t-49 18.5z" />
    <glyph glyph-name="ampersand" unicode="&#x26;" horiz-adv-x="654" 
d="M232 438q103 56 106 108q3 38 -18 64.5t-62 26.5q-39 -1 -59.5 -23t-20.5 -59q0 -57 54 -117zM444 130q-143 130 -228 218q-51 -30 -73.5 -63t-20.5 -85q3 -63 54.5 -99t122.5 -34q85 2 145 63zM664 30l-60 -48q0 1 -106 98q-83 -80 -197 -82q-103 -3 -177 52t-78 147
q-6 130 120 204q-64 76 -64 154q-1 65 41.5 108t113.5 44q75 1 119 -48t39 -119q-4 -51 -39 -87t-94 -68q63 -65 205 -196q28 60 29 135h77q-2 -114 -50 -187q96 -88 121 -107z" />
    <glyph glyph-name="quotesingle" unicode="'" horiz-adv-x="186" 
d="M71 465l-21 235h86l-21 -235h-44z" />
    <glyph glyph-name="parenleft" unicode="(" horiz-adv-x="316" 
d="M224 -176q-80 87 -122 207t-41 252q-1 131 41 251t122 207l52 -32q-68 -79 -102.5 -191.5t-32.5 -234.5q-2 -123 32.5 -235.5t102.5 -191.5z" />
    <glyph glyph-name="parenright" unicode=")" horiz-adv-x="317" 
d="M93 -176l-53 32q69 79 103.5 191t32.5 236q2 123 -32.5 235t-103.5 191l53 32q80 -87 122 -207t41 -251q1 -132 -41 -252t-122 -207z" />
    <glyph glyph-name="asterisk" unicode="*" horiz-adv-x="451" 
d="M191 332l15 161l-132 -93l-34 59l146 68l-146 67l34 59l132 -93l-16 161h69l-15 -161l132 94l34 -60l-146 -67l147 -67l-35 -60l-132 93l16 -161h-69z" />
    <glyph glyph-name="plus" unicode="+" horiz-adv-x="455" 
d="M196 135v166h-166v63h166v166h63v-166h166v-63h-166v-166h-63z" />
    <glyph glyph-name="comma" unicode="," horiz-adv-x="239" 
d="M69 -146l-39 12l59 236h90z" />
    <glyph glyph-name="hyphen" unicode="-" horiz-adv-x="353" 
d="M40 256v78h273v-78h-273z" />
    <glyph glyph-name="period" unicode="." horiz-adv-x="226" 
d="M113 -4q-23 0 -38 16t-15 39t15 39t38 16t38 -16t15 -39t-15 -39t-38 -16z" />
    <glyph glyph-name="slash" unicode="/" horiz-adv-x="334" 
d="M0 -122l276 822h58l-276 -822h-58z" />
    <glyph glyph-name="zero" unicode="0" horiz-adv-x="604" 
d="M302 66q41 0 72 20.5t49 50.5t29.5 70t15.5 74.5t4 68.5q0 37 -3 70.5t-14 74.5t-28.5 70t-49.5 49t-75 20q-53 0 -89 -28.5t-52.5 -75.5t-22.5 -90t-6 -90q0 -34 4 -68.5t15.5 -74.5t29.5 -70t49 -50.5t72 -20.5zM302 -6q-69 0 -120 34t-77 90t-38 114t-12 118
q0 50 6 95.5t23 94.5t43.5 84.5t71.5 58.5t103 23t103 -23t71.5 -58.5t43.5 -84.5t23 -94.5t6 -95.5q0 -60 -12 -118t-38 -114t-77 -90t-120 -34z" />
    <glyph glyph-name="one" unicode="1" horiz-adv-x="364" 
d="M193 0v603l-138 -123l-45 47l183 173h76v-700h-76z" />
    <glyph glyph-name="two" unicode="2" horiz-adv-x="494" 
d="M37 0v66q17 17 71 68.5t85 84.5t72.5 82t63.5 95.5t27 90.5q8 69 -28.5 109.5t-110.5 41.5q-76 0 -143 -38l-39 61q86 49 183 49q108 -1 167 -65.5t48 -165.5q-4 -37 -18.5 -74.5t-42 -77t-50 -69t-63 -70t-60 -59.5t-60.5 -57h305v-72h-407z" />
    <glyph glyph-name="three" unicode="3" horiz-adv-x="495" 
d="M211 -5q-94 -2 -181 46l31 66q78 -43 150 -41q66 1 110.5 33t45.5 97q2 71 -48 107.5t-124 36.5h-56v68h45q66 0 114 31t48 90q0 95 -132 101q-83 4 -141 -26l-27 65q72 36 171 33q89 -4 148 -47.5t58 -123.5q0 -47 -26.5 -86.5t-78.5 -62.5v-3q61 -21 94 -68t32 -115
q-1 -96 -69 -148t-164 -53z" />
    <glyph glyph-name="four" unicode="4" horiz-adv-x="537" 
d="M107 222h244v392h-7zM351 0v150h-321v75l290 475h108v-478h69v-72h-69v-150h-77z" />
    <glyph glyph-name="five" unicode="5" horiz-adv-x="506" 
d="M242 -6q-107 -3 -187 48l34 58q71 -42 155 -37q63 6 103.5 43t40.5 106q1 68 -33.5 104t-92.5 42q-77 9 -151 -27l-44 31l52 338h298v-72h-236l-35 -216q55 16 109 13q93 -5 152 -61t58 -153q-2 -91 -63.5 -152t-159.5 -65z" />
    <glyph glyph-name="six" unicode="6" horiz-adv-x="563" 
d="M291 374q-68 0 -113 -44.5t-45 -109.5t43 -109.5t110 -44.5q68 0 111 44.5t43 110.5q0 65 -41 109t-108 44zM294 447q98 0 161 -65t63 -161q0 -95 -66 -160t-166 -65q-88 0 -145 46t-75.5 116.5t-4.5 154.5q19 110 91 221t160 188l62 -42q-149 -132 -203 -261l3 -3
q52 31 120 31z" />
    <glyph glyph-name="seven" unicode="7" horiz-adv-x="493" 
d="M175 -16l-72 23l264 621h-327v72h413v-63z" />
    <glyph glyph-name="eight" unicode="8" horiz-adv-x="553" 
d="M276 68q67 0 108.5 39.5t41.5 103.5q0 63 -44.5 106.5t-105.5 43.5q-60 0 -104.5 -43.5t-44.5 -106.5q0 -64 41 -103.5t108 -39.5zM276 421q47 0 77 31t30 78t-28.5 74t-78.5 27q-49 0 -78 -27t-29 -74t30.5 -78t76.5 -31zM276 -4q-99 0 -162.5 61t-63.5 154q0 61 31 109
t84 75q-73 48 -73 135q0 76 51.5 124.5t132.5 48.5t132.5 -48.5t51.5 -124.5q0 -86 -72 -135q53 -27 84 -75t31 -109q0 -93 -64 -154t-163 -61z" />
    <glyph glyph-name="nine" unicode="9" horiz-adv-x="562" 
d="M270 325q68 0 113 44t45 109q0 66 -42.5 110t-110.5 44t-110.5 -44.5t-42.5 -110.5q0 -65 40.5 -108.5t107.5 -43.5zM267 253q-98 0 -160 64.5t-62 159.5q0 97 65 161.5t165 64.5q89 0 146 -46t75.5 -116.5t4.5 -155.5q-19 -110 -91 -220t-160 -188l-63 43
q147 127 204 260l-3 3q-52 -30 -121 -30z" />
    <glyph glyph-name="colon" unicode=":" horiz-adv-x="227" 
d="M113 -4q-23 0 -38 16t-15 39t15 39t38 16q24 0 39 -16t15 -39t-15 -39t-39 -16zM113 426q-23 0 -38 15.5t-15 38.5t15 39t38 16q24 0 39 -15.5t15 -39.5q0 -23 -15 -38.5t-39 -15.5z" />
    <glyph glyph-name="semicolon" unicode=";" horiz-adv-x="238" 
d="M68 -146l-38 12l59 236h89zM118 426q-23 0 -38 15.5t-15 38.5t15.5 39t37.5 16q24 0 39 -15.5t15 -39.5q0 -23 -15 -38.5t-39 -15.5z" />
    <glyph glyph-name="less" unicode="&#x3c;" horiz-adv-x="461" 
d="M411 91l-361 186v79l361 186v-75l-283 -151l283 -150v-75z" />
    <glyph glyph-name="equal" unicode="=" horiz-adv-x="496" 
d="M50 213v64h396v-64h-396zM50 375v62h396v-62h-396z" />
    <glyph glyph-name="greater" unicode="&#x3e;" horiz-adv-x="462" 
d="M50 91v75l283 150l-283 151v75l362 -186v-79z" />
    <glyph glyph-name="question" unicode="?" horiz-adv-x="415" 
d="M151 106q22 0 37 -16t15 -38q0 -24 -14.5 -40t-37.5 -16q-24 0 -39 16t-15 40q0 22 15.5 38t38.5 16zM176 288l-3 -76h-52v114q31 14 46 22t43.5 26.5t43.5 36t28 45.5t14 61q3 63 -38 91.5t-105 29.5q-57 1 -112 -17l-11 63q53 18 124 18q88 0 149.5 -48t61.5 -135
q0 -80 -52.5 -139t-136.5 -92z" />
    <glyph glyph-name="at" unicode="@" horiz-adv-x="861" 
d="M380 98q26 -3 59 13t56 52q2 24 3 31l43 221q-88 17 -154.5 -22t-81.5 -138q-11 -72 10.5 -112t64.5 -45zM440 -137q-175 1 -288 109t-111 278q2 172 118 286t291 112q170 -2 275.5 -115t93.5 -279q-6 -90 -63.5 -158.5t-146.5 -65.5q-73 3 -104 61q-56 -54 -133 -49
q-70 5 -110 64.5t-23 158.5q12 74 48.5 123.5t89 70.5t114.5 20.5t128 -21.5l-53 -270q-21 -100 47 -104q64 -4 105.5 50t47.5 121q11 144 -79.5 242t-238.5 99q-151 1 -251 -97t-102 -246q-2 -149 94 -242t249 -95q65 -2 131.5 14.5t112.5 50.5l27 -41q-108 -77 -269 -77z
" />
    <glyph glyph-name="A" unicode="A" horiz-adv-x="697" 
d="M203 259h291l-144 358h-3zM15 0l284 700h98l285 -700h-83l-75 186h-351l-75 -186h-83z" />
    <glyph glyph-name="B" unicode="B" horiz-adv-x="605" 
d="M357 0h-262v699h224q81 0 130.5 -53.5t50.5 -134.5q0 -37 -16.5 -75t-46.5 -62q57 -18 90 -65.5t32 -108.5q0 -90 -56 -145t-146 -55zM349 324h-177v-252h185q59 0 92.5 34t33.5 94q0 59 -37.5 91.5t-96.5 32.5zM319 627h-147v-231h141q53 0 81.5 31t28.5 84
q0 49 -28 82.5t-76 33.5z" />
    <glyph glyph-name="C" unicode="C" horiz-adv-x="628" 
d="M413 -6q-162 0 -260 100.5t-98 255.5t98 255t260 100q98 2 175 -23l-18 -72q-77 23 -154 23q-131 -1 -207 -79.5t-76 -203.5q0 -126 76 -204.5t207 -79.5q77 0 154 23l18 -72q-82 -25 -175 -23z" />
    <glyph glyph-name="D" unicode="D" horiz-adv-x="702" 
d="M95 0v700h185q172 0 269.5 -91t97.5 -259t-97.5 -259t-269.5 -91h-185zM172 73h116q132 0 207.5 74.5t75.5 202.5q0 127 -75.5 201.5t-207.5 74.5h-116v-553z" />
    <glyph glyph-name="E" unicode="E" horiz-adv-x="571" 
d="M95 0v700h426v-74h-349v-224h298v-73h-298v-256h349v-73h-426z" />
    <glyph glyph-name="F" unicode="F" horiz-adv-x="527" 
d="M95 0v700h392v-74h-315v-224h264v-73h-264v-329h-77z" />
    <glyph glyph-name="G" unicode="G" horiz-adv-x="735" 
d="M406 -5q-157 1 -253 102.5t-97 252.5q-2 155 95 253.5t261 99.5q124 3 230 -42l-26 -68q-100 43 -203 40q-125 -3 -203 -75t-77 -207q0 -121 74 -202t199 -82q118 0 182 51v197h-237v73h314v-300q-97 -93 -259 -93z" />
    <glyph glyph-name="H" unicode="H" horiz-adv-x="720" 
d="M95 0v700h77v-307h377v307h76v-700h-76v320h-377v-320h-77z" />
    <glyph glyph-name="I" unicode="I" horiz-adv-x="267" 
d="M95 0v700h77v-700h-77z" />
    <glyph glyph-name="J" unicode="J" horiz-adv-x="462" 
d="M190 -5q-110 -2 -180 56l39 63q60 -45 145 -43q46 2 75.5 31.5t29.5 85.5v512h78v-512q0 -86 -53.5 -138.5t-133.5 -54.5z" />
    <glyph glyph-name="K" unicode="K" horiz-adv-x="629" 
d="M95 0v700h77v-299h75l257 299h100l-289 -332l314 -368h-99l-282 331h-76v-331h-77z" />
    <glyph glyph-name="L" unicode="L" horiz-adv-x="548" 
d="M95 0v700h77v-627h356v-73h-433z" />
    <glyph glyph-name="M" unicode="M" horiz-adv-x="915" 
d="M80 0l68 700h99l190 -536q6 -20 16 -61h7q12 46 18 63l189 534h99l69 -700h-78l-44 515q-3 48 -2 91h-6l-214 -606h-67l-214 606h-5q0 -54 -4 -91l-44 -515h-77z" />
    <glyph glyph-name="N" unicode="N" horiz-adv-x="763" 
d="M95 0v700h95l404 -586v586h74v-700h-84l-414 600v-600h-75z" />
    <glyph glyph-name="O" unicode="O" horiz-adv-x="782" 
d="M391 66q122 0 190.5 82t68.5 202t-68.5 201.5t-190.5 81.5t-190 -81.5t-68 -201.5q0 -121 68 -202.5t190 -81.5zM391 -8q-154 0 -245 103.5t-91 254.5t91 254t245 103t245 -103t91 -254q0 -152 -91 -255t-245 -103z" />
    <glyph glyph-name="P" unicode="P" horiz-adv-x="632" 
d="M95 0v700h264q98 0 158 -62t59 -155q0 -92 -60 -155t-157 -63h-187v-265h-77zM172 338h187q65 0 103 42t38 103q0 62 -38 102.5t-103 40.5h-187v-288z" />
    <glyph glyph-name="Q" unicode="Q" horiz-adv-x="781" 
d="M391 66q122 0 190 81.5t68 202.5q0 120 -68 201.5t-190 81.5q-121 0 -190 -82t-69 -201q0 -120 68.5 -202t190.5 -82zM688 -166l-441 190q-89 38 -140.5 129.5t-51.5 196.5q0 151 91 254t245 103q102 0 180 -52t116.5 -132.5t38.5 -172.5q0 -139 -69 -231.5t-196 -115.5
v-3l259 -96z" />
    <glyph glyph-name="R" unicode="R" horiz-adv-x="649" 
d="M172 360h187q66 0 103 39.5t36 93.5q0 54 -36.5 93t-102.5 39h-187v-265zM95 -2v700h264q102 0 158.5 -60.5t56.5 -144.5q0 -65 -40 -119.5t-108 -74.5l203 -301h-89l-191 289h-177v-289h-77z" />
    <glyph glyph-name="S" unicode="S" horiz-adv-x="584" 
d="M290 -7q-66 -1 -135.5 18.5t-114.5 47.5l33 66q107 -59 216 -59q72 0 123.5 24t61.5 75q16 72 -50 109q-27 15 -60 25.5t-79.5 21.5t-69.5 18q-173 51 -167 187q8 182 262 180q113 -1 211 -41l-31 -68q-94 34 -183 34q-178 0 -183 -108q-2 -79 107 -113q21 -6 74.5 -18
t93 -24.5t73.5 -32.5q101 -60 78 -186q-15 -79 -86.5 -116.5t-173.5 -39.5z" />
    <glyph glyph-name="T" unicode="T" horiz-adv-x="578" 
d="M250 0v626h-230v74h538v-74h-230v-626h-78z" />
    <glyph glyph-name="U" unicode="U" horiz-adv-x="721" 
d="M361 -7q-128 0 -202 70t-74 193v444h77v-441q1 -94 51.5 -143t147.5 -49t148 49t51 143v441h76v-444q0 -123 -73.5 -193t-201.5 -70z" />
    <glyph glyph-name="V" unicode="V" horiz-adv-x="671" 
d="M279 0l-264 700h83l234 -627h8l234 627h82l-264 -700h-113z" />
    <glyph glyph-name="W" unicode="W" horiz-adv-x="919" 
d="M195 0l-160 700h78l121 -533q12 -46 16 -86h7q9 43 23 86l142 447h74l143 -447q15 -52 22 -86h7q4 40 16 86l121 533h79l-161 -700h-100l-141 434q-13 38 -20 82h-5q-11 -55 -21 -82l-141 -434h-100z" />
    <glyph glyph-name="X" unicode="X" horiz-adv-x="628" 
d="M20 0l253 350l-253 350h96l198 -291l198 291h96l-253 -350l253 -350h-96l-198 292l-198 -292h-96z" />
    <glyph glyph-name="Y" unicode="Y" horiz-adv-x="592" 
d="M257 0v304l-247 396h88l198 -326l197 326h89l-248 -396v-304h-77z" />
    <glyph glyph-name="Z" unicode="Z" horiz-adv-x="614" 
d="M40 0v73l440 553h-440v74h534v-74l-439 -553h439v-73h-534z" />
    <glyph glyph-name="bracketleft" unicode="[" horiz-adv-x="284" 
d="M80 -148v848h164v-56h-95v-736h95v-56h-164z" />
    <glyph glyph-name="backslash" unicode="\" horiz-adv-x="334" 
d="M276 -122l-276 822h59l275 -822h-58z" />
    <glyph glyph-name="bracketright" unicode="]" horiz-adv-x="284" 
d="M40 -148v56h95v736h-95v56h164v-848h-164z" />
    <glyph glyph-name="asciicircum" unicode="^" horiz-adv-x="436" 
d="M40 385l136 315h84l136 -315h-67l-111 251l-113 -251h-65z" />
    <glyph glyph-name="underscore" unicode="_" horiz-adv-x="450" 
d="M-20 -171v52h490v-52h-490z" />
    <glyph glyph-name="grave" unicode="`" horiz-adv-x="219" 
d="M138 455l-108 245h94l65 -233z" />
    <glyph glyph-name="a" unicode="a" 
d="M454 132v264q-51 71 -159 71q-88 0 -132 -58t-44 -145q0 -88 44 -146t132 -58q109 0 159 72zM50 264q0 114 64.5 191t180.5 77q46 0 91.5 -15.5t72.5 -41.5l6 52h58v-527h-58l-6 52q-27 -25 -73 -41t-91 -16q-116 0 -180.5 77.5t-64.5 191.5z" />
    <glyph glyph-name="b" unicode="b" 
d="M293 60q87 0 133.5 58.5t46.5 144.5q0 88 -44.5 146t-131.5 58q-49 0 -91 -18.5t-66 -53.5l-1 -264q52 -71 154 -71zM293 -5q-97 0 -159 56l-7 -51h-57v700h69v-220q66 52 158 52q116 0 181 -77.5t65 -191.5q0 -113 -66.5 -190.5t-183.5 -77.5z" />
    <glyph glyph-name="c" unicode="c" horiz-adv-x="507" 
d="M315 -5q-120 -1 -192.5 74.5t-72.5 194.5q0 120 70.5 195t194.5 74q96 -2 162 -40l-31 -57q-53 30 -129 32q-96 1 -147 -55t-51 -149q0 -92 52.5 -148.5t145.5 -55.5q73 0 129 32l31 -57q-66 -38 -162 -40z" />
    <glyph glyph-name="d" unicode="d" 
d="M295 60q109 0 158 71v264q-25 35 -67.5 53.5t-90.5 18.5q-88 0 -132 -58t-44 -146q0 -87 44 -145t132 -58zM295 -5q-117 0 -181 77t-64 191q0 115 64 192t181 77q94 0 158 -52v220h70v-700h-58l-7 51q-26 -25 -71.5 -40.5t-91.5 -15.5z" />
    <glyph glyph-name="e" unicode="e" horiz-adv-x="573" 
d="M121 296h336q-10 171 -164 171q-79 0 -122 -47t-50 -124zM314 -4q-126 0 -195 73.5t-69 193.5q0 115 63 192t181 77q120 0 177.5 -76.5t55.5 -192.5v-32h-406q8 -81 57.5 -126t135.5 -45q85 0 159 32l18 -62q-80 -34 -177 -34z" />
    <glyph glyph-name="f" unicode="f" horiz-adv-x="318" 
d="M101 0v463h-81v65h72q-16 43 -16 74q1 52 38 80.5t94 28.5q58 0 110 -28l-27 -56q-41 23 -79 23q-28 2 -49 -12t-22 -40q0 -38 21 -70h135v-65h-126v-463h-70z" />
    <glyph glyph-name="g" unicode="g" horiz-adv-x="512" 
d="M257 60q-41 0 -75.5 -7t-63 -30.5t-28.5 -61.5q0 -37 28 -60t62 -29.5t75 -6.5q29 0 55.5 4t53.5 13.5t43 30t16 48.5q0 38 -28.5 61.5t-63 30.5t-74.5 7zM341 355q0 50 -31 81.5t-85 31.5t-84.5 -31.5t-30.5 -81.5t31 -82t84 -32q54 0 85 32t31 82zM225 533
q60 0 109 -31h156v-61h-101q21 -39 21 -86q0 -76 -51 -127t-134 -51q-47 0 -87 19q-21 -17 -20.5 -45t20.5 -47q51 20 118 20q96 0 166 -43t70 -120q0 -56 -37.5 -94t-88.5 -52t-111 -14q-61 0 -111 14t-87 51.5t-37 94.5q0 70 61 113q-27 37 -27 83t31 79q-44 49 -44 119
q0 76 51 127t133 51z" />
    <glyph glyph-name="h" unicode="h" horiz-adv-x="589" 
d="M70 0v700h69v-224q88 57 183 54q99 -1 148 -57.5t49 -152.5v-320h-70v320q0 141 -129 146q-46 1 -97.5 -20t-83.5 -53v-393h-69z" />
    <glyph glyph-name="i" unicode="i" horiz-adv-x="237" 
d="M118 602q-21 0 -34.5 14.5t-13.5 35.5t13.5 35.5t34.5 14.5t35 -14.5t14 -35.5t-14 -35.5t-35 -14.5zM84 0v528h69v-528h-69z" />
    <glyph glyph-name="j" unicode="j" horiz-adv-x="240" 
d="M121 602q-21 0 -35 14.5t-14 35.5t14 35.5t35 14.5t35 -14.5t14 -35.5t-14 -35.5t-35 -14.5zM-10 -173v65q56 2 76 36.5t20 91.5v507h69v-507q0 -192 -165 -193z" />
    <glyph glyph-name="k" unicode="k" horiz-adv-x="511" 
d="M70 0v700h69v-375h64l189 203h88l-217 -233l228 -295h-86l-203 259h-63v-259h-69z" />
    <glyph glyph-name="l" unicode="l" horiz-adv-x="209" 
d="M70 0v700h69v-700h-69z" />
    <glyph glyph-name="m" unicode="m" horiz-adv-x="925" 
d="M70 0v528h61l6 -52q83 57 174 55q98 -2 150 -80q40 36 95 58.5t105 21.5q95 -1 144.5 -56.5t49.5 -147.5v-327h-69v318q0 64 -32.5 105.5t-98.5 42.5q-42 0 -88.5 -22t-77.5 -56q8 -35 8 -70v-318h-69v318q0 65 -31.5 106.5t-97.5 41.5q-41 0 -85.5 -19.5t-74.5 -48.5
v-398h-69z" />
    <glyph glyph-name="n" unicode="n" horiz-adv-x="589" 
d="M70 0v528h63l7 -55q89 60 183 57q99 -1 147.5 -57.5t48.5 -152.5v-320h-70v320q0 141 -131 146q-46 1 -96 -20t-82 -53v-393h-70z" />
    <glyph glyph-name="o" unicode="o" horiz-adv-x="610" 
d="M305 60q89 0 137.5 59t48.5 145t-48.5 144.5t-137.5 58.5q-88 0 -137 -59t-49 -144q0 -86 49 -145t137 -59zM305 -4q-117 0 -186 77.5t-69 190.5t69 190.5t186 77.5t186 -77.5t69 -190.5t-69 -190.5t-186 -77.5z" />
    <glyph glyph-name="p" unicode="p" 
d="M293 61q88 0 134 58.5t46 145.5q0 88 -41 145t-127 57q-46 0 -94.5 -22t-71.5 -51v-261q51 -72 154 -72zM70 -172v700h58l6 -54q69 59 171 59q116 0 177 -76.5t61 -191.5q0 -114 -66.5 -191.5t-183.5 -77.5q-88 0 -154 52v-220h-69z" />
    <glyph glyph-name="q" unicode="q" 
d="M299 61q104 0 154 72l1 261q-24 29 -72 51t-94 22q-87 0 -128 -57t-41 -145q0 -87 46 -145.5t134 -58.5zM454 -172v220q-66 -52 -155 -52q-117 0 -183 77.5t-66 191.5q0 115 61 191.5t177 76.5q102 0 172 -59l5 54h58v-700h-69z" />
    <glyph glyph-name="r" unicode="r" horiz-adv-x="387" 
d="M70 0v528h65l3 -70q62 74 148 73q56 0 101 -23l-27 -60q-36 18 -77 18q-48 -1 -85.5 -30t-58.5 -73v-363h-69z" />
    <glyph glyph-name="s" unicode="s" horiz-adv-x="461" 
d="M225 -4q-113 3 -195 59l33 57q92 -49 161 -50q116 -4 126 69q6 47 -26 68q-22 16 -96 36.5t-100 34.5q-75 40 -75 115q0 71 53.5 108.5t132.5 38.5q86 0 168 -42l-29 -58q-65 34 -134 34q-50 1 -85.5 -17.5t-36.5 -60.5q-1 -37 32 -58q29 -18 99 -36t100 -35
q77 -43 66 -136q-9 -66 -63.5 -97t-130.5 -30z" />
    <glyph glyph-name="t" unicode="t" horiz-adv-x="381" 
d="M266 -4q-77 0 -119 47t-42 121v299h-85v65h85v99l70 21v-120h122v-65h-122v-299q0 -102 91 -102q44 0 73 11l22 -59q-54 -18 -95 -18z" />
    <glyph glyph-name="u" unicode="u" horiz-adv-x="589" 
d="M275 -2q-100 1 -152.5 58t-52.5 152v320h70v-320q0 -140 135 -146q45 -1 94 20t81 53v393h69v-528h-62l-7 55q-82 -60 -175 -57z" />
    <glyph glyph-name="v" unicode="v" horiz-adv-x="548" 
d="M233 0l-213 528h74l177 -445h7l175 445h75l-213 -528h-82z" />
    <glyph glyph-name="w" unicode="w" horiz-adv-x="806" 
d="M185 0l-155 528h74l122 -443h8l140 443h59l139 -443h9l122 443h73l-153 -528h-85l-132 425h-5l-133 -425h-83z" />
    <glyph glyph-name="x" unicode="x" horiz-adv-x="503" 
d="M10 0l199 276l-182 252h85l139 -199l140 199h85l-182 -252l199 -276h-85l-157 221l-157 -221h-84z" />
    <glyph glyph-name="y" unicode="y" horiz-adv-x="545" 
d="M105 -181l-1 65q95 -7 130 80l15 38l-229 526h74l190 -435l167 435h74l-226 -586q-53 -133 -194 -123z" />
    <glyph glyph-name="z" unicode="z" horiz-adv-x="506" 
d="M40 0v51l332 412h-319v65h413v-54l-330 -409h325v-65h-421z" />
    <glyph glyph-name="braceleft" unicode="{" horiz-adv-x="328" 
d="M221 -174q-54 0 -83 33.5t-29 86.5v228q0 31 -12 47t-47 16v55q35 0 47 15.5t12 46.5v229q0 53 29 86.5t83 33.5h57v-57h-50q-29 0 -39.5 -17.5t-10.5 -51.5v-223q0 -57 -45 -90q45 -34 45 -90v-222q0 -34 10.5 -51.5t39.5 -17.5h50v-57h-57z" />
    <glyph glyph-name="bar" unicode="|" horiz-adv-x="252" 
d="M100 -122v822h52v-822h-52z" />
    <glyph glyph-name="braceright" unicode="}" horiz-adv-x="329" 
d="M50 -174v57h50q29 0 40 17.5t11 51.5v222q0 57 44 90q-44 33 -44 90v223q0 34 -11 51.5t-40 17.5h-50v57h57q54 0 83 -33.5t29 -86.5v-229q0 -31 12.5 -46.5t47.5 -15.5v-55q-35 0 -47.5 -16t-12.5 -47v-228q0 -53 -29 -86.5t-83 -33.5h-57z" />
    <glyph glyph-name="asciitilde" unicode="~" horiz-adv-x="417" 
d="M284 239q-33 1 -79 22t-70 22q-45 2 -62 -36l-43 25q30 66 103 64q33 0 79 -21t70 -22q19 -1 36.5 9t24.5 27l44 -25q-14 -32 -41 -49t-62 -16z" />
    <glyph glyph-name="exclamdown" unicode="&#xa1;" horiz-adv-x="276" 
d="M137 594q-22 0 -37 16t-15 39t14.5 38.5t37.5 15.5q24 0 39 -15.5t15 -38.5t-15 -39t-39 -16zM91 0l23 488h23h24l23 -488h-47h-46z" />
    <glyph glyph-name="section" unicode="&#xa7;" horiz-adv-x="444" 
d="M295 140q34 51 37 95q2 30 -7 53t-31.5 40.5t-39 26t-49.5 23.5q-47 22 -62 30q-37 -42 -41 -93q-1 -30 8 -53t31 -40.5t38.5 -26t49.5 -23.5q41 -17 66 -32zM209 -165q-82 -2 -149 42l24 50q59 -38 129 -36q43 1 73.5 20t38.5 51q18 66 -41 112q-24 18 -79 42
q-35 15 -51.5 23t-43.5 26.5t-39.5 37t-22 48.5t-7.5 67q3 69 53 125q-72 72 -31 171q19 43 60 65t92 22q83 2 150 -41l-25 -51q-59 39 -129 36q-68 0 -90 -51q-31 -71 29 -118q16 -12 80 -42q34 -15 51 -23t43.5 -26.5t39 -37t22 -48.5t7.5 -67q-3 -60 -48 -130
q70 -70 39 -158q-37 -107 -175 -109z" />
    <glyph glyph-name="copyright" unicode="&#xa9;" horiz-adv-x="827" 
d="M429 148q-91 -2 -146.5 53t-55.5 148t53.5 147t148.5 53q70 0 121 -30l-25 -52q-42 24 -96 24q-72 1 -107 -36t-35 -106t36.5 -107.5t105.5 -37.5q54 0 96 24l25 -50q-51 -30 -121 -30zM413 49q125 0 212.5 87.5t87.5 212.5q0 124 -88 211.5t-212 87.5t-211.5 -87.5
t-87.5 -211.5t87.5 -212t211.5 -88zM413 -5q-146 0 -249.5 103.5t-103.5 250.5q0 146 103.5 250t249.5 104q147 0 250.5 -104t103.5 -250q0 -147 -103.5 -250.5t-250.5 -103.5z" />
    <glyph glyph-name="guillemotleft" unicode="&#xab;" horiz-adv-x="495" 
d="M416 77l-188 228l186 226l41 -26l-123 -200l123 -201zM257 52l-217 253l216 252l44 -28l-155 -224l155 -225z" />
    <glyph glyph-name="registered" unicode="&#xae;" horiz-adv-x="787" 
d="M393 49q125 0 212.5 87.5t87.5 212.5q0 124 -88 211.5t-212 87.5t-212 -87.5t-88 -211.5t88 -212t212 -88zM393 -5q-146 0 -249.5 103.5t-103.5 250.5q0 146 103.5 250t249.5 104q147 0 250.5 -104t103.5 -250q0 -147 -103.5 -250.5t-250.5 -103.5zM329 362h81
q74 0 74 64q0 29 -18 46.5t-47 17.5h-90v-128zM274 152v392h139q57 0 92 -31.5t34 -85.5q0 -36 -19 -66t-52 -42l106 -167h-64l-100 156h-81v-156h-55z" />
    <glyph glyph-name="degree" unicode="&#xb0;" horiz-adv-x="314" 
d="M158 534q29 0 49.5 20.5t20.5 49.5q0 30 -20.5 50.5t-49.5 20.5t-50 -20.5t-21 -50.5q0 -29 21 -49.5t50 -20.5zM158 487q-49 0 -83.5 34.5t-34.5 82.5q0 49 34.5 83t83.5 34q48 0 82 -34t34 -83q0 -48 -34 -82.5t-82 -34.5z" />
    <glyph glyph-name="plusminus" unicode="&#xb1;" horiz-adv-x="495" 
d="M50 90v64h395v-64h-395zM215 187v166h-165v62h165v166h64v-166h166v-62h-166v-166h-64z" />
    <glyph glyph-name="twosuperior" unicode="&#xb2;" horiz-adv-x="240" 
d="M43 497v34q31 25 46.5 38t35.5 38t20 44q0 27 -34 31q-33 0 -55 -12l-16 37q37 19 80 16q81 -4 72 -81q-5 -49 -72 -101h80v-44h-157z" />
    <glyph glyph-name="threesuperior" unicode="&#xb3;" horiz-adv-x="241" 
d="M119 496q-42 -1 -79 21l21 38q36 -15 51 -15q40 -1 40 29q0 23 -40 23h-26v39h27q32 0 34 27q0 24 -30 24q-28 3 -56 -9l-15 37q33 14 69 14q34 0 56.5 -15t22.5 -47q0 -13 -8 -26t-20 -19q36 -14 34 -51q0 -34 -23 -52t-58 -18z" />
    <glyph glyph-name="paragraph" unicode="&#xb6;" horiz-adv-x="550" 
d="M121 557q33 1 55 27.5t25 61.5h-56q-70 0 -68 -48q1 -17 13.5 -29t30.5 -12zM204 -171v723q-31 -40 -83 -42q-41 -1 -69.5 23t-30.5 63q-3 54 32.5 79t90.5 25h366v-54h-79v-817h-69v817h-89v-817h-69z" />
    <glyph glyph-name="guillemotright" unicode="&#xbb;" horiz-adv-x="496" 
d="M80 77l-40 27l124 201l-124 200l42 26l187 -226zM239 52l-43 28l156 225l-156 224l45 28l215 -252z" />
    <glyph glyph-name="questiondown" unicode="&#xbf;" horiz-adv-x="405" 
d="M229 411l4 77h51v-115q-31 -14 -46.5 -22t-43.5 -26.5t-43 -36t-28 -45.5t-14 -61q-3 -63 38.5 -92t104.5 -30q54 -1 112 18l11 -63q-52 -18 -124 -18q-88 0 -149.5 47.5t-61.5 135.5q0 80 52.5 139t136.5 92zM254 594q-22 0 -37 15.5t-15 38.5t14.5 39t37.5 16
q24 0 39 -16t15 -39t-15.5 -38.5t-38.5 -15.5z" />
    <glyph glyph-name="Agrave" unicode="&#xc0;" horiz-adv-x="697" 
d="M304 740l-93 139h81l92 -139h-80zM203 259h291l-144 358h-3zM15 0l284 700h99l284 -700h-83l-75 186h-350l-76 -186h-83z" />
    <glyph glyph-name="Aacute" unicode="&#xc1;" horiz-adv-x="697" 
d="M299 740l91 139h81l-93 -139h-79zM203 259h291l-144 358h-3zM15 0l284 700h98l285 -700h-83l-75 186h-351l-75 -186h-83z" />
    <glyph glyph-name="Acircumflex" unicode="&#xc2;" horiz-adv-x="697" 
d="M206 740l110 139h62l112 -139h-72l-71 85l-71 -85h-70zM203 259h291l-144 358h-3zM15 0l284 700h98l285 -700h-83l-76 186h-350l-75 -186h-83z" />
    <glyph glyph-name="Atilde" unicode="&#xc3;" horiz-adv-x="697" 
d="M185 742q0 39 26 65.5t70 27.5q22 0 43.5 -5.5t43.5 -15t32 -12.5q19 -8 35 -0.5t17 29.5h61q-1 -38 -21.5 -60.5t-54.5 -25.5q-31 -3 -82.5 17t-75.5 18q-33 -3 -33 -38h-61zM203 259h291l-144 358h-3zM15 0l284 700h99l284 -700h-83l-75 186h-350l-76 -186h-83z" />
    <glyph glyph-name="Adieresis" unicode="&#xc4;" horiz-adv-x="698" 
d="M203 259h292l-145 358h-3zM15 0l284 700h99l285 -700h-83l-76 186h-350l-76 -186h-83zM428 757q-21 0 -35 15t-14 36q0 22 14 37t35 15q22 0 36.5 -15t14.5 -37t-14 -36.5t-37 -14.5zM269 757q-22 0 -36.5 15t-14.5 36q0 22 14.5 37t36.5 15t36 -15t14 -37q0 -21 -14 -36
t-36 -15z" />
    <glyph glyph-name="Aring" unicode="&#xc5;" horiz-adv-x="698" 
d="M349 736q-34 0 -58 23.5t-24 57.5q0 33 24 57t58 24q33 0 56.5 -24t23.5 -57q0 -34 -23.5 -57.5t-56.5 -23.5zM349 783q14 0 24.5 10t10.5 24q0 15 -10.5 25t-24.5 10t-24.5 -10t-10.5 -25q0 -14 10.5 -24t24.5 -10zM202 260h293l-144 358h-3zM15 0l284 700h99l285 -700
h-83l-76 186h-351l-75 -186h-83z" />
    <glyph glyph-name="Ccedilla" unicode="&#xc7;" horiz-adv-x="627" 
d="M385 -176q-40 -2 -87 14l9 47q31 -15 73 -14q21 0 34.5 7t12.5 24q-1 21 -38 24.5t-67 -6.5l-9 8l21 73q-129 25 -204 119.5t-75 229.5q0 155 98 255t260 101q99 0 174 -24l-17 -72q-77 23 -154 23q-132 -1 -208 -79t-76 -204t76 -204t208 -79q81 0 154 22l17 -72
q-82 -25 -174 -23q-20 0 -30 1l-8 -25q41 3 72 -11.5t33 -51.5q1 -40 -25.5 -60.5t-69.5 -22.5z" />
    <glyph glyph-name="Egrave" unicode="&#xc8;" horiz-adv-x="570" 
d="M303 740l-93 139h81l92 -139h-80zM95 0v700h425v-73h-349v-225h298v-73h-298v-256h349v-73h-425z" />
    <glyph glyph-name="Eacute" unicode="&#xc9;" horiz-adv-x="570" 
d="M256 740l91 139h81l-93 -139h-79zM95 0v700h425v-73h-348v-225h298v-73h-298v-256h348v-73h-425z" />
    <glyph glyph-name="Ecircumflex" unicode="&#xca;" horiz-adv-x="571" 
d="M170 740l110 139h62l112 -139h-71l-72 85l-71 -85h-70zM95 0v700h426v-73h-349v-225h297v-73h-297v-256h349v-73h-426z" />
    <glyph glyph-name="Igrave" unicode="&#xcc;" horiz-adv-x="267" 
d="M118 740l-93 139h81l91 -139h-79zM95 0v700h77v-700h-77z" />
    <glyph glyph-name="Iacute" unicode="&#xcd;" horiz-adv-x="267" 
d="M71 740l92 139h81l-93 -139h-80zM95 0v700h77v-700h-77z" />
    <glyph glyph-name="Icircumflex" unicode="&#xce;" horiz-adv-x="267" 
d="M-8 740l110 139h61l113 -139h-72l-71 85l-72 -85h-69zM95 0v700h77v-700h-77z" />
    <glyph glyph-name="Idieresis" unicode="&#xcf;" horiz-adv-x="267" 
d="M213 757q-21 0 -35.5 15t-14.5 36q0 22 14 37t36 15t36 -15t14 -37q0 -21 -14 -36t-36 -15zM53 757q-22 0 -36 15t-14 36q0 22 14 37t36 15t36.5 -15t14.5 -37t-14 -36.5t-37 -14.5zM95 0v700h77v-700h-77z" />
    <glyph glyph-name="Ntilde" unicode="&#xd1;" horiz-adv-x="763" 
d="M231 742q0 39 26.5 65.5t70.5 27.5q21 0 42.5 -5.5t44 -15t31.5 -12.5q52 -15 52 29h61q-1 -38 -21 -60.5t-54 -25.5q-31 -3 -82.5 17t-76.5 18q-15 -1 -23.5 -12t-8.5 -26h-62zM95 0v700h94l405 -587v587h74v-700h-84l-414 600v-600h-75z" />
    <glyph glyph-name="Ograve" unicode="&#xd2;" horiz-adv-x="781" 
d="M359 740l-93 139h81l91 -139h-79zM390 67q122 0 190.5 81.5t68.5 201.5t-68.5 201.5t-190.5 81.5t-190 -81.5t-68 -201.5t68 -201.5t190 -81.5zM390 -7q-154 0 -244.5 103t-90.5 254q0 150 90.5 253.5t244.5 103.5t245 -103.5t91 -253.5q0 -151 -91 -254t-245 -103z" />
    <glyph glyph-name="Oacute" unicode="&#xd3;" horiz-adv-x="782" 
d="M314 740l91 139h81l-92 -139h-80zM391 67q122 0 190.5 81.5t68.5 201.5t-68.5 201.5t-190.5 81.5t-190.5 -81.5t-68.5 -201.5t68.5 -201.5t190.5 -81.5zM391 -7q-154 0 -245 103t-91 254q0 150 91 253.5t245 103.5t245 -103.5t91 -253.5q0 -151 -91 -254t-245 -103z" />
    <glyph glyph-name="Ocircumflex" unicode="&#xd4;" horiz-adv-x="781" 
d="M249 740l109 139h62l113 -139h-72l-71 85l-71 -85h-70zM391 67q122 0 190 81.5t68 201.5t-68 201.5t-190 81.5t-190.5 -81.5t-68.5 -201.5t68.5 -201.5t190.5 -81.5zM391 -7q-154 0 -245 103t-91 254q0 150 91 253.5t245 103.5t244.5 -103.5t90.5 -253.5
q0 -151 -90.5 -254t-244.5 -103z" />
    <glyph glyph-name="Odieresis" unicode="&#xd6;" horiz-adv-x="781" 
d="M391 67q122 0 190 81.5t68 201.5t-68 201.5t-190 81.5t-190.5 -81.5t-68.5 -201.5t68.5 -201.5t190.5 -81.5zM391 -7q-155 0 -245.5 103t-90.5 254q0 150 90.5 253.5t245.5 103.5q154 0 244.5 -103.5t90.5 -253.5q0 -151 -90.5 -254t-244.5 -103zM439 757q-23 0 -37 14.5
t-14 36.5t14.5 37t36.5 15t36 -15t14 -37q0 -21 -14 -36t-36 -15zM279 757q-22 0 -36 15t-14 36q0 22 14 37t36 15t36 -15t14 -37q0 -21 -14.5 -36t-35.5 -15z" />
    <glyph glyph-name="multiply" unicode="&#xd7;" horiz-adv-x="459" 
d="M85 124l-35 34l144 145l-144 145l35 34l144 -144l145 144l35 -34l-145 -145l145 -145l-35 -34l-145 144z" />
    <glyph glyph-name="Ugrave" unicode="&#xd9;" horiz-adv-x="721" 
d="M337 740l-94 139h81l92 -139h-79zM361 -7q-128 0 -202 70.5t-74 193.5v443h77v-441q0 -93 50.5 -142.5t148.5 -49.5q97 0 147.5 49.5t50.5 142.5v441h77v-443q0 -123 -73.5 -193.5t-201.5 -70.5z" />
    <glyph glyph-name="Uacute" unicode="&#xda;" horiz-adv-x="721" 
d="M284 740l91 139h81l-93 -139h-79zM361 -7q-128 0 -202 70.5t-74 193.5v443h77v-441q0 -93 50.5 -142.5t148.5 -49.5q97 0 148 49.5t51 142.5v441h76v-443q0 -123 -73.5 -193.5t-201.5 -70.5z" />
    <glyph glyph-name="Ucircumflex" unicode="&#xdb;" horiz-adv-x="721" 
d="M218 740l110 139h62l112 -139h-71l-72 85l-71 -85h-70zM360 -7q-128 0 -201.5 70.5t-73.5 193.5v443h76v-441q0 -93 51 -142.5t148 -49.5t148 49.5t51 142.5v441h77v-443q0 -123 -74 -193.5t-202 -70.5z" />
    <glyph glyph-name="Udieresis" unicode="&#xdc;" horiz-adv-x="722" 
d="M360 -7q-128 0 -201.5 70.5t-73.5 193.5v443h77v-441q0 -93 50.5 -142.5t147.5 -49.5q98 0 148.5 49.5t50.5 142.5v441h78v-443q0 -123 -74.5 -193.5t-202.5 -70.5zM441 757q-23 0 -37 14.5t-14 36.5t14.5 37t36.5 15t36 -15t14 -37q0 -21 -14 -36t-36 -15zM281 757
q-22 0 -36 15t-14 36q0 22 14 37t36 15t36 -15t14 -37q0 -21 -14 -36t-36 -15z" />
    <glyph glyph-name="germandbls" unicode="&#xdf;" horiz-adv-x="541" 
d="M70 0v511q0 82 43 135.5t129 53.5q72 0 114.5 -43t43.5 -110q1 -42 -26.5 -82t-73.5 -66q-13 -8 -9 -14.5t24 -12.5q178 -52 175 -200q0 -63 -33 -106.5t-79.5 -58.5t-98 -8.5t-88.5 34.5l33 54q29 -21 64.5 -25.5t65.5 6t50 38t20 65.5q1 102 -125 139q-75 23 -79 75
q-2 32 29 50q83 48 82 111q0 37 -25 61.5t-66 24.5q-46 0 -73 -31.5t-27 -87.5v-513h-70z" />
    <glyph glyph-name="agrave" unicode="&#xe0;" 
d="M454 132v264q-49 71 -159 71q-86 0 -130.5 -58t-44.5 -145q0 -88 44 -146t131 -58q110 0 159 72zM50 264q0 114 64.5 191t180.5 77q46 0 91.5 -15.5t72.5 -41.5l6 52h58v-527h-58l-6 52q-27 -25 -73 -41t-91 -16q-116 0 -180.5 77.5t-64.5 191.5zM279 699l91 -127h-78
l-93 127h80z" />
    <glyph glyph-name="aacute" unicode="&#xe1;" horiz-adv-x="592" 
d="M453 132v264q-49 71 -158 71q-88 0 -132 -58t-44 -145q0 -88 44 -146t132 -58q109 0 158 72zM50 264q0 114 64.5 191t180.5 77q46 0 91.5 -15.5t71.5 -41.5l7 52h57v-527h-57l-7 52q-26 -25 -72 -41t-91 -16q-116 0 -180.5 77.5t-64.5 191.5zM239 572l91 127h79l-91 -127
h-79z" />
    <glyph glyph-name="acircumflex" unicode="&#xe2;" horiz-adv-x="592" 
d="M453 132v264q-48 71 -158 71q-87 0 -131.5 -58t-44.5 -145q0 -88 44.5 -146t131.5 -58q110 0 158 72zM50 264q0 114 64.5 191t180.5 77q46 0 92 -15.5t72 -41.5l6 52h57v-527h-57l-6 52q-26 -25 -72 -41t-92 -16q-116 0 -180.5 77.5t-64.5 191.5zM173 572l99 127h64
l100 -127h-67l-66 78l-65 -78h-65z" />
    <glyph glyph-name="atilde" unicode="&#xe3;" horiz-adv-x="594" 
d="M455 132v264q-51 71 -160 71q-86 0 -130.5 -58t-44.5 -145q0 -88 44 -146t131 -58q110 0 160 72zM50 264q0 114 64.5 191t180.5 77q47 0 92.5 -15.5t71.5 -41.5l6 52h59v-527h-59l-6 52q-26 -25 -72 -41t-92 -16q-116 0 -180.5 77.5t-64.5 191.5zM207 608h-57q0 38 24 64
t67 27q22 0 42 -5t43.5 -15t30.5 -12q21 -7 35.5 0t14.5 30h56q-2 -80 -69 -86q-30 -3 -80.5 16.5t-74.5 17.5q-32 -3 -32 -37z" />
    <glyph glyph-name="adieresis" unicode="&#xe4;" 
d="M453 132v264q-49 71 -158 71q-87 0 -131.5 -58t-44.5 -145q0 -88 44.5 -146t131.5 -58q109 0 158 72zM50 264q0 114 64.5 191t180.5 77q46 0 91.5 -15.5t72.5 -41.5l6 52h58v-527h-58l-6 52q-27 -25 -73 -41t-91 -16q-116 0 -180.5 77.5t-64.5 191.5zM221 702
q20 0 34 -15t14 -36t-13.5 -35.5t-34.5 -14.5q-22 0 -35.5 14.5t-13.5 35.5t14 36t35 15zM387 702q21 0 35 -15t14 -36t-14 -35.5t-35 -14.5t-35 14.5t-14 35.5t14 36t35 15z" />
    <glyph glyph-name="aring" unicode="&#xe5;" horiz-adv-x="592" 
d="M453 132v264q-49 71 -158 71q-88 0 -132 -58t-44 -145q0 -88 44 -146t132 -58q109 0 158 72zM50 264q0 114 64.5 191t180.5 77q46 0 91.5 -15.5t72.5 -41.5l6 52h57v-527h-57l-6 52q-27 -25 -73 -41t-91 -16q-116 0 -180.5 77.5t-64.5 191.5zM296 702q30 0 51.5 -21.5
t21.5 -50.5q0 -31 -21.5 -52.5t-51.5 -21.5q-31 0 -52 21.5t-21 52.5q0 30 21.5 51t51.5 21zM296 659q-13 0 -22 -9t-9 -20q0 -13 9 -22t22 -9t22 9t9 22q0 11 -9 20t-22 9z" />
    <glyph glyph-name="ccedilla" unicode="&#xe7;" horiz-adv-x="507" 
d="M286 -176q-39 -2 -86 14l8 47q33 -15 73 -14q22 0 36.5 8t13.5 25q-1 21 -39 24t-67 -7l-11 8l22 75q-87 22 -136.5 92.5t-49.5 167.5q0 120 70.5 195t193.5 74q93 0 163 -41l-32 -56q-55 31 -128 33q-96 1 -147 -55.5t-51 -149.5q0 -92 52.5 -148.5t145.5 -55.5
q73 0 128 33l32 -57q-67 -39 -163 -41q-19 0 -29 1l-8 -26q41 3 72 -11.5t33 -51.5q1 -40 -25.5 -60.5t-70.5 -22.5z" />
    <glyph glyph-name="egrave" unicode="&#xe8;" horiz-adv-x="573" 
d="M269 573l-92 127h80l91 -127h-79zM121 296h337q-5 79 -45 125.5t-120 45.5q-78 0 -121 -47t-51 -124zM314 -4q-126 0 -195 74t-69 194q0 115 63 192t182 77q120 0 177.5 -77t54.5 -193v-32h-406q8 -81 58 -125.5t135 -44.5q88 0 159 30l19 -61q-81 -34 -178 -34z" />
    <glyph glyph-name="eacute" unicode="&#xe9;" horiz-adv-x="573" 
d="M233 573l91 127h80l-92 -127h-79zM121 296h336q-4 79 -44 125.5t-120 45.5q-79 0 -122 -47t-50 -124zM314 -4q-126 0 -195 74t-69 194q0 115 63 192t182 77q120 0 177.5 -77t54.5 -193v-32h-406q8 -81 57.5 -125.5t135.5 -44.5q88 0 159 30l19 -61q-81 -34 -178 -34z" />
    <glyph glyph-name="ecircumflex" unicode="&#xea;" horiz-adv-x="574" 
d="M158 573l98 127h65l99 -127h-66l-65 78l-66 -78h-65zM122 296h336q-5 79 -45 125.5t-120 45.5q-79 0 -121.5 -47t-49.5 -124zM315 -4q-126 0 -195.5 73.5t-69.5 194.5q0 115 63 192t182 77q81 0 135.5 -38.5t77 -97.5t20.5 -134l-1 -32h-405q8 -81 57.5 -125.5
t135.5 -44.5q87 0 158 30l19 -61q-81 -34 -177 -34z" />
    <glyph glyph-name="igrave" unicode="&#xec;" horiz-adv-x="210" 
d="M75 573l-92 127h80l91 -127h-79zM70 0v529h70v-529h-70z" />
    <glyph glyph-name="iacute" unicode="&#xed;" horiz-adv-x="210" 
d="M49 573l91 127h80l-92 -127h-79zM70 0v529h70v-529h-70z" />
    <glyph glyph-name="icircumflex" unicode="&#xee;" horiz-adv-x="209" 
d="M-26 573l98 127h64l100 -127h-66l-65 78l-66 -78h-65zM70 0v529h69v-529h-69z" />
    <glyph glyph-name="idieresis" unicode="&#xef;" horiz-adv-x="209" 
d="M188 602q-21 0 -35 14.5t-14 35.5t14 35.5t35 14.5t35 -14.5t14 -35.5t-13.5 -35.5t-35.5 -14.5zM21 602q-21 0 -34.5 14.5t-13.5 35.5t13.5 35.5t34.5 14.5t35 -14.5t14 -35.5t-14 -35.5t-35 -14.5zM70 0v529h69v-529h-69z" />
    <glyph glyph-name="ntilde" unicode="&#xf1;" horiz-adv-x="589" 
d="M138 609q0 39 23.5 64.5t66.5 26.5q22 0 42 -5t43.5 -15t30.5 -12q20 -7 35 0t16 29h56q-2 -78 -70 -86q-30 -3 -80.5 17t-74.5 18q-32 -3 -32 -37h-56zM70 0v529h62l8 -57q38 28 86.5 44t92.5 15q99 -2 149.5 -58.5t50.5 -151.5v-321h-70v321q0 141 -134 144
q-45 1 -94 -19.5t-81 -52.5v-393h-70z" />
    <glyph glyph-name="ograve" unicode="&#xf2;" horiz-adv-x="610" 
d="M280 573l-92 127h79l91 -127h-78zM305 61q88 0 136.5 59t48.5 144t-48.5 144t-136.5 59t-136.5 -59t-48.5 -144t48.5 -144t136.5 -59zM305 -5q-117 0 -186 78t-69 191t69 191t186 78t186 -78t69 -191t-69 -191t-186 -78z" />
    <glyph glyph-name="oacute" unicode="&#xf3;" horiz-adv-x="610" 
d="M252 573l90 127h80l-92 -127h-78zM305 61q89 0 137.5 58.5t48.5 144.5t-48.5 144.5t-137.5 58.5q-88 0 -137 -59t-49 -144t49 -144t137 -59zM305 -5q-117 0 -186 78t-69 191t69 191t186 78t186 -78t69 -191t-69 -191t-186 -78z" />
    <glyph glyph-name="ocircumflex" unicode="&#xf4;" horiz-adv-x="609" 
d="M174 573l97 127h65l100 -127h-67l-65 78l-66 -78h-64zM305 61q88 0 136.5 59t48.5 144t-48.5 144t-136.5 59q-89 0 -137.5 -58.5t-48.5 -144.5t48.5 -144.5t137.5 -58.5zM305 -5q-118 0 -186.5 78t-68.5 191t68.5 191t186.5 78q117 0 185.5 -78t68.5 -191t-68.5 -191
t-185.5 -78z" />
    <glyph glyph-name="otilde" unicode="&#xf5;" horiz-adv-x="610" 
d="M148 609q0 38 24 64t67 27q22 0 42 -5t43.5 -15t30.5 -12q20 -7 35.5 0t15.5 29h56q-1 -37 -19 -59.5t-50 -26.5q-30 -3 -81 17t-75 18q-32 -3 -32 -37h-57zM305 61q88 0 137 59t49 144t-49 144t-137 59t-136.5 -59t-48.5 -144t48.5 -144t136.5 -59zM305 -5
q-117 0 -186 78t-69 191t69 191t186 78q118 0 186.5 -78t68.5 -191t-68.5 -191t-186.5 -78z" />
    <glyph glyph-name="odieresis" unicode="&#xf6;" horiz-adv-x="610" 
d="M304 61q89 0 137.5 58.5t48.5 144.5t-48.5 144.5t-137.5 58.5q-88 0 -136.5 -59t-48.5 -144t48.5 -144t136.5 -59zM304 -5q-117 0 -185.5 78t-68.5 191t68.5 191t185.5 78q118 0 187 -78t69 -191t-69 -191t-187 -78zM388 602q-21 0 -35 14.5t-14 35.5t14 35.5t35 14.5
t34.5 -14.5t13.5 -35.5t-13.5 -35.5t-34.5 -14.5zM221 602q-21 0 -34.5 14.5t-13.5 35.5t13.5 35.5t34.5 14.5t35 -14.5t14 -35.5t-14 -35.5t-35 -14.5z" />
    <glyph glyph-name="divide" unicode="&#xf7;" horiz-adv-x="590" 
d="M295 67q-24 0 -38.5 15.5t-14.5 39.5q0 23 15 38.5t38 15.5t38 -15.5t15 -38.5q0 -24 -14.5 -39.5t-38.5 -15.5zM295 470q-24 0 -38.5 16t-14.5 40q0 22 15 38t38 16t38 -16t15 -38q0 -24 -14.5 -40t-38.5 -16zM50 291v65h490v-65h-490z" />
    <glyph glyph-name="ugrave" unicode="&#xf9;" horiz-adv-x="588" 
d="M269 573l-92 127h80l91 -127h-79zM274 -3q-100 3 -152 59.5t-52 150.5v322h69v-322q0 -141 135 -144q45 -1 94 19.5t81 52.5v394h69v-529h-62l-7 56q-35 -27 -83 -43t-92 -16z" />
    <glyph glyph-name="uacute" unicode="&#xfa;" horiz-adv-x="588" 
d="M248 573l91 127h79l-92 -127h-78zM275 -3q-100 3 -152.5 59.5t-52.5 150.5v322h69v-322q0 -141 136 -144q44 -1 93 19.5t81 52.5v394h69v-529h-62l-7 56q-77 -59 -174 -59z" />
    <glyph glyph-name="ucircumflex" unicode="&#xfb;" horiz-adv-x="589" 
d="M163 573l98 127h65l99 -127h-66l-65 78l-66 -78h-65zM274 -3q-100 3 -152 59.5t-52 150.5v322h70v-322q0 -141 134 -144q45 -1 94 19.5t81 52.5v394h70v-529h-62l-8 56q-35 -27 -83 -43t-92 -16z" />
    <glyph glyph-name="udieresis" unicode="&#xfc;" horiz-adv-x="589" 
d="M274 -3q-100 3 -152 59.5t-52 150.5v322h70v-322q0 -141 134 -144q45 -1 94 19.5t81 52.5v394h70v-529h-62l-8 56q-35 -27 -83 -43t-92 -16zM378 602q-21 0 -34.5 14.5t-13.5 35.5t13.5 35.5t34.5 14.5t35 -14.5t14 -35.5t-14 -35.5t-35 -14.5zM211 602q-21 0 -35 14.5
t-14 35.5t14 35.5t35 14.5t35 -14.5t14 -35.5t-14 -35.5t-35 -14.5z" />
    <glyph glyph-name="Scaron" unicode="&#x160;" horiz-adv-x="585" 
d="M265 740l-110 138h70l71 -84l72 84h71l-112 -138h-62zM290 -7q-67 -1 -136 18.5t-114 48.5l33 66q105 -59 216 -59q46 0 83.5 9t66.5 32t36 58q14 71 -51 109q-27 15 -61 25.5t-78.5 21t-69.5 18.5q-173 52 -168 186q9 182 264 180q107 0 210 -40l-31 -69q-94 34 -183 34
q-178 2 -182 -108q-4 -80 106 -112q25 -8 75.5 -19.5t91.5 -24t74 -32.5q50 -29 70 -78t8 -107q-14 -80 -86 -117.5t-174 -39.5z" />
    <glyph glyph-name="scaron" unicode="&#x161;" horiz-adv-x="460" 
d="M207 573l-98 127h64l66 -78l65 78h67l-100 -127h-64zM224 -3q-112 2 -194 58l33 57q90 -49 161 -51q117 0 125 70q7 46 -25 69q-22 15 -95.5 34.5t-101.5 35.5q-75 41 -75 116q0 70 54 107.5t132 37.5q88 2 168 -40l-29 -58q-65 32 -134 34q-50 0 -85 -18.5t-36 -61.5
q-1 -36 31 -57q29 -18 99 -36t100 -35q78 -43 66 -135q-8 -67 -63 -98t-131 -29z" />
    <glyph glyph-name="Zcaron" unicode="&#x17d;" horiz-adv-x="617" 
d="M277 740l-110 138h69l72 -84l71 84h72l-112 -138h-62zM40 0v73l439 554h-439v73h537v-73l-439 -554h439v-73h-537z" />
    <glyph glyph-name="zcaron" unicode="&#x17e;" horiz-adv-x="507" 
d="M221 573l-99 127h66l65 -78l66 78h66l-99 -127h-65zM40 0v52l332 411h-318v66h413v-55l-330 -409h324v-65h-421z" />
    <glyph glyph-name="uni0401" unicode="&#x401;" horiz-adv-x="570" 
d="M95 0v700h425v-73h-348v-225h297v-73h-297v-256h348v-73h-425zM235 757q-22 0 -36 15t-14 36q0 22 14 37t36 15t36.5 -15t14.5 -37t-14 -36.5t-37 -14.5zM395 757q-22 0 -36 15t-14 36q0 22 14 37t36 15t36 -15t14 -37q0 -21 -14 -36t-36 -15z" />
    <glyph glyph-name="uni0404" unicode="&#x404;" horiz-adv-x="627" 
d="M413 -6q-163 1 -260.5 101t-97.5 255t98 255t260 101q101 0 174 -24l-18 -72q-75 23 -153 23q-120 -1 -195 -66t-86 -172h365v-74h-367q6 -113 82.5 -183.5t200.5 -70.5q81 0 153 22l18 -72q-80 -25 -174 -23z" />
    <glyph glyph-name="uni0410" unicode="&#x410;" horiz-adv-x="698" 
d="M203 260h292l-144 357h-3zM15 0l285 700h99l284 -700h-84l-75 186h-350l-76 -186h-83z" />
    <glyph glyph-name="uni0411" unicode="&#x411;" horiz-adv-x="640" 
d="M95 0v700h440v-73h-363v-215h205q98 0 157.5 -58.5t59.5 -149.5q1 -91 -58 -147.5t-159 -56.5h-282zM172 73h205q66 0 103.5 35.5t37.5 95.5t-37.5 97.5t-103.5 37.5h-205v-266z" />
    <glyph glyph-name="uni0412" unicode="&#x412;" horiz-adv-x="605" 
d="M357 0h-262v699h224q81 0 130.5 -53.5t50.5 -134.5q0 -37 -16.5 -75t-46.5 -62q57 -18 90 -65.5t32 -108.5q0 -90 -56 -145t-146 -55zM349 324h-177v-252h185q59 0 92.5 34t33.5 94q0 59 -37.5 91.5t-96.5 32.5zM319 627h-147v-231h141q53 0 81.5 31t28.5 84
q0 49 -28 82.5t-76 33.5z" />
    <glyph glyph-name="uni0413" unicode="&#x413;" horiz-adv-x="504" 
d="M95 0v700h389v-73h-313v-627h-76z" />
    <glyph glyph-name="uni0414" unicode="&#x414;" horiz-adv-x="701" 
d="M0 -156v229h73q51 90 83.5 306t25.5 321h402v-627h87v-229h-70l-5 156h-521l-5 -156h-70zM157 73h350v554h-251q-7 -132 -34 -294.5t-65 -259.5z" />
    <glyph glyph-name="uni0415" unicode="&#x415;" horiz-adv-x="571" 
d="M95 0v700h426v-73h-349v-225h298v-73h-298v-256h349v-73h-426z" />
    <glyph glyph-name="uni0416" unicode="&#x416;" horiz-adv-x="873" 
d="M0 0l272 368l-247 332h96l218 -299h60v299h75v-299h60l217 299h97l-247 -332l272 -368h-98l-239 331h-62v-331h-75v331h-61l-239 -331h-99z" />
    <glyph glyph-name="uni0417" unicode="&#x417;" horiz-adv-x="578" 
d="M259 -7q-125 0 -229 75l38 63q98 -65 191 -65q84 0 137 38t49 114q-3 61 -52.5 92.5t-116.5 31.5h-123v72h117q60 0 102 29t42 80q1 58 -45 85.5t-114 26.5q-98 0 -173 -44l-33 65q94 51 209 51q64 0 115 -17.5t84.5 -61t33.5 -107.5q0 -42 -26 -82t-66 -58
q52 -20 86 -63.5t37 -95.5q6 -108 -70 -168.5t-193 -60.5z" />
    <glyph glyph-name="uni0418" unicode="&#x418;" horiz-adv-x="730" 
d="M95 0v700h77v-587l386 587h77v-700h-77v587l-386 -587h-77z" />
    <glyph glyph-name="uni0419" unicode="&#x419;" horiz-adv-x="730" 
d="M372 736q-92 0 -156 67l40 44q55 -48 115 -48.5t116 48.5l40 -44q-64 -67 -155 -67zM95 0v700h78v-587l385 587h77v-700h-77v587l-385 -587h-78z" />
    <glyph glyph-name="uni041A" unicode="&#x41a;" horiz-adv-x="628" 
d="M95 0v700h77v-299h74l258 299h99l-289 -332l314 -368h-99l-282 331h-75v-331h-77z" />
    <glyph glyph-name="uni041B" unicode="&#x41b;" horiz-adv-x="663" 
d="M4 -2l-4 75q57 0 82.5 27.5t37.5 86.5q9 44 16.5 94t13.5 110.5t9 99t8 112t7 97.5h394v-700h-77v625h-245q-30 -357 -51 -453q-19 -86 -62.5 -130t-128.5 -44z" />
    <glyph glyph-name="uni041C" unicode="&#x41c;" horiz-adv-x="914" 
d="M80 0l68 700h99l189 -536q6 -15 17 -61h7q13 50 18 64l189 533h99l68 -700h-77l-44 515q-3 49 -2 91h-6l-214 -606h-67l-214 606h-6q0 -63 -3 -91l-44 -515h-77z" />
    <glyph glyph-name="uni041D" unicode="&#x41d;" horiz-adv-x="720" 
d="M95 0v700h77v-306h376v306h77v-700h-77v320h-376v-320h-77z" />
    <glyph glyph-name="uni041E" unicode="&#x41e;" horiz-adv-x="782" 
d="M391 66q122 0 190 82t68 202t-68 201.5t-190 81.5t-190.5 -81.5t-68.5 -201.5t68.5 -202t190.5 -82zM391 -7q-154 0 -245 103t-91 254t91 254t245 103t245 -103t91 -254t-91 -254t-245 -103z" />
    <glyph glyph-name="uni041F" unicode="&#x41f;" horiz-adv-x="724" 
d="M95 0v700h534v-700h-77v627h-380v-627h-77z" />
    <glyph glyph-name="uni0420" unicode="&#x420;" horiz-adv-x="630" 
d="M95 0v700h263q98 0 157.5 -62t59.5 -154q0 -93 -60 -156t-157 -63h-186v-265h-77zM172 339h186q65 0 102.5 41.5t37.5 103.5q1 61 -37 102t-103 41h-186v-288z" />
    <glyph glyph-name="uni0421" unicode="&#x421;" horiz-adv-x="627" 
d="M414 -6q-163 1 -261 101t-98 255t98 255t261 101q100 0 173 -24l-16 -72q-72 23 -155 23q-131 -1 -207.5 -79t-76.5 -204t76.5 -204t207.5 -79q78 -2 155 23l16 -72q-73 -24 -173 -24z" />
    <glyph glyph-name="uni0422" unicode="&#x422;" horiz-adv-x="577" 
d="M250 0v627h-230v73h537v-73h-230v-627h-77z" />
    <glyph glyph-name="uni0423" unicode="&#x423;" horiz-adv-x="631" 
d="M194 0l90 185l-274 515h90l225 -438l198 438h88l-334 -700h-83z" />
    <glyph glyph-name="uni0424" unicode="&#x424;" horiz-adv-x="851" 
d="M387 70v561q-112 -4 -184 -83.5t-72 -197.5t72.5 -196.5t183.5 -83.5zM464 70q111 5 183 83.5t72 196.5t-71.5 197.5t-183.5 83.5v-561zM387 -81v82q-143 10 -237.5 105.5t-94.5 243.5t94.5 244.5t237.5 105.5v81h77v-81q143 -9 237.5 -105.5t94.5 -244.5t-94.5 -243.5
t-237.5 -105.5v-82h-77z" />
    <glyph glyph-name="uni0425" unicode="&#x425;" horiz-adv-x="628" 
d="M20 0l253 350l-253 350h96l198 -291l198 291h96l-253 -350l253 -350h-96l-198 292l-198 -292h-96z" />
    <glyph glyph-name="uni0426" unicode="&#x426;" horiz-adv-x="724" 
d="M625 -156l-6 156h-524v700h77v-627h368v627h77v-627h77v-229h-69z" />
    <glyph glyph-name="uni0427" unicode="&#x427;" horiz-adv-x="677" 
d="M505 0v303q-74 -29 -175 -29q-108 2 -181.5 60t-73.5 172v194h79v-194q0 -78 47.5 -117.5t119.5 -45.5q106 -7 184 34v323h77v-700h-77z" />
    <glyph glyph-name="uni0428" unicode="&#x428;" horiz-adv-x="1006" 
d="M95 0v700h77v-628h293v628h77v-628h292v628h77v-700h-816z" />
    <glyph glyph-name="uni0429" unicode="&#x429;" horiz-adv-x="1016" 
d="M917 -156l-6 156h-816v700h77v-628h293v628h76v-628h292v628h78v-628h75v-228h-69z" />
    <glyph glyph-name="uni042A" unicode="&#x42a;" horiz-adv-x="686" 
d="M165 0v630h-145v70h222v-288h186q98 0 157.5 -58.5t60.5 -149.5q0 -91 -59.5 -147.5t-158.5 -56.5h-263zM242 73h186q66 0 103.5 35.5t37.5 95.5q-1 61 -38.5 98t-102.5 37h-186v-266z" />
    <glyph glyph-name="uni042B" unicode="&#x42b;" horiz-adv-x="844" 
d="M95 0v700h77v-288h187q98 0 157.5 -58.5t59.5 -149.5t-59 -147.5t-158 -56.5h-264zM172 73h187q66 0 103 35.5t37 95.5t-37.5 97.5t-102.5 37.5h-187v-266zM672 0v700h77v-700h-77z" />
    <glyph glyph-name="uni042C" unicode="&#x42c;" horiz-adv-x="616" 
d="M95 0v700h77v-288h187q98 0 157 -58t60 -150q0 -91 -59 -147.5t-158 -56.5h-264zM172 73h187q66 0 103 35.5t37 95.5t-37.5 97.5t-102.5 37.5h-187v-266z" />
    <glyph glyph-name="uni042D" unicode="&#x42d;" horiz-adv-x="627" 
d="M214 -6q-100 0 -174 24l17 72q77 -25 154 -23q124 1 200.5 71t82.5 184h-368v73h366q-11 107 -86.5 172t-194.5 66q-82 0 -154 -23l-17 72q73 24 174 24q162 -1 260 -101t98 -255t-98 -255t-260 -101z" />
    <glyph glyph-name="uni042E" unicode="&#x42e;" horiz-adv-x="1019" 
d="M636 66q122 0 186.5 80.5t64.5 201.5t-65 203t-186 82q-120 0 -181.5 -80.5t-61.5 -202.5t61.5 -203t181.5 -81zM636 -7q-145 0 -228 93t-91 236h-145v-322h-77v700h77v-305h146q13 136 95.5 224t222.5 88q154 0 241 -103.5t87 -255.5t-87 -253.5t-241 -101.5z" />
    <glyph glyph-name="uni042F" unicode="&#x42f;" horiz-adv-x="649" 
d="M290 360h187v265h-187q-66 0 -103 -39t-37 -92q0 -54 37 -94t103 -40zM20 -2l202 302q-69 19 -108 74t-39 120q-1 83 55.5 143.5t159.5 60.5h264v-700h-77v289h-177l-192 -289h-88z" />
    <glyph glyph-name="uni0430" unicode="&#x430;" 
d="M454 132v264q-51 71 -159 71q-88 0 -132 -58t-44 -145q0 -88 44 -146t132 -58q109 0 159 72zM50 264q0 114 64.5 191t180.5 77q46 0 91.5 -15.5t72.5 -41.5l6 52h58v-527h-58l-6 52q-27 -25 -73 -41t-91 -16q-116 0 -180.5 77.5t-64.5 191.5z" />
    <glyph glyph-name="uni0431" unicode="&#x431;" horiz-adv-x="649" 
d="M330 467q-88 0 -136.5 -59t-48.5 -144t48.5 -144t136.5 -59q87 0 133.5 58.5t46.5 144.5t-46.5 144.5t-133.5 58.5zM71 310q-1 74 11.5 131t42 106.5t84.5 82t134 46.5q3 1 14.5 2.5t18.5 3t18.5 4t19 6t15.5 8t12 11.5t4 15h68q0 -26 -10 -45t-21 -29.5t-36 -19.5
t-37 -11.5t-43 -7.5q-7 -1 -11 -2q-99 -17 -150 -61.5t-67 -116.5l5 -1q30 48 81.5 74.5t112.5 26.5q116 0 179 -77t63 -192q0 -113 -66 -190.5t-183 -77.5q-59 0 -104.5 19t-74 49.5t-47 72.5t-26 84t-7.5 89z" />
    <glyph glyph-name="uni0432" unicode="&#x432;" horiz-adv-x="516" 
d="M70 0v528h218q66 0 107.5 -41t41.5 -104q0 -27 -13.5 -56t-34.5 -46q43 -18 65 -54t22 -80q0 -63 -40.5 -105t-108.5 -42h-257zM139 65h188q38 0 59 23t21 59q0 37 -21.5 62.5t-60.5 25.5h-186v-170zM139 300h147q37 0 59 24t22 59q1 35 -20.5 57.5t-58.5 22.5h-149v-163
z" />
    <glyph glyph-name="uni0433" unicode="&#x433;" horiz-adv-x="400" 
d="M70 0v528h310v-65h-240v-463h-70z" />
    <glyph glyph-name="uni0434" unicode="&#x434;" horiz-adv-x="571" 
d="M405 64v399h-204q-5 -90 -23.5 -205.5t-47.5 -192.5zM0 -139v204h57q32 69 51 211.5t23 252.5h344v-465l71 1v-203h-64l-6 137h-407l-4 -138h-65z" />
    <glyph glyph-name="uni0435" unicode="&#x435;" horiz-adv-x="573" 
d="M121 296h336q-10 171 -165 171q-79 0 -121.5 -47t-49.5 -124zM314 -4q-126 0 -195 73.5t-69 193.5q0 115 63 192t181 77q120 0 177.5 -76.5t55.5 -192.5l-1 -32h-405q8 -81 57.5 -126t135.5 -45q85 0 159 32l18 -62q-81 -34 -177 -34z" />
    <glyph glyph-name="uni0436" unicode="&#x436;" horiz-adv-x="722" 
d="M20 0l185 295l-169 233h83l148 -207h59v207h70v-207h59l147 207h84l-169 -233l185 -295h-86l-159 259h-61v-259h-70v259h-61l-159 -259h-86z" />
    <glyph glyph-name="uni0437" unicode="&#x437;" horiz-adv-x="454" 
d="M208 -6q-102 0 -173 48l33 54q55 -39 144 -37q57 1 94.5 25t37.5 72q0 90 -132 90h-87v62h86q42 0 74.5 19.5t35.5 56.5q2 42 -30 62t-83 21q-86 0 -138 -36l-30 56q73 43 161 43q80 2 135 -33.5t53 -108.5q-1 -29 -21.5 -60t-49.5 -45q42 -13 69 -48t27 -75
q0 -79 -59.5 -122t-146.5 -44z" />
    <glyph glyph-name="uni0438" unicode="&#x438;" horiz-adv-x="576" 
d="M70 0v528h69v-411l303 411h64v-528h-70v408l-302 -408h-64z" />
    <glyph glyph-name="uni0439" unicode="&#x439;" horiz-adv-x="576" 
d="M70 0v528h70v-411l303 411h63v-528h-69v408l-303 -408h-64zM298 594q-99 0 -139 76l43 30q13 -25 39.5 -39t56.5 -14q68 0 96 52l44 -29q-40 -76 -140 -76z" />
    <glyph glyph-name="uni043A" unicode="&#x43a;" horiz-adv-x="492" 
d="M70 0v528h69v-212h64l189 212h89l-218 -242l229 -286h-87l-202 250h-64v-250h-69z" />
    <glyph glyph-name="uni043B" unicode="&#x43b;" horiz-adv-x="542" 
d="M4 0l-4 66q39 4 59 20.5t28 52.5q6 27 11 53.5t9 58.5t6.5 52.5t5.5 58.5t4 52.5t3.5 59t3.5 54.5h342v-528h-69v463h-206q-15 -229 -46 -347q-14 -57 -48.5 -86.5t-98.5 -29.5z" />
    <glyph glyph-name="uni043C" unicode="&#x43c;" horiz-adv-x="724" 
d="M60 0l28 528h88l186 -438l185 438h88l29 -528h-69l-19 354q-3 38 0 75h-7l-180 -429h-54l-180 429h-7q2 -37 0 -75l-19 -354h-69z" />
    <glyph glyph-name="uni043D" unicode="&#x43d;" horiz-adv-x="563" 
d="M70 0v528h69v-226h285v226h69v-528h-69v236h-285v-236h-69z" />
    <glyph glyph-name="uni043E" unicode="&#x43e;" horiz-adv-x="610" 
d="M305 60q89 0 137.5 59t48.5 145t-48.5 144.5t-137.5 58.5q-88 0 -137 -59t-49 -144q0 -86 49 -145t137 -59zM305 -4q-117 0 -186 77.5t-69 190.5t69 190.5t186 77.5q118 0 186.5 -77.5t68.5 -190.5t-68.5 -190.5t-186.5 -77.5z" />
    <glyph glyph-name="uni043F" unicode="&#x43f;" horiz-adv-x="573" 
d="M70 0v528h433v-528h-69v463h-294v-463h-70z" />
    <glyph glyph-name="uni0440" unicode="&#x440;" 
d="M294 61q88 0 134 58.5t46 145.5q0 88 -41 145t-128 57q-45 0 -93.5 -22t-71.5 -51v-261q50 -72 154 -72zM70 -172v700h58l6 -54q32 27 78.5 43t92.5 16q116 0 177 -76.5t61 -191.5q0 -114 -66 -191.5t-183 -77.5q-90 0 -154 52v-220h-70z" />
    <glyph glyph-name="uni0441" unicode="&#x441;" horiz-adv-x="507" 
d="M315 -5q-120 -1 -192.5 74.5t-72.5 194.5q0 120 70.5 195t194.5 74q96 -2 162 -40l-32 -57q-53 30 -128 32q-96 1 -147 -55t-51 -149q0 -92 52.5 -148.5t145.5 -55.5q72 0 128 32l32 -57q-66 -38 -162 -40z" />
    <glyph glyph-name="uni0442" unicode="&#x442;" horiz-adv-x="466" 
d="M198 0v463h-178v65h426v-65h-178v-463h-70z" />
    <glyph glyph-name="uni0443" unicode="&#x443;" horiz-adv-x="550" 
d="M119 -172l-3 65q55 -2 82 18q26 18 47 74l3 8l-228 535h74l189 -444l173 444h74l-220 -566q-29 -72 -69 -102q-43 -34 -122 -32z" />
    <glyph glyph-name="uni0444" unicode="&#x444;" horiz-adv-x="706" 
d="M318 59v407q-90 -6 -144.5 -60.5t-54.5 -142.5q0 -89 54.5 -144t144.5 -60zM387 59q91 5 145.5 60t54.5 144q0 88 -54.5 142.5t-145.5 60.5v-407zM318 -172v170q-122 7 -195 77.5t-73 187.5q0 115 74.5 187.5t193.5 77.5v172h69v-172q120 -5 194.5 -77.5t74.5 -187.5
q0 -117 -73.5 -187.5t-195.5 -77.5v-170h-69z" />
    <glyph glyph-name="uni0445" unicode="&#x445;" horiz-adv-x="503" 
d="M10 0l199 276l-182 252h85l139 -199l140 199h85l-182 -252l199 -276h-85l-157 221l-157 -221h-84z" />
    <glyph glyph-name="uni0446" unicode="&#x446;" horiz-adv-x="613" 
d="M517 -139l-4 139h-443v528h70v-463h293v463h69v-463h81v-204h-66z" />
    <glyph glyph-name="uni0447" unicode="&#x447;" horiz-adv-x="537" 
d="M397 -1v219q-63 -22 -133 -24q-89 -2 -146.5 43.5t-57.5 143.5v148h69v-148q0 -65 36.5 -94.5t95.5 -30.5q71 0 136 31v242h70v-530h-70z" />
    <glyph glyph-name="uni0448" unicode="&#x448;" horiz-adv-x="858" 
d="M70 0v528h70v-463h254v463h69v-463h255v463h70v-528h-718z" />
    <glyph glyph-name="uni0449" unicode="&#x449;" horiz-adv-x="898" 
d="M803 -139l-4 139h-729v528h70v-463h255v463h69v-463h254v463h70v-463h80v-204h-65z" />
    <glyph glyph-name="uni044A" unicode="&#x44a;" horiz-adv-x="576" 
d="M217 65h155q44 0 69.5 30t25.5 73t-25.5 73t-71.5 30h-153v-206zM148 0v466h-128v62h197v-191h153q76 0 121 -49t45 -120t-44.5 -119.5t-119.5 -48.5h-224z" />
    <glyph glyph-name="uni044B" unicode="&#x44b;" horiz-adv-x="692" 
d="M139 65h155q44 0 69.5 30t25.5 73t-26 73t-71 30h-153v-206zM70 0v528h69v-191h153q76 0 121 -49t45 -120t-44.5 -119.5t-119.5 -48.5h-224zM552 0v528h70v-528h-70z" />
    <glyph glyph-name="uni044C" unicode="&#x44c;" horiz-adv-x="478" 
d="M119 65h155q44 0 69.5 30t25.5 73t-25.5 73t-71.5 30h-153v-206zM50 0v528h69v-191h153q76 0 121 -49t45 -120t-44.5 -119.5t-119.5 -48.5h-224z" />
    <glyph glyph-name="uni044D" unicode="&#x44d;" horiz-adv-x="508" 
d="M193 -5q-96 2 -163 40l32 57q58 -32 129 -32q85 -1 138 47t58 127h-260v65h260q-7 78 -58 124t-138 45q-75 -2 -129 -32l-32 57q67 38 163 40q124 1 194.5 -74t70.5 -195q0 -119 -72.5 -194.5t-192.5 -74.5z" />
    <glyph glyph-name="uni044E" unicode="&#x44e;" horiz-adv-x="800" 
d="M501 60q88 0 134 58.5t46 145.5q0 86 -46.5 144.5t-133.5 58.5t-133 -58.5t-46 -144.5q0 -87 46 -145.5t133 -58.5zM501 -4q-109 0 -173.5 67.5t-73.5 170.5h-115v-234h-69v528h69v-229h116q10 102 74.5 167.5t171.5 65.5q117 0 183 -77t66 -191t-66 -191t-183 -77z" />
    <glyph glyph-name="uni044F" unicode="&#x44f;" horiz-adv-x="509" 
d="M203 278h167v187h-169q-40 0 -62.5 -27.5t-22.5 -65.5q0 -39 23 -66.5t64 -27.5zM20 0l151 217q-58 11 -91 54t-33 101q0 65 42 110.5t112 45.5h238v-528h-69v215h-120l-149 -215h-81z" />
    <glyph glyph-name="uni0451" unicode="&#x451;" horiz-adv-x="573" 
d="M376 602q-21 0 -35 14.5t-14 35.5t14 35.5t35 14.5t34.5 -14.5t13.5 -35.5t-13.5 -35.5t-34.5 -14.5zM207 602q-22 0 -36 14.5t-14 35.5t14.5 35.5t35.5 14.5q20 0 34 -15t14 -35q0 -21 -13.5 -35.5t-34.5 -14.5zM120 296h337q-10 171 -165 171q-78 0 -121 -47t-51 -124z
M313 -4q-125 0 -194 73.5t-69 193.5q0 116 62.5 192.5t181.5 76.5q120 0 177.5 -76.5t55.5 -192.5l-1 -32h-406q8 -81 58 -126t135 -45q87 0 159 32l19 -62q-80 -34 -178 -34z" />
    <glyph glyph-name="uni0454" unicode="&#x454;" horiz-adv-x="507" 
d="M315 -5q-120 -1 -192.5 75t-72.5 194q0 120 70.5 195t194.5 74q92 0 162 -41l-31 -56q-55 31 -129 33q-87 1 -138 -45t-58 -125h260v-65h-260q5 -79 57.5 -127t138.5 -47q74 0 129 33l31 -57q-67 -39 -162 -41z" />
    <glyph glyph-name="endash" unicode="&#x2013;" horiz-adv-x="626" 
d="M40 292v65h546v-65h-546z" />
    <glyph glyph-name="emdash" unicode="&#x2014;" horiz-adv-x="840" 
d="M40 306v51h760v-51h-760z" />
    <glyph glyph-name="quoteleft" unicode="&#x2018;" horiz-adv-x="258" 
d="M50 455l108 245l50 -12l-64 -233h-94z" />
    <glyph glyph-name="quoteright" unicode="&#x2019;" horiz-adv-x="259" 
d="M101 455l-51 12l65 233h94z" />
    <glyph glyph-name="quotedblleft" unicode="&#x201c;" horiz-adv-x="407" 
d="M199 455l108 245l50 -12l-64 -233h-94zM50 455l107 245l51 -12l-64 -233h-94z" />
    <glyph glyph-name="quotedblright" unicode="&#x201d;" horiz-adv-x="408" 
d="M101 455l-51 12l64 233h95zM250 455l-51 12l65 233h94z" />
    <glyph glyph-name="bullet" unicode="&#x2022;" horiz-adv-x="490" 
d="M245 203q-52 0 -88.5 36.5t-36.5 89.5q0 52 36.5 88.5t88.5 36.5t88.5 -36.5t36.5 -88.5t-36.5 -89t-88.5 -37z" />
    <glyph glyph-name="ellipsis" unicode="&#x2026;" horiz-adv-x="664" 
d="M560 -4q-23 0 -38 16t-15 39t15 39t38 16t38.5 -16t15.5 -39t-15 -39t-39 -16zM332 -4q-24 0 -39 16t-15 39t15 39t39 16q23 0 38 -16t15 -39t-15 -39t-38 -16zM103 -4q-23 0 -38 16t-15 39t15 39t38 16t38 -16t15 -39t-15 -39t-38 -16z" />
    <glyph glyph-name="Euro" unicode="&#x20ac;" horiz-adv-x="675" 
d="M461 -6q-136 1 -227.5 72t-119.5 189h-114l11 57h94q-2 20 -2 62h-80l11 57h76q25 123 118 198.5t233 76.5q99 0 174 -24l-17 -72q-77 23 -154 23q-109 -1 -180.5 -55t-94.5 -147h261l-11 -57h-259q-1 -28 2 -62h245l-11 -57h-223q25 -87 96 -137.5t175 -50.5
q81 0 154 22l17 -72q-82 -25 -174 -23z" />
    <glyph glyph-name="uni20BD" unicode="&#x20bd;" horiz-adv-x="612" 
d="M126 0v153h-106v60h106v60h-106v65h106v362h214q98 0 157.5 -62t59.5 -155q0 -91 -59.5 -150.5t-157.5 -59.5h-137v-60h146v-60h-146v-153h-77zM203 338h137q64 0 102 42t39 103q0 62 -38 103t-103 41h-137v-289z" />
    <glyph glyph-name="uni2116" unicode="&#x2116;" horiz-adv-x="985" 
d="M834 410q32 0 51 20.5t19 51.5t-19 51t-51 20t-51 -20t-19 -51t19 -51.5t51 -20.5zM834 361q-53 0 -87.5 35t-34.5 86t34.5 86t87.5 35t87 -35t34 -86q0 -52 -34 -86.5t-87 -34.5zM724 277v49h220v-49h-220zM95 0v700h94l377 -587v587h74v-700h-85l-385 600v-600h-75z
" />
    <glyph glyph-name="_8" horiz-adv-x="500" 
 />
    </font>
</defs>
</svg>
