<svg width="582" height="522" viewBox="0 0 582 522" fill="none" xmlns="http://www.w3.org/2000/svg">
<g opacity="0.5">
<g filter="url(#filter0_f_2187_19032)">
<path d="M415.469 297.794C469.291 222.393 474.043 285.44 440.125 227.501C430.498 140.59 354.539 118.576 295.522 226.681C248.309 313.164 207.886 329.672 264.349 357.353C313.055 376.797 361.648 373.196 415.469 297.794Z" fill="url(#paint0_linear_2187_19032)" fill-opacity="0.6"/>
</g>
<g filter="url(#filter1_f_2187_19032)">
<path d="M119.791 283.974C119.791 283.974 155.141 112.562 222.479 131.31C276.635 146.388 279.052 258.809 279.052 258.809L211.542 295.009L119.791 283.974Z" fill="url(#paint1_linear_2187_19032)" fill-opacity="0.6"/>
</g>
<g filter="url(#filter2_f_2187_19032)">
<path d="M186.214 316.663C182.109 297.663 197.163 220.023 231.674 213.781C262.339 217.865 276.754 215.266 282.937 212.264C290.957 208.369 285.123 203.798 282.937 212.264C280.781 220.609 282.172 241.626 303.88 288.452C352.44 393.202 297.527 426.352 213.055 383.971C201.244 375.787 194.303 372.755 190.461 372.012C182.74 370.518 187.533 378.268 190.461 372.012C192.838 366.934 193.985 352.628 186.214 316.663Z" fill="url(#paint2_linear_2187_19032)" fill-opacity="0.6"/>
</g>
</g>
<defs>
<filter id="filter0_f_2187_19032" x="117.014" y="33.92" width="464.407" height="453.215" filterUnits="userSpaceOnUse" color-interpolation-filters="sRGB">
<feFlood flood-opacity="0" result="BackgroundImageFix"/>
<feBlend mode="normal" in="SourceGraphic" in2="BackgroundImageFix" result="shape"/>
<feGaussianBlur stdDeviation="59.8953" result="effect1_foregroundBlur_2187_19032"/>
</filter>
<filter id="filter1_f_2187_19032" x="2.28882e-05" y="10.0865" width="398.842" height="404.713" filterUnits="userSpaceOnUse" color-interpolation-filters="sRGB">
<feFlood flood-opacity="0" result="BackgroundImageFix"/>
<feBlend mode="normal" in="SourceGraphic" in2="BackgroundImageFix" result="shape"/>
<feGaussianBlur stdDeviation="59.8953" result="effect1_foregroundBlur_2187_19032"/>
</filter>
<filter id="filter2_f_2187_19032" x="65.7641" y="87.6891" width="376.099" height="433.996" filterUnits="userSpaceOnUse" color-interpolation-filters="sRGB">
<feFlood flood-opacity="0" result="BackgroundImageFix"/>
<feBlend mode="normal" in="SourceGraphic" in2="BackgroundImageFix" result="shape"/>
<feGaussianBlur stdDeviation="59.8953" result="effect1_foregroundBlur_2187_19032"/>
</filter>
<linearGradient id="paint0_linear_2187_19032" x1="183.526" y1="238.977" x2="371.888" y2="244.36" gradientUnits="userSpaceOnUse">
<stop offset="0.572115" stop-color="#0CBDC6"/>
<stop offset="1" stop-color="white" stop-opacity="0"/>
</linearGradient>
<linearGradient id="paint1_linear_2187_19032" x1="212.205" y1="168.102" x2="255.906" y2="282.338" gradientUnits="userSpaceOnUse">
<stop stop-color="#0CBDC6"/>
<stop offset="1" stop-color="white" stop-opacity="0"/>
</linearGradient>
<linearGradient id="paint2_linear_2187_19032" x1="298.322" y1="325.698" x2="231.878" y2="186.608" gradientUnits="userSpaceOnUse">
<stop stop-color="#19D6A1"/>
<stop offset="1" stop-color="white"/>
</linearGradient>
</defs>
</svg>
